  0
SECTION
  2
HEADER
  9
$ACADVER
  1
AC1032
  9
$ACADMAINTVER
 90
      251
  9
$DWGCODEPAGE
  3
ANSI_1252
  9
$REQUIREDVERSIONS
160
                 0
  9
$INSBASE
 10
0.0
 20
0.0
 30
0.0
  9
$EXTMIN
 10
1.000000000000000E+20
 20
1.000000000000000E+20
 30
1.000000000000000E+20
  9
$EXTMAX
 10
-1.000000000000000E+20
 20
-1.000000000000000E+20
 30
-1.000000000000000E+20
  9
$LIMMIN
 10
0.0
 20
0.0
  9
$LIMMAX
 10
12.0
 20
9.0
  9
$ORTHOMODE
 70
     0
  9
$REGENMODE
 70
     1
  9
$FILLMODE
 70
     1
  9
$QTEXTMODE
 70
     0
  9
$MIRRTEXT
 70
     0
  9
$LTSCALE
 40
1.0
  9
$ATTMODE
 70
     1
  9
$TEXTSIZE
 40
0.2
  9
$TRACEWID
 40
0.05
  9
$TEXTSTYLE
  7
Standard
  9
$CLAYER
  8
0
  9
$CELTYPE
  6
ByLayer
  9
$CECOLOR
 62
   256
  9
$CELTSCALE
 40
1.0
  9
$DISPSILH
 70
     0
  9
$DIMSCALE
 40
1.0
  9
$DIMASZ
 40
0.18
  9
$DIMEXO
 40
0.0625
  9
$DIMDLI
 40
0.38
  9
$DIMRND
 40
0.0
  9
$DIMDLE
 40
0.0
  9
$DIMEXE
 40
0.18
  9
$DIMTP
 40
0.0
  9
$DIMTM
 40
0.0
  9
$DIMTXT
 40
0.18
  9
$DIMCEN
 40
0.09
  9
$DIMTSZ
 40
0.0
  9
$DIMTOL
 70
     0
  9
$DIMLIM
 70
     0
  9
$DIMTIH
 70
     1
  9
$DIMTOH
 70
     1
  9
$DIMSE1
 70
     0
  9
$DIMSE2
 70
     0
  9
$DIMTAD
 70
     0
  9
$DIMZIN
 70
     0
  9
$DIMBLK
  1

  9
$DIMASO
 70
     1
  9
$DIMSHO
 70
     1
  9
$DIMPOST
  1

  9
$DIMAPOST
  1

  9
$DIMALT
 70
     0
  9
$DIMALTD
 70
     2
  9
$DIMALTF
 40
25.4
  9
$DIMLFAC
 40
1.0
  9
$DIMTOFL
 70
     0
  9
$DIMTVP
 40
0.0
  9
$DIMTIX
 70
     0
  9
$DIMSOXD
 70
     0
  9
$DIMSAH
 70
     0
  9
$DIMBLK1
  1

  9
$DIMBLK2
  1

  9
$DIMSTYLE
  2
Standard
  9
$DIMCLRD
 70
     0
  9
$DIMCLRE
 70
     0
  9
$DIMCLRT
 70
     0
  9
$DIMTFAC
 40
1.0
  9
$DIMGAP
 40
0.09
  9
$DIMJUST
 70
     0
  9
$DIMSD1
 70
     0
  9
$DIMSD2
 70
     0
  9
$DIMTOLJ
 70
     1
  9
$DIMTZIN
 70
     0
  9
$DIMALTZ
 70
     0
  9
$DIMALTTZ
 70
     0
  9
$DIMUPT
 70
     0
  9
$DIMDEC
 70
     4
  9
$DIMTDEC
 70
     4
  9
$DIMALTU
 70
     2
  9
$DIMALTTD
 70
     2
  9
$DIMTXSTY
  7
Standard
  9
$DIMAUNIT
 70
     0
  9
$DIMADEC
 70
     0
  9
$DIMALTRND
 40
0.0
  9
$DIMAZIN
 70
     0
  9
$DIMDSEP
 70
    46
  9
$DIMATFIT
 70
     3
  9
$DIMFRAC
 70
     0
  9
$DIMLDRBLK
  1

  9
$DIMLUNIT
 70
     2
  9
$DIMLWD
 70
    -2
  9
$DIMLWE
 70
    -2
  9
$DIMTMOVE
 70
     0
  9
$DIMFXL
 40
1.0
  9
$DIMFXLON
 70
     0
  9
$DIMJOGANG
 40
0.7853981633974483
  9
$DIMTFILL
 70
     0
  9
$DIMTFILLCLR
 70
     0
  9
$DIMARCSYM
 70
     0
  9
$DIMLTYPE
  6

  9
$DIMLTEX1
  6

  9
$DIMLTEX2
  6

  9
$DIMTXTDIRECTION
 70
     0
  9
$LUNITS
 70
     2
  9
$LUPREC
 70
     4
  9
$SKETCHINC
 40
0.1
  9
$FILLETRAD
 40
0.0
  9
$AUNITS
 70
     0
  9
$AUPREC
 70
     0
  9
$MENU
  1
.
  9
$ELEVATION
 40
0.0
  9
$PELEVATION
 40
0.0
  9
$THICKNESS
 40
0.0
  9
$LIMCHECK
 70
     0
  9
$CHAMFERA
 40
0.0
  9
$CHAMFERB
 40
0.0
  9
$CHAMFERC
 40
0.0
  9
$CHAMFERD
 40
0.0
  9
$SKPOLY
 70
     0
  9
$TDCREATE
 40
2460623.404398148
  9
$TDUCREATE
 40
2460623.404398148
  9
$TDUPDATE
 40
2460623.404398148
  9
$TDUUPDATE
 40
2460623.404398148
  9
$TDINDWG
 40
0.0000000000
  9
$TDUSRTIMER
 40
0.0000000000
  9
$USRTIMER
 70
     1
  9
$ANGBASE
 50
0.0
  9
$ANGDIR
 70
     0
  9
$PDMODE
 70
     0
  9
$PDSIZE
 40
0.0
  9
$PLINEWID
 40
0.0
  9
$SPLFRAME
 70
     0
  9
$SPLINETYPE
 70
     6
  9
$SPLINESEGS
 70
     8
  9
$HANDSEED
  5
A3
  9
$SURFTAB1
 70
     6
  9
$SURFTAB2
 70
     6
  9
$SURFTYPE
 70
     6
  9
$SURFU
 70
     6
  9
$SURFV
 70
     6
  9
$UCSBASE
  2

  9
$UCSNAME
  2

  9
$UCSORG
 10
0.0
 20
0.0
 30
0.0
  9
$UCSXDIR
 10
1.0
 20
0.0
 30
0.0
  9
$UCSYDIR
 10
0.0
 20
1.0
 30
0.0
  9
$UCSORTHOREF
  2

  9
$UCSORTHOVIEW
 70
     0
  9
$UCSORGTOP
 10
0.0
 20
0.0
 30
0.0
  9
$UCSORGBOTTOM
 10
0.0
 20
0.0
 30
0.0
  9
$UCSORGLEFT
 10
0.0
 20
0.0
 30
0.0
  9
$UCSORGRIGHT
 10
0.0
 20
0.0
 30
0.0
  9
$UCSORGFRONT
 10
0.0
 20
0.0
 30
0.0
  9
$UCSORGBACK
 10
0.0
 20
0.0
 30
0.0
  9
$PUCSBASE
  2

  9
$PUCSNAME
  2

  9
$PUCSORG
 10
0.0
 20
0.0
 30
0.0
  9
$PUCSXDIR
 10
1.0
 20
0.0
 30
0.0
  9
$PUCSYDIR
 10
0.0
 20
1.0
 30
0.0
  9
$PUCSORTHOREF
  2

  9
$PUCSORTHOVIEW
 70
     0
  9
$PUCSORGTOP
 10
0.0
 20
0.0
 30
0.0
  9
$PUCSORGBOTTOM
 10
0.0
 20
0.0
 30
0.0
  9
$PUCSORGLEFT
 10
0.0
 20
0.0
 30
0.0
  9
$PUCSORGRIGHT
 10
0.0
 20
0.0
 30
0.0
  9
$PUCSORGFRONT
 10
0.0
 20
0.0
 30
0.0
  9
$PUCSORGBACK
 10
0.0
 20
0.0
 30
0.0
  9
$USERI1
 70
     0
  9
$USERI2
 70
     0
  9
$USERI3
 70
     0
  9
$USERI4
 70
     0
  9
$USERI5
 70
     0
  9
$USERR1
 40
0.0
  9
$USERR2
 40
0.0
  9
$USERR3
 40
0.0
  9
$USERR4
 40
0.0
  9
$USERR5
 40
0.0
  9
$WORLDVIEW
 70
     1
  9
$SHADEDGE
 70
     3
  9
$SHADEDIF
 70
    70
  9
$TILEMODE
 70
     1
  9
$MAXACTVP
 70
    64
  9
$PINSBASE
 10
0.0
 20
0.0
 30
0.0
  9
$PLIMCHECK
 70
     0
  9
$PEXTMIN
 10
1.000000000000000E+20
 20
1.000000000000000E+20
 30
1.000000000000000E+20
  9
$PEXTMAX
 10
-1.000000000000000E+20
 20
-1.000000000000000E+20
 30
-1.000000000000000E+20
  9
$PLIMMIN
 10
0.0
 20
0.0
  9
$PLIMMAX
 10
12.0
 20
9.0
  9
$UNITMODE
 70
     0
  9
$VISRETAIN
 70
     1
  9
$PLINEGEN
 70
     0
  9
$PSLTSCALE
 70
     1
  9
$TREEDEPTH
 70
  3020
  9
$CMLSTYLE
  2
Standard
  9
$CMLJUST
 70
     0
  9
$CMLSCALE
 40
1.0
  9
$PROXYGRAPHICS
 70
     1
  9
$MEASUREMENT
 70
     0
  9
$CELWEIGHT
370
    -1
  9
$ENDCAPS
280
     0
  9
$JOINSTYLE
280
     0
  9
$LWDISPLAY
290
     1
  9
$INSUNITS
 70
     4
  9
$HYPERLINKBASE
  1

  9
$STYLESHEET
  1

  9
$XEDIT
290
     1
  9
$CEPSNTYPE
380
     0
  9
$PSTYLEMODE
290
     1
  9
$FINGERPRINTGUID
  2
{29A27F6A-EBFD-5547-B530-267C95306899}
  9
$VERSIONGUID
  2
{6C9F8D23-97E5-B048-ADA5-0EB1BC7F965B}
  9
$EXTNAMES
290
     1
  9
$PSVPSCALE
 40
0.0
  9
$OLESTARTUP
290
     0
  9
$SORTENTS
280
   127
  9
$INDEXCTL
280
     0
  9
$HIDETEXT
280
     1
  9
$XCLIPFRAME
280
     2
  9
$HALOGAP
280
     0
  9
$OBSCOLOR
 70
   257
  9
$OBSLTYPE
280
     0
  9
$INTERSECTIONDISPLAY
280
     0
  9
$INTERSECTIONCOLOR
 70
   257
  9
$DIMASSOC
280
     2
  9
$PROJECTNAME
  1

  9
$CAMERADISPLAY
290
     0
  9
$LENSLENGTH
 40
50.0
  9
$CAMERAHEIGHT
 40
0.0
  9
$STEPSPERSEC
 40
2.0
  9
$STEPSIZE
 40
6.0
  9
$3DDWFPREC
 40
2.0
  9
$PSOLWIDTH
 40
0.25
  9
$PSOLHEIGHT
 40
4.0
  9
$LOFTANG1
 40
1.570796326794896
  9
$LOFTANG2
 40
1.570796326794896
  9
$LOFTMAG1
 40
0.0
  9
$LOFTMAG2
 40
0.0
  9
$LOFTPARAM
 70
     7
  9
$LOFTNORMALS
280
     1
  9
$LATITUDE
 40
37.795
  9
$LONGITUDE
 40
-122.394
  9
$NORTHDIRECTION
 40
0.0
  9
$TIMEZONE
 70
 -8000
  9
$LIGHTGLYPHDISPLAY
280
     1
  9
$TILEMODELIGHTSYNCH
280
     1
  9
$CMATERIAL
347
11
  9
$SOLIDHIST
280
     0
  9
$SHOWHIST
280
     1
  9
$DWFFRAME
280
     2
  9
$DGNFRAME
280
     0
  9
$REALWORLDSCALE
290
     1
  9
$INTERFERECOLOR
 62
     1
  9
$INTERFEREOBJVS
345
33
  9
$INTERFEREVPVS
346
30
  9
$CSHADOW
280
     0
  9
$SHADOWPLANELOCATION
 40
0.0
  0
ENDSEC
  0
SECTION
  2
CLASSES
  0
CLASS
  1
ACDBDICTIONARYWDFLT
  2
AcDbDictionaryWithDefault
  3
ObjectDBX Classes
 90
        0
 91
        1
280
     0
281
     0
  0
CLASS
  1
MATERIAL
  2
AcDbMaterial
  3
ObjectDBX Classes
 90
     1153
 91
        3
280
     0
281
     0
  0
CLASS
  1
VISUALSTYLE
  2
AcDbVisualStyle
  3
ObjectDBX Classes
 90
     4095
 91
       24
280
     0
281
     0
  0
CLASS
  1
SCALE
  2
AcDbScale
  3
ObjectDBX Classes
 90
     1153
 91
       17
280
     0
281
     0
  0
CLASS
  1
TABLESTYLE
  2
AcDbTableStyle
  3
ObjectDBX Classes
 90
     4095
 91
        1
280
     0
281
     0
  0
CLASS
  1
MLEADERSTYLE
  2
AcDbMLeaderStyle
  3
ACDB_MLEADERSTYLE_CLASS
 90
     4095
 91
        1
280
     0
281
     0
  0
CLASS
  1
ACDBSECTIONVIEWSTYLE
  2
AcDbSectionViewStyle
  3
ObjectDBX Classes
 90
     1025
 91
        1
280
     0
281
     0
  0
CLASS
  1
ACDBDETAILVIEWSTYLE
  2
AcDbDetailViewStyle
  3
ObjectDBX Classes
 90
     1025
 91
        1
280
     0
281
     0
  0
CLASS
  1
DICTIONARYVAR
  2
AcDbDictionaryVar
  3
ObjectDBX Classes
 90
        0
 91
        5
280
     0
281
     0
  0
CLASS
  1
CELLSTYLEMAP
  2
AcDbCellStyleMap
  3
ObjectDBX Classes
 90
     1152
 91
        1
280
     0
281
     0
  0
ENDSEC
  0
SECTION
  2
TABLES
  0
TABLE
  2
VPORT
  5
8
330
0
100
AcDbSymbolTable
 70
     1
  0
VPORT
  5
57
330
8
100
AcDbSymbolTableRecord
100
AcDbViewportTableRecord
  2
*Active
 70
     0
 10
0.0
 20
0.0
 11
1.0
 21
1.0
 12
0.0
 22
0.0
 13
0.0
 23
0.0
 14
1.0
 24
1.0
 15
0.0
 25
0.0
 16
0.0
 26
0.0
 36
1.0
 17
104.9999970067687
 27
148.5000119155985
 37
0.0
 40
302.940024307821
 41
0.7070706301791173
 42
50.0
 43
0.0
 44
0.0
 50
0.0
 51
0.0
 71
     0
 72
   100
 73
     1
 74
     1
 75
     0
 76
     0
 77
     0
 78
     0
281
     0
 65
     1
110
0.0
120
0.0
130
0.0
111
1.0
121
0.0
131
0.0
112
0.0
122
1.0
132
0.0
 79
     0
146
0.0
 60
     3
 61
     5
292
     1
282
     1
141
0.0
142
0.0
 63
   250
421
  3355443
  0
ENDTAB
  0
TABLE
  2
LTYPE
  5
5
330
0
100
AcDbSymbolTable
 70
     1
  0
LTYPE
  5
5B
330
5
100
AcDbSymbolTableRecord
100
AcDbLinetypeTableRecord
  2
ByBlock
 70
     0
  3

 72
    65
 73
     0
 40
0.0
  0
LTYPE
  5
5C
330
5
100
AcDbSymbolTableRecord
100
AcDbLinetypeTableRecord
  2
ByLayer
 70
     0
  3

 72
    65
 73
     0
 40
0.0
  0
LTYPE
  5
5D
330
5
100
AcDbSymbolTableRecord
100
AcDbLinetypeTableRecord
  2
Continuous
 70
     0
  3
Solid line
 72
    65
 73
     0
 40
0.0
  0
ENDTAB
  0
TABLE
  2
LAYER
  5
2
330
0
100
AcDbSymbolTable
 70
     2
  0
LAYER
  5
54
330
2
100
AcDbSymbolTableRecord
100
AcDbLayerTableRecord
  2
0
 70
     0
 62
     7
  6
Continuous
370
     0
390
F
347
21
348
0
  0
LAYER
  5
82
330
2
100
AcDbSymbolTableRecord
100
AcDbLayerTableRecord
  2
Layer 2
 70
     1
 62
     7
  6
Continuous
370
     0
390
F
347
21
348
0
  0
ENDTAB
  0
TABLE
  2
STYLE
  5
3
330
0
100
AcDbSymbolTable
 70
     2
  0
STYLE
  5
55
330
3
100
AcDbSymbolTableRecord
100
AcDbTextStyleTableRecord
  2
Standard
 70
     0
 40
0.0
 41
1.0
 50
0.0
 71
     0
 42
0.2
  3
txt
  4

  0
STYLE
  5
5A
330
3
100
AcDbSymbolTableRecord
100
AcDbTextStyleTableRecord
  2
Annotative
 70
     0
 40
0.0
 41
1.0
 50
0.0
 71
     0
 42
0.2
  3
txt
  4

1001
AcadAnnotative
1000
AnnotativeData
1002
{
1070
     1
1070
     1
1002
}
  0
ENDTAB
  0
TABLE
  2
VIEW
  5
6
330
0
100
AcDbSymbolTable
 70
     0
  0
ENDTAB
  0
TABLE
  2
UCS
  5
7
330
0
100
AcDbSymbolTable
 70
     0
  0
ENDTAB
  0
TABLE
  2
APPID
  5
9
330
0
100
AcDbSymbolTable
 70
     2
  0
APPID
  5
56
330
9
100
AcDbSymbolTableRecord
100
AcDbRegAppTableRecord
  2
ACAD
 70
     0
  0
APPID
  5
5E
330
9
100
AcDbSymbolTableRecord
100
AcDbRegAppTableRecord
  2
AcadAnnotative
 70
     0
  0
ENDTAB
  0
TABLE
  2
DIMSTYLE
  5
A
330
0
100
AcDbSymbolTable
 70
     2
100
AcDbDimStyleTable
 71
     0
  0
DIMSTYLE
105
58
330
A
100
AcDbSymbolTableRecord
100
AcDbDimStyleTableRecord
  2
Standard
 70
     0
340
55
  0
DIMSTYLE
105
59
330
A
100
AcDbSymbolTableRecord
100
AcDbDimStyleTableRecord
  2
Annotative
 70
     0
340
55
1001
AcadAnnotative
1000
AnnotativeData
1002
{
1070
     1
1070
     1
1002
}
  0
ENDTAB
  0
TABLE
  2
BLOCK_RECORD
  5
1
330
0
100
AcDbSymbolTable
 70
     3
  0
BLOCK_RECORD
  5
70
330
1
100
AcDbSymbolTableRecord
100
AcDbBlockTableRecord
  2
*Model_Space
340
73
 70
     0
280
     1
281
     0
  0
BLOCK_RECORD
  5
6C
330
1
100
AcDbSymbolTableRecord
100
AcDbBlockTableRecord
  2
*Paper_Space
340
6F
 70
     0
280
     1
281
     0
  0
BLOCK_RECORD
  5
74
330
1
100
AcDbSymbolTableRecord
100
AcDbBlockTableRecord
  2
*Paper_Space0
340
77
 70
     0
280
     1
281
     0
  0
BLOCK_RECORD
  5
78
330
1
100
AcDbSymbolTableRecord
100
AcDbBlockTableRecord
  2
Block_0
340
0
102
{BLKREFS
331
79
102
}
 70
     0
280
     1
281
     0
  0
BLOCK_RECORD
  5
86
330
1
100
AcDbSymbolTableRecord
100
AcDbBlockTableRecord
  2
Block_1
340
0
102
{BLKREFS
331
87
102
}
 70
     0
280
     1
281
     0
  0
ENDTAB
  0
ENDSEC
  0
SECTION
  2
BLOCKS
  0
BLOCK
  5
71
330
70
100
AcDbEntity
  8
0
100
AcDbBlockBegin
  2
*Model_Space
 70
     0
 10
0.0
 20
0.0
 30
0.0
  3
*Model_Space
  1

  0
ENDBLK
  5
72
330
70
100
AcDbEntity
  8
0
100
AcDbBlockEnd
  0
BLOCK
  5
6D
330
6C
100
AcDbEntity
 67
     1
  8
0
100
AcDbBlockBegin
  2
*Paper_Space
 70
     0
 10
0.0
 20
0.0
 30
0.0
  3
*Paper_Space
  1

  0
ENDBLK
  5
6E
330
6C
100
AcDbEntity
 67
     1
  8
0
100
AcDbBlockEnd
  0
BLOCK
  5
75
330
74
100
AcDbEntity
 67
     1
  8
0
100
AcDbBlockBegin
  2
*Paper_Space0
 70
     0
 10
0.0
 20
0.0
 30
0.0
  3
*Paper_Space0
  1

  0
ENDBLK
  5
76
330
74
100
AcDbEntity
 67
     1
  8
0
100
AcDbBlockEnd
  0
BLOCK
  5
7A
330
78
100
AcDbEntity
  8
0
100
AcDbBlockBegin
  2
Block_0
 70
     0
 10
0.0
 20
0.0
 30
0.0
  3
Block_0
  1

  0
SPLINE
  5
7C
330
78
100
AcDbEntity
  8
0
100
AcDbSpline
210
0.0
220
0.0
230
1.0
 70
     9
 71
     3
 72
   122
 73
   118
 74
     0
 42
0.0000000001
 43
0.0000000001
 40
0.0
 40
0.0
 40
0.0
 40
0.0
 40
1.0
 40
1.0
 40
1.0
 40
2.0
 40
2.0
 40
2.0
 40
3.0
 40
3.0
 40
3.0
 40
4.0
 40
4.0
 40
4.0
 40
5.0
 40
5.0
 40
5.0
 40
6.0
 40
6.0
 40
6.0
 40
7.0
 40
7.0
 40
7.0
 40
8.0
 40
8.0
 40
8.0
 40
9.0
 40
9.0
 40
9.0
 40
10.0
 40
10.0
 40
10.0
 40
11.0
 40
11.0
 40
11.0
 40
12.0
 40
12.0
 40
12.0
 40
13.0
 40
13.0
 40
13.0
 40
14.0
 40
14.0
 40
14.0
 40
15.0
 40
15.0
 40
15.0
 40
16.0
 40
16.0
 40
16.0
 40
17.0
 40
17.0
 40
17.0
 40
18.0
 40
18.0
 40
18.0
 40
19.0
 40
19.0
 40
19.0
 40
20.0
 40
20.0
 40
20.0
 40
21.0
 40
21.0
 40
21.0
 40
22.0
 40
22.0
 40
22.0
 40
23.0
 40
23.0
 40
23.0
 40
24.0
 40
24.0
 40
24.0
 40
25.0
 40
25.0
 40
25.0
 40
26.0
 40
26.0
 40
26.0
 40
27.0
 40
27.0
 40
27.0
 40
28.0
 40
28.0
 40
28.0
 40
29.0
 40
29.0
 40
29.0
 40
30.0
 40
30.0
 40
30.0
 40
31.0
 40
31.0
 40
31.0
 40
32.0
 40
32.0
 40
32.0
 40
33.0
 40
33.0
 40
33.0
 40
34.0
 40
34.0
 40
34.0
 40
35.0
 40
35.0
 40
35.0
 40
36.0
 40
36.0
 40
36.0
 40
37.0
 40
37.0
 40
37.0
 40
38.0
 40
38.0
 40
38.0
 40
39.0
 40
39.0
 40
39.0
 40
39.0
 10
90.06416233905889
 20
171.4288341528441
 30
0.0
 10
90.06416233905889
 20
171.4288341528441
 30
0.0
 10
89.03405725720261
 20
173.2103576238533
 30
0.0
 10
89.03405725720261
 20
173.2103576238533
 30
0.0
 10
89.18221789485484
 20
171.8733375978682
 30
0.0
 10
89.33037853250768
 20
170.536296040036
 30
0.0
 10
89.48560161590464
 20
169.1922135683055
 30
0.0
 10
89.58085850603394
 20
168.3526007348524
 30
0.0
 10
89.67962508718883
 20
167.5094782103734
 30
0.0
 10
89.7784132001905
 20
166.6628029311752
 30
0.0
 10
89.91600170107814
 20
165.4527777375154
 30
0.0
 10
90.06063111586374
 20
164.2356900981106
 30
0.0
 10
90.20526053064934
 20
163.0186024587057
 30
0.0
 10
90.35344270015347
 20
161.7909426825302
 30
0.0
 10
90.5016033378108
 20
160.5597516834823
 30
0.0
 10
90.65329519834053
 20
159.3285606844344
 30
0.0
 10
90.65682642121034
 20
159.275635405042
 30
0.0
 10
90.66388886695317
 20
159.2262413485219
 30
0.0
 10
90.67092978084858
 20
159.1733376009762
 30
0.0
 10
90.80851828174006
 20
158.0409131831217
 30
0.0
 10
90.94963800550328
 20
156.9049790742413
 30
0.0
 10
91.09426742029208
 20
155.7654922106417
 30
0.0
 10
91.7292631135368
 20
150.6960772677615
 30
0.0
 10
92.399549503656
 20
145.5878619369775
 30
0.0
 10
93.11567719557451
 20
140.4337837725438
 30
0.0
 10
93.24973447360067
 20
139.4671761067634
 30
0.0
 10
93.38379175162682
 20
138.4970372181113
 30
0.0
 10
93.52138025252534
 20
137.5268983294585
 30
0.0
 10
93.71540372382302
 20
136.133421801207
 30
0.0
 10
93.91648964086481
 20
134.7399452729548
 30
0.0
 10
94.11757555790659
 20
133.3394062989578
 30
0.0
 10
94.11757555790659
 20
133.3323653850599
 30
0.0
 10
94.12110678077834
 20
133.3253029393144
 30
0.0
 10
94.12110678077834
 20
133.3182404935697
 30
0.0
 10
94.31159902920619
 20
131.9847516904551
 30
0.0
 10
94.50915372337879
 20
130.6547725783654
 30
0.0
 10
94.70317719467905
 20
129.3283246891487
 30
0.0
 10
94.81606866732667
 20
128.5628029404743
 30
0.0
 10
94.92896013997494
 20
127.7972811917998
 30
0.0
 10
95.04538283549495
 20
127.0317594431254
 30
0.0
 10
95.20060591890539
 20
125.9875294696924
 30
0.0
 10
95.35936022518823
 20
124.9397682733869
 30
0.0
 10
95.51809299962426
 20
123.899091054673
 30
0.0
 10
95.83560161218992
 20
121.8141623306786
 30
0.0
 10
96.1566414476286
 20
119.739827275302
 30
0.0
 10
96.48472219696524
 20
117.6725546656695
 30
0.0
 10
96.63288283463478
 20
116.7165191366595
 30
0.0
 10
96.78457469517669
 20
115.7605051394956
 30
0.0
 10
96.93979777859162
 20
114.8080008333573
 30
0.0
 10
96.96802602971555
 20
114.6245494987665
 30
0.0
 10
96.99976397186507
 20
114.4411196960224
 30
0.0
 10
97.02799222298899
 20
114.2541371385592
 30
0.0
 10
97.33843838981693
 20
112.3209218069971
 30
0.0
 10
97.65241577951726
 20
110.3982786122054
 30
0.0
 10
97.96990286024383
 20
108.4826978631585
 30
0.0
 10
98.04399394500423
 20
108.0452568639157
 30
0.0
 10
98.11455380689162
 20
107.6042846418005
 30
0.0
 10
98.1886233598046
 20
107.1668436425577
 30
0.0
 10
98.28741147281718
 20
106.5671171141115
 30
0.0
 10
98.386178053983
 20
105.9709218085378
 30
0.0
 10
98.4884973898686
 20
105.374726502964
 30
0.0
 10
98.65782383292307
 20
104.3587247806626
 30
0.0
 10
98.83068149884991
 20
103.3462542812335
 30
0.0
 10
99.00353916477676
 20
102.3337837818044
 30
0.0
 10
99.69499136033158
 20
98.28741147511317
 30
0.0
 10
100.4040781384028
 20
94.27632986529891
 30
0.0
 10
101.1237370532463
 20
90.30404864338599
 30
0.0
 10
101.3036571649192
 20
89.30921272647205
 30
0.0
 10
101.4835772765915
 20
88.31790803242986
 30
0.0
 10
101.6670286111367
 20
87.33013456126004
 30
0.0
 10
102.2455678022029
 20
84.18689403603277
 30
0.0
 10
102.8311909708619
 20
81.06832900721796
 30
0.0
 10
103.4238550534202
 20
77.97448253850918
 30
0.0
 10
103.5720156910981
 20
77.21247048085905
 30
0.0
 10
103.716666637751
 20
76.45398964608133
 30
0.0
 10
103.8648272754295
 20
75.69553034315037
 30
0.0
 10
104.1470451911464
 20
74.23149395298705
 30
0.0
 10
104.4327943297356
 20
72.7745200085685
 30
0.0
 10
104.7220746911972
 20
71.3246085098947
 30
0.0
 10
104.9055260257457
 20
70.39680123201501
 30
0.0
 10
105.0889558284468
 20
69.47252517700771
 30
0.0
 10
105.275938385867
 20
68.5482491220004
 30
0.0
 10
105.8509678859191
 20
65.65899826142317
 30
0.0
 10
106.4365695227423
 20
62.79091320623281
 30
0.0
 10
107.0292336053115
 20
59.94752517930169
 30
0.0
 10
107.33967977216
 20
58.46232298374958
 30
0.0
 10
107.6501259390078
 20
56.98420476578966
 30
0.0
 10
107.9605721058563
 20
55.5131059298803
 30
0.0
 10
107.9605721058563
 20
55.5131059298803
 30
0.0
 10
108.0981606067696
 20
54.86753809963162
 30
0.0
 10
108.0981606067696
 20
54.86753809963162
 30
0.0
 10
108.2886528552167
 20
53.96440631816504
 30
0.0
 10
108.4791666355106
 20
53.06482729141762
 30
0.0
 10
108.67319010683
 20
52.16877948754193
 30
0.0
 10
109.0577058265973
 20
50.37313112507204
 30
0.0
 10
109.4457743010837
 20
48.5880764312193
 30
0.0
 10
109.8373524665957
 20
46.81008418311131
 30
0.0
 10
110.4229541034278
 20
44.13955382215324
 30
0.0
 10
111.0121084949804
 20
41.49018926658267
 30
0.0
 10
111.6083038004316
 20
38.86199051639898
 30
0.0
 10
127.8219566826732
 20
39.08424223816282
 30
0.0
 10
144.0356310967615
 20
39.30649395992732
 30
0.0
 10
160.2493055108493
 20
39.52874568169181
 30
0.0
 10
147.6516033188427
 20
56.31038715077224
 30
0.0
 10
134.1437499635264
 20
77.53351031501818
 30
0.0
 10
122.5267803291902
 20
103.3779922223274
 30
0.0
 10
116.3919696081379
 20
117.0199243887886
 30
0.0
 10
111.4812874403699
 20
130.4078238268516
 30
0.0
 10
107.5619314984626
 20
143.3442004378341
 30
0.0
 10
107.5619314984626
 20
143.3442004378341
 30
0.0
 10
106.5988550555366
 20
142.7903367430829
 30
0.0
 10
106.5988550555366
 20
142.7903367430829
 30
0.0
 10
106.5988550555366
 20
142.7903367430829
 30
0.0
 10
90.06769356193128
 20
171.4217717070993
 30
0.0
 10
90.06769356193128
 20
171.4217717070993
 30
0.0
 10
90.06416233905889
 20
171.4253029299717
 30
0.0
 10
90.06416233905889
 20
171.4253029299717
 30
0.0
 10
90.06416233905889
 20
171.4288341528441
 30
0.0
  0
HATCH
  5
7D
330
78
100
AcDbEntity
  8
0
 62
     2
420
 16772096
440
 33554687
100
AcDbHatch
 10
0.0
 20
0.0
 30
0.0
210
0.0
220
0.0
230
1.0
  2
SOLID
 70
     1
 71
     1
 91
        1
 92
        1
 93
        1
 72
     4
 94
        3
 73
     0
 74
     0
 95
      122
 96
      118
 40
0.0
 40
0.0
 40
0.0
 40
0.0
 40
1.0
 40
1.0
 40
1.0
 40
2.0
 40
2.0
 40
2.0
 40
3.0
 40
3.0
 40
3.0
 40
4.0
 40
4.0
 40
4.0
 40
5.0
 40
5.0
 40
5.0
 40
6.0
 40
6.0
 40
6.0
 40
7.0
 40
7.0
 40
7.0
 40
8.0
 40
8.0
 40
8.0
 40
9.0
 40
9.0
 40
9.0
 40
10.0
 40
10.0
 40
10.0
 40
11.0
 40
11.0
 40
11.0
 40
12.0
 40
12.0
 40
12.0
 40
13.0
 40
13.0
 40
13.0
 40
14.0
 40
14.0
 40
14.0
 40
15.0
 40
15.0
 40
15.0
 40
16.0
 40
16.0
 40
16.0
 40
17.0
 40
17.0
 40
17.0
 40
18.0
 40
18.0
 40
18.0
 40
19.0
 40
19.0
 40
19.0
 40
20.0
 40
20.0
 40
20.0
 40
21.0
 40
21.0
 40
21.0
 40
22.0
 40
22.0
 40
22.0
 40
23.0
 40
23.0
 40
23.0
 40
24.0
 40
24.0
 40
24.0
 40
25.0
 40
25.0
 40
25.0
 40
26.0
 40
26.0
 40
26.0
 40
27.0
 40
27.0
 40
27.0
 40
28.0
 40
28.0
 40
28.0
 40
29.0
 40
29.0
 40
29.0
 40
30.0
 40
30.0
 40
30.0
 40
31.0
 40
31.0
 40
31.0
 40
32.0
 40
32.0
 40
32.0
 40
33.0
 40
33.0
 40
33.0
 40
34.0
 40
34.0
 40
34.0
 40
35.0
 40
35.0
 40
35.0
 40
36.0
 40
36.0
 40
36.0
 40
37.0
 40
37.0
 40
37.0
 40
38.0
 40
38.0
 40
38.0
 40
39.0
 40
39.0
 40
39.0
 40
39.0
 10
90.06416233905889
 20
171.4288341528441
 10
90.06416233905889
 20
171.4288341528441
 10
89.03405725720261
 20
173.2103576238533
 10
89.03405725720261
 20
173.2103576238533
 10
89.18221789485484
 20
171.8733375978682
 10
89.33037853250768
 20
170.536296040036
 10
89.48560161590464
 20
169.1922135683055
 10
89.58085850603394
 20
168.3526007348524
 10
89.67962508718883
 20
167.5094782103734
 10
89.7784132001905
 20
166.6628029311752
 10
89.91600170107814
 20
165.4527777375154
 10
90.06063111586374
 20
164.2356900981106
 10
90.20526053064934
 20
163.0186024587057
 10
90.35344270015347
 20
161.7909426825302
 10
90.5016033378108
 20
160.5597516834823
 10
90.65329519834053
 20
159.3285606844344
 10
90.65682642121034
 20
159.275635405042
 10
90.66388886695317
 20
159.2262413485219
 10
90.67092978084858
 20
159.1733376009762
 10
90.80851828174006
 20
158.0409131831217
 10
90.94963800550328
 20
156.9049790742413
 10
91.09426742029208
 20
155.7654922106417
 10
91.7292631135368
 20
150.6960772677615
 10
92.399549503656
 20
145.5878619369775
 10
93.11567719557451
 20
140.4337837725438
 10
93.24973447360067
 20
139.4671761067634
 10
93.38379175162682
 20
138.4970372181113
 10
93.52138025252534
 20
137.5268983294585
 10
93.71540372382302
 20
136.133421801207
 10
93.91648964086481
 20
134.7399452729548
 10
94.11757555790659
 20
133.3394062989578
 10
94.11757555790659
 20
133.3323653850599
 10
94.12110678077834
 20
133.3253029393144
 10
94.12110678077834
 20
133.3182404935697
 10
94.31159902920619
 20
131.9847516904551
 10
94.50915372337879
 20
130.6547725783654
 10
94.70317719467905
 20
129.3283246891487
 10
94.81606866732667
 20
128.5628029404743
 10
94.92896013997494
 20
127.7972811917998
 10
95.04538283549495
 20
127.0317594431254
 10
95.20060591890539
 20
125.9875294696924
 10
95.35936022518823
 20
124.9397682733869
 10
95.51809299962426
 20
123.899091054673
 10
95.83560161218992
 20
121.8141623306786
 10
96.1566414476286
 20
119.739827275302
 10
96.48472219696524
 20
117.6725546656695
 10
96.63288283463478
 20
116.7165191366595
 10
96.78457469517669
 20
115.7605051394956
 10
96.93979777859162
 20
114.8080008333573
 10
96.96802602971555
 20
114.6245494987665
 10
96.99976397186507
 20
114.4411196960224
 10
97.02799222298899
 20
114.2541371385592
 10
97.33843838981693
 20
112.3209218069971
 10
97.65241577951726
 20
110.3982786122054
 10
97.96990286024383
 20
108.4826978631585
 10
98.04399394500423
 20
108.0452568639157
 10
98.11455380689162
 20
107.6042846418005
 10
98.1886233598046
 20
107.1668436425577
 10
98.28741147281718
 20
106.5671171141115
 10
98.386178053983
 20
105.9709218085378
 10
98.4884973898686
 20
105.374726502964
 10
98.65782383292307
 20
104.3587247806626
 10
98.83068149884991
 20
103.3462542812335
 10
99.00353916477676
 20
102.3337837818044
 10
99.69499136033158
 20
98.28741147511317
 10
100.4040781384028
 20
94.27632986529891
 10
101.1237370532463
 20
90.30404864338599
 10
101.3036571649192
 20
89.30921272647205
 10
101.4835772765915
 20
88.31790803242986
 10
101.6670286111367
 20
87.33013456126004
 10
102.2455678022029
 20
84.18689403603277
 10
102.8311909708619
 20
81.06832900721796
 10
103.4238550534202
 20
77.97448253850918
 10
103.5720156910981
 20
77.21247048085905
 10
103.716666637751
 20
76.45398964608133
 10
103.8648272754295
 20
75.69553034315037
 10
104.1470451911464
 20
74.23149395298705
 10
104.4327943297356
 20
72.7745200085685
 10
104.7220746911972
 20
71.3246085098947
 10
104.9055260257457
 20
70.39680123201501
 10
105.0889558284468
 20
69.47252517700771
 10
105.275938385867
 20
68.5482491220004
 10
105.8509678859191
 20
65.65899826142317
 10
106.4365695227423
 20
62.79091320623281
 10
107.0292336053115
 20
59.94752517930169
 10
107.33967977216
 20
58.46232298374958
 10
107.6501259390078
 20
56.98420476578966
 10
107.9605721058563
 20
55.5131059298803
 10
107.9605721058563
 20
55.5131059298803
 10
108.0981606067696
 20
54.86753809963162
 10
108.0981606067696
 20
54.86753809963162
 10
108.2886528552167
 20
53.96440631816504
 10
108.4791666355106
 20
53.06482729141762
 10
108.67319010683
 20
52.16877948754193
 10
109.0577058265973
 20
50.37313112507204
 10
109.4457743010837
 20
48.5880764312193
 10
109.8373524665957
 20
46.81008418311131
 10
110.4229541034278
 20
44.13955382215324
 10
111.0121084949804
 20
41.49018926658267
 10
111.6083038004316
 20
38.86199051639898
 10
127.8219566826732
 20
39.08424223816282
 10
144.0356310967615
 20
39.30649395992732
 10
160.2493055108493
 20
39.52874568169181
 10
147.6516033188427
 20
56.31038715077224
 10
134.1437499635264
 20
77.53351031501818
 10
122.5267803291902
 20
103.3779922223274
 10
116.3919696081379
 20
117.0199243887886
 10
111.4812874403699
 20
130.4078238268516
 10
107.5619314984626
 20
143.3442004378341
 10
107.5619314984626
 20
143.3442004378341
 10
106.5988550555366
 20
142.7903367430829
 10
106.5988550555366
 20
142.7903367430829
 10
106.5988550555366
 20
142.7903367430829
 10
90.06769356193128
 20
171.4217717070993
 10
90.06769356193128
 20
171.4217717070993
 10
90.06416233905889
 20
171.4253029299717
 10
90.06416233905889
 20
171.4253029299717
 10
90.06416233905889
 20
171.4288341528441
 97
        0
 97
        1
330
7C
 75
     2
 76
     1
 98
        1
 10
0.0
 20
0.0
450
        0
451
        0
460
0.0
461
0.0
452
        0
462
0.0
453
        0
470

  0
SPLINE
  5
7E
330
78
100
AcDbEntity
  8
0
100
AcDbSpline
210
0.0
220
0.0
230
1.0
 70
     9
 71
     3
 72
    77
 73
    73
 74
     0
 42
0.0000000001
 43
0.0000000001
 40
0.0
 40
0.0
 40
0.0
 40
0.0
 40
1.0
 40
1.0
 40
1.0
 40
2.0
 40
2.0
 40
2.0
 40
3.0
 40
3.0
 40
3.0
 40
4.0
 40
4.0
 40
4.0
 40
5.0
 40
5.0
 40
5.0
 40
6.0
 40
6.0
 40
6.0
 40
7.0
 40
7.0
 40
7.0
 40
8.0
 40
8.0
 40
8.0
 40
9.0
 40
9.0
 40
9.0
 40
10.0
 40
10.0
 40
10.0
 40
11.0
 40
11.0
 40
11.0
 40
12.0
 40
12.0
 40
12.0
 40
13.0
 40
13.0
 40
13.0
 40
14.0
 40
14.0
 40
14.0
 40
15.0
 40
15.0
 40
15.0
 40
16.0
 40
16.0
 40
16.0
 40
17.0
 40
17.0
 40
17.0
 40
18.0
 40
18.0
 40
18.0
 40
19.0
 40
19.0
 40
19.0
 40
20.0
 40
20.0
 40
20.0
 40
21.0
 40
21.0
 40
21.0
 40
22.0
 40
22.0
 40
22.0
 40
23.0
 40
23.0
 40
23.0
 40
24.0
 40
24.0
 40
24.0
 40
24.0
 10
83.37901914865604
 20
242.340698691623
 30
0.0
 10
83.43545411902502
 20
241.2541371074194
 30
0.0
 10
83.49544184411252
 20
240.1605346093179
 30
0.0
 10
83.55540803735388
 20
239.0669105793692
 30
0.0
 10
83.56247048309223
 20
238.9363845241715
 30
0.0
 10
83.56951139698443
 20
238.8058584689738
 30
0.0
 10
83.5801050655958
 20
238.6718011909037
 30
0.0
 10
83.59420842522508
 20
238.375479915478
 30
0.0
 10
83.61184300772672
 20
238.0791371082052
 30
0.0
 10
83.62949912207579
 20
237.7828158327795
 30
0.0
 10
83.63654003596669
 20
237.6311024403475
 30
0.0
 10
83.64360248170505
 20
237.4794105797623
 30
0.0
 10
83.65419615031514
 20
237.3241874963043
 30
0.0
 10
83.66476828707908
 20
237.1795580814639
 30
0.0
 10
83.67183073281678
 20
237.0349071347766
 30
0.0
 10
83.68240286958073
 20
236.8902777199358
 30
0.0
 10
83.70709989782008
 20
236.4316709153078
 30
0.0
 10
83.73179692605942
 20
235.9730641106794
 30
0.0
 10
83.76002517717116
 20
235.5144357742042
 30
0.0
 10
83.8235225932849
 20
234.4314269447198
 30
0.0
 10
83.88702000939863
 20
233.3483965833883
 30
0.0
 10
83.95404864838477
 20
232.2583037763116
 30
0.0
 10
84.01401484163063
 20
231.27406152802
 30
0.0
 10
84.07751225774886
 20
230.2862880568556
 30
0.0
 10
84.14100967386708
 20
229.2949618309721
 30
0.0
 10
84.26802603794905
 20
227.3017803061283
 30
0.0
 10
84.402083315929
 20
225.2944738897949
 30
0.0
 10
84.5396502849339
 20
223.2801050277161
 30
0.0
 10
84.61021014679499
 20
222.2499999457768
 30
0.0
 10
84.68430123152842
 20
221.2163636409643
 30
0.0
 10
84.75837078441445
 20
220.1791961132799
 30
0.0
 10
84.86775256600054
 20
218.6093306961867
 30
0.0
 10
84.98415372963783
 20
217.0359340562213
 30
0.0
 10
85.10410764799365
 20
215.451965279485
 30
0.0
 10
85.18523964662316
 20
214.3759973638976
 30
0.0
 10
85.26637164525267
 20
213.2964982254379
 30
0.0
 10
85.35456608962631
 20
212.2169990869774
 30
0.0
 10
85.47805123085385
 20
210.6118645048537
 30
0.0
 10
85.60504606310635
 20
209.0031986998573
 30
0.0
 10
85.742634563976
 20
207.3874704491158
 30
0.0
 10
85.82376656260745
 20
206.3538341443035
 30
0.0
 10
85.91196100698299
 20
205.3201978394904
 30
0.0
 10
86.00015545135919
 20
204.2830303118053
 30
0.0
 10
86.10951570110941
 20
202.9530511997198
 30
0.0
 10
86.22593839660439
 20
201.6230936194804
 30
0.0
 10
86.34587078312433
 20
200.2860520616498
 30
0.0
 10
86.38469270285385
 20
199.8345077027655
 30
0.0
 10
86.42349309073594
 20
199.3829418120348
 30
0.0
 10
86.46582470149041
 20
198.9313974531505
 30
0.0
 10
86.46582470149041
 20
198.9313974531505
 30
0.0
 10
86.95265975726263
 20
199.2100841460386
 30
0.0
 10
86.95265975726263
 20
199.2100841460386
 30
0.0
 10
86.95265975726263
 20
199.2100841460386
 30
0.0
 10
86.95972220300738
 20
199.2136153689107
 30
0.0
 10
86.95972220300738
 20
199.2136153689107
 30
0.0
 10
86.95972220300738
 20
199.2136153689107
 30
0.0
 10
92.84405295120073
 20
202.6108670903448
 30
0.0
 10
92.84405295120073
 20
202.6108670903448
 30
0.0
 10
92.84405295120073
 20
202.6108670903448
 30
0.0
 10
95.90263025461426
 20
197.3121379791189
 30
0.0
 10
95.90263025461426
 20
197.3121379791189
 30
0.0
 10
93.69070669905525
 20
213.9138593360164
 30
0.0
 10
92.92165372818415
 20
228.8575208313385
 30
0.0
 10
92.83699050720141
 20
241.4940234120045
 30
0.0
 10
92.82992806149065
 20
242.2454418010314
 30
0.0
 10
92.82641837049842
 20
242.9933289671859
 30
0.0
 10
92.82641837053178
 20
243.7271127736973
 30
0.0
 10
92.82641837058312
 20
244.8736405511885
 30
0.0
 10
92.82992806165877
 20
245.9954713004194
 30
0.0
 10
92.84052173032533
 20
247.0961362442629
 30
0.0
 10
89.68668753643536
 20
245.5086362448013
 30
0.0
 10
86.53285334254539
 20
243.924667468212
 30
0.0
 10
83.37901914865604
 20
242.340698691623
 30
0.0
  0
HATCH
  5
7F
330
78
100
AcDbEntity
  8
0
 62
     2
420
 16772096
440
 33554687
100
AcDbHatch
 10
0.0
 20
0.0
 30
0.0
210
0.0
220
0.0
230
1.0
  2
SOLID
 70
     1
 71
     1
 91
        1
 92
        1
 93
        1
 72
     4
 94
        3
 73
     0
 74
     0
 95
       77
 96
       73
 40
0.0
 40
0.0
 40
0.0
 40
0.0
 40
1.0
 40
1.0
 40
1.0
 40
2.0
 40
2.0
 40
2.0
 40
3.0
 40
3.0
 40
3.0
 40
4.0
 40
4.0
 40
4.0
 40
5.0
 40
5.0
 40
5.0
 40
6.0
 40
6.0
 40
6.0
 40
7.0
 40
7.0
 40
7.0
 40
8.0
 40
8.0
 40
8.0
 40
9.0
 40
9.0
 40
9.0
 40
10.0
 40
10.0
 40
10.0
 40
11.0
 40
11.0
 40
11.0
 40
12.0
 40
12.0
 40
12.0
 40
13.0
 40
13.0
 40
13.0
 40
14.0
 40
14.0
 40
14.0
 40
15.0
 40
15.0
 40
15.0
 40
16.0
 40
16.0
 40
16.0
 40
17.0
 40
17.0
 40
17.0
 40
18.0
 40
18.0
 40
18.0
 40
19.0
 40
19.0
 40
19.0
 40
20.0
 40
20.0
 40
20.0
 40
21.0
 40
21.0
 40
21.0
 40
22.0
 40
22.0
 40
22.0
 40
23.0
 40
23.0
 40
23.0
 40
24.0
 40
24.0
 40
24.0
 40
24.0
 10
83.37901914865604
 20
242.340698691623
 10
83.43545411902502
 20
241.2541371074194
 10
83.49544184411252
 20
240.1605346093179
 10
83.55540803735388
 20
239.0669105793692
 10
83.56247048309223
 20
238.9363845241715
 10
83.56951139698443
 20
238.8058584689738
 10
83.5801050655958
 20
238.6718011909037
 10
83.59420842522508
 20
238.375479915478
 10
83.61184300772672
 20
238.0791371082052
 10
83.62949912207579
 20
237.7828158327795
 10
83.63654003596669
 20
237.6311024403475
 10
83.64360248170505
 20
237.4794105797623
 10
83.65419615031514
 20
237.3241874963043
 10
83.66476828707908
 20
237.1795580814639
 10
83.67183073281678
 20
237.0349071347766
 10
83.68240286958073
 20
236.8902777199358
 10
83.70709989782008
 20
236.4316709153078
 10
83.73179692605942
 20
235.9730641106794
 10
83.76002517717116
 20
235.5144357742042
 10
83.8235225932849
 20
234.4314269447198
 10
83.88702000939863
 20
233.3483965833883
 10
83.95404864838477
 20
232.2583037763116
 10
84.01401484163063
 20
231.27406152802
 10
84.07751225774886
 20
230.2862880568556
 10
84.14100967386708
 20
229.2949618309721
 10
84.26802603794905
 20
227.3017803061283
 10
84.402083315929
 20
225.2944738897949
 10
84.5396502849339
 20
223.2801050277161
 10
84.61021014679499
 20
222.2499999457768
 10
84.68430123152842
 20
221.2163636409643
 10
84.75837078441445
 20
220.1791961132799
 10
84.86775256600054
 20
218.6093306961867
 10
84.98415372963783
 20
217.0359340562213
 10
85.10410764799365
 20
215.451965279485
 10
85.18523964662316
 20
214.3759973638976
 10
85.26637164525267
 20
213.2964982254379
 10
85.35456608962631
 20
212.2169990869774
 10
85.47805123085385
 20
210.6118645048537
 10
85.60504606310635
 20
209.0031986998573
 10
85.742634563976
 20
207.3874704491158
 10
85.82376656260745
 20
206.3538341443035
 10
85.91196100698299
 20
205.3201978394904
 10
86.00015545135919
 20
204.2830303118053
 10
86.10951570110941
 20
202.9530511997198
 10
86.22593839660439
 20
201.6230936194804
 10
86.34587078312433
 20
200.2860520616498
 10
86.38469270285385
 20
199.8345077027655
 10
86.42349309073594
 20
199.3829418120348
 10
86.46582470149041
 20
198.9313974531505
 10
86.46582470149041
 20
198.9313974531505
 10
86.95265975726263
 20
199.2100841460386
 10
86.95265975726263
 20
199.2100841460386
 10
86.95265975726263
 20
199.2100841460386
 10
86.95972220300738
 20
199.2136153689107
 10
86.95972220300738
 20
199.2136153689107
 10
86.95972220300738
 20
199.2136153689107
 10
92.84405295120073
 20
202.6108670903448
 10
92.84405295120073
 20
202.6108670903448
 10
92.84405295120073
 20
202.6108670903448
 10
95.90263025461426
 20
197.3121379791189
 10
95.90263025461426
 20
197.3121379791189
 10
93.69070669905525
 20
213.9138593360164
 10
92.92165372818415
 20
228.8575208313385
 10
92.83699050720141
 20
241.4940234120045
 10
92.82992806149065
 20
242.2454418010314
 10
92.82641837049842
 20
242.9933289671859
 10
92.82641837053178
 20
243.7271127736973
 10
92.82641837058312
 20
244.8736405511885
 10
92.82992806165877
 20
245.9954713004194
 10
92.84052173032533
 20
247.0961362442629
 10
89.68668753643536
 20
245.5086362448013
 10
86.53285334254539
 20
243.924667468212
 10
83.37901914865604
 20
242.340698691623
 97
        0
 97
        1
330
7E
 75
     2
 76
     1
 98
        1
 10
0.0
 20
0.0
450
        0
451
        0
460
0.0
461
0.0
452
        0
462
0.0
453
        0
470

  0
SPLINE
  5
80
330
78
100
AcDbEntity
  8
0
100
AcDbSpline
210
0.0
220
0.0
230
1.0
 70
     9
 71
     3
 72
   179
 73
   175
 74
     0
 42
0.0000000001
 43
0.0000000001
 40
0.0
 40
0.0
 40
0.0
 40
0.0
 40
1.0
 40
1.0
 40
1.0
 40
2.0
 40
2.0
 40
2.0
 40
3.0
 40
3.0
 40
3.0
 40
4.0
 40
4.0
 40
4.0
 40
5.0
 40
5.0
 40
5.0
 40
6.0
 40
6.0
 40
6.0
 40
7.0
 40
7.0
 40
7.0
 40
8.0
 40
8.0
 40
8.0
 40
9.0
 40
9.0
 40
9.0
 40
10.0
 40
10.0
 40
10.0
 40
11.0
 40
11.0
 40
11.0
 40
12.0
 40
12.0
 40
12.0
 40
13.0
 40
13.0
 40
13.0
 40
14.0
 40
14.0
 40
14.0
 40
15.0
 40
15.0
 40
15.0
 40
16.0
 40
16.0
 40
16.0
 40
17.0
 40
17.0
 40
17.0
 40
18.0
 40
18.0
 40
18.0
 40
19.0
 40
19.0
 40
19.0
 40
20.0
 40
20.0
 40
20.0
 40
21.0
 40
21.0
 40
21.0
 40
22.0
 40
22.0
 40
22.0
 40
23.0
 40
23.0
 40
23.0
 40
24.0
 40
24.0
 40
24.0
 40
25.0
 40
25.0
 40
25.0
 40
26.0
 40
26.0
 40
26.0
 40
27.0
 40
27.0
 40
27.0
 40
28.0
 40
28.0
 40
28.0
 40
29.0
 40
29.0
 40
29.0
 40
30.0
 40
30.0
 40
30.0
 40
31.0
 40
31.0
 40
31.0
 40
32.0
 40
32.0
 40
32.0
 40
33.0
 40
33.0
 40
33.0
 40
34.0
 40
34.0
 40
34.0
 40
35.0
 40
35.0
 40
35.0
 40
36.0
 40
36.0
 40
36.0
 40
37.0
 40
37.0
 40
37.0
 40
38.0
 40
38.0
 40
38.0
 40
39.0
 40
39.0
 40
39.0
 40
40.0
 40
40.0
 40
40.0
 40
41.0
 40
41.0
 40
41.0
 40
42.0
 40
42.0
 40
42.0
 40
43.0
 40
43.0
 40
43.0
 40
44.0
 40
44.0
 40
44.0
 40
45.0
 40
45.0
 40
45.0
 40
46.0
 40
46.0
 40
46.0
 40
47.0
 40
47.0
 40
47.0
 40
48.0
 40
48.0
 40
48.0
 40
49.0
 40
49.0
 40
49.0
 40
50.0
 40
50.0
 40
50.0
 40
51.0
 40
51.0
 40
51.0
 40
52.0
 40
52.0
 40
52.0
 40
53.0
 40
53.0
 40
53.0
 40
54.0
 40
54.0
 40
54.0
 40
55.0
 40
55.0
 40
55.0
 40
56.0
 40
56.0
 40
56.0
 40
57.0
 40
57.0
 40
57.0
 40
58.0
 40
58.0
 40
58.0
 40
58.0
 10
68.62938111560476
 20
39.13363629734052
 30
0.0
 10
82.95568149993165
 20
39.04191062940275
 30
0.0
 10
97.28198188425857
 20
38.95371618433673
 30
0.0
 10
111.6083038004316
 20
38.86199051639898
 30
0.0
 10
111.0121084949804
 20
41.49018926658267
 30
0.0
 10
110.4229541034278
 20
44.13955382215324
 30
0.0
 10
109.8373524665957
 20
46.81008418311131
 30
0.0
 10
109.4457743010837
 20
48.5880764312193
 30
0.0
 10
109.0577058265973
 20
50.37313112507204
 30
0.0
 10
108.67319010683
 20
52.16877948754193
 30
0.0
 10
108.4791666355106
 20
53.06482729141762
 30
0.0
 10
108.2886528552167
 20
53.96440631816504
 30
0.0
 10
108.0981606067696
 20
54.86753809963162
 30
0.0
 10
108.0981606067696
 20
54.86753809963162
 30
0.0
 10
107.9605721058563
 20
55.5131059298803
 30
0.0
 10
107.9605721058563
 20
55.5131059298803
 30
0.0
 10
107.6465947161354
 20
56.98420476578966
 30
0.0
 10
107.3361485492876
 20
58.46232298375022
 30
0.0
 10
107.0292336053115
 20
59.94752517930169
 30
0.0
 10
106.4365695227423
 20
62.79091320623281
 30
0.0
 10
105.8509678859191
 20
65.65899826142317
 30
0.0
 10
105.275938385867
 20
68.5482491220004
 30
0.0
 10
105.0889558284468
 20
69.47252517700771
 30
0.0
 10
104.9055260257457
 20
70.39680123201501
 30
0.0
 10
104.7220746911972
 20
71.3246085098947
 30
0.0
 10
104.4327943297356
 20
72.7745200085685
 30
0.0
 10
104.1470451911464
 20
74.23149395298705
 30
0.0
 10
103.8648272754295
 20
75.69553034315037
 30
0.0
 10
103.716666637751
 20
76.45398964608133
 30
0.0
 10
103.5720156910981
 20
77.21247048085905
 30
0.0
 10
103.4238550534202
 20
77.97448253850918
 30
0.0
 10
102.8311909708619
 20
81.06832900721796
 30
0.0
 10
102.2455678022029
 20
84.18689403603277
 30
0.0
 10
101.6670286111367
 20
87.33013456126004
 30
0.0
 10
101.4835772765915
 20
88.31790803242986
 30
0.0
 10
101.3036571649192
 20
89.30921272647205
 30
0.0
 10
101.1237370532463
 20
90.30404864338599
 30
0.0
 10
100.4040781384028
 20
94.27632986529891
 30
0.0
 10
99.69499136033158
 20
98.28741147511317
 30
0.0
 10
99.00353916477676
 20
102.3337837818044
 30
0.0
 10
98.83068149884991
 20
103.3462542812335
 30
0.0
 10
98.65782383292307
 20
104.3587247806626
 30
0.0
 10
98.4884973898686
 20
105.374726502964
 30
0.0
 10
98.386178053983
 20
105.9709218085378
 30
0.0
 10
98.28741147281718
 20
106.5671171141115
 30
0.0
 10
98.1886233598046
 20
107.1668436425577
 30
0.0
 10
98.11455380689162
 20
107.6042846418005
 30
0.0
 10
98.04399394500423
 20
108.0452568639157
 30
0.0
 10
97.96990286024383
 20
108.4826978631585
 30
0.0
 10
97.65241577951726
 20
110.3982786122054
 30
0.0
 10
97.33843838981693
 20
112.3209218069971
 30
0.0
 10
97.02799222298899
 20
114.2541371385592
 30
0.0
 10
96.99976397186507
 20
114.4411196960224
 30
0.0
 10
96.96802602971555
 20
114.6245494987665
 30
0.0
 10
96.93979777859162
 20
114.8080008333573
 30
0.0
 10
96.78457469517669
 20
115.7605051394956
 30
0.0
 10
96.63288283463478
 20
116.7165191366595
 30
0.0
 10
96.48472219696524
 20
117.6725546656695
 30
0.0
 10
96.1566414476286
 20
119.739827275302
 30
0.0
 10
95.83560161218992
 20
121.8141623306786
 30
0.0
 10
95.51809299962426
 20
123.899091054673
 30
0.0
 10
95.35936022518823
 20
124.9397682733869
 30
0.0
 10
95.20060591890539
 20
125.9875294696924
 30
0.0
 10
95.04538283549495
 20
127.0317594431254
 30
0.0
 10
94.92896013997494
 20
127.7972811917998
 30
0.0
 10
94.81606866732667
 20
128.5628029404743
 30
0.0
 10
94.70317719467905
 20
129.3283246891487
 30
0.0
 10
94.50915372337879
 20
130.6547725783654
 30
0.0
 10
94.31159902920619
 20
131.9847516904551
 30
0.0
 10
94.12110678077834
 20
133.3182404935697
 30
0.0
 10
94.12110678077834
 20
133.3253029393144
 30
0.0
 10
94.11757555790659
 20
133.3323653850599
 30
0.0
 10
94.11757555790659
 20
133.3394062989578
 30
0.0
 10
93.91648964086481
 20
134.7399452729548
 30
0.0
 10
93.71540372382302
 20
136.133421801207
 30
0.0
 10
93.52138025252534
 20
137.5268983294585
 30
0.0
 10
93.38379175162682
 20
138.4970372181113
 30
0.0
 10
93.24973447360067
 20
139.4671761067634
 30
0.0
 10
93.11567719557451
 20
140.4337837725438
 30
0.0
 10
92.399549503656
 20
145.5878619369775
 30
0.0
 10
91.7292631135368
 20
150.6960772677615
 30
0.0
 10
91.09426742029208
 20
155.7654922106417
 30
0.0
 10
90.94963800550328
 20
156.9049790742413
 30
0.0
 10
90.80851828174006
 20
158.0409131831217
 30
0.0
 10
90.67092978084858
 20
159.1733376009762
 30
0.0
 10
90.66388886695317
 20
159.2262413485219
 30
0.0
 10
90.65682642121034
 20
159.275635405042
 30
0.0
 10
90.65329519834053
 20
159.3285606844344
 30
0.0
 10
90.5016033378108
 20
160.5597516834823
 30
0.0
 10
90.35344270015347
 20
161.7909426825302
 30
0.0
 10
90.20526053064934
 20
163.0186024587057
 30
0.0
 10
90.06063111586374
 20
164.2356900981106
 30
0.0
 10
89.91600170107814
 20
165.4527777375154
 30
0.0
 10
89.7784132001905
 20
166.6628029311752
 30
0.0
 10
89.67962508718883
 20
167.5094782103734
 30
0.0
 10
89.58085850603394
 20
168.3526007348524
 30
0.0
 10
89.48560161590464
 20
169.1922135683055
 30
0.0
 10
89.33037853250768
 20
170.536296040036
 30
0.0
 10
89.18221789485484
 20
171.8733375978682
 30
0.0
 10
89.03405725720261
 20
173.2103576238533
 30
0.0
 10
89.03405725720261
 20
173.2103576238533
 30
0.0
 10
77.25480209341991
 20
193.6115025370881
 30
0.0
 10
77.25480209341991
 20
193.6115025370881
 30
0.0
 10
77.25480209341991
 20
193.6115025370881
 30
0.0
 10
86.46229347861803
 20
198.9278662302782
 30
0.0
 10
86.46229347861803
 20
198.9278662302782
 30
0.0
 10
86.42349309073594
 20
199.3829418120348
 30
0.0
 10
86.38116147998147
 20
199.8345077027659
 30
0.0
 10
86.34587078312433
 20
200.2860520616498
 30
0.0
 10
86.22593839660439
 20
201.6230936194804
 30
0.0
 10
86.10951570110941
 20
202.9530511997198
 30
0.0
 10
86.00015545135919
 20
204.2830303118053
 30
0.0
 10
85.9084297841106
 20
205.3201978394907
 30
0.0
 10
85.82376656260745
 20
206.3538341443035
 30
0.0
 10
85.742634563976
 20
207.3874704491158
 30
0.0
 10
85.60504606310635
 20
209.0031986998573
 30
0.0
 10
85.47805123085385
 20
210.6118645048537
 30
0.0
 10
85.35456608962631
 20
212.2169990869774
 30
0.0
 10
85.26637164525267
 20
213.2964982254379
 30
0.0
 10
85.18523964662316
 20
214.3759973638976
 30
0.0
 10
85.10410764799365
 20
215.451965279485
 30
0.0
 10
84.98415372963783
 20
217.0359340562213
 30
0.0
 10
84.86775256600054
 20
218.6093306961867
 30
0.0
 10
84.75837078441445
 20
220.1791961132799
 30
0.0
 10
84.68430123152842
 20
221.2163636409643
 30
0.0
 10
84.61021014679499
 20
222.2499999457768
 30
0.0
 10
84.5396502849339
 20
223.2801050277161
 30
0.0
 10
84.402083315929
 20
225.2944738897949
 30
0.0
 10
84.26802603794905
 20
227.3017803061283
 30
0.0
 10
84.14100967386708
 20
229.2949618309721
 30
0.0
 10
84.07751225774886
 20
230.2862880568556
 30
0.0
 10
84.01401484163063
 20
231.27406152802
 30
0.0
 10
83.95404864838477
 20
232.2583037763116
 30
0.0
 10
83.88702000939863
 20
233.3483965833883
 30
0.0
 10
83.8235225932849
 20
234.4314269447198
 30
0.0
 10
83.76002517717116
 20
235.5144357742042
 30
0.0
 10
83.73179692605942
 20
235.9730641106794
 30
0.0
 10
83.7035686749477
 20
236.4316709153078
 30
0.0
 10
83.67887164670834
 20
236.8902777199362
 30
0.0
 10
83.67183073281678
 20
237.0349071347766
 30
0.0
 10
83.66123706420671
 20
237.1795580814639
 30
0.0
 10
83.65419615031514
 20
237.3241874963043
 30
0.0
 10
83.64360248170505
 20
237.4794105797623
 30
0.0
 10
83.63654003596669
 20
237.6311024403475
 30
0.0
 10
83.62949912207579
 20
237.7828158327795
 30
0.0
 10
83.61184300772672
 20
238.0791371082052
 30
0.0
 10
83.59420842522508
 20
238.375479915478
 30
0.0
 10
83.5801050655958
 20
238.6718011909037
 30
0.0
 10
83.56951139698443
 20
238.8058584689738
 30
0.0
 10
83.56247048309223
 20
238.9363845241715
 30
0.0
 10
83.55540803735388
 20
239.0669105793692
 30
0.0
 10
83.49544184411252
 20
240.1605346093179
 30
0.0
 10
83.43545411902502
 20
241.2541371074194
 30
0.0
 10
83.37901914865604
 20
242.340698691623
 30
0.0
 10
83.37901914865604
 20
242.340698691623
 30
0.0
 10
83.12149826112721
 20
242.2101726364372
 30
0.0
 10
83.12149826112721
 20
242.2101726364372
 30
0.0
 10
83.12149826112721
 20
242.2101726364372
 30
0.0
 10
83.12149826112721
 20
242.2066414135648
 30
0.0
 10
83.12149826112721
 20
242.2066414135648
 30
0.0
 10
83.12149826112721
 20
242.2066414135648
 30
0.0
 10
71.7267803478657
 20
236.4775337494929
 30
0.0
 10
71.7267803478657
 20
236.4775337494929
 30
0.0
 10
73.76935592837201
 20
217.5086657528413
 30
0.0
 10
75.27572392838822
 20
197.2592127006531
 30
0.0
 10
75.96011367741924
 20
175.8561909571124
 30
0.0
 10
76.00244528813137
 20
174.4592047378416
 30
0.0
 10
76.04477689884349
 20
173.0551345409793
 30
0.0
 10
76.08357728668258
 20
171.6440234302194
 30
0.0
 10
76.58804692410747
 20
152.7104461305138
 30
0.0
 10
76.44692719940289
 20
132.8949243866134
 30
0.0
 10
75.46974739593323
 20
112.2856311111019
 30
0.0
 10
74.23502517284986
 20
86.22593839577596
 30
0.0
 10
71.80084989295572
 20
61.78197393123866
 30
0.0
 10
68.62938111560476
 20
39.13363629734052
 30
0.0
  0
HATCH
  5
81
330
78
100
AcDbEntity
  8
0
 62
    12
420
 14812691
440
 33554687
100
AcDbHatch
 10
0.0
 20
0.0
 30
0.0
210
0.0
220
0.0
230
1.0
  2
SOLID
 70
     1
 71
     1
 91
        1
 92
        1
 93
        1
 72
     4
 94
        3
 73
     0
 74
     0
 95
      179
 96
      175
 40
0.0
 40
0.0
 40
0.0
 40
0.0
 40
1.0
 40
1.0
 40
1.0
 40
2.0
 40
2.0
 40
2.0
 40
3.0
 40
3.0
 40
3.0
 40
4.0
 40
4.0
 40
4.0
 40
5.0
 40
5.0
 40
5.0
 40
6.0
 40
6.0
 40
6.0
 40
7.0
 40
7.0
 40
7.0
 40
8.0
 40
8.0
 40
8.0
 40
9.0
 40
9.0
 40
9.0
 40
10.0
 40
10.0
 40
10.0
 40
11.0
 40
11.0
 40
11.0
 40
12.0
 40
12.0
 40
12.0
 40
13.0
 40
13.0
 40
13.0
 40
14.0
 40
14.0
 40
14.0
 40
15.0
 40
15.0
 40
15.0
 40
16.0
 40
16.0
 40
16.0
 40
17.0
 40
17.0
 40
17.0
 40
18.0
 40
18.0
 40
18.0
 40
19.0
 40
19.0
 40
19.0
 40
20.0
 40
20.0
 40
20.0
 40
21.0
 40
21.0
 40
21.0
 40
22.0
 40
22.0
 40
22.0
 40
23.0
 40
23.0
 40
23.0
 40
24.0
 40
24.0
 40
24.0
 40
25.0
 40
25.0
 40
25.0
 40
26.0
 40
26.0
 40
26.0
 40
27.0
 40
27.0
 40
27.0
 40
28.0
 40
28.0
 40
28.0
 40
29.0
 40
29.0
 40
29.0
 40
30.0
 40
30.0
 40
30.0
 40
31.0
 40
31.0
 40
31.0
 40
32.0
 40
32.0
 40
32.0
 40
33.0
 40
33.0
 40
33.0
 40
34.0
 40
34.0
 40
34.0
 40
35.0
 40
35.0
 40
35.0
 40
36.0
 40
36.0
 40
36.0
 40
37.0
 40
37.0
 40
37.0
 40
38.0
 40
38.0
 40
38.0
 40
39.0
 40
39.0
 40
39.0
 40
40.0
 40
40.0
 40
40.0
 40
41.0
 40
41.0
 40
41.0
 40
42.0
 40
42.0
 40
42.0
 40
43.0
 40
43.0
 40
43.0
 40
44.0
 40
44.0
 40
44.0
 40
45.0
 40
45.0
 40
45.0
 40
46.0
 40
46.0
 40
46.0
 40
47.0
 40
47.0
 40
47.0
 40
48.0
 40
48.0
 40
48.0
 40
49.0
 40
49.0
 40
49.0
 40
50.0
 40
50.0
 40
50.0
 40
51.0
 40
51.0
 40
51.0
 40
52.0
 40
52.0
 40
52.0
 40
53.0
 40
53.0
 40
53.0
 40
54.0
 40
54.0
 40
54.0
 40
55.0
 40
55.0
 40
55.0
 40
56.0
 40
56.0
 40
56.0
 40
57.0
 40
57.0
 40
57.0
 40
58.0
 40
58.0
 40
58.0
 40
58.0
 10
68.62938111560476
 20
39.13363629734052
 10
82.95568149993165
 20
39.04191062940275
 10
97.28198188425857
 20
38.95371618433673
 10
111.6083038004316
 20
38.86199051639898
 10
111.0121084949804
 20
41.49018926658267
 10
110.4229541034278
 20
44.13955382215324
 10
109.8373524665957
 20
46.81008418311131
 10
109.4457743010837
 20
48.5880764312193
 10
109.0577058265973
 20
50.37313112507204
 10
108.67319010683
 20
52.16877948754193
 10
108.4791666355106
 20
53.06482729141762
 10
108.2886528552167
 20
53.96440631816504
 10
108.0981606067696
 20
54.86753809963162
 10
108.0981606067696
 20
54.86753809963162
 10
107.9605721058563
 20
55.5131059298803
 10
107.9605721058563
 20
55.5131059298803
 10
107.6465947161354
 20
56.98420476578966
 10
107.3361485492876
 20
58.46232298375022
 10
107.0292336053115
 20
59.94752517930169
 10
106.4365695227423
 20
62.79091320623281
 10
105.8509678859191
 20
65.65899826142317
 10
105.275938385867
 20
68.5482491220004
 10
105.0889558284468
 20
69.47252517700771
 10
104.9055260257457
 20
70.39680123201501
 10
104.7220746911972
 20
71.3246085098947
 10
104.4327943297356
 20
72.7745200085685
 10
104.1470451911464
 20
74.23149395298705
 10
103.8648272754295
 20
75.69553034315037
 10
103.716666637751
 20
76.45398964608133
 10
103.5720156910981
 20
77.21247048085905
 10
103.4238550534202
 20
77.97448253850918
 10
102.8311909708619
 20
81.06832900721796
 10
102.2455678022029
 20
84.18689403603277
 10
101.6670286111367
 20
87.33013456126004
 10
101.4835772765915
 20
88.31790803242986
 10
101.3036571649192
 20
89.30921272647205
 10
101.1237370532463
 20
90.30404864338599
 10
100.4040781384028
 20
94.27632986529891
 10
99.69499136033158
 20
98.28741147511317
 10
99.00353916477676
 20
102.3337837818044
 10
98.83068149884991
 20
103.3462542812335
 10
98.65782383292307
 20
104.3587247806626
 10
98.4884973898686
 20
105.374726502964
 10
98.386178053983
 20
105.9709218085378
 10
98.28741147281718
 20
106.5671171141115
 10
98.1886233598046
 20
107.1668436425577
 10
98.11455380689162
 20
107.6042846418005
 10
98.04399394500423
 20
108.0452568639157
 10
97.96990286024383
 20
108.4826978631585
 10
97.65241577951726
 20
110.3982786122054
 10
97.33843838981693
 20
112.3209218069971
 10
97.02799222298899
 20
114.2541371385592
 10
96.99976397186507
 20
114.4411196960224
 10
96.96802602971555
 20
114.6245494987665
 10
96.93979777859162
 20
114.8080008333573
 10
96.78457469517669
 20
115.7605051394956
 10
96.63288283463478
 20
116.7165191366595
 10
96.48472219696524
 20
117.6725546656695
 10
96.1566414476286
 20
119.739827275302
 10
95.83560161218992
 20
121.8141623306786
 10
95.51809299962426
 20
123.899091054673
 10
95.35936022518823
 20
124.9397682733869
 10
95.20060591890539
 20
125.9875294696924
 10
95.04538283549495
 20
127.0317594431254
 10
94.92896013997494
 20
127.7972811917998
 10
94.81606866732667
 20
128.5628029404743
 10
94.70317719467905
 20
129.3283246891487
 10
94.50915372337879
 20
130.6547725783654
 10
94.31159902920619
 20
131.9847516904551
 10
94.12110678077834
 20
133.3182404935697
 10
94.12110678077834
 20
133.3253029393144
 10
94.11757555790659
 20
133.3323653850599
 10
94.11757555790659
 20
133.3394062989578
 10
93.91648964086481
 20
134.7399452729548
 10
93.71540372382302
 20
136.133421801207
 10
93.52138025252534
 20
137.5268983294585
 10
93.38379175162682
 20
138.4970372181113
 10
93.24973447360067
 20
139.4671761067634
 10
93.11567719557451
 20
140.4337837725438
 10
92.399549503656
 20
145.5878619369775
 10
91.7292631135368
 20
150.6960772677615
 10
91.09426742029208
 20
155.7654922106417
 10
90.94963800550328
 20
156.9049790742413
 10
90.80851828174006
 20
158.0409131831217
 10
90.67092978084858
 20
159.1733376009762
 10
90.66388886695317
 20
159.2262413485219
 10
90.65682642121034
 20
159.275635405042
 10
90.65329519834053
 20
159.3285606844344
 10
90.5016033378108
 20
160.5597516834823
 10
90.35344270015347
 20
161.7909426825302
 10
90.20526053064934
 20
163.0186024587057
 10
90.06063111586374
 20
164.2356900981106
 10
89.91600170107814
 20
165.4527777375154
 10
89.7784132001905
 20
166.6628029311752
 10
89.67962508718883
 20
167.5094782103734
 10
89.58085850603394
 20
168.3526007348524
 10
89.48560161590464
 20
169.1922135683055
 10
89.33037853250768
 20
170.536296040036
 10
89.18221789485484
 20
171.8733375978682
 10
89.03405725720261
 20
173.2103576238533
 10
89.03405725720261
 20
173.2103576238533
 10
77.25480209341991
 20
193.6115025370881
 10
77.25480209341991
 20
193.6115025370881
 10
77.25480209341991
 20
193.6115025370881
 10
86.46229347861803
 20
198.9278662302782
 10
86.46229347861803
 20
198.9278662302782
 10
86.42349309073594
 20
199.3829418120348
 10
86.38116147998147
 20
199.8345077027659
 10
86.34587078312433
 20
200.2860520616498
 10
86.22593839660439
 20
201.6230936194804
 10
86.10951570110941
 20
202.9530511997198
 10
86.00015545135919
 20
204.2830303118053
 10
85.9084297841106
 20
205.3201978394907
 10
85.82376656260745
 20
206.3538341443035
 10
85.742634563976
 20
207.3874704491158
 10
85.60504606310635
 20
209.0031986998573
 10
85.47805123085385
 20
210.6118645048537
 10
85.35456608962631
 20
212.2169990869774
 10
85.26637164525267
 20
213.2964982254379
 10
85.18523964662316
 20
214.3759973638976
 10
85.10410764799365
 20
215.451965279485
 10
84.98415372963783
 20
217.0359340562213
 10
84.86775256600054
 20
218.6093306961867
 10
84.75837078441445
 20
220.1791961132799
 10
84.68430123152842
 20
221.2163636409643
 10
84.61021014679499
 20
222.2499999457768
 10
84.5396502849339
 20
223.2801050277161
 10
84.402083315929
 20
225.2944738897949
 10
84.26802603794905
 20
227.3017803061283
 10
84.14100967386708
 20
229.2949618309721
 10
84.07751225774886
 20
230.2862880568556
 10
84.01401484163063
 20
231.27406152802
 10
83.95404864838477
 20
232.2583037763116
 10
83.88702000939863
 20
233.3483965833883
 10
83.8235225932849
 20
234.4314269447198
 10
83.76002517717116
 20
235.5144357742042
 10
83.73179692605942
 20
235.9730641106794
 10
83.7035686749477
 20
236.4316709153078
 10
83.67887164670834
 20
236.8902777199362
 10
83.67183073281678
 20
237.0349071347766
 10
83.66123706420671
 20
237.1795580814639
 10
83.65419615031514
 20
237.3241874963043
 10
83.64360248170505
 20
237.4794105797623
 10
83.63654003596669
 20
237.6311024403475
 10
83.62949912207579
 20
237.7828158327795
 10
83.61184300772672
 20
238.0791371082052
 10
83.59420842522508
 20
238.375479915478
 10
83.5801050655958
 20
238.6718011909037
 10
83.56951139698443
 20
238.8058584689738
 10
83.56247048309223
 20
238.9363845241715
 10
83.55540803735388
 20
239.0669105793692
 10
83.49544184411252
 20
240.1605346093179
 10
83.43545411902502
 20
241.2541371074194
 10
83.37901914865604
 20
242.340698691623
 10
83.37901914865604
 20
242.340698691623
 10
83.12149826112721
 20
242.2101726364372
 10
83.12149826112721
 20
242.2101726364372
 10
83.12149826112721
 20
242.2101726364372
 10
83.12149826112721
 20
242.2066414135648
 10
83.12149826112721
 20
242.2066414135648
 10
83.12149826112721
 20
242.2066414135648
 10
71.7267803478657
 20
236.4775337494929
 10
71.7267803478657
 20
236.4775337494929
 10
73.76935592837201
 20
217.5086657528413
 10
75.27572392838822
 20
197.2592127006531
 10
75.96011367741924
 20
175.8561909571124
 10
76.00244528813137
 20
174.4592047378416
 10
76.04477689884349
 20
173.0551345409793
 10
76.08357728668258
 20
171.6440234302194
 10
76.58804692410747
 20
152.7104461305138
 10
76.44692719940289
 20
132.8949243866134
 10
75.46974739593323
 20
112.2856311111019
 10
74.23502517284986
 20
86.22593839577596
 10
71.80084989295572
 20
61.78197393123866
 10
68.62938111560476
 20
39.13363629734052
 97
        0
 97
        1
330
80
 75
     2
 76
     1
 98
        1
 10
0.0
 20
0.0
450
        0
451
        0
460
0.0
461
0.0
452
        0
462
0.0
453
        0
470

  0
ENDBLK
  5
7B
330
78
100
AcDbEntity
  8
0
100
AcDbBlockEnd
  0
BLOCK
  5
88
330
86
100
AcDbEntity
  8
0
100
AcDbBlockBegin
  2
Block_1
 70
     0
 10
0.0
 20
0.0
 30
0.0
  3
Block_1
  1

  0
LWPOLYLINE
  5
8A
330
86
100
AcDbEntity
  8
Layer 2
 62
    18
420
        0
370
    25
100
AcDbPolyline
 90
        3
 70
     0
 43
0.0
 10
115.6405555266451
 20
167.2836944026234
 10
106.6941110844377
 20
151.7896944064968
 10
111.1638055277648
 20
149.2073610738092
  0
LINE
  5
8B
330
86
100
AcDbEntity
  8
Layer 2
 62
    18
420
        0
370
    25
100
AcDbLine
 10
141.9260277422961
 20
199.2100832835307
 30
0.0
 11
141.9189721867428
 21
199.2136110613076
 31
0.0
  0
ENDBLK
  5
89
330
86
100
AcDbEntity
  8
0
100
AcDbBlockEnd
  0
ENDSEC
  0
SECTION
  2
ENTITIES
  0
INSERT
  5
79
330
70
100
AcDbEntity
  8
0
100
AcDbBlockReference
  2
Block_0
 10
0.0
 20
0.0
 30
0.0
  0
LWPOLYLINE
  5
83
330
70
100
AcDbEntity
  8
Layer 2
 62
    18
420
        0
370
    25
100
AcDbPolyline
 90
        4
 70
     1
 43
0.0
 10
131.1277777514961
 20
42.86206508525224
 10
131.1277777514961
 20
44.8620650852523
 10
101.127777751496
 20
44.8620650852523
 10
101.1277777514957
 20
42.86206508525224
  0
LWPOLYLINE
  5
84
330
70
100
AcDbEntity
  8
Layer 2
 62
    18
420
        0
370
    25
100
AcDbPolyline
 90
        4
 70
     1
 43
0.0
 10
138.1130658525459
 20
150.2105026509823
 10
139.8451166601146
 20
149.2105026509823
 10
154.8451166601145
 20
175.1912647645155
 10
153.1130658525458
 20
176.1912647645156
  0
LWPOLYLINE
  5
85
330
70
100
AcDbEntity
  8
Layer 2
 62
    18
420
        0
370
    25
100
AcDbPolyline
 90
        4
 70
     1
 43
0.0
 10
123.4639401591303
 20
220.8792496816448
 10
125.1331177617889
 20
221.9809965358646
 10
114.1156492195923
 20
238.6727725624502
 10
112.4464716169336
 20
237.5710257082304
  0
INSERT
  5
87
330
70
100
AcDbEntity
  8
Layer 2
100
AcDbBlockReference
  2
Block_1
 10
0.0
 20
0.0
 30
0.0
  0
LWPOLYLINE
  5
8C
330
70
100
AcDbEntity
  8
Layer 2
 62
    18
420
        0
370
    25
100
AcDbPolyline
 90
        4
 70
     1
 43
0.0
 10
100.395726943927
 20
169.7806493722944
 10
102.1277777514957
 20
168.7806493722944
 10
117.1277777514956
 20
194.7614114858276
 10
115.3957269439269
 20
195.7614114858277
  0
LWPOLYLINE
  5
8D
330
70
100
AcDbEntity
  8
Layer 2
 62
    18
420
        0
370
    25
100
AcDbPolyline
 90
        4
 70
     1
 43
0.0
 10
148.3367913411066
 20
235.3129889782054
 10
149.2351489042288
 20
237.0998727709523
 10
126.8991014948912
 20
248.3293423099754
 10
126.0007439317697
 20
246.5424585172281
  0
LWPOLYLINE
  5
8E
330
70
100
AcDbEntity
  8
Layer 2
 62
    18
420
        0
370
    25
100
AcDbPolyline
 90
        4
 70
     1
 43
0.0
 10
67.62777775149579
 20
43.86206508525227
 10
69.62777775149587
 20
43.86206508525227
 10
69.62777775149587
 20
113.8620650852522
 10
67.62777775149579
 20
113.8620650852522
  0
SPLINE
  5
8F
330
70
100
AcDbEntity
  8
Layer 2
 62
    18
420
        0
370
    25
100
AcDbSpline
210
0.0
220
0.0
230
1.0
 70
     8
 71
     3
 72
    11
 73
     7
 74
     0
 42
0.0000000001
 43
0.0000000001
 40
0.0
 40
0.0
 40
0.0
 40
0.0
 40
1.0
 40
1.0
 40
1.0
 40
2.0
 40
2.0
 40
2.0
 40
2.0
 10
142.416388853285
 20
198.9278610613789
 30
0.0
 10
142.416388853285
 20
198.9278610613789
 30
0.0
 10
151.6238888509827
 20
193.611499951597
 30
0.0
 10
151.6238888509827
 20
193.611499951597
 30
0.0
 10
151.6238888509827
 20
193.611499951597
 30
0.0
 10
139.8446388539277
 20
173.2103610678084
 30
0.0
 10
139.8446388539277
 20
173.2103610678084
 30
0.0
  0
SPLINE
  5
90
330
70
100
AcDbEntity
  8
Layer 2
 62
    18
420
        0
370
    25
100
AcDbSpline
210
0.0
220
0.0
230
1.0
 70
    24
 71
     3
 72
     8
 73
     4
 74
     0
 42
0.0000000001
 43
0.0000000001
 40
0.0
 40
0.0
 40
0.0
 40
0.0
 40
1.0
 40
1.0
 40
1.0
 40
1.0
 10
142.416388853285
 20
198.9278610613789
 30
0.0
 10
142.416388853285
 20
198.9278610613789
 30
0.0
 10
142.4128610755081
 20
198.9313888391559
 30
0.0
 10
142.4128610755081
 20
198.9313888391559
 30
0.0
  0
SPLINE
  5
91
330
70
100
AcDbEntity
  8
Layer 2
 62
    18
420
        0
370
    25
100
AcDbSpline
210
0.0
220
0.0
230
1.0
 70
     8
 71
     3
 72
    17
 73
    13
 74
     0
 42
0.0000000001
 43
0.0000000001
 40
0.0
 40
0.0
 40
0.0
 40
0.0
 40
1.0
 40
1.0
 40
1.0
 40
2.0
 40
2.0
 40
2.0
 40
3.0
 40
3.0
 40
3.0
 40
4.0
 40
4.0
 40
4.0
 40
4.0
 10
132.9760555223117
 20
197.3121388395606
 30
0.0
 10
132.9760555223117
 20
197.3121388395606
 30
0.0
 10
136.0346388548804
 20
202.6108610604584
 30
0.0
 10
136.0346388548804
 20
202.6108610604584
 30
0.0
 10
136.0346388548804
 20
202.6108610604584
 30
0.0
 10
141.9189721867428
 20
199.2136110613076
 30
0.0
 10
141.9189721867428
 20
199.2136110613076
 30
0.0
 10
141.9189721867428
 20
199.2136110613076
 30
0.0
 10
141.9260277422961
 20
199.2100832835307
 30
0.0
 10
141.9260277422961
 20
199.2100832835307
 30
0.0
 10
141.9260277422961
 20
199.2100832835307
 30
0.0
 10
142.4128610755081
 20
198.9313888391559
 30
0.0
 10
142.4128610755081
 20
198.9313888391559
 30
0.0
  0
SPLINE
  5
92
330
70
100
AcDbEntity
  8
Layer 2
 62
    18
420
        0
370
    25
100
AcDbSpline
210
0.0
220
0.0
230
1.0
 70
     8
 71
     3
 72
    17
 73
    13
 74
     0
 42
0.0000000001
 43
0.0000000001
 40
0.0
 40
0.0
 40
0.0
 40
0.0
 40
1.0
 40
1.0
 40
1.0
 40
2.0
 40
2.0
 40
2.0
 40
3.0
 40
3.0
 40
3.0
 40
4.0
 40
4.0
 40
4.0
 40
4.0
 10
139.8446388539277
 20
173.2103610678084
 30
0.0
 10
139.8446388539277
 20
173.2103610678084
 30
0.0
 10
138.8145277430741
 20
171.428833290476
 30
0.0
 10
138.8145277430741
 20
171.428833290476
 30
0.0
 10
138.8145277430741
 20
171.425305512699
 30
0.0
 10
138.8145277430741
 20
171.425305512699
 30
0.0
 10
138.8109999652971
 20
171.4217777349223
 30
0.0
 10
138.8109999652971
 20
171.4217777349223
 30
0.0
 10
122.2798333027636
 20
142.7903332976358
 30
0.0
 10
122.2798333027636
 20
142.7903332976358
 30
0.0
 10
122.2798333027636
 20
142.7903332976358
 30
0.0
 10
121.3167499696706
 20
143.3441944086084
 30
0.0
 10
121.3167499696706
 20
143.3441944086084
 30
0.0
  0
SPLINE
  5
93
330
70
100
AcDbEntity
  8
Layer 2
 62
    18
420
        0
370
    25
100
AcDbSpline
210
0.0
220
0.0
230
1.0
 70
     8
 71
     3
 72
    23
 73
    19
 74
     0
 42
0.0000000001
 43
0.0000000001
 40
0.0
 40
0.0
 40
0.0
 40
0.0
 40
1.0
 40
1.0
 40
1.0
 40
2.0
 40
2.0
 40
2.0
 40
3.0
 40
3.0
 40
3.0
 40
4.0
 40
4.0
 40
4.0
 40
5.0
 40
5.0
 40
5.0
 40
6.0
 40
6.0
 40
6.0
 40
6.0
 10
121.3167499696706
 20
143.3441944086084
 30
0.0
 10
121.3167499696706
 20
143.3441944086084
 30
0.0
 10
118.0288610816038
 20
145.242138852578
 30
0.0
 10
118.0288610816038
 20
145.242138852578
 30
0.0
 10
118.0288610816038
 20
145.242138852578
 30
0.0
 10
111.1638055277648
 20
149.2073610738092
 30
0.0
 10
111.1638055277648
 20
149.2073610738092
 30
0.0
 10
111.1638055277648
 20
149.2073610738092
 30
0.0
 10
106.6941110844377
 20
151.7896944064968
 30
0.0
 10
106.6941110844377
 20
151.7896944064968
 30
0.0
 10
106.6941110844377
 20
151.7896944064968
 30
0.0
 10
115.6405555266451
 20
167.2836944026234
 30
0.0
 10
115.6405555266451
 20
167.2836944026234
 30
0.0
 10
115.6405555266451
 20
167.2836944026234
 30
0.0
 10
126.6295833016762
 20
186.3195832867533
 30
0.0
 10
126.6295833016762
 20
186.3195832867533
 30
0.0
 10
126.6295833016762
 20
186.3195832867533
 30
0.0
 10
132.9760555223117
 20
197.3121388395606
 30
0.0
 10
132.9760555223117
 20
197.3121388395606
 30
0.0
  0
SPLINE
  5
94
330
70
100
AcDbEntity
  8
Layer 2
 62
    18
420
        0
370
    25
100
AcDbSpline
210
0.0
220
0.0
230
1.0
 70
     8
 71
     3
 72
    35
 73
    31
 74
     0
 42
0.0000000001
 43
0.0000000001
 40
0.0
 40
0.0
 40
0.0
 40
0.0
 40
1.0
 40
1.0
 40
1.0
 40
2.0
 40
2.0
 40
2.0
 40
3.0
 40
3.0
 40
3.0
 40
4.0
 40
4.0
 40
4.0
 40
5.0
 40
5.0
 40
5.0
 40
6.0
 40
6.0
 40
6.0
 40
7.0
 40
7.0
 40
7.0
 40
8.0
 40
8.0
 40
8.0
 40
9.0
 40
9.0
 40
9.0
 40
10.0
 40
10.0
 40
10.0
 40
10.0
 10
141.9260277422961
 20
199.2100832835307
 30
0.0
 10
141.9260277422961
 20
199.2100832835307
 30
0.0
 10
142.4128610755081
 20
198.9313888391559
 30
0.0
 10
142.4128610755081
 20
198.9313888391559
 30
0.0
 10
142.4128610755081
 20
198.9313888391559
 30
0.0
 10
142.416388853285
 20
198.9278610613789
 30
0.0
 10
142.416388853285
 20
198.9278610613789
 30
0.0
 10
142.416388853285
 20
198.9278610613789
 30
0.0
 10
151.6238888509827
 20
193.611499951597
 30
0.0
 10
151.6238888509827
 20
193.611499951597
 30
0.0
 10
151.6238888509827
 20
193.611499951597
 30
0.0
 10
139.8446388539277
 20
173.2103610678084
 30
0.0
 10
139.8446388539277
 20
173.2103610678084
 30
0.0
 10
139.8446388539277
 20
173.2103610678084
 30
0.0
 10
138.8145277430741
 20
171.428833290476
 30
0.0
 10
138.8145277430741
 20
171.428833290476
 30
0.0
 10
138.8145277430741
 20
171.425305512699
 30
0.0
 10
138.8145277430741
 20
171.425305512699
 30
0.0
 10
138.8109999652971
 20
171.4217777349223
 30
0.0
 10
138.8109999652971
 20
171.4217777349223
 30
0.0
 10
122.2798333027636
 20
142.7903332976358
 30
0.0
 10
122.2798333027636
 20
142.7903332976358
 30
0.0
 10
122.2798333027636
 20
142.7903332976358
 30
0.0
 10
121.3167499696706
 20
143.3441944086084
 30
0.0
 10
121.3167499696706
 20
143.3441944086084
 30
0.0
 10
121.3167499696706
 20
143.3441944086084
 30
0.0
 10
118.0288610816038
 20
145.242138852578
 30
0.0
 10
118.0288610816038
 20
145.242138852578
 30
0.0
 10
118.0288610816038
 20
145.242138852578
 30
0.0
 10
111.1638055277648
 20
149.2073610738092
 30
0.0
 10
111.1638055277648
 20
149.2073610738092
 30
0.0
  0
SPLINE
  5
95
330
70
100
AcDbEntity
  8
Layer 2
 62
    18
420
        0
370
    25
100
AcDbSpline
210
0.0
220
0.0
230
1.0
 70
     8
 71
     3
 72
    17
 73
    13
 74
     0
 42
0.0000000001
 43
0.0000000001
 40
0.0
 40
0.0
 40
0.0
 40
0.0
 40
1.0
 40
1.0
 40
1.0
 40
2.0
 40
2.0
 40
2.0
 40
3.0
 40
3.0
 40
3.0
 40
4.0
 40
4.0
 40
4.0
 40
4.0
 10
115.6405555266451
 20
167.2836944026234
 30
0.0
 10
115.6405555266451
 20
167.2836944026234
 30
0.0
 10
126.6295833016762
 20
186.3195832867533
 30
0.0
 10
126.6295833016762
 20
186.3195832867533
 30
0.0
 10
126.6295833016762
 20
186.3195832867533
 30
0.0
 10
132.9760555223117
 20
197.3121388395606
 30
0.0
 10
132.9760555223117
 20
197.3121388395606
 30
0.0
 10
132.9760555223117
 20
197.3121388395606
 30
0.0
 10
136.0346388548804
 20
202.6108610604584
 30
0.0
 10
136.0346388548804
 20
202.6108610604584
 30
0.0
 10
136.0346388548804
 20
202.6108610604584
 30
0.0
 10
141.9189721867428
 20
199.2136110613076
 30
0.0
 10
141.9189721867428
 20
199.2136110613076
 30
0.0
  0
SPLINE
  5
96
330
70
100
AcDbEntity
  8
Layer 2
 62
    18
420
        0
370
    25
100
AcDbSpline
210
0.0
220
0.0
230
1.0
 70
     9
 71
     3
 72
    80
 73
    76
 74
     0
 42
0.0000000001
 43
0.0000000001
 40
0.0
 40
0.0
 40
0.0
 40
0.0
 40
1.0
 40
1.0
 40
1.0
 40
2.0
 40
2.0
 40
2.0
 40
3.0
 40
3.0
 40
3.0
 40
4.0
 40
4.0
 40
4.0
 40
5.0
 40
5.0
 40
5.0
 40
6.0
 40
6.0
 40
6.0
 40
7.0
 40
7.0
 40
7.0
 40
8.0
 40
8.0
 40
8.0
 40
9.0
 40
9.0
 40
9.0
 40
10.0
 40
10.0
 40
10.0
 40
11.0
 40
11.0
 40
11.0
 40
12.0
 40
12.0
 40
12.0
 40
13.0
 40
13.0
 40
13.0
 40
14.0
 40
14.0
 40
14.0
 40
15.0
 40
15.0
 40
15.0
 40
16.0
 40
16.0
 40
16.0
 40
17.0
 40
17.0
 40
17.0
 40
18.0
 40
18.0
 40
18.0
 40
19.0
 40
19.0
 40
19.0
 40
20.0
 40
20.0
 40
20.0
 40
21.0
 40
21.0
 40
21.0
 40
22.0
 40
22.0
 40
22.0
 40
23.0
 40
23.0
 40
23.0
 40
24.0
 40
24.0
 40
24.0
 40
25.0
 40
25.0
 40
25.0
 40
25.0
 10
161.5263593481818
 20
234.2797135509136
 30
0.0
 10
161.5263593481818
 20
234.2797135509136
 30
0.0
 10
160.9583922937448
 20
234.5654626895683
 30
0.0
 10
160.9583922937448
 20
234.5654626895683
 30
0.0
 10
160.9583922937448
 20
234.5654626895683
 30
0.0
 10
157.1519062920922
 20
236.4775337475755
 30
0.0
 10
157.1519062920922
 20
236.4775337475755
 30
0.0
 10
157.1519062920922
 20
236.4775337475755
 30
0.0
 10
145.757188379088
 20
242.2066414121589
 30
0.0
 10
145.757188379088
 20
242.2066414121589
 30
0.0
 10
145.757188379088
 20
242.2066414121589
 30
0.0
 10
145.757188379088
 20
242.2101726350312
 30
0.0
 10
145.757188379088
 20
242.2101726350312
 30
0.0
 10
145.757188379088
 20
242.2101726350312
 30
0.0
 10
145.4996674915656
 20
242.3406986902286
 30
0.0
 10
145.4996674915656
 20
242.3406986902286
 30
0.0
 10
142.3458332977468
 20
243.9246674669594
 30
0.0
 10
139.1919991039281
 20
245.5086362436901
 30
0.0
 10
136.0381649101094
 20
247.0961362432932
 30
0.0
 10
136.0381649101094
 20
247.0961362432932
 30
0.0
 10
130.3125884683984
 20
249.9712837442021
 30
0.0
 10
130.3125884683984
 20
249.9712837442021
 30
0.0
 10
130.3125884683984
 20
249.9712837442021
 30
0.0
 10
126.6789816645651
 20
251.7986700488125
 30
0.0
 10
126.6789816645651
 20
251.7986700488125
 30
0.0
 10
126.6789816645651
 20
251.7986700488125
 30
0.0
 10
114.4164226669796
 20
257.9652187126354
 30
0.0
 10
114.4164226669796
 20
257.9652187126354
 30
0.0
 10
113.4286491958182
 20
258.4591162141395
 30
0.0
 10
112.2256649160625
 20
258.0604756028026
 30
0.0
 10
111.7282577235328
 20
257.0762118226667
 30
0.0
 10
111.7282577235328
 20
257.0762118226667
 30
0.0
 10
104.5421761145437
 20
242.7781396894682
 30
0.0
 10
104.5421761145437
 20
242.7781396894682
 30
0.0
 10
104.051809835912
 20
241.8009383550771
 30
0.0
 10
104.4328158647338
 20
240.612078966811
 30
0.0
 10
105.4029547533801
 20
240.1076093285365
 30
0.0
 10
114.4975546656573
 20
235.3627439122422
 30
0.0
 10
118.5298020808276
 20
224.5112960254151
 30
0.0
 10
114.740972193537
 20
214.9792551138984
 30
0.0
 10
114.740972193537
 20
214.9792551138984
 30
0.0
 10
94.46684364500308
 20
164.0169695973964
 30
0.0
 10
94.46684364500308
 20
164.0169695973964
 30
0.0
 10
91.67282814277191
 20
156.9931735176093
 30
0.0
 10
85.15703292413176
 20
152.1460102972499
 30
0.0
 10
77.62874567422345
 20
151.4862960436714
 30
0.0
 10
77.62874567422345
 20
151.4862960436714
 30
0.0
 10
49.45238629270418
 20
149.0203828227167
 30
0.0
 10
49.45238629270418
 20
149.0203828227167
 30
0.0
 10
48.41874998789531
 20
148.9321883782943
 30
0.0
 10
47.62853121096613
 20
148.0678785165854
 30
0.0
 10
47.62853121096613
 20
147.030732520751
 30
0.0
 10
47.62853121096613
 20
147.030732520751
 30
0.0
 10
47.62853121096613
 20
130.8629209403203
 30
0.0
 10
47.62853121096613
 20
130.8629209403203
 30
0.0
 10
47.62853121096613
 20
129.7587247736041
 30
0.0
 10
48.52457901483283
 20
128.8626769697374
 30
0.0
 10
49.62877518154897
 20
128.8626769697374
 30
0.0
 10
49.62877518154897
 20
128.8626769697374
 30
0.0
 10
52.62738629191043
 20
128.8626769697374
 30
0.0
 10
52.62738629191043
 20
128.8626769697374
 30
0.0
 10
58.1518983483635
 20
128.8626769697374
 30
0.0
 10
62.62864920851819
 20
124.3859261095828
 30
0.0
 10
62.62864920851819
 20
118.8614140531297
 30
0.0
 10
62.62864920851819
 20
118.8614140531297
 30
0.0
 10
62.62864920851819
 20
38.86199051627192
 30
0.0
 10
62.62864920851819
 20
38.86199051627192
 30
0.0
 10
62.62864920851819
 20
38.86199051627192
 30
0.0
 10
162.6270242920255
 20
38.86199051627192
 30
0.0
 10
162.6270242920255
 20
38.86199051627192
 30
0.0
 10
162.6270242920255
 20
38.86199051627192
 30
0.0
 10
162.6270242920255
 20
232.4911491660526
 30
0.0
 10
162.6270242920255
 20
232.4911491660526
 30
0.0
 10
162.6270242920255
 20
233.2460772461047
 30
0.0
 10
162.2001769614031
 20
233.9375294418411
 30
0.0
 10
161.5263593481818
 20
234.2797135509136
 30
0.0
  0
LWPOLYLINE
  5
97
330
70
100
AcDbEntity
  8
Layer 2
 62
    18
420
        0
370
    25
100
AcDbPolyline
 90
        4
 70
     1
 43
0.0
 10
107.2278010393832
 20
243.6686371801136
 10
109.0146848321375
 20
242.7702796170056
 10
114.404830210787
 20
253.4915823735285
 10
112.6179464180333
 20
254.3899399366365
  0
LWPOLYLINE
  5
98
330
70
100
AcDbEntity
  8
Layer 2
 62
    18
420
        0
370
    25
100
AcDbPolyline
 90
        4
 70
     1
 43
0.0
 10
57.76403621790858
 20
147.7412331165454
 10
57.93834770340411
 20
145.7488437203619
 10
82.8432151556977
 20
147.9277372890534
 10
82.66890367020248
 20
149.9201266852368
  0
LWPOLYLINE
  5
99
330
70
100
AcDbEntity
  8
Layer 2
 62
    18
420
        0
370
    25
100
AcDbPolyline
 90
        4
 70
     1
 43
0.0
 10
52.62777775149591
 20
131.8620650852522
 10
52.62777775149591
 20
145.8620650852527
 10
50.62777775149584
 20
145.8620650852527
 10
50.62777775149584
 20
131.8620650852522
  0
ENDSEC
  0
SECTION
  2
OBJECTS
  0
DICTIONARY
  5
C
330
0
100
AcDbDictionary
281
     1
  3
ACAD_COLOR
350
63
  3
ACAD_DETAILVIEWSTYLE
350
6A
  3
ACAD_GROUP
350
D
  3
ACAD_LAYOUT
350
62
  3
ACAD_MATERIAL
350
10
  3
ACAD_MLEADERSTYLE
350
66
  3
ACAD_MLINESTYLE
350
5F
  3
ACAD_PLOTSETTINGS
350
61
  3
ACAD_PLOTSTYLENAME
350
E
  3
ACAD_SCALELIST
350
42
  3
ACAD_SECTIONVIEWSTYLE
350
68
  3
ACAD_TABLESTYLE
350
64
  3
ACAD_VISUALSTYLE
350
29
  3
ACDB_RECOMPOSE_DATA
350
A2
  3
AcDbVariableDictionary
350
9A
  0
DICTIONARY
  5
63
102
{ACAD_REACTORS
330
C
102
}
330
C
100
AcDbDictionary
281
     1
  0
DICTIONARY
  5
6A
102
{ACAD_REACTORS
330
C
102
}
330
C
100
AcDbDictionary
281
     1
  3
Imperial24
350
6B
  0
DICTIONARY
  5
D
102
{ACAD_REACTORS
330
C
102
}
330
C
100
AcDbDictionary
281
     1
  0
DICTIONARY
  5
62
102
{ACAD_REACTORS
330
C
102
}
330
C
100
AcDbDictionary
281
     1
  3
Layout1
350
6F
  3
Layout2
350
77
  3
Model
350
73
  0
DICTIONARY
  5
10
102
{ACAD_REACTORS
330
C
102
}
330
C
100
AcDbDictionary
281
     1
  3
ByBlock
350
19
  3
ByLayer
350
11
  3
Global
350
21
  0
DICTIONARY
  5
66
102
{ACAD_REACTORS
330
C
102
}
330
C
100
AcDbDictionary
281
     1
  3
Standard
350
67
  0
DICTIONARY
  5
5F
102
{ACAD_REACTORS
330
C
102
}
330
C
100
AcDbDictionary
281
     1
  3
Standard
350
60
  0
DICTIONARY
  5
61
102
{ACAD_REACTORS
330
C
102
}
330
C
100
AcDbDictionary
281
     1
  0
ACDBDICTIONARYWDFLT
  5
E
102
{ACAD_REACTORS
330
C
102
}
330
C
100
AcDbDictionary
281
     1
  3
Normal
350
F
100
AcDbDictionaryWithDefault
340
F
  0
DICTIONARY
  5
42
102
{ACAD_REACTORS
330
C
102
}
330
C
100
AcDbDictionary
281
     1
  3
A0
350
43
  3
A1
350
44
  3
A2
350
45
  3
A3
350
46
  3
A4
350
47
  3
A5
350
48
  3
A6
350
49
  3
A7
350
4A
  3
A8
350
4B
  3
A9
350
4C
  3
B0
350
4D
  3
B1
350
4E
  3
B2
350
4F
  3
B3
350
50
  3
B4
350
51
  3
B5
350
52
  3
B6
350
53
  0
DICTIONARY
  5
68
102
{ACAD_REACTORS
330
C
102
}
330
C
100
AcDbDictionary
281
     1
  3
Imperial24
350
69
  0
DICTIONARY
  5
64
102
{ACAD_REACTORS
330
C
102
}
330
C
100
AcDbDictionary
281
     1
  3
Standard
350
65
  0
DICTIONARY
  5
29
102
{ACAD_REACTORS
330
C
102
}
330
C
100
AcDbDictionary
281
     1
  3
2dWireframe
350
2F
  3
Basic
350
2E
  3
Brighten
350
35
  3
ColorChange
350
39
  3
Conceptual
350
32
  3
Dim
350
34
  3
EdgeColorOff
350
41
  3
Facepattern
350
38
  3
Flat
350
2A
  3
FlatWithEdges
350
2B
  3
Gouraud
350
2C
  3
GouraudWithEdges
350
2D
  3
Hidden
350
31
  3
JitterOff
350
3F
  3
Linepattern
350
37
  3
OverhangOff
350
40
  3
Realistic
350
33
  3
Shaded
350
3E
  3
Shaded with edges
350
3D
  3
Shades of Gray
350
3A
  3
Sketchy
350
3B
  3
Thicken
350
36
  3
Wireframe
350
30
  3
X-Ray
350
3C
  0
XRECORD
  5
A2
102
{ACAD_REACTORS
330
C
102
}
330
C
100
AcDbXrecord
280
     1
 90
        1
330
65
  0
DICTIONARY
  5
9A
102
{ACAD_REACTORS
330
C
102
}
330
C
100
AcDbDictionary
281
     1
  3
CANNOSCALE
350
9F
  3
CMLEADERSTYLE
350
9C
  3
CTABLESTYLE
350
9B
  3
CVIEWDETAILSTYLE
350
9D
  3
CVIEWSECTIONSTYLE
350
9E
  0
ACDBDETAILVIEWSTYLE
  5
6B
102
{ACAD_REACTORS
330
6A
102
}
330
6A
100
AcDbModelDocViewStyle
 70
     0
  3
Imperial24
290
     1
300
Imperial24
 90
        0
100
AcDbDetailViewStyle
 70
     0
 71
     0
 90
        3
 71
     1
340
55
 62
   256
 40
0.24
340
0
 62
   256
 40
0.24
300

 40
0.36
280
     3
 71
     2
340
5D
 90
       25
 62
   256
 71
     3
340
55
 62
   256
 40
0.24
 90
        1
 40
0.75
 90
        1
300
%<\AcVar ViewType \f "%tc1">% %<\AcVar ViewDetailId>%\PSCALE %<\AcVar ViewScale \f "%sn">%
 71
     4
340
5D
 90
       25
 62
   256
340
5D
 90
       25
 62
   256
280
     0
  0
LAYOUT
  5
6F
102
{ACAD_REACTORS
330
62
102
}
330
62
100
AcDbPlotSettings
  1

  2

  4

  6

 40
0.0
 41
0.0
 42
0.0
 43
0.0
 44
0.0
 45
0.0
 46
0.0
 47
0.0
 48
0.0
 49
0.0
140
0.0
141
0.0
142
1.0
143
1.0
 70
   688
 72
     0
 73
     0
 74
     5
  7

 75
    16
147
1.0
 76
     0
 77
     2
 78
   300
148
0.0
149
0.0
100
AcDbLayout
  1
Layout1
 70
     1
 71
     1
 10
0.0
 20
0.0
 11
12.0
 21
9.0
 12
0.0
 22
0.0
 32
0.0
 14
0.0
 24
0.0
 34
0.0
 15
0.0
 25
0.0
 35
0.0
146
0.0
 13
0.0
 23
0.0
 33
0.0
 16
1.0
 26
0.0
 36
0.0
 17
0.0
 27
1.0
 37
0.0
 76
     0
330
6C
  0
LAYOUT
  5
77
102
{ACAD_REACTORS
330
62
102
}
330
62
100
AcDbPlotSettings
  1

  2

  4

  6

 40
0.0
 41
0.0
 42
0.0
 43
0.0
 44
0.0
 45
0.0
 46
0.0
 47
0.0
 48
0.0
 49
0.0
140
0.0
141
0.0
142
1.0
143
1.0
 70
   688
 72
     0
 73
     0
 74
     5
  7

 75
    16
147
1.0
 76
     0
 77
     2
 78
   300
148
0.0
149
0.0
100
AcDbLayout
  1
Layout2
 70
     1
 71
     2
 10
0.0
 20
0.0
 11
12.0
 21
9.0
 12
0.0
 22
0.0
 32
0.0
 14
0.0
 24
0.0
 34
0.0
 15
0.0
 25
0.0
 35
0.0
146
0.0
 13
0.0
 23
0.0
 33
0.0
 16
1.0
 26
0.0
 36
0.0
 17
0.0
 27
1.0
 37
0.0
 76
     0
330
74
  0
LAYOUT
  5
73
102
{ACAD_REACTORS
330
62
102
}
330
62
100
AcDbPlotSettings
  1

  2

  4

  6

 40
0.0
 41
0.0
 42
0.0
 43
0.0
 44
0.0
 45
0.0
 46
0.0
 47
0.0
 48
0.0
 49
0.0
140
0.0
141
0.0
142
1.0
143
1.0
 70
  1712
 72
     0
 73
     0
 74
     0
  7

 75
     0
147
1.0
 76
     0
 77
     2
 78
   300
148
0.0
149
0.0
100
AcDbLayout
  1
Model
 70
     1
 71
     0
 10
0.0
 20
0.0
 11
12.0
 21
9.0
 12
0.0
 22
0.0
 32
0.0
 14
0.0
 24
0.0
 34
0.0
 15
0.0
 25
0.0
 35
0.0
146
0.0
 13
0.0
 23
0.0
 33
0.0
 16
1.0
 26
0.0
 36
0.0
 17
0.0
 27
1.0
 37
0.0
 76
     0
330
70
  0
MATERIAL
  5
19
102
{ACAD_XDICTIONARY
360
1A
102
}
102
{ACAD_REACTORS
330
10
102
}
330
10
100
AcDbMaterial
  1
ByBlock
 72
     0
 43
0.0208333333333333
 43
0.0
 43
0.0
 43
0.0
 43
0.0
 43
0.0208333333333333
 43
0.0
 43
0.0
 43
0.0
 43
0.0
 43
1.0
 43
0.0
 43
0.0
 43
0.0
 43
0.0
 43
1.0
 77
     0
 47
0.0208333333333333
 47
0.0
 47
0.0
 47
0.0
 47
0.0
 47
0.0208333333333333
 47
0.0
 47
0.0
 47
0.0
 47
0.0
 47
1.0
 47
0.0
 47
0.0
 47
0.0
 47
0.0
 47
1.0
171
     0
 49
0.0208333333333333
 49
0.0
 49
0.0
 49
0.0
 49
0.0
 49
0.0208333333333333
 49
0.0
 49
0.0
 49
0.0
 49
0.0
 49
1.0
 49
0.0
 49
0.0
 49
0.0
 49
0.0
 49
1.0
175
     0
142
0.0208333333333333
142
0.0
142
0.0
142
0.0
142
0.0
142
0.0208333333333333
142
0.0
142
0.0
142
0.0
142
0.0
142
1.0
142
0.0
142
0.0
142
0.0
142
0.0
142
1.0
179
     0
144
0.0208333333333333
144
0.0
144
0.0
144
0.0
144
0.0
144
0.0208333333333333
144
0.0
144
0.0
144
0.0
144
0.0
144
1.0
144
0.0
144
0.0
144
0.0
144
0.0
144
1.0
147
0.0208333333333333
147
0.0
147
0.0
147
0.0
147
0.0
147
0.0208333333333333
147
0.0
147
0.0
147
0.0
147
0.0
147
1.0
147
0.0
147
0.0
147
0.0
147
0.0
147
1.0
  0
MATERIAL
  5
11
102
{ACAD_XDICTIONARY
360
12
102
}
102
{ACAD_REACTORS
330
10
102
}
330
10
100
AcDbMaterial
  1
ByLayer
 72
     0
 43
0.0208333333333333
 43
0.0
 43
0.0
 43
0.0
 43
0.0
 43
0.0208333333333333
 43
0.0
 43
0.0
 43
0.0
 43
0.0
 43
1.0
 43
0.0
 43
0.0
 43
0.0
 43
0.0
 43
1.0
 77
     0
 47
0.0208333333333333
 47
0.0
 47
0.0
 47
0.0
 47
0.0
 47
0.0208333333333333
 47
0.0
 47
0.0
 47
0.0
 47
0.0
 47
1.0
 47
0.0
 47
0.0
 47
0.0
 47
0.0
 47
1.0
171
     0
 49
0.0208333333333333
 49
0.0
 49
0.0
 49
0.0
 49
0.0
 49
0.0208333333333333
 49
0.0
 49
0.0
 49
0.0
 49
0.0
 49
1.0
 49
0.0
 49
0.0
 49
0.0
 49
0.0
 49
1.0
175
     0
142
0.0208333333333333
142
0.0
142
0.0
142
0.0
142
0.0
142
0.0208333333333333
142
0.0
142
0.0
142
0.0
142
0.0
142
1.0
142
0.0
142
0.0
142
0.0
142
0.0
142
1.0
179
     0
144
0.0208333333333333
144
0.0
144
0.0
144
0.0
144
0.0
144
0.0208333333333333
144
0.0
144
0.0
144
0.0
144
0.0
144
1.0
144
0.0
144
0.0
144
0.0
144
0.0
144
1.0
147
0.0208333333333333
147
0.0
147
0.0
147
0.0
147
0.0
147
0.0208333333333333
147
0.0
147
0.0
147
0.0
147
0.0
147
1.0
147
0.0
147
0.0
147
0.0
147
0.0
147
1.0
  0
MATERIAL
  5
21
102
{ACAD_XDICTIONARY
360
22
102
}
102
{ACAD_REACTORS
330
10
102
}
330
10
100
AcDbMaterial
  1
Global
 72
     0
 43
0.0208333333333333
 43
0.0
 43
0.0
 43
0.0
 43
0.0
 43
0.0208333333333333
 43
0.0
 43
0.0
 43
0.0
 43
0.0
 43
1.0
 43
0.0
 43
0.0
 43
0.0
 43
0.0
 43
1.0
 77
     0
 47
0.0208333333333333
 47
0.0
 47
0.0
 47
0.0
 47
0.0
 47
0.0208333333333333
 47
0.0
 47
0.0
 47
0.0
 47
0.0
 47
1.0
 47
0.0
 47
0.0
 47
0.0
 47
0.0
 47
1.0
171
     0
 49
0.0208333333333333
 49
0.0
 49
0.0
 49
0.0
 49
0.0
 49
0.0208333333333333
 49
0.0
 49
0.0
 49
0.0
 49
0.0
 49
1.0
 49
0.0
 49
0.0
 49
0.0
 49
0.0
 49
1.0
175
     0
142
0.0208333333333333
142
0.0
142
0.0
142
0.0
142
0.0
142
0.0208333333333333
142
0.0
142
0.0
142
0.0
142
0.0
142
1.0
142
0.0
142
0.0
142
0.0
142
0.0
142
1.0
179
     0
144
0.0208333333333333
144
0.0
144
0.0
144
0.0
144
0.0
144
0.0208333333333333
144
0.0
144
0.0
144
0.0
144
0.0
144
1.0
144
0.0
144
0.0
144
0.0
144
0.0
144
1.0
147
0.0208333333333333
147
0.0
147
0.0
147
0.0
147
0.0
147
0.0208333333333333
147
0.0
147
0.0
147
0.0
147
0.0
147
1.0
147
0.0
147
0.0
147
0.0
147
0.0
147
1.0
  0
MLEADERSTYLE
  5
67
102
{ACAD_REACTORS
330
66
102
}
330
66
100
AcDbMLeaderStyle
179
     2
170
     2
171
     1
172
     0
 90
        2
 40
0.0
 41
0.0
173
     1
 91
-1056964608
340
5B
 92
       -2
290
     1
 42
0.09
291
     1
 43
0.36
  3
Standard
 44
0.18
300

342
55
174
     1
178
     6
175
     1
176
     0
 93
-1056964608
 45
0.18
292
     0
297
     0
 46
0.18
 94
-1056964608
 47
1.0
 49
1.0
140
1.0
293
     1
141
0.0
294
     1
177
     0
142
1.0
295
     1
296
     0
143
0.125
271
     0
272
     9
273
     9
298
     1
  0
MLINESTYLE
  5
60
102
{ACAD_REACTORS
330
5F
102
}
330
5F
100
AcDbMlineStyle
  2
STANDARD
 70
     0
  3

 62
   256
 51
90.0
 52
90.0
 71
     2
 49
0.5
 62
   256
  6
BYLAYER
 49
-0.5
 62
   256
  6
BYLAYER
  0
ACDBPLACEHOLDER
  5
F
102
{ACAD_REACTORS
330
E
102
}
330
E
  0
SCALE
  5
43
102
{ACAD_REACTORS
330
42
102
}
330
42
100
AcDbScale
 70
     0
300
1:1
140
1.0
141
1.0
290
     1
  0
SCALE
  5
44
102
{ACAD_REACTORS
330
42
102
}
330
42
100
AcDbScale
 70
     0
300
1/128" = 1'-0"
140
0.0078125
141
12.0
290
     0
  0
SCALE
  5
45
102
{ACAD_REACTORS
330
42
102
}
330
42
100
AcDbScale
 70
     0
300
1/64" = 1'-0"
140
0.015625
141
12.0
290
     0
  0
SCALE
  5
46
102
{ACAD_REACTORS
330
42
102
}
330
42
100
AcDbScale
 70
     0
300
1/32" = 1'-0"
140
0.03125
141
12.0
290
     0
  0
SCALE
  5
47
102
{ACAD_REACTORS
330
42
102
}
330
42
100
AcDbScale
 70
     0
300
1/16" = 1'-0"
140
0.0625
141
12.0
290
     0
  0
SCALE
  5
48
102
{ACAD_REACTORS
330
42
102
}
330
42
100
AcDbScale
 70
     0
300
3/32" = 1'-0"
140
0.09375
141
12.0
290
     0
  0
SCALE
  5
49
102
{ACAD_REACTORS
330
42
102
}
330
42
100
AcDbScale
 70
     0
300
1/8" = 1'-0"
140
0.125
141
12.0
290
     0
  0
SCALE
  5
4A
102
{ACAD_REACTORS
330
42
102
}
330
42
100
AcDbScale
 70
     0
300
3/16" = 1'-0"
140
0.1875
141
12.0
290
     0
  0
SCALE
  5
4B
102
{ACAD_REACTORS
330
42
102
}
330
42
100
AcDbScale
 70
     0
300
1/4" = 1'-0"
140
0.25
141
12.0
290
     0
  0
SCALE
  5
4C
102
{ACAD_REACTORS
330
42
102
}
330
42
100
AcDbScale
 70
     0
300
3/8" = 1'-0"
140
0.375
141
12.0
290
     0
  0
SCALE
  5
4D
102
{ACAD_REACTORS
330
42
102
}
330
42
100
AcDbScale
 70
     0
300
1/2" = 1'-0"
140
0.5
141
12.0
290
     0
  0
SCALE
  5
4E
102
{ACAD_REACTORS
330
42
102
}
330
42
100
AcDbScale
 70
     0
300
3/4" = 1'-0"
140
0.75
141
12.0
290
     0
  0
SCALE
  5
4F
102
{ACAD_REACTORS
330
42
102
}
330
42
100
AcDbScale
 70
     0
300
1" = 1'-0"
140
1.0
141
12.0
290
     0
  0
SCALE
  5
50
102
{ACAD_REACTORS
330
42
102
}
330
42
100
AcDbScale
 70
     0
300
1-1/2" = 1'-0"
140
1.5
141
12.0
290
     0
  0
SCALE
  5
51
102
{ACAD_REACTORS
330
42
102
}
330
42
100
AcDbScale
 70
     0
300
3" = 1'-0"
140
3.0
141
12.0
290
     0
  0
SCALE
  5
52
102
{ACAD_REACTORS
330
42
102
}
330
42
100
AcDbScale
 70
     0
300
6" = 1'-0"
140
6.0
141
12.0
290
     0
  0
SCALE
  5
53
102
{ACAD_REACTORS
330
42
102
}
330
42
100
AcDbScale
 70
     0
300
1'-0" = 1'-0"
140
12.0
141
12.0
290
     0
  0
ACDBSECTIONVIEWSTYLE
  5
69
102
{ACAD_REACTORS
330
68
102
}
330
68
100
AcDbModelDocViewStyle
 70
     0
  3
Imperial24
290
     1
300
Imperial24
 90
        0
100
AcDbSectionViewStyle
 70
     0
 71
     0
 90
       78
 71
     1
340
55
 62
   256
 40
0.24
340
0
340
0
 62
   256
 40
0.24
300
I, O, Q, S, X, Z
 40
0.48
 90
        3
 40
0.18
 90
        1
 71
     2
340
5D
 90
       25
 62
   256
340
5D
 90
       50
 62
   256
 40
0.24
 40
0.0
 40
0.24
 71
     3
340
55
 62
   256
 40
0.24
 90
        1
 40
0.75
 90
        1
300
%<\AcVar ViewType \f "%tc1">% %<\AcVar ViewSectionStartId>%-%<\AcVar ViewSectionEndId>%\PSCALE %<\AcVar ViewScale \f "%sn">%
 71
     4
 62
   256
 62
   257
300
ANSI31
 40
1.0
 90
        0
290
     0
290
     0
 90
        6
 40
0.0
 40
1.570796326794896
 40
0.2617993877991494
 40
1.308996938995747
 40
-0.2617993877991494
 40
1.832595714594046
  0
TABLESTYLE
  5
65
102
{ACAD_XDICTIONARY
360
A0
102
}
102
{ACAD_REACTORS
330
64
102
}
330
64
100
AcDbTableStyle
280
     0
  3
Standard
 70
     0
 71
     0
 40
0.06
 41
0.06
280
     0
281
     0
  7
Standard
140
0.18
170
     2
 62
     0
 63
     7
283
     0
 90
      512
 91
        0
  1

274
    -2
284
     1
 64
     0
275
    -2
285
     1
 65
     0
276
    -2
286
     1
 66
     0
277
    -2
287
     1
 67
     0
278
    -2
288
     1
 68
     0
279
    -2
289
     1
 69
     0
  7
Standard
140
0.25
170
     5
 62
     0
 63
     7
283
     0
 90
      512
 91
        0
  1

274
    -2
284
     1
 64
     0
275
    -2
285
     1
 65
     0
276
    -2
286
     1
 66
     0
277
    -2
287
     1
 67
     0
278
    -2
288
     1
 68
     0
279
    -2
289
     1
 69
     0
  7
Standard
140
0.18
170
     5
 62
     0
 63
     7
283
     0
 90
      512
 91
        0
  1

274
    -2
284
     1
 64
     0
275
    -2
285
     1
 65
     0
276
    -2
286
     1
 66
     0
277
    -2
287
     1
 67
     0
278
    -2
288
     1
 68
     0
279
    -2
289
     1
 69
     0
  0
VISUALSTYLE
  5
2F
102
{ACAD_REACTORS
330
29
102
}
330
29
100
AcDbVisualStyle
  2
2dWireframe
 70
     4
177
     3
291
     0
 70
    58
 90
        0
176
     1
 90
        2
176
     1
 90
        0
176
     1
 90
        0
176
     1
 40
0.6
176
     1
 40
30.0
176
     1
 62
     7
420
 16777215
176
     1
 90
        1
176
     1
 90
        4
176
     1
 62
     7
176
     1
 62
   257
176
     1
 90
        1
176
     1
 90
        1
176
     1
 40
1.0
176
     1
 90
        0
176
     1
 62
   257
176
     1
 40
1.0
176
     1
 90
        1
176
     1
 90
        6
176
     1
 90
        2
176
     1
 62
     7
176
     1
 90
        5
176
     1
 90
        0
176
     1
 90
        0
176
     1
290
     0
176
     1
 90
        1
176
     1
 40
0.0
176
     1
 90
        0
176
     1
290
     1
176
     1
290
     1
176
     1
290
     0
176
     1
290
     0
176
     1
290
     0
176
     1
290
     0
176
     1
290
     0
176
     1
290
     0
176
     1
290
     0
176
     1
 90
       50
176
     1
 40
0.0
176
     1
 40
1.0
176
     1
 90
        0
176
     1
 62
    18
420
        0
176
     1
 90
       50
176
     1
 90
        3
176
     1
 62
     5
420
      255
176
     1
290
     0
176
     1
 90
       50
176
     1
 90
       50
176
     1
 90
       50
176
     1
290
     0
176
     1
 90
       50
176
     1
 62
   256
176
     0
 40
1.0
176
     0
 90
        2
176
     1
  1
strokes_ogs.tif
176
     1
290
     0
176
     1
 40
1.0
176
     1
 40
1.0
176
     1
  0
VISUALSTYLE
  5
2E
102
{ACAD_REACTORS
330
29
102
}
330
29
100
AcDbVisualStyle
  2
Basic
 70
     7
177
     3
291
     1
 70
    58
 90
        1
176
     1
 90
        0
176
     1
 90
        1
176
     1
 90
        0
176
     1
 40
0.6
176
     1
 40
30.0
176
     1
 62
     7
420
 16777215
176
     1
 90
        0
176
     1
 90
        4
176
     1
 62
     7
176
     1
 62
   257
176
     1
 90
        1
176
     1
 90
        1
176
     1
 40
1.0
176
     1
 90
        8
176
     1
 62
     7
176
     1
 40
1.0
176
     1
 90
        1
176
     1
 90
        6
176
     1
 90
        2
176
     1
 62
     7
176
     1
 90
        5
176
     1
 90
        0
176
     1
 90
        0
176
     1
290
     0
176
     1
 90
        1
176
     1
 40
0.0
176
     1
 90
        0
176
     1
290
     0
176
     1
290
     1
176
     1
290
     1
176
     1
290
     0
176
     1
290
     0
176
     1
290
     0
176
     1
290
     0
176
     1
290
     0
176
     1
290
     0
176
     1
 90
       50
176
     1
 40
0.0
176
     1
 40
1.0
176
     1
 90
        0
176
     1
 62
    18
420
        0
176
     1
 90
       50
176
     1
 90
        3
176
     1
 62
     5
420
      255
176
     1
290
     0
176
     1
 90
       50
176
     1
 90
       50
176
     1
 90
       50
176
     1
290
     0
176
     1
 90
       50
176
     1
 62
   256
176
     0
 40
1.0
176
     0
 90
        2
176
     1
  1
strokes_ogs.tif
176
     1
290
     0
176
     1
 40
1.0
176
     1
 40
1.0
176
     1
  0
VISUALSTYLE
  5
35
102
{ACAD_REACTORS
330
29
102
}
330
29
100
AcDbVisualStyle
  2
Brighten
 70
    12
177
     3
291
     1
 70
    58
 90
        2
176
     1
 90
        2
176
     1
 90
        0
176
     1
 90
        0
176
     1
 40
0.6
176
     1
 40
30.0
176
     1
 62
     7
420
 16777215
176
     1
 90
        1
176
     1
 90
        4
176
     1
 62
     7
176
     1
 62
   257
176
     1
 90
        1
176
     1
 90
        1
176
     1
 40
1.0
176
     1
 90
        8
176
     1
 62
     7
176
     1
 40
1.0
176
     1
 90
        1
176
     1
 90
        6
176
     1
 90
        2
176
     1
 62
     7
176
     1
 90
        5
176
     1
 90
        0
176
     1
 90
        0
176
     1
290
     0
176
     1
 90
        1
176
     1
 40
50.0
176
     1
 90
        0
176
     1
290
     0
176
     1
290
     1
176
     1
290
     1
176
     1
290
     0
176
     1
290
     0
176
     1
290
     0
176
     1
290
     0
176
     1
290
     0
176
     1
290
     0
176
     1
 90
       50
176
     1
 40
0.0
176
     1
 40
1.0
176
     1
 90
        0
176
     1
 62
    18
420
        0
176
     1
 90
       50
176
     1
 90
        3
176
     1
 62
     5
420
      255
176
     1
290
     0
176
     1
 90
       50
176
     1
 90
       50
176
     1
 90
       50
176
     1
290
     0
176
     1
 90
       50
176
     1
 62
   256
176
     0
 40
1.0
176
     0
 90
        2
176
     1
  1
strokes_ogs.tif
176
     1
290
     0
176
     1
 40
1.0
176
     1
 40
1.0
176
     1
  0
VISUALSTYLE
  5
39
102
{ACAD_REACTORS
330
29
102
}
330
29
100
AcDbVisualStyle
  2
ColorChange
 70
    16
177
     3
291
     1
 70
    58
 90
        2
176
     1
 90
        2
176
     1
 90
        3
176
     1
 90
        0
176
     1
 40
0.6
176
     1
 40
30.0
176
     1
 62
     8
420
  8421504
176
     1
 90
        1
176
     1
 90
        4
176
     1
 62
     7
176
     1
 62
   257
176
     1
 90
        1
176
     1
 90
        1
176
     1
 40
1.0
176
     1
 90
        8
176
     1
 62
     8
420
  8421504
176
     1
 40
1.0
176
     1
 90
        1
176
     1
 90
        6
176
     1
 90
        2
176
     1
 62
     7
176
     1
 90
        5
176
     1
 90
        0
176
     1
 90
        0
176
     1
290
     0
176
     1
 90
        1
176
     1
 40
0.0
176
     1
 90
        0
176
     1
290
     0
176
     1
290
     1
176
     1
290
     1
176
     1
290
     0
176
     1
290
     0
176
     1
290
     0
176
     1
290
     0
176
     1
290
     0
176
     1
290
     0
176
     1
 90
       50
176
     1
 40
0.0
176
     1
 40
1.0
176
     1
 90
        0
176
     1
 62
    18
420
        0
176
     1
 90
       50
176
     1
 90
        3
176
     1
 62
     5
420
      255
176
     1
290
     0
176
     1
 90
       50
176
     1
 90
       50
176
     1
 90
       50
176
     1
290
     0
176
     1
 90
       50
176
     1
 62
   256
176
     0
 40
1.0
176
     0
 90
        2
176
     1
  1
strokes_ogs.tif
176
     1
290
     0
176
     1
 40
1.0
176
     1
 40
1.0
176
     1
  0
VISUALSTYLE
  5
32
102
{ACAD_REACTORS
330
29
102
}
330
29
100
AcDbVisualStyle
  2
Conceptual
 70
     9
177
     3
291
     0
 70
    58
 90
        3
176
     1
 90
        2
176
     1
 90
        0
176
     1
 90
        0
176
     1
 40
0.6
176
     1
 40
30.0
176
     1
 62
     7
420
 16777215
176
     1
 90
        2
176
     1
 90
        2
176
     1
 62
     7
176
     1
 62
   257
176
     1
 90
        1
176
     1
 90
        1
176
     1
 40
179.0
176
     1
 90
        8
176
     1
 62
     7
176
     1
 40
1.0
176
     1
 90
        1
176
     1
 90
        6
176
     1
 90
        2
176
     1
 62
     7
176
     1
 90
        3
176
     1
 90
        0
176
     1
 90
        0
176
     1
290
     0
176
     1
 90
        1
176
     1
 40
0.0
176
     1
 90
        0
176
     1
290
     0
176
     1
290
     1
176
     1
290
     1
176
     1
290
     0
176
     1
290
     0
176
     1
290
     0
176
     1
290
     0
176
     1
290
     0
176
     1
290
     0
176
     1
 90
       50
176
     1
 40
0.0
176
     1
 40
1.0
176
     1
 90
        0
176
     1
 62
    18
420
        0
176
     1
 90
       50
176
     1
 90
        3
176
     1
 62
     5
420
      255
176
     1
290
     0
176
     1
 90
       50
176
     1
 90
       50
176
     1
 90
       50
176
     1
290
     0
176
     1
 90
       50
176
     1
 62
   256
176
     0
 40
1.0
176
     0
 90
        2
176
     1
  1
strokes_ogs.tif
176
     1
290
     0
176
     1
 40
1.0
176
     1
 40
1.0
176
     1
  0
VISUALSTYLE
  5
34
102
{ACAD_REACTORS
330
29
102
}
330
29
100
AcDbVisualStyle
  2
Dim
 70
    11
177
     3
291
     1
 70
    58
 90
        2
176
     1
 90
        2
176
     1
 90
        0
176
     1
 90
        0
176
     1
 40
0.6
176
     1
 40
30.0
176
     1
 62
     7
420
 16777215
176
     1
 90
        1
176
     1
 90
        4
176
     1
 62
     7
176
     1
 62
   257
176
     1
 90
        1
176
     1
 90
        1
176
     1
 40
1.0
176
     1
 90
        8
176
     1
 62
     7
176
     1
 40
1.0
176
     1
 90
        1
176
     1
 90
        6
176
     1
 90
        2
176
     1
 62
     7
176
     1
 90
        5
176
     1
 90
        0
176
     1
 90
        0
176
     1
290
     0
176
     1
 90
        1
176
     1
 40
-50.0
176
     1
 90
        0
176
     1
290
     0
176
     1
290
     1
176
     1
290
     1
176
     1
290
     0
176
     1
290
     0
176
     1
290
     0
176
     1
290
     0
176
     1
290
     0
176
     1
290
     0
176
     1
 90
       50
176
     1
 40
0.0
176
     1
 40
1.0
176
     1
 90
        0
176
     1
 62
    18
420
        0
176
     1
 90
       50
176
     1
 90
        3
176
     1
 62
     5
420
      255
176
     1
290
     0
176
     1
 90
       50
176
     1
 90
       50
176
     1
 90
       50
176
     1
290
     0
176
     1
 90
       50
176
     1
 62
   256
176
     0
 40
1.0
176
     0
 90
        2
176
     1
  1
strokes_ogs.tif
176
     1
290
     0
176
     1
 40
1.0
176
     1
 40
1.0
176
     1
  0
VISUALSTYLE
  5
41
102
{ACAD_REACTORS
330
29
102
}
330
29
100
AcDbVisualStyle
  2
EdgeColorOff
 70
    22
177
     3
291
     1
 70
    58
 90
        2
176
     0
 90
        2
176
     0
 90
        0
176
     0
 90
        0
176
     0
 40
0.6
176
     0
 40
30.0
176
     0
 62
     7
420
 16777215
176
     0
 90
        1
176
     0
 90
        4
176
     0
 62
     7
176
     0
 62
   257
176
     0
 90
        1
176
     0
 90
        1
176
     0
 40
1.0
176
     0
 90
        8
176
     2
 62
     7
176
     0
 40
1.0
176
     0
 90
        1
176
     0
 90
        6
176
     0
 90
        2
176
     0
 62
     7
176
     0
 90
        5
176
     0
 90
        0
176
     0
 90
        0
176
     0
290
     0
176
     0
 90
        1
176
     0
 40
0.0
176
     0
 90
        0
176
     0
290
     0
176
     0
290
     1
176
     0
290
     1
176
     0
290
     0
176
     0
290
     0
176
     0
290
     0
176
     0
290
     0
176
     0
290
     0
176
     0
290
     0
176
     0
 90
       50
176
     0
 40
0.0
176
     0
 40
1.0
176
     0
 90
        0
176
     0
 62
    18
420
        0
176
     0
 90
       50
176
     0
 90
        3
176
     0
 62
     5
420
      255
176
     0
290
     0
176
     0
 90
       50
176
     0
 90
       50
176
     0
 90
       50
176
     0
290
     0
176
     0
 90
       50
176
     0
 62
   256
176
     0
 40
1.0
176
     0
 90
        2
176
     0
  1
strokes_ogs.tif
176
     0
290
     0
176
     0
 40
1.0
176
     0
 40
1.0
176
     0
  0
VISUALSTYLE
  5
38
102
{ACAD_REACTORS
330
29
102
}
330
29
100
AcDbVisualStyle
  2
Facepattern
 70
    15
177
     3
291
     1
 70
    58
 90
        2
176
     1
 90
        2
176
     1
 90
        0
176
     1
 90
        0
176
     1
 40
0.6
176
     1
 40
30.0
176
     1
 62
     7
420
 16777215
176
     1
 90
        1
176
     1
 90
        4
176
     1
 62
     7
176
     1
 62
   257
176
     1
 90
        1
176
     1
 90
        1
176
     1
 40
1.0
176
     1
 90
        8
176
     1
 62
     7
176
     1
 40
1.0
176
     1
 90
        1
176
     1
 90
        6
176
     1
 90
        2
176
     1
 62
     7
176
     1
 90
        5
176
     1
 90
        0
176
     1
 90
        0
176
     1
290
     0
176
     1
 90
        1
176
     1
 40
0.0
176
     1
 90
        0
176
     1
290
     0
176
     1
290
     1
176
     1
290
     1
176
     1
290
     0
176
     1
290
     0
176
     1
290
     0
176
     1
290
     0
176
     1
290
     0
176
     1
290
     0
176
     1
 90
       50
176
     1
 40
0.0
176
     1
 40
1.0
176
     1
 90
        0
176
     1
 62
    18
420
        0
176
     1
 90
       50
176
     1
 90
        3
176
     1
 62
     5
420
      255
176
     1
290
     0
176
     1
 90
       50
176
     1
 90
       50
176
     1
 90
       50
176
     1
290
     0
176
     1
 90
       50
176
     1
 62
   256
176
     0
 40
1.0
176
     0
 90
        2
176
     1
  1
strokes_ogs.tif
176
     1
290
     0
176
     1
 40
1.0
176
     1
 40
1.0
176
     1
  0
VISUALSTYLE
  5
2A
102
{ACAD_REACTORS
330
29
102
}
330
29
100
AcDbVisualStyle
  2
Flat
 70
     0
177
     3
291
     1
 70
    58
 90
        2
176
     1
 90
        1
176
     1
 90
        1
176
     1
 90
        2
176
     1
 40
0.6
176
     1
 40
30.0
176
     1
 62
     7
420
 16777215
176
     1
 90
        0
176
     1
 90
        0
176
     1
 62
     7
176
     1
 62
   257
176
     1
 90
        1
176
     1
 90
        1
176
     1
 40
1.0
176
     1
 90
        8
176
     1
 62
     7
176
     1
 40
1.0
176
     1
 90
        1
176
     1
 90
        6
176
     1
 90
        2
176
     1
 62
     7
176
     1
 90
        5
176
     1
 90
        0
176
     1
 90
        0
176
     1
290
     0
176
     1
 90
       13
176
     1
 40
0.0
176
     1
 90
        0
176
     1
290
     0
176
     1
290
     1
176
     1
290
     1
176
     1
290
     0
176
     1
290
     0
176
     1
290
     0
176
     1
290
     0
176
     1
290
     0
176
     1
290
     0
176
     1
 90
       50
176
     1
 40
0.0
176
     1
 40
1.0
176
     1
 90
        0
176
     1
 62
    18
420
        0
176
     1
 90
       50
176
     1
 90
        3
176
     1
 62
     5
420
      255
176
     1
290
     0
176
     1
 90
       50
176
     1
 90
       50
176
     1
 90
       50
176
     1
290
     0
176
     1
 90
       50
176
     1
 62
   256
176
     0
 40
1.0
176
     0
 90
        2
176
     1
  1
strokes_ogs.tif
176
     1
290
     0
176
     1
 40
1.0
176
     1
 40
1.0
176
     1
  0
VISUALSTYLE
  5
2B
102
{ACAD_REACTORS
330
29
102
}
330
29
100
AcDbVisualStyle
  2
FlatWithEdges
 70
     1
177
     3
291
     1
 70
    58
 90
        2
176
     1
 90
        1
176
     1
 90
        1
176
     1
 90
        2
176
     1
 40
0.6
176
     1
 40
30.0
176
     1
 62
     7
420
 16777215
176
     1
 90
        1
176
     1
 90
        0
176
     1
 62
     7
176
     1
 62
   257
176
     1
 90
        1
176
     1
 90
        1
176
     1
 40
1.0
176
     1
 90
        0
176
     1
 62
   257
176
     1
 40
1.0
176
     1
 90
        1
176
     1
 90
        6
176
     1
 90
        2
176
     1
 62
     7
176
     1
 90
        5
176
     1
 90
        0
176
     1
 90
        0
176
     1
290
     0
176
     1
 90
       13
176
     1
 40
0.0
176
     1
 90
        0
176
     1
290
     0
176
     1
290
     1
176
     1
290
     1
176
     1
290
     0
176
     1
290
     0
176
     1
290
     0
176
     1
290
     0
176
     1
290
     0
176
     1
290
     0
176
     1
 90
       50
176
     1
 40
0.0
176
     1
 40
1.0
176
     1
 90
        0
176
     1
 62
    18
420
        0
176
     1
 90
       50
176
     1
 90
        3
176
     1
 62
     5
420
      255
176
     1
290
     0
176
     1
 90
       50
176
     1
 90
       50
176
     1
 90
       50
176
     1
290
     0
176
     1
 90
       50
176
     1
 62
   256
176
     0
 40
1.0
176
     0
 90
        2
176
     1
  1
strokes_ogs.tif
176
     1
290
     0
176
     1
 40
1.0
176
     1
 40
1.0
176
     1
  0
VISUALSTYLE
  5
2C
102
{ACAD_REACTORS
330
29
102
}
330
29
100
AcDbVisualStyle
  2
Gouraud
 70
     2
177
     3
291
     1
 70
    58
 90
        2
176
     1
 90
        2
176
     1
 90
        1
176
     1
 90
        2
176
     1
 40
0.6
176
     1
 40
30.0
176
     1
 62
     7
420
 16777215
176
     1
 90
        0
176
     1
 90
        0
176
     1
 62
     7
176
     1
 62
   257
176
     1
 90
        1
176
     1
 90
        1
176
     1
 40
1.0
176
     1
 90
        0
176
     1
 62
     7
176
     1
 40
1.0
176
     1
 90
        1
176
     1
 90
        6
176
     1
 90
        2
176
     1
 62
     7
176
     1
 90
        5
176
     1
 90
        0
176
     1
 90
        0
176
     1
290
     0
176
     1
 90
       13
176
     1
 40
0.0
176
     1
 90
        0
176
     1
290
     0
176
     1
290
     1
176
     1
290
     1
176
     1
290
     0
176
     1
290
     0
176
     1
290
     0
176
     1
290
     0
176
     1
290
     0
176
     1
290
     0
176
     1
 90
       50
176
     1
 40
0.0
176
     1
 40
1.0
176
     1
 90
        0
176
     1
 62
    18
420
        0
176
     1
 90
       50
176
     1
 90
        3
176
     1
 62
     5
420
      255
176
     1
290
     0
176
     1
 90
       50
176
     1
 90
       50
176
     1
 90
       50
176
     1
290
     0
176
     1
 90
       50
176
     1
 62
   256
176
     0
 40
1.0
176
     0
 90
        2
176
     1
  1
strokes_ogs.tif
176
     1
290
     0
176
     1
 40
1.0
176
     1
 40
1.0
176
     1
  0
VISUALSTYLE
  5
2D
102
{ACAD_REACTORS
330
29
102
}
330
29
100
AcDbVisualStyle
  2
GouraudWithEdges
 70
     3
177
     3
291
     1
 70
    58
 90
        2
176
     1
 90
        2
176
     1
 90
        1
176
     1
 90
        2
176
     1
 40
0.6
176
     1
 40
30.0
176
     1
 62
     7
420
 16777215
176
     1
 90
        1
176
     1
 90
        0
176
     1
 62
     7
176
     1
 62
   257
176
     1
 90
        1
176
     1
 90
        1
176
     1
 40
1.0
176
     1
 90
        0
176
     1
 62
   257
176
     1
 40
1.0
176
     1
 90
        1
176
     1
 90
        6
176
     1
 90
        2
176
     1
 62
     7
176
     1
 90
        5
176
     1
 90
        0
176
     1
 90
        0
176
     1
290
     0
176
     1
 90
       13
176
     1
 40
0.0
176
     1
 90
        0
176
     1
290
     0
176
     1
290
     1
176
     1
290
     1
176
     1
290
     0
176
     1
290
     0
176
     1
290
     0
176
     1
290
     0
176
     1
290
     0
176
     1
290
     0
176
     1
 90
       50
176
     1
 40
0.0
176
     1
 40
1.0
176
     1
 90
        0
176
     1
 62
    18
420
        0
176
     1
 90
       50
176
     1
 90
        3
176
     1
 62
     5
420
      255
176
     1
290
     0
176
     1
 90
       50
176
     1
 90
       50
176
     1
 90
       50
176
     1
290
     0
176
     1
 90
       50
176
     1
 62
   256
176
     0
 40
1.0
176
     0
 90
        2
176
     1
  1
strokes_ogs.tif
176
     1
290
     0
176
     1
 40
1.0
176
     1
 40
1.0
176
     1
  0
VISUALSTYLE
  5
31
102
{ACAD_REACTORS
330
29
102
}
330
29
100
AcDbVisualStyle
  2
Hidden
 70
     6
177
     3
291
     0
 70
    58
 90
        1
176
     1
 90
        2
176
     1
 90
        2
176
     1
 90
        0
176
     1
 40
0.6
176
     1
 40
30.0
176
     1
 62
     7
420
 16777215
176
     1
 90
        2
176
     1
 90
        2
176
     1
 62
     7
176
     1
 62
   257
176
     1
 90
        2
176
     1
 90
        1
176
     1
 40
40.0
176
     1
 90
        0
176
     1
 62
   257
176
     1
 40
1.0
176
     1
 90
        1
176
     1
 90
        6
176
     1
 90
        2
176
     1
 62
     7
176
     1
 90
        3
176
     1
 90
        0
176
     1
 90
        0
176
     1
290
     0
176
     1
 90
        1
176
     1
 40
0.0
176
     1
 90
        0
176
     1
290
     0
176
     1
290
     1
176
     1
290
     1
176
     1
290
     0
176
     1
290
     0
176
     1
290
     0
176
     1
290
     0
176
     1
290
     0
176
     1
290
     0
176
     1
 90
       50
176
     1
 40
0.0
176
     1
 40
1.0
176
     1
 90
        0
176
     1
 62
    18
420
        0
176
     1
 90
       50
176
     1
 90
        3
176
     1
 62
     5
420
      255
176
     1
290
     0
176
     1
 90
       50
176
     1
 90
       50
176
     1
 90
       50
176
     1
290
     0
176
     1
 90
       50
176
     1
 62
   256
176
     0
 40
1.0
176
     0
 90
        2
176
     1
  1
strokes_ogs.tif
176
     1
290
     0
176
     1
 40
1.0
176
     1
 40
1.0
176
     1
  0
VISUALSTYLE
  5
3F
102
{ACAD_REACTORS
330
29
102
}
330
29
100
AcDbVisualStyle
  2
JitterOff
 70
    20
177
     3
291
     1
 70
    58
 90
        2
176
     0
 90
        2
176
     0
 90
        0
176
     0
 90
        0
176
     0
 40
0.6
176
     0
 40
30.0
176
     0
 62
     7
420
 16777215
176
     0
 90
        1
176
     0
 90
        4
176
     0
 62
     7
176
     0
 62
   257
176
     0
 90
        1
176
     0
 90
        1
176
     0
 40
1.0
176
     0
 90
       10
176
     2
 62
     7
176
     0
 40
1.0
176
     0
 90
        1
176
     0
 90
        6
176
     0
 90
        2
176
     0
 62
     7
176
     0
 90
        5
176
     0
 90
        0
176
     0
 90
        0
176
     0
290
     0
176
     0
 90
        1
176
     0
 40
0.0
176
     0
 90
        0
176
     0
290
     0
176
     0
290
     1
176
     0
290
     1
176
     0
290
     0
176
     0
290
     0
176
     0
290
     0
176
     0
290
     0
176
     0
290
     0
176
     0
290
     0
176
     0
 90
       50
176
     0
 40
0.0
176
     0
 40
1.0
176
     0
 90
        0
176
     0
 62
    18
420
        0
176
     0
 90
       50
176
     0
 90
        3
176
     0
 62
     5
420
      255
176
     0
290
     0
176
     0
 90
       50
176
     0
 90
       50
176
     0
 90
       50
176
     0
290
     0
176
     0
 90
       50
176
     0
 62
   256
176
     0
 40
1.0
176
     0
 90
        2
176
     0
  1
strokes_ogs.tif
176
     0
290
     0
176
     0
 40
1.0
176
     0
 40
1.0
176
     0
  0
VISUALSTYLE
  5
37
102
{ACAD_REACTORS
330
29
102
}
330
29
100
AcDbVisualStyle
  2
Linepattern
 70
    14
177
     3
291
     1
 70
    58
 90
        2
176
     1
 90
        2
176
     1
 90
        0
176
     1
 90
        0
176
     1
 40
0.6
176
     1
 40
30.0
176
     1
 62
     7
420
 16777215
176
     1
 90
        1
176
     1
 90
        4
176
     1
 62
     7
176
     1
 62
   257
176
     1
 90
        7
176
     1
 90
        7
176
     1
 40
1.0
176
     1
 90
        8
176
     1
 62
     7
176
     1
 40
1.0
176
     1
 90
        1
176
     1
 90
        6
176
     1
 90
        2
176
     1
 62
     7
176
     1
 90
        5
176
     1
 90
        0
176
     1
 90
        0
176
     1
290
     0
176
     1
 90
        1
176
     1
 40
0.0
176
     1
 90
        0
176
     1
290
     0
176
     1
290
     1
176
     1
290
     1
176
     1
290
     0
176
     1
290
     0
176
     1
290
     0
176
     1
290
     0
176
     1
290
     0
176
     1
290
     0
176
     1
 90
       50
176
     1
 40
0.0
176
     1
 40
1.0
176
     1
 90
        0
176
     1
 62
    18
420
        0
176
     1
 90
       50
176
     1
 90
        3
176
     1
 62
     5
420
      255
176
     1
290
     0
176
     1
 90
       50
176
     1
 90
       50
176
     1
 90
       50
176
     1
290
     0
176
     1
 90
       50
176
     1
 62
   256
176
     0
 40
1.0
176
     0
 90
        2
176
     1
  1
strokes_ogs.tif
176
     1
290
     0
176
     1
 40
1.0
176
     1
 40
1.0
176
     1
  0
VISUALSTYLE
  5
40
102
{ACAD_REACTORS
330
29
102
}
330
29
100
AcDbVisualStyle
  2
OverhangOff
 70
    21
177
     3
291
     1
 70
    58
 90
        2
176
     0
 90
        2
176
     0
 90
        0
176
     0
 90
        0
176
     0
 40
0.6
176
     0
 40
30.0
176
     0
 62
     7
420
 16777215
176
     0
 90
        1
176
     0
 90
        4
176
     0
 62
     7
176
     0
 62
   257
176
     0
 90
        1
176
     0
 90
        1
176
     0
 40
1.0
176
     0
 90
        9
176
     2
 62
     7
176
     0
 40
1.0
176
     0
 90
        1
176
     0
 90
        6
176
     0
 90
        2
176
     0
 62
     7
176
     0
 90
        5
176
     0
 90
        0
176
     0
 90
        0
176
     0
290
     0
176
     0
 90
        1
176
     0
 40
0.0
176
     0
 90
        0
176
     0
290
     0
176
     0
290
     1
176
     0
290
     1
176
     0
290
     0
176
     0
290
     0
176
     0
290
     0
176
     0
290
     0
176
     0
290
     0
176
     0
290
     0
176
     0
 90
       50
176
     0
 40
0.0
176
     0
 40
1.0
176
     0
 90
        0
176
     0
 62
    18
420
        0
176
     0
 90
       50
176
     0
 90
        3
176
     0
 62
     5
420
      255
176
     0
290
     0
176
     0
 90
       50
176
     0
 90
       50
176
     0
 90
       50
176
     0
290
     0
176
     0
 90
       50
176
     0
 62
   256
176
     0
 40
1.0
176
     0
 90
        2
176
     0
  1
strokes_ogs.tif
176
     0
290
     0
176
     0
 40
1.0
176
     0
 40
1.0
176
     0
  0
VISUALSTYLE
  5
33
102
{ACAD_REACTORS
330
29
102
}
330
29
100
AcDbVisualStyle
  2
Realistic
 70
     8
177
     3
291
     0
 70
    58
 90
        2
176
     1
 90
        3
176
     1
 90
        0
176
     1
 90
        2
176
     1
 40
0.6
176
     1
 40
30.0
176
     1
 62
     7
420
 16777215
176
     1
 90
        0
176
     1
 90
        0
176
     1
 62
     7
176
     1
 62
   257
176
     1
 90
        1
176
     1
 90
        1
176
     1
 40
1.0
176
     1
 90
        8
176
     1
 62
   257
176
     1
 40
1.0
176
     1
 90
        1
176
     1
 90
        6
176
     1
 90
        2
176
     1
 62
     7
176
     1
 90
        3
176
     1
 90
        0
176
     1
 90
        0
176
     1
290
     0
176
     1
 90
       13
176
     1
 40
0.0
176
     1
 90
        0
176
     1
290
     0
176
     1
290
     1
176
     1
290
     1
176
     1
290
     0
176
     1
290
     0
176
     1
290
     0
176
     1
290
     0
176
     1
290
     0
176
     1
290
     0
176
     1
 90
       50
176
     1
 40
0.0
176
     1
 40
1.0
176
     1
 90
        0
176
     1
 62
    18
420
        0
176
     1
 90
       50
176
     1
 90
        3
176
     1
 62
     5
420
      255
176
     1
290
     0
176
     1
 90
       50
176
     1
 90
       50
176
     1
 90
       50
176
     1
290
     0
176
     1
 90
       50
176
     1
 62
   256
176
     0
 40
1.0
176
     0
 90
        2
176
     1
  1
strokes_ogs.tif
176
     1
290
     0
176
     1
 40
1.0
176
     1
 40
1.0
176
     1
  0
VISUALSTYLE
  5
3E
102
{ACAD_REACTORS
330
29
102
}
330
29
100
AcDbVisualStyle
  2
Shaded
 70
    27
177
     3
291
     0
 70
    58
 90
        2
176
     1
 90
        2
176
     1
 90
        1
176
     1
 90
        2
176
     1
 40
0.6
176
     1
 40
30.0
176
     1
 62
     7
420
 16777215
176
     1
 90
        0
176
     1
 90
        4
176
     1
 62
     7
176
     1
 62
   257
176
     1
 90
        1
176
     1
 90
        1
176
     1
 40
1.0
176
     1
 90
        8
176
     1
 62
   257
176
     1
 40
1.0
176
     1
 90
        1
176
     1
 90
        6
176
     1
 90
        2
176
     1
 62
     8
420
  7895160
176
     1
 90
        3
176
     1
 90
        0
176
     1
 90
        0
176
     1
290
     0
176
     1
 90
        5
176
     1
 40
0.0
176
     1
 90
        0
176
     1
290
     0
176
     1
290
     1
176
     1
290
     1
176
     1
290
     0
176
     1
290
     0
176
     1
290
     0
176
     1
290
     0
176
     1
290
     0
176
     1
290
     0
176
     1
 90
       50
176
     1
 40
0.0
176
     1
 40
1.0
176
     1
 90
        0
176
     1
 62
    18
420
        0
176
     1
 90
       50
176
     1
 90
        3
176
     1
 62
     5
420
      255
176
     1
290
     0
176
     1
 90
       50
176
     1
 90
       50
176
     1
 90
       50
176
     1
290
     0
176
     1
 90
       50
176
     1
 62
   256
176
     0
 40
1.0
176
     0
 90
        2
176
     1
  1
strokes_ogs.tif
176
     1
290
     0
176
     1
 40
1.0
176
     1
 40
1.0
176
     1
  0
VISUALSTYLE
  5
3D
102
{ACAD_REACTORS
330
29
102
}
330
29
100
AcDbVisualStyle
  2
Shaded with edges
 70
    26
177
     3
291
     0
 70
    58
 90
        2
176
     1
 90
        2
176
     1
 90
        1
176
     1
 90
        2
176
     1
 40
0.6
176
     1
 40
30.0
176
     1
 62
     7
420
 16777215
176
     1
 90
        1
176
     1
 90
        2
176
     1
 62
     7
176
     1
 62
   257
176
     1
 90
        2
176
     1
 90
        1
176
     1
 40
1.0
176
     1
 90
        8
176
     1
 62
   257
176
     1
 40
1.0
176
     1
 90
        1
176
     1
 90
        6
176
     1
 90
        2
176
     1
 62
     7
176
     1
 90
        3
176
     1
 90
        0
176
     1
 90
        0
176
     1
290
     0
176
     1
 90
        5
176
     1
 40
0.0
176
     1
 90
        0
176
     1
290
     0
176
     1
290
     1
176
     1
290
     1
176
     1
290
     0
176
     1
290
     0
176
     1
290
     0
176
     1
290
     0
176
     1
290
     0
176
     1
290
     0
176
     1
 90
       50
176
     1
 40
0.0
176
     1
 40
1.0
176
     1
 90
        0
176
     1
 62
    18
420
        0
176
     1
 90
       50
176
     1
 90
        3
176
     1
 62
     5
420
      255
176
     1
290
     0
176
     1
 90
       50
176
     1
 90
       50
176
     1
 90
       50
176
     1
290
     0
176
     1
 90
       50
176
     1
 62
   256
176
     0
 40
1.0
176
     0
 90
        2
176
     1
  1
strokes_ogs.tif
176
     1
290
     0
176
     1
 40
1.0
176
     1
 40
1.0
176
     1
  0
VISUALSTYLE
  5
3A
102
{ACAD_REACTORS
330
29
102
}
330
29
100
AcDbVisualStyle
  2
Shades of Gray
 70
    23
177
     3
291
     0
 70
    58
 90
        2
176
     1
 90
        2
176
     1
 90
        3
176
     1
 90
        0
176
     1
 40
0.6
176
     1
 40
30.0
176
     1
 62
     7
420
 16777215
176
     1
 90
        2
176
     1
 90
        2
176
     1
 62
     7
176
     1
 62
     7
176
     1
 90
        1
176
     1
 90
        1
176
     1
 40
40.0
176
     1
 90
        8
176
     1
 62
     7
176
     1
 40
1.0
176
     1
 90
        1
176
     1
 90
        6
176
     1
 90
        2
176
     1
 62
     7
176
     1
 90
        3
176
     1
 90
        0
176
     1
 90
        0
176
     1
290
     0
176
     1
 90
        1
176
     1
 40
0.0
176
     1
 90
        0
176
     1
290
     0
176
     1
290
     1
176
     1
290
     1
176
     1
290
     0
176
     1
290
     0
176
     1
290
     0
176
     1
290
     0
176
     1
290
     0
176
     1
290
     0
176
     1
 90
       50
176
     1
 40
0.0
176
     1
 40
1.0
176
     1
 90
        0
176
     1
 62
    18
420
        0
176
     1
 90
       50
176
     1
 90
        3
176
     1
 62
     5
420
      255
176
     1
290
     0
176
     1
 90
       50
176
     1
 90
       50
176
     1
 90
       50
176
     1
290
     0
176
     1
 90
       50
176
     1
 62
   256
176
     0
 40
1.0
176
     0
 90
        2
176
     1
  1
strokes_ogs.tif
176
     1
290
     0
176
     1
 40
1.0
176
     1
 40
1.0
176
     1
  0
VISUALSTYLE
  5
3B
102
{ACAD_REACTORS
330
29
102
}
330
29
100
AcDbVisualStyle
  2
Sketchy
 70
    24
177
     3
291
     0
 70
    58
 90
        1
176
     1
 90
        2
176
     1
 90
        2
176
     1
 90
        0
176
     1
 40
0.6
176
     1
 40
30.0
176
     1
 62
     7
420
 16777215
176
     1
 90
        2
176
     1
 90
        2
176
     1
 62
     7
176
     1
 62
     7
176
     1
 90
        1
176
     1
 90
        1
176
     1
 40
40.0
176
     1
 90
       11
176
     1
 62
     7
176
     1
 40
1.0
176
     1
 90
        1
176
     1
 90
        6
176
     1
 90
        2
176
     1
 62
     7
176
     1
 90
        6
176
     1
 90
        0
176
     1
 90
        0
176
     1
290
     0
176
     1
 90
        1
176
     1
 40
0.0
176
     1
 90
        0
176
     1
290
     0
176
     1
290
     1
176
     1
290
     1
176
     1
290
     0
176
     1
290
     0
176
     1
290
     0
176
     1
290
     0
176
     1
290
     0
176
     1
290
     0
176
     1
 90
       50
176
     1
 40
0.0
176
     1
 40
1.0
176
     1
 90
        0
176
     1
 62
    18
420
        0
176
     1
 90
       50
176
     1
 90
        3
176
     1
 62
     5
420
      255
176
     1
290
     0
176
     1
 90
       50
176
     1
 90
       50
176
     1
 90
       50
176
     1
290
     0
176
     1
 90
       50
176
     1
 62
   256
176
     0
 40
1.0
176
     0
 90
        2
176
     1
  1
strokes_ogs.tif
176
     1
290
     0
176
     1
 40
1.0
176
     1
 40
1.0
176
     1
  0
VISUALSTYLE
  5
36
102
{ACAD_REACTORS
330
29
102
}
330
29
100
AcDbVisualStyle
  2
Thicken
 70
    13
177
     3
291
     1
 70
    58
 90
        2
176
     1
 90
        2
176
     1
 90
        0
176
     1
 90
        0
176
     1
 40
0.6
176
     1
 40
30.0
176
     1
 62
     7
420
 16777215
176
     1
 90
        1
176
     1
 90
        4
176
     1
 62
     7
176
     1
 62
   257
176
     1
 90
        1
176
     1
 90
        1
176
     1
 40
1.0
176
     1
 90
       12
176
     1
 62
     7
176
     1
 40
1.0
176
     1
 90
        1
176
     1
 90
        6
176
     1
 90
        2
176
     1
 62
     7
176
     1
 90
        5
176
     1
 90
        0
176
     1
 90
        0
176
     1
290
     0
176
     1
 90
        1
176
     1
 40
0.0
176
     1
 90
        0
176
     1
290
     0
176
     1
290
     1
176
     1
290
     1
176
     1
290
     0
176
     1
290
     0
176
     1
290
     0
176
     1
290
     0
176
     1
290
     0
176
     1
290
     0
176
     1
 90
       50
176
     1
 40
0.0
176
     1
 40
1.0
176
     1
 90
        0
176
     1
 62
    18
420
        0
176
     1
 90
       50
176
     1
 90
        3
176
     1
 62
     5
420
      255
176
     1
290
     0
176
     1
 90
       50
176
     1
 90
       50
176
     1
 90
       50
176
     1
290
     0
176
     1
 90
       50
176
     1
 62
   256
176
     0
 40
1.0
176
     0
 90
        2
176
     1
  1
strokes_ogs.tif
176
     1
290
     0
176
     1
 40
1.0
176
     1
 40
1.0
176
     1
  0
VISUALSTYLE
  5
30
102
{ACAD_REACTORS
330
29
102
}
330
29
100
AcDbVisualStyle
  2
Wireframe
 70
     5
177
     3
291
     0
 70
    58
 90
        0
176
     1
 90
        2
176
     1
 90
        0
176
     1
 90
        0
176
     1
 40
0.6
176
     1
 40
30.0
176
     1
 62
     7
420
 16777215
176
     1
 90
        1
176
     1
 90
        4
176
     1
 62
     7
176
     1
 62
   257
176
     1
 90
        1
176
     1
 90
        1
176
     1
 40
1.0
176
     1
 90
        0
176
     1
 62
   257
176
     1
 40
1.0
176
     1
 90
        1
176
     1
 90
        6
176
     1
 90
        2
176
     1
 62
     7
176
     1
 90
        3
176
     1
 90
        0
176
     1
 90
        0
176
     1
290
     0
176
     1
 90
        1
176
     1
 40
0.0
176
     1
 90
        0
176
     1
290
     0
176
     1
290
     1
176
     1
290
     1
176
     1
290
     0
176
     1
290
     0
176
     1
290
     0
176
     1
290
     0
176
     1
290
     0
176
     1
290
     0
176
     1
 90
       50
176
     1
 40
0.0
176
     1
 40
1.0
176
     1
 90
        0
176
     1
 62
    18
420
        0
176
     1
 90
       50
176
     1
 90
        3
176
     1
 62
     5
420
      255
176
     1
290
     0
176
     1
 90
       50
176
     1
 90
       50
176
     1
 90
       50
176
     1
290
     0
176
     1
 90
       50
176
     1
 62
   256
176
     0
 40
1.0
176
     0
 90
        2
176
     1
  1
strokes_ogs.tif
176
     1
290
     0
176
     1
 40
1.0
176
     1
 40
1.0
176
     1
  0
VISUALSTYLE
  5
3C
102
{ACAD_REACTORS
330
29
102
}
330
29
100
AcDbVisualStyle
  2
X-Ray
 70
    25
177
     3
291
     0
 70
    58
 90
        2
176
     1
 90
        2
176
     1
 90
        1
176
     1
 90
        1
176
     1
 40
0.5
176
     1
 40
30.0
176
     1
 62
     7
420
 16777215
176
     1
 90
        1
176
     1
 90
        0
176
     1
 62
     7
176
     1
 62
   257
176
     1
 90
        1
176
     1
 90
        1
176
     1
 40
1.0
176
     1
 90
        8
176
     1
 62
     7
176
     1
 40
1.0
176
     1
 90
        1
176
     1
 90
        6
176
     1
 90
        2
176
     1
 62
     7
176
     1
 90
        3
176
     1
 90
        0
176
     1
 90
        0
176
     1
290
     0
176
     1
 90
       13
176
     1
 40
0.0
176
     1
 90
        0
176
     1
290
     0
176
     1
290
     1
176
     1
290
     1
176
     1
290
     0
176
     1
290
     0
176
     1
290
     0
176
     1
290
     0
176
     1
290
     0
176
     1
290
     0
176
     1
 90
       50
176
     1
 40
0.0
176
     1
 40
1.0
176
     1
 90
        0
176
     1
 62
    18
420
        0
176
     1
 90
       50
176
     1
 90
        3
176
     1
 62
     5
420
      255
176
     1
290
     0
176
     1
 90
       50
176
     1
 90
       50
176
     1
 90
       50
176
     1
290
     0
176
     1
 90
       50
176
     1
 62
   256
176
     0
 40
1.0
176
     0
 90
        2
176
     1
  1
strokes_ogs.tif
176
     1
290
     0
176
     1
 40
1.0
176
     1
 40
1.0
176
     1
  0
DICTIONARYVAR
  5
9F
102
{ACAD_REACTORS
330
9A
102
}
330
9A
100
DictionaryVariables
280
     0
  1
1:1
  0
DICTIONARYVAR
  5
9C
102
{ACAD_REACTORS
330
9A
102
}
330
9A
100
DictionaryVariables
280
     0
  1
STANDARD
  0
DICTIONARYVAR
  5
9B
102
{ACAD_REACTORS
330
9A
102
}
330
9A
100
DictionaryVariables
280
     0
  1
STANDARD
  0
DICTIONARYVAR
  5
9D
102
{ACAD_REACTORS
330
9A
102
}
330
9A
100
DictionaryVariables
280
     0
  1
Imperial24
  0
DICTIONARYVAR
  5
9E
102
{ACAD_REACTORS
330
9A
102
}
330
9A
100
DictionaryVariables
280
     0
  1
Imperial24
  0
DICTIONARY
  5
1A
330
19
100
AcDbDictionary
280
     1
281
     1
  3
BUMPTILE
360
1C
  3
DIFFUSETILE
360
1B
  3
OPACITYTILE
360
1F
  3
REFLECTIONTILE
360
1E
  3
REFRACTIONTILE
360
20
  3
SPECULARTILE
360
1D
  0
DICTIONARY
  5
12
330
11
100
AcDbDictionary
280
     1
281
     1
  3
BUMPTILE
360
14
  3
DIFFUSETILE
360
13
  3
OPACITYTILE
360
17
  3
REFLECTIONTILE
360
16
  3
REFRACTIONTILE
360
18
  3
SPECULARTILE
360
15
  0
DICTIONARY
  5
22
330
21
100
AcDbDictionary
280
     1
281
     1
  3
BUMPTILE
360
24
  3
DIFFUSETILE
360
23
  3
OPACITYTILE
360
27
  3
REFLECTIONTILE
360
26
  3
REFRACTIONTILE
360
28
  3
SPECULARTILE
360
25
  0
DICTIONARY
  5
A0
330
65
100
AcDbDictionary
280
     1
281
     1
  3
ACAD_ROUNDTRIP_2008_TABLESTYLE_CELLSTYLEMAP
360
A1
  0
XRECORD
  5
1C
102
{ACAD_REACTORS
330
1A
102
}
330
1A
100
AcDbXrecord
280
     1
270
     1
271
     1
  0
XRECORD
  5
1B
102
{ACAD_REACTORS
330
1A
102
}
330
1A
100
AcDbXrecord
280
     1
270
     1
271
     1
  0
XRECORD
  5
1F
102
{ACAD_REACTORS
330
1A
102
}
330
1A
100
AcDbXrecord
280
     1
270
     1
271
     1
  0
XRECORD
  5
1E
102
{ACAD_REACTORS
330
1A
102
}
330
1A
100
AcDbXrecord
280
     1
270
     1
271
     1
  0
XRECORD
  5
20
102
{ACAD_REACTORS
330
1A
102
}
330
1A
100
AcDbXrecord
280
     1
270
     1
271
     1
  0
XRECORD
  5
1D
102
{ACAD_REACTORS
330
1A
102
}
330
1A
100
AcDbXrecord
280
     1
270
     1
271
     1
  0
XRECORD
  5
14
102
{ACAD_REACTORS
330
12
102
}
330
12
100
AcDbXrecord
280
     1
270
     1
271
     1
  0
XRECORD
  5
13
102
{ACAD_REACTORS
330
12
102
}
330
12
100
AcDbXrecord
280
     1
270
     1
271
     1
  0
XRECORD
  5
17
102
{ACAD_REACTORS
330
12
102
}
330
12
100
AcDbXrecord
280
     1
270
     1
271
     1
  0
XRECORD
  5
16
102
{ACAD_REACTORS
330
12
102
}
330
12
100
AcDbXrecord
280
     1
270
     1
271
     1
  0
XRECORD
  5
18
102
{ACAD_REACTORS
330
12
102
}
330
12
100
AcDbXrecord
280
     1
270
     1
271
     1
  0
XRECORD
  5
15
102
{ACAD_REACTORS
330
12
102
}
330
12
100
AcDbXrecord
280
     1
270
     1
271
     1
  0
XRECORD
  5
24
102
{ACAD_REACTORS
330
22
102
}
330
22
100
AcDbXrecord
280
     1
270
     1
271
     1
  0
XRECORD
  5
23
102
{ACAD_REACTORS
330
22
102
}
330
22
100
AcDbXrecord
280
     1
270
     1
271
     1
  0
XRECORD
  5
27
102
{ACAD_REACTORS
330
22
102
}
330
22
100
AcDbXrecord
280
     1
270
     1
271
     1
  0
XRECORD
  5
26
102
{ACAD_REACTORS
330
22
102
}
330
22
100
AcDbXrecord
280
     1
270
     1
271
     1
  0
XRECORD
  5
28
102
{ACAD_REACTORS
330
22
102
}
330
22
100
AcDbXrecord
280
     1
270
     1
271
     1
  0
XRECORD
  5
25
102
{ACAD_REACTORS
330
22
102
}
330
22
100
AcDbXrecord
280
     1
270
     1
271
     1
  0
CELLSTYLEMAP
  5
A1
102
{ACAD_REACTORS
330
A0
102
}
330
A0
100
AcDbCellStyleMap
 90
        3
300
CELLSTYLE
  1
TABLEFORMAT_BEGIN
 90
        5
170
     1
 91
        0
 92
    32768
 62
   257
 93
        1
300
CONTENTFORMAT
  1
CONTENTFORMAT_BEGIN
 90
        0
 91
        0
 92
      512
 93
        0
300

 40
0.0
140
1.0
 94
        5
 62
     0
340
55
144
0.25
309
CONTENTFORMAT_END
171
     0
 94
        0
309
TABLEFORMAT_END
  1
CELLSTYLE_BEGIN
 90
        1
 91
        1
300
_TITLE
309
CELLSTYLE_END
300
CELLSTYLE
  1
TABLEFORMAT_BEGIN
 90
        5
170
     1
 91
        0
 92
        0
 62
   257
 93
        1
300
CONTENTFORMAT
  1
CONTENTFORMAT_BEGIN
 90
        0
 91
        0
 92
      512
 93
        0
300

 40
0.0
140
1.0
 94
        5
 62
     0
340
55
144
0.18
309
CONTENTFORMAT_END
171
     0
 94
        0
309
TABLEFORMAT_END
  1
CELLSTYLE_BEGIN
 90
        2
 91
        1
300
_HEADER
309
CELLSTYLE_END
300
CELLSTYLE
  1
TABLEFORMAT_BEGIN
 90
        5
170
     1
 91
        0
 92
        0
 62
   257
 93
        1
300
CONTENTFORMAT
  1
CONTENTFORMAT_BEGIN
 90
        0
 91
        0
 92
      512
 93
        0
300

 40
0.0
140
1.0
 94
        2
 62
     0
340
55
144
0.18
309
CONTENTFORMAT_END
171
     0
 94
        0
309
TABLEFORMAT_END
  1
CELLSTYLE_BEGIN
 90
        3
 91
        2
300
_DATA
309
CELLSTYLE_END
  0
ENDSEC
  0
EOF
