<?xml version="1.0" encoding="UTF-8"?><svg id="_0" xmlns="http://www.w3.org/2000/svg" viewBox="0 0 326.69 622.39"><defs><style>.cls-1{fill:none;stroke:#000;stroke-linecap:round;stroke-linejoin:round;stroke-width:.71px;}</style></defs><g id="LWPOLYLINE"><rect class="cls-1" x="152.01" y="605.03" width="85.04" height="5.67"/></g><g id="LWPOLYLINE-2"><rect class="cls-1" x="238.04" y="268.16" width="85.04" height="5.67" transform="translate(-94.41 378.47) rotate(-60)"/></g><g id="LWPOLYLINE-3"><rect class="cls-1" x="199.24" y="52.52" width="5.67" height="56.69" transform="translate(-11.12 124.69) rotate(-33.43)"/></g><g id="LWPOLYLINE-4"><rect class="cls-1" x="148.29" y="217.14" width="166.35" height="51.02" transform="translate(-94.41 321.78) rotate(-60)"/></g><g id="LWPOLYLINE-5"><rect class="cls-1" x="131.13" y="212.69" width="85.04" height="5.67" transform="translate(-99.82 258.14) rotate(-60)"/></g><g id="LWPOLYLINE-6"><rect class="cls-1" x="252.61" y="11.28" width="5.67" height="70.87" transform="translate(98.96 253.96) rotate(-63.31)"/></g><g id="LWPOLYLINE-7"><rect class="cls-1" x="57.05" y="409.44" width="5.67" height="198.43"/></g><g id="LWPOLYLINE-8"><path class="cls-1" d="M326.34,73.16c0-2.14-1.21-4.1-3.12-5.07L189.67.96c-2.8-1.41-6.21-.28-7.61,2.52l-20.38,40.53c-1.39,2.77-.3,6.14,2.44,7.57,25.78,13.44,37.21,44.21,26.46,71.22l-57.46,144.46c-7.92,19.91-26.39,33.66-47.74,35.52l-79.86,6.99c-2.93.26-5.18,2.71-5.18,5.65v45.83c0,3.13,2.54,5.67,5.67,5.67h8.5c15.66,0,28.35,12.69,28.35,28.35v226.77h283.46V73.16Z"/></g><g id="LWPOLYLINE-9"><rect class="cls-1" x="162.46" y="24.72" width="34.02" height="5.67" transform="translate(74.23 175.53) rotate(-63.31)"/></g><g id="LWPOLYLINE-10"><rect class="cls-1" x="29.2" y="310.3" width="70.87" height="5.67" transform="translate(-27.05 6.82) rotate(-5)"/></g><g id="LWPOLYLINE-11"><rect class="cls-1" x="8.86" y="318.73" width="5.67" height="39.69"/></g></svg>