0
SECTION
2
HEADER
9
$INSUNITS
70
4
9
$ACADVER
1
AC1014
9
$HANDSEED
5
FFFF
0
ENDSEC
0
SECTION
2
TABLES
0
TABLE
2
VPORT
5
8
100
AcDbSymbolTable
0
ENDTAB
0
TABLE
2
LTYPE
5
5
100
AcDbSymbolTable
0
LTYPE
5
14
100
AcDbSymbolTableRecord
100
AcDbLinetypeTableRecord
2
BYBLOCK
70
0
0
LTYPE
5
15
100
AcDbSymbolTableRecord
100
AcDbLinetypeTableRecord
2
BYLAYER
70
0
0
LTYPE
5
16
100
AcDbSymbolTableRecord
100
AcDbLinetypeTableRecord
2
DASHED
70
0
3
Dashed __ __ __ __ __ __ __ __ __ __ __ __ __ _
72
65
73
2
40
0.75
49
0.5
74
0
49
-0.25
74
0
0
ENDTAB
0
TABLE
2
LAYER
5
2
100
AcDbSymbolTable
70
3
0
LAYER
5
50
100
AcDbSymbolTableRecord
100
AcDbLayerTableRecord
2
1
70
0
62
7
6
DASHED
0
LAYER
5
51
100
AcDbSymbolTableRecord
100
AcDbLayerTableRecord
2
0
70
0
62
7
6
CONTINUOUS
0
ENDTAB
0
TABLE
2
STYLE
5
3
100
AcDbSymbolTable
70
1
0
STYLE
5
11
100
AcDbSymbolTableRecord
100
AcDbTextStyleTableRecord
2
STANDARD
70
0
0
ENDTAB
0
TABLE
2
VIEW
5
6
100
AcDbSymbolTable
70
0
0
ENDTAB
0
TABLE
2
UCS
5
7
100
AcDbSymbolTable
70
0
0
ENDTAB
0
TABLE
2
APPID
5
9
100
AcDbSymbolTable
70
2
0
APPID
5
12
100
AcDbSymbolTableRecord
100
AcDbRegAppTableRecord
2
ACAD
70
0
0
ENDTAB
0
TABLE
2
DIMSTYLE
5
A
100
AcDbSymbolTable
70
1
0
ENDTAB
0
TABLE
2
BLOCK_RECORD
5
1
100
AcDbSymbolTable
70
1
0
BLOCK_RECORD
5
1F
100
AcDbSymbolTableRecord
100
AcDbBlockTableRecord
2
*MODEL_SPACE
0
BLOCK_RECORD
5
1B
100
AcDbSymbolTableRecord
100
AcDbBlockTableRecord
2
*PAPER_SPACE
0
ENDTAB
0
ENDSEC
0
SECTION
2
BLOCKS
0
BLOCK
5
20
100
AcDbEntity
100
AcDbBlockBegin
2
*MODEL_SPACE
0
ENDBLK
5
21
100
AcDbEntity
100
AcDbBlockEnd
0
BLOCK
5
1C
100
AcDbEntity
100
AcDbBlockBegin
2
*PAPER_SPACE
0
ENDBLK
5
1D
100
AcDbEntity
100
AcDbBlockEnd
0
ENDSEC
0
SECTION
2
ENTITIES
0
LINE
5
100
100
AcDbEntity
8
0
100
AcDbLine
10
20.785507496480975
20
-88.223638818213814
30
0
11
12.472151106330909
21
-83.115431879687875
31
0
0
SPLINE
5
101
100
AcDbEntity
8
0
100
AcDbSpline
70
0
71
3
72
30
73
26
74
0
42
0.000000001
43
0.0000000001
44
0.0000000001
40
-4.3754842690601734
40
-4.3754842690601734
40
-4.3754842690601734
40
-4.3754842690601734
40
-4.1611926573076037
40
-4.1611926573076037
40
-3.7470494106126666
40
-3.7470494106126666
40
-3.498381827196805
40
-3.498381827196805
40
-3.2325037039788258
40
-3.2325037039788258
40
-2.7543839137954911
40
-2.7543839137954911
40
-2.3256804316695825
40
-2.3256804316695825
40
-1.8230343076578197
40
-1.8230343076578197
40
-1.5223336195792119
40
-1.5223336195792119
40
-1.2198193788932497
40
-1.2198193788932497
40
-0.80530844265246537
40
-0.80530844265246537
40
-0.32080109737314122
40
-0.32080109737314122
40
0
40
0
40
0
40
0
10
12.472151106330909
20
-83.115431879687875
30
0
10
11.823752380063477
20
-84.662003704638224
30
0
10
11.133402908288749
20
-86.395469451668333
30
0
10
10.22479915705123
20
-88.665881766766844
30
0
10
9.6879440396743899
20
-89.976413476689672
30
0
10
8.6915433323819062
20
-91.642176207904612
30
0
10
8.3023056692950377
20
-92.14534117041147
30
0
10
7.3482515235496537
20
-93.008973366001072
30
0
10
6.7365484771315138
20
-93.389407350892213
30
0
10
4.4552822667472771
20
-94.194001374060832
30
0
10
2.5876836140129242
20
-94.320710336438722
30
0
10
-1.2843821586735342
20
-94.194931916807874
30
0
10
-2.7215340039395306
20
-93.997310055738623
30
0
10
-4.9834105159505162
20
-94.022651639769776
30
0
10
-6.0435427565691295
20
-94.483777858598302
30
0
10
-8.1619388382998466
20
-94.875866946322262
30
0
10
-9.1430959370203411
20
-94.976953693327744
30
0
10
-11.287362458084031
20
-94.71246222558257
30
0
10
-12.269399163962223
20
-94.365083940568184
30
0
10
-14.488437503676874
20
-93.093347299093267
30
0
10
-15.598523056562563
20
-92.059116195297932
30
0
10
-17.545629347395831
20
-89.785438991968803
30
0
10
-18.464962740830817
20
-88.338230089425181
30
0
10
-19.421781016779359
20
-85.833882787142372
30
0
10
-19.661624850280795
20
-84.785584908826564
30
0
10
-19.679504330273552
20
-83.716397401867397
30
0
0
LINE
5
102
100
AcDbEntity
8
0
100
AcDbLine
10
-19.679504330273552
20
-83.716397401867397
30
0
11
-27.091412437154332
21
-88.724443420030084
31
0
0
SPLINE
5
103
100
AcDbEntity
8
0
100
AcDbSpline
70
0
71
3
72
40
73
36
74
0
42
0.000000001
43
0.0000000001
44
0.0000000001
40
-8.5469985297591595
40
-8.5469985297591595
40
-8.5469985297591595
40
-8.5469985297591595
40
-8.2555813058961309
40
-8.2555813058961309
40
-7.9596381324693262
40
-7.9596381324693262
40
-7.284313490338663
40
-7.284313490338663
40
-6.6812456057750058
40
-6.6812456057750058
40
-6.3127529041728137
40
-6.3127529041728137
40
-5.948157276341477
40
-5.948157276341477
40
-5.3877308489034696
40
-5.3877308489034696
40
-4.973942386677801
40
-4.973942386677801
40
-4.7400904180599834
40
-4.7400904180599834
40
-4.4992065103059646
40
-4.4992065103059646
40
-3.6903018559083702
40
-3.6903018559083702
40
-3.1670709741337078
40
-3.1670709741337078
40
-2.7445021536747078
40
-2.7445021536747078
40
-2.2758441395130378
40
-2.2758441395130378
40
-1.4722274923936269
40
-1.4722274923936269
40
-0.63629876510563077
40
-0.63629876510563077
40
0
40
0
40
0
40
0
10
-27.091412437154332
20
-88.724443420030084
30
0
10
-27.015378635764392
20
-89.885018312253294
30
0
10
-26.817867313550153
20
-91.02458004687125
30
0
10
-26.172154960695519
20
-93.278374648728843
30
0
10
-25.726547370292767
20
-94.369172717940842
30
0
10
-23.921454621884809
20
-97.79753398659858
30
0
10
-22.207060120196893
20
-99.780635677722387
30
0
10
-19.031247861679162
20
-102.6250880573628
30
0
10
-17.336757892940501
20
-103.78626877651563
30
0
10
-14.584762762409941
20
-105.01602223491565
30
0
10
-13.459640231744508
20
-105.36781214248711
30
0
10
-11.193153741210892
20
-105.58673133254806
30
0
10
-10.297800074353781
20
-105.43799723900864
30
0
10
-8.4975957496859298
20
-104.8843411975256
30
0
10
-7.6369886362228359
20
-104.31356349537015
30
0
10
-6.3113943361114311
20
-103.3760032807906
30
0
10
-5.8135447257492467
20
-103.00323967006054
30
0
10
-5.0403446802151821
20
-102.61342596072933
30
0
10
-4.7657712501124134
20
-102.51394006596355
30
0
10
-4.1896455436198723
20
-102.42604318294495
30
0
10
-3.9072851068067975
20
-102.44432381658598
30
0
10
-2.6594398242580763
20
-102.75651594636622
30
0
10
-1.682396261423065
20
-103.59141885613005
30
0
10
0.33689008749052296
20
-104.96084755588022
30
0
10
1.2307914501517494
20
-105.49611429380528
30
0
10
3.1279044013404205
20
-106.13070233095499
30
0
10
4.1492466417937042
20
-106.31860921175219
30
0
10
6.7183348510572083
20
-106.12222298337029
30
0
10
8.0324065523153916
20
-105.69297317331687
30
0
10
11.331888029949631
20
-104.08351151792453
30
0
10
13.293149707497529
20
-102.50683899038475
30
0
10
16.576885397583332
20
-99.077630626921831
30
0
10
18.213079650354928
20
-96.861507067795628
30
0
10
20.186885632977404
20
-92.377206912428491
30
0
10
20.698200411279934
20
-90.342837018355624
30
0
10
20.785507496480975
20
-88.223638818213814
30
0
0
ENDSEC
0
SECTION
2
OBJECTS
0
DICTIONARY
5
C
100
AcDbDictionary
3
ACAD_GROUP
350
D
3
ACAD_MLINESTYLE
350
17
0
DICTIONARY
5
D
100
AcDbDictionary
0
DICTIONARY
5
1A
330
C
100
AcDbDictionary
0
DICTIONARY
5
17
100
AcDbDictionary
0
ENDSEC
0
EOF
