0
SECTION
2
HEADER
9
$INSUNITS
70
4
9
$ACADVER
1
AC1014
9
$HANDSEED
5
FFFF
0
ENDSEC
0
SECTION
2
TABLES
0
TABLE
2
VPORT
5
8
100
AcDbSymbolTable
0
ENDTAB
0
TABLE
2
LTYPE
5
5
100
AcDbSymbolTable
0
LTYPE
5
14
100
AcDbSymbolTableRecord
100
AcDbLinetypeTableRecord
2
BYBLOCK
70
0
0
LTYPE
5
15
100
AcDbSymbolTableRecord
100
AcDbLinetypeTableRecord
2
BYLAYER
70
0
0
ENDTAB
0
TABLE
2
LAYER
5
2
100
AcDbSymbolTable
70
2
0
LAYER
5
50
100
AcDbSymbolTableRecord
100
AcDbLayerTableRecord
2
0
70
0
6
CONTINUOUS
0
ENDTAB
0
TABLE
2
STYLE
5
3
100
AcDbSymbolTable
70
1
0
STYLE
5
11
100
AcDbSymbolTableRecord
100
AcDbTextStyleTableRecord
2
STANDARD
70
0
0
ENDTAB
0
TABLE
2
VIEW
5
6
100
AcDbSymbolTable
70
0
0
ENDTAB
0
TABLE
2
UCS
5
7
100
AcDbSymbolTable
70
0
0
ENDTAB
0
TABLE
2
APPID
5
9
100
AcDbSymbolTable
70
2
0
APPID
5
12
100
AcDbSymbolTableRecord
100
AcDbRegAppTableRecord
2
ACAD
70
0
0
ENDTAB
0
TABLE
2
DIMSTYLE
5
A
100
AcDbSymbolTable
70
1
0
ENDTAB
0
TABLE
2
BLOCK_RECORD
5
1
100
AcDbSymbolTable
70
1
0
BLOCK_RECORD
5
1F
100
AcDbSymbolTableRecord
100
AcDbBlockTableRecord
2
*MODEL_SPACE
0
BLOCK_RECORD
5
1B
100
AcDbSymbolTableRecord
100
AcDbBlockTableRecord
2
*PAPER_SPACE
0
ENDTAB
0
ENDSEC
0
SECTION
2
BLOCKS
0
BLOCK
5
20
100
AcDbEntity
100
AcDbBlockBegin
2
*MODEL_SPACE
0
ENDBLK
5
21
100
AcDbEntity
100
AcDbBlockEnd
0
BLOCK
5
1C
100
AcDbEntity
100
AcDbBlockBegin
2
*PAPER_SPACE
0
ENDBLK
5
1D
100
AcDbEntity
100
AcDbBlockEnd
0
ENDSEC
0
SECTION
2
ENTITIES
0
LINE
5
100
100
AcDbEntity
8
0
100
AcDbLine
10
39.999999999999993
20
-51.47614387684601
30
-1.6653345369377348e-15
11
43.357648613986655
21
-51.476143876846017
31
-1.9428902930940228e-15
0
LINE
5
101
100
AcDbEntity
8
0
100
AcDbLine
10
43.357648613986655
20
-51.476143876846017
30
-1.9428902930940228e-15
11
43.357648613986655
21
-53.476143876846017
31
5.5511151231257788e-16
0
LINE
5
102
100
AcDbEntity
8
0
100
AcDbLine
10
43.357648613986655
20
-53.476143876846017
30
5.5511151231257788e-16
11
38.563168747371513
21
-53.476143876846002
31
8.3266726846886494e-16
0
ELLIPSE
5
103
100
AcDbEntity
8
0
100
AcDbEllipse
10
-5.5511151231257827e-16
20
-6.1232339957367586e-17
30
-6.9388939039072284e-17
11
3.6610082558573455e-14
21
75
31
0.0
40
0.7333333333333335
41
3.2143841915932039
42
3.9185996739609874
0
LINE
5
104
100
AcDbEntity
8
0
100
AcDbLine
10
4.000000000000016
20
-74.80138991946805
30
-2.9143354396410448e-16
11
3.9999999999999583
21
-84.838519125201927
31
-1.3877787807814432e-16
0
SPLINE
5
105
100
AcDbEntity
8
0
100
AcDbSpline
70
0
71
3
72
26
73
22
74
0
42
0.000000001
43
0.0000000001
44
0.0000000001
40
3.1999401407444648
40
3.1999401407444648
40
3.1999401407444648
40
3.1999401407444648
40
3.4951499014249858
40
3.4951499014249858
40
3.4951499014249858
40
3.9337320651365557
40
3.9337320651365557
40
3.9337320651365557
40
4.4819880939978489
40
4.4819880939978489
40
4.4819880939978489
40
5.0247303507187748
40
5.0247303507187748
40
5.0247303507187748
40
5.5663278650198311
40
5.5663278650198311
40
5.5663278650198311
40
5.9493344530677961
40
5.9493344530677961
40
5.9493344530677961
40
6.2248408440233884
40
6.2248408440233884
40
6.2248408440233884
40
6.2248408440233884
10
4.0000000000218359
20
-84.838519125200179
30
6.9388939039072284e-17
10
10.732962508352635
20
-84.295865425334441
30
-5.5511151231257827e-16
10
17.374459123640172
20
-82.395779717073708
30
3.4694469519536142e-16
10
23.538538084398919
20
-79.293580985671838
30
-1.1796119636642288e-15
10
32.696280977677574
20
-74.684759689434514
30
-6.9388939039072284e-16
10
40.792802214753372
20
-67.466377357359704
30
4.8572257327350599e-16
10
47.253988991315211
20
-58.53606970761426
30
1.5265566588595902e-15
10
55.330889734088025
20
-47.372608414238584
30
4.4408920985006262e-15
10
60.873664529037292
20
-33.520458723078271
30
2.5673907444456745e-15
10
63.401878850000735
20
-18.822842405275164
30
5.5511151231257827e-16
10
65.904667098191624
20
-4.2730389761898104
30
-1.457167719820518e-15
10
65.44706872891426
20
11.088872907475203
30
9.0205620750793969e-16
10
62.069810365335563
20
25.350856503006952
30
3.4000580129145419e-15
10
58.69967525568407
20
39.582758973638043
30
-2.9837243786801082e-15
10
52.429164717165108
20
52.709019085352452
30
4.163336342344337e-15
10
43.787659892050463
20
62.978935360164179
30
4.8572257327350599e-16
10
37.676565968477881
20
70.241608264101174
30
-4.8572257327350599e-16
10
30.372996165390738
20
76.079922485151627
30
9.7144514654701197e-16
10
22.298077051553999
20
79.898990942520498
30
-1.8041124150158794e-15
10
16.48958212813799
20
82.646144125614768
30
1.1796119636642288e-15
10
10.284166706063459
20
84.333064479754825
30
-6.9388939039072284e-16
10
4.0000000000000524
20
84.838780891600607
30
6.9388939039072284e-17
0
LINE
5
106
100
AcDbEntity
8
0
100
AcDbLine
10
4.0000000000000533
20
84.838780891600635
30
6.9388939039071791e-17
11
4.0000000000000178
21
74.801389919468136
31
3.4694469519536265e-16
0
ELLIPSE
5
107
100
AcDbEntity
8
0
100
AcDbEllipse
10
-5.5511151231257827e-16
20
-6.1232339957367586e-17
30
-6.9388939039072284e-17
11
3.6610082558573455e-14
21
75
31
0.0
40
0.7333333333333335
41
5.5061782868083924
42
6.2103937691761768
0
LINE
5
108
100
AcDbEntity
8
0
100
AcDbLine
10
38.563168747371549
20
53.476143876846002
30
-2.2100748313309274e-15
11
43.357648613986683
21
53.476143876846017
31
-5.1347814888913451e-15
0
LINE
5
109
100
AcDbEntity
8
0
100
AcDbLine
10
43.357648613986683
20
53.476143876846017
30
-5.1347814888913451e-15
11
43.357648613986669
21
51.476143876846017
31
4.0245584642661925e-15
0
LINE
5
110
100
AcDbEntity
8
0
100
AcDbLine
10
43.357648613986669
20
51.476143876846017
30
4.0245584642661925e-15
11
39.999999999999993
21
51.476143876846024
31
4.3021142204224808e-15
0
ELLIPSE
5
111
100
AcDbEntity
8
0
100
AcDbEllipse
10
-5.5511151231257827e-16
20
-6.1232339957367586e-17
30
-6.9388939039072284e-17
11
3.6610082558573455e-14
21
75
31
0.0
40
0.7333333333333335
41
3.9559325957163187
42
5.4688453650530615
0
ENDSEC
0
SECTION
2
OBJECTS
0
DICTIONARY
5
C
100
AcDbDictionary
3
ACAD_GROUP
350
D
3
ACAD_MLINESTYLE
350
17
0
DICTIONARY
5
D
100
AcDbDictionary
0
DICTIONARY
5
1A
330
C
100
AcDbDictionary
0
DICTIONARY
5
17
100
AcDbDictionary
0
ENDSEC
0
EOF
