0
SECTION
2
HEADER
9
$INSUNITS
70
4
9
$ACADVER
1
AC1014
9
$HANDSEED
5
FFFF
0
ENDSEC
0
SECTION
2
TABLES
0
TABLE
2
VPORT
5
8
100
AcDbSymbolTable
0
ENDTAB
0
TABLE
2
LTYPE
5
5
100
AcDbSymbolTable
0
LTYPE
5
14
100
AcDbSymbolTableRecord
100
AcDbLinetypeTableRecord
2
BYBLOCK
70
0
0
LTYPE
5
15
100
AcDbSymbolTableRecord
100
AcDbLinetypeTableRecord
2
BYLAYER
70
0
0
ENDTAB
0
TABLE
2
LAYER
5
2
100
AcDbSymbolTable
70
2
0
LAYER
5
50
100
AcDbSymbolTableRecord
100
AcDbLayerTableRecord
2
0
70
0
6
CONTINUOUS
0
ENDTAB
0
TABLE
2
STYLE
5
3
100
AcDbSymbolTable
70
1
0
STYLE
5
11
100
AcDbSymbolTableRecord
100
AcDbTextStyleTableRecord
2
STANDARD
70
0
0
ENDTAB
0
TABLE
2
VIEW
5
6
100
AcDbSymbolTable
70
0
0
ENDTAB
0
TABLE
2
UCS
5
7
100
AcDbSymbolTable
70
0
0
ENDTAB
0
TABLE
2
APPID
5
9
100
AcDbSymbolTable
70
2
0
APPID
5
12
100
AcDbSymbolTableRecord
100
AcDbRegAppTableRecord
2
ACAD
70
0
0
ENDTAB
0
TABLE
2
DIMSTYLE
5
A
100
AcDbSymbolTable
70
1
0
ENDTAB
0
TABLE
2
BLOCK_RECORD
5
1
100
AcDbSymbolTable
70
1
0
BLOCK_RECORD
5
1F
100
AcDbSymbolTableRecord
100
AcDbBlockTableRecord
2
*MODEL_SPACE
0
BLOCK_RECORD
5
1B
100
AcDbSymbolTableRecord
100
AcDbBlockTableRecord
2
*PAPER_SPACE
0
ENDTAB
0
ENDSEC
0
SECTION
2
BLOCKS
0
BLOCK
5
20
100
AcDbEntity
100
AcDbBlockBegin
2
*MODEL_SPACE
0
ENDBLK
5
21
100
AcDbEntity
100
AcDbBlockEnd
0
BLOCK
5
1C
100
AcDbEntity
100
AcDbBlockBegin
2
*PAPER_SPACE
0
ENDBLK
5
1D
100
AcDbEntity
100
AcDbBlockEnd
0
ENDSEC
0
SECTION
2
ENTITIES
0
LINE
5
100
100
AcDbEntity
8
0
100
AcDbLine
10
-8.0000000000000355
20
74.202370147706119
30
2.7755575615628914e-16
11
-8.0000000000000373
21
84.356314861399667
31
2.7755575615628914e-16
0
SPLINE
5
101
100
AcDbEntity
8
0
100
AcDbSpline
70
0
71
3
72
26
73
22
74
0
42
0.000000001
43
0.0000000001
44
0.0000000001
40
-6.1661843318168401
40
-6.1661843318168401
40
-6.1661843318168401
40
-6.1661843318168401
40
-5.9493344530677961
40
-5.9493344530677961
40
-5.9493344530677961
40
-5.5663278650198311
40
-5.5663278650198311
40
-5.5663278650198311
40
-5.0247303507187748
40
-5.0247303507187748
40
-5.0247303507187748
40
-4.4819880939978489
40
-4.4819880939978489
40
-4.4819880939978489
40
-3.9337320651365557
40
-3.9337320651365557
40
-3.9337320651365557
40
-3.4951499014249858
40
-3.4951499014249858
40
-3.4951499014249858
40
-3.1999401407444648
40
-3.1999401407444648
40
-3.1999401407444648
40
-3.1999401407444648
10
-8.0000000000000053
20
84.356314861399667
30
2.7755575615628914e-16
10
-12.908495002044507
20
83.566700561728879
30
2.7755575615628914e-16
10
-17.726236030050359
20
82.061263231714179
30
1.3877787807814457e-15
10
-22.29807705155401
20
79.898990942520498
30
5.5511151231257827e-16
10
-30.372996165390749
20
76.079922485151627
30
-5.5511151231257827e-16
10
-37.676565968477902
20
70.241608264101174
30
2.2204460492503131e-15
10
-43.787659892050463
20
62.978935360164179
30
-4.163336342344337e-15
10
-52.429164717165129
20
52.709019085352452
30
-3.3306690738754696e-15
10
-58.699675255684092
20
39.58275897363805
30
-2.7755575615628914e-15
10
-62.06981036533557
20
25.350856503006952
30
2.4980018054066022e-15
10
-65.447068728914275
20
11.088872907475203
30
-8.3266726846886741e-16
10
-65.904667098191652
20
-4.2730389761898104
30
-4.4408920985006262e-15
10
-63.401878850000763
20
-18.822842405275164
30
-3.6082248300317588e-15
10
-60.873664529037306
20
-33.520458723078271
30
1.6653345369377348e-15
10
-55.330889734088046
20
-47.372608414238584
30
2.4980018054066022e-15
10
-47.253988991315225
20
-58.53606970761426
30
-1.1102230246251565e-15
10
-40.79280221475338
20
-67.466377357359704
30
-5.5511151231257827e-16
10
-32.696280977677581
20
-74.684759689434514
30
1.9428902930940239e-15
10
-23.538538084398922
20
-79.293580985671838
30
1.1102230246251565e-15
10
-17.374459123640179
20
-82.395779717073708
30
-8.3266726846886741e-16
10
-10.732962508352639
20
-84.295865425334441
30
-8.3266726846886741e-16
10
-4.0000000000218368
20
-84.838519125200179
30
2.7755575615628914e-16
0
LINE
5
102
100
AcDbEntity
8
0
100
AcDbLine
10
-4.0000000000218368
20
-84.838519125200179
30
2.7755575615628904e-16
11
-3.9999999999999751
21
-74.80138991946805
31
-2.7755575615629002e-16
0
ELLIPSE
5
103
100
AcDbEntity
8
0
100
AcDbEllipse
10
5.5511151231257827e-16
20
6.1232339957367685e-17
30
-2.7755575615628914e-16
11
-3.6710623843405718e-14
21
75
31
0.0
40
0.73333333333333306
41
2.3645856332185984
42
3.0688011155863828
0
LINE
5
104
100
AcDbEntity
8
0
100
AcDbLine
10
-38.563168747371506
20
-53.476143876845995
30
-2.7755575615628603e-16
11
-43.357648613986669
21
-53.476143876846017
31
3.0531133177191813e-15
0
LINE
5
105
100
AcDbEntity
8
0
100
AcDbLine
10
-43.357648613986669
20
-53.476143876846017
30
3.0531133177191813e-15
11
-43.357648613986669
21
-51.476143876846017
31
-3.6082248300317588e-15
0
LINE
5
106
100
AcDbEntity
8
0
100
AcDbLine
10
-43.357648613986669
20
-51.476143876846017
30
-3.6082248300317588e-15
11
-40
21
-51.47614387684601
31
-3.8857805861880487e-15
0
ELLIPSE
5
107
100
AcDbEntity
8
0
100
AcDbEllipse
10
5.5511151231257827e-16
20
6.1232339957367685e-17
30
-2.7755575615628914e-16
11
-3.6710623843405718e-14
21
75
31
0.0
40
0.73333333333333306
41
0.81433994212652483
42
2.3272527114632671
0
LINE
5
108
100
AcDbEntity
8
0
100
AcDbLine
10
-39.999999999999993
20
51.476143876846038
30
-2.7755575615628987e-16
11
-43.35764861398669
21
51.476143876846017
31
-1.3877787807814453e-15
0
LINE
5
109
100
AcDbEntity
8
0
100
AcDbLine
10
-43.35764861398669
20
51.476143876846017
30
-1.3877787807814453e-15
11
-43.35764861398669
21
53.476143876846017
31
-1.1102230246251569e-15
0
LINE
5
110
100
AcDbEntity
8
0
100
AcDbLine
10
-43.35764861398669
20
53.476143876846017
30
-1.1102230246251569e-15
11
-38.563168747371513
21
53.476143876846045
31
8.3266726846886583e-16
0
ELLIPSE
5
111
100
AcDbEntity
8
0
100
AcDbEllipse
10
5.5511151231257827e-16
20
6.1232339957367685e-17
30
-2.7755575615628914e-16
11
-3.6710623843405718e-14
21
75
31
0.0
40
0.73333333333333306
41
0.14597238854420422
42
0.77700702037119351
0
ENDSEC
0
SECTION
2
OBJECTS
0
DICTIONARY
5
C
100
AcDbDictionary
3
ACAD_GROUP
350
D
3
ACAD_MLINESTYLE
350
17
0
DICTIONARY
5
D
100
AcDbDictionary
0
DICTIONARY
5
1A
330
C
100
AcDbDictionary
0
DICTIONARY
5
17
100
AcDbDictionary
0
ENDSEC
0
EOF
