0
SECTION
2
HEADER
9
$INSUNITS
70
4
9
$ACADVER
1
AC1014
9
$HANDSEED
5
FFFF
0
ENDSEC
0
SECTION
2
TABLES
0
TABLE
2
VPORT
5
8
100
AcDbSymbolTable
0
ENDTAB
0
TABLE
2
LTYPE
5
5
100
AcDbSymbolTable
0
LTYPE
5
14
100
AcDbSymbolTableRecord
100
AcDbLinetypeTableRecord
2
BYBLOCK
70
0
0
LTYPE
5
15
100
AcDbSymbolTableRecord
100
AcDbLinetypeTableRecord
2
BYLAYER
70
0
0
ENDTAB
0
TABLE
2
LAYER
5
2
100
AcDbSymbolTable
70
2
0
LAYER
5
50
100
AcDbSymbolTableRecord
100
AcDbLayerTableRecord
2
0
70
0
6
CONTINUOUS
0
ENDTAB
0
TABLE
2
STYLE
5
3
100
AcDbSymbolTable
70
1
0
STYLE
5
11
100
AcDbSymbolTableRecord
100
AcDbTextStyleTableRecord
2
STANDARD
70
0
0
ENDTAB
0
TABLE
2
VIEW
5
6
100
AcDbSymbolTable
70
0
0
ENDTAB
0
TABLE
2
UCS
5
7
100
AcDbSymbolTable
70
0
0
ENDTAB
0
TABLE
2
APPID
5
9
100
AcDbSymbolTable
70
2
0
APPID
5
12
100
AcDbSymbolTableRecord
100
AcDbRegAppTableRecord
2
ACAD
70
0
0
ENDTAB
0
TABLE
2
DIMSTYLE
5
A
100
AcDbSymbolTable
70
1
0
ENDTAB
0
TABLE
2
BLOCK_RECORD
5
1
100
AcDbSymbolTable
70
1
0
BLOCK_RECORD
5
1F
100
AcDbSymbolTableRecord
100
AcDbBlockTableRecord
2
*MODEL_SPACE
0
BLOCK_RECORD
5
1B
100
AcDbSymbolTableRecord
100
AcDbBlockTableRecord
2
*PAPER_SPACE
0
ENDTAB
0
ENDSEC
0
SECTION
2
BLOCKS
0
BLOCK
5
20
100
AcDbEntity
100
AcDbBlockBegin
2
*MODEL_SPACE
0
ENDBLK
5
21
100
AcDbEntity
100
AcDbBlockEnd
0
BLOCK
5
1C
100
AcDbEntity
100
AcDbBlockBegin
2
*PAPER_SPACE
0
ENDBLK
5
1D
100
AcDbEntity
100
AcDbBlockEnd
0
ENDSEC
0
SECTION
2
ENTITIES
0
LINE
5
100
100
AcDbEntity
8
0
100
AcDbLine
10
-8.0000000000000142
20
74.202370147706134
30
5.5511151231257827e-16
11
-8.0000000000000142
21
84.356314861399667
31
5.5511151231257827e-16
0
SPLINE
5
101
100
AcDbEntity
8
0
100
AcDbSpline
70
0
71
3
72
26
73
22
74
0
42
0.000000001
43
0.0000000001
44
0.0000000001
40
-6.1661843318168401
40
-6.1661843318168401
40
-6.1661843318168401
40
-6.1661843318168401
40
-5.9493344530677961
40
-5.9493344530677961
40
-5.9493344530677961
40
-5.5663278650198311
40
-5.5663278650198311
40
-5.5663278650198311
40
-5.0247303507187748
40
-5.0247303507187748
40
-5.0247303507187748
40
-4.4819880939978489
40
-4.4819880939978489
40
-4.4819880939978489
40
-3.9337320651365557
40
-3.9337320651365557
40
-3.9337320651365557
40
-3.4951499014249858
40
-3.4951499014249858
40
-3.4951499014249858
40
-3.1999401407444648
40
-3.1999401407444648
40
-3.1999401407444648
40
-3.1999401407444648
10
-7.9999999999999938
20
84.356314861399667
30
8.3266726846886741e-16
10
-12.908495002044496
20
83.566700561728879
30
5.5511151231257827e-16
10
-17.726236030050345
20
82.061263231714179
30
-5.5511151231257827e-16
10
-22.298077051553989
20
79.898990942520498
30
-5.5511151231257827e-16
10
-30.372996165390735
20
76.079922485151627
30
-2.7755575615628914e-16
10
-37.676565968477881
20
70.241608264101174
30
2.7755575615628914e-16
10
-43.787659892050463
20
62.978935360164186
30
5.5511151231257827e-16
10
-52.429164717165115
20
52.709019085352466
30
-5.5511151231257827e-15
10
-58.699675255684085
20
39.582758973638057
30
-2.7755575615628914e-16
10
-62.06981036533557
20
25.350856503006959
30
-8.3266726846886741e-15
10
-65.447068728914275
20
11.08887290747521
30
1.6653345369377348e-15
10
-65.904667098191624
20
-4.2730389761898033
30
-6.3837823915946501e-15
10
-63.401878850000756
20
-18.822842405275157
30
-5.5511151231257827e-15
10
-60.873664529037306
20
-33.520458723078264
30
-4.7184478546569153e-15
10
-55.330889734088053
20
-47.372608414238577
30
5.5511151231257827e-16
10
-47.253988991315232
20
-58.536069707614253
30
-7.4940054162198066e-15
10
-40.792802214753394
20
-67.46637735735969
30
-2.7755575615628914e-16
10
-32.696280977677588
20
-74.684759689434514
30
0
10
-23.538538084398933
20
-79.293580985671838
30
-1.9428902930940239e-15
10
-17.374459123640186
20
-82.395779717073708
30
-5.5511151231257827e-16
10
-10.732962508352646
20
-84.295865425334441
30
-2.7755575615628914e-16
10
-4.0000000000218465
20
-84.838519125200179
30
2.7755575615628914e-16
0
LINE
5
102
100
AcDbEntity
8
0
100
AcDbLine
10
-4.0000000000218447
20
-84.838519125200179
30
2.7755575615628943e-16
11
-3.9999999999999836
21
-74.80138991946805
31
-1.1093356479670479e-30
0
ELLIPSE
5
103
100
AcDbEntity
8
0
100
AcDbEllipse
10
4.163336342344337e-16
20
6.1232339957367636e-17
30
0
11
-2.8198658289232283e-14
21
75
31
0.0
40
0.73333333333333317
41
2.3645856332185984
42
3.0688011155863828
0
LINE
5
104
100
AcDbEntity
8
0
100
AcDbLine
10
-38.56316874737152
20
-53.476143876845995
30
-4.3047725970775931e-31
11
-43.357648613986683
21
-53.47614387684601
31
-1.1102230246251561e-15
0
LINE
5
105
100
AcDbEntity
8
0
100
AcDbLine
10
-43.357648613986683
20
-53.47614387684601
30
-1.1102230246251561e-15
11
-43.357648613986683
21
-51.47614387684601
31
-3.3306690738754696e-15
0
LINE
5
106
100
AcDbEntity
8
0
100
AcDbLine
10
-43.357648613986683
20
-51.47614387684601
30
-3.3306690738754696e-15
11
-40.000000000000007
21
-51.476143876845995
31
-3.6082248300317595e-15
0
ELLIPSE
5
107
100
AcDbEntity
8
0
100
AcDbEllipse
10
4.163336342344337e-16
20
6.1232339957367636e-17
30
0
11
-2.8198658289232283e-14
21
75
31
0.0
40
0.73333333333333317
41
0.81433994212652472
42
2.3272527114632671
0
LINE
5
108
100
AcDbEntity
8
0
100
AcDbLine
10
-39.999999999999986
20
51.476143876846038
30
2.1898754968767977e-30
11
-43.357648613986669
21
51.476143876846024
31
-3.3306690738754692e-15
0
LINE
5
109
100
AcDbEntity
8
0
100
AcDbLine
10
-43.357648613986669
20
51.476143876846024
30
-3.3306690738754692e-15
11
-43.357648613986669
21
53.476143876846024
31
-8.326672684688676e-16
0
LINE
5
110
100
AcDbEntity
8
0
100
AcDbLine
10
-43.357648613986669
20
53.476143876846024
30
-8.326672684688676e-16
11
-38.563168747371506
21
53.476143876846045
31
-1.1102230246251575e-15
0
ELLIPSE
5
111
100
AcDbEntity
8
0
100
AcDbEllipse
10
4.163336342344337e-16
20
6.1232339957367636e-17
30
0
11
-2.8198658289232283e-14
21
75
31
0.0
40
0.73333333333333317
41
0.14597238854420394
42
0.7770070203711934
0
ENDSEC
0
SECTION
2
OBJECTS
0
DICTIONARY
5
C
100
AcDbDictionary
3
ACAD_GROUP
350
D
3
ACAD_MLINESTYLE
350
17
0
DICTIONARY
5
D
100
AcDbDictionary
0
DICTIONARY
5
1A
330
C
100
AcDbDictionary
0
DICTIONARY
5
17
100
AcDbDictionary
0
ENDSEC
0
EOF
