0
SECTION
2
HEADER
9
$INSUNITS
70
4
9
$ACADVER
1
AC1014
9
$HANDSEED
5
FFFF
0
ENDSEC
0
SECTION
2
TABLES
0
TABLE
2
VPORT
5
8
100
AcDbSymbolTable
0
ENDTAB
0
TABLE
2
LTYPE
5
5
100
AcDbSymbolTable
0
LTYPE
5
14
100
AcDbSymbolTableRecord
100
AcDbLinetypeTableRecord
2
BYBLOCK
70
0
0
LTYPE
5
15
100
AcDbSymbolTableRecord
100
AcDbLinetypeTableRecord
2
BYLAYER
70
0
0
ENDTAB
0
TABLE
2
LAYER
5
2
100
AcDbSymbolTable
70
2
0
LAYER
5
50
100
AcDbSymbolTableRecord
100
AcDbLayerTableRecord
2
0
70
0
6
CONTINUOUS
0
ENDTAB
0
TABLE
2
STYLE
5
3
100
AcDbSymbolTable
70
1
0
STYLE
5
11
100
AcDbSymbolTableRecord
100
AcDbTextStyleTableRecord
2
STANDARD
70
0
0
ENDTAB
0
TABLE
2
VIEW
5
6
100
AcDbSymbolTable
70
0
0
ENDTAB
0
TABLE
2
UCS
5
7
100
AcDbSymbolTable
70
0
0
ENDTAB
0
TABLE
2
APPID
5
9
100
AcDbSymbolTable
70
2
0
APPID
5
12
100
AcDbSymbolTableRecord
100
AcDbRegAppTableRecord
2
ACAD
70
0
0
ENDTAB
0
TABLE
2
DIMSTYLE
5
A
100
AcDbSymbolTable
70
1
0
ENDTAB
0
TABLE
2
BLOCK_RECORD
5
1
100
AcDbSymbolTable
70
1
0
BLOCK_RECORD
5
1F
100
AcDbSymbolTableRecord
100
AcDbBlockTableRecord
2
*MODEL_SPACE
0
BLOCK_RECORD
5
1B
100
AcDbSymbolTableRecord
100
AcDbBlockTableRecord
2
*PAPER_SPACE
0
ENDTAB
0
ENDSEC
0
SECTION
2
BLOCKS
0
BLOCK
5
20
100
AcDbEntity
100
AcDbBlockBegin
2
*MODEL_SPACE
0
ENDBLK
5
21
100
AcDbEntity
100
AcDbBlockEnd
0
BLOCK
5
1C
100
AcDbEntity
100
AcDbBlockBegin
2
*PAPER_SPACE
0
ENDBLK
5
1D
100
AcDbEntity
100
AcDbBlockEnd
0
ENDSEC
0
SECTION
2
ENTITIES
0
LWPOLYLINE
5
100
100
AcDbEntity
8
0
100
AcDbPolyline
90
4
70
1
43
0.0
10
-8.2040717383766406
20
27.080564251478414
10
-6.0578930441234284
20
33.067951659770394
42
-0.58408753551296888
10
-3.8895546671831021
20
32.582162091831449
10
-5.000205606650062
20
26.38519678994065
42
0.15299962437652859
0
LWPOLYLINE
5
101
100
AcDbEntity
8
0
100
AcDbPolyline
90
4
70
1
43
0.0
10
-4.2523134820292254
20
24.88963664319418
10
-3.0259198538765251
20
31.732397487361382
42
-0.34156846391607737
10
-0.50000000000000289
20
31.233947928261667
10
-0.50000000000000266
20
24.742676852228598
42
0.16883811621237421
0
LWPOLYLINE
5
102
100
AcDbEntity
8
0
100
AcDbPolyline
90
3
70
1
43
0.0
10
-2.8228462977210196
20
32.865462554439233
10
-0.49999999999999989
20
45.825968323705261
10
-0.50000000000000211
20
32.519103436294543
42
0.19643493232723222
0
LWPOLYLINE
5
103
100
AcDbEntity
8
0
100
AcDbPolyline
90
4
70
1
43
0.0
10
-5.1900259857992035
20
25.326078878652005
42
0.20106420757728183
10
-8.5853951661015362
20
26.016752046203866
10
-11.382175853790248
20
18.214321839408658
42
-0.34204038654751479
10
-6.7147665059487496
20
16.818667808267964
0
LWPOLYLINE
5
104
100
AcDbEntity
8
0
100
AcDbPolyline
90
4
70
1
43
0.0
10
-0.50000000000000178
20
23.650433075390414
42
0.2197985225829103
10
-4.4562942293280141
20
23.75150983093851
10
-5.9735428510862585
20
15.285900403831059
42
-0.27230567187046067
10
-0.50000000000000455
20
14.705604556598164
0
LWPOLYLINE
5
105
100
AcDbEntity
8
0
100
AcDbPolyline
90
5
70
1
43
0.0
10
16.649999999999999
20
27.366843288232818
10
16.649999999999999
20
17.686453245891514
42
0.27924175654637784
10
13.291075966220241
20
15.852492152213708
10
10.420566869875385
20
23.860609120695454
42
-0.13415727812301875
10
16.03478754570834
20
28.224999999999998
0
LWPOLYLINE
5
106
100
AcDbEntity
8
0
100
AcDbPolyline
90
3
70
1
43
0.0
10
16.650000000000006
20
16.685072239164498
10
16.649999999999995
20
6.4818001780951917
10
13.818564402062458
20
14.380910299669143
42
-0.39051243685700299
0
LWPOLYLINE
5
107
100
AcDbEntity
8
0
100
AcDbPolyline
90
4
70
1
43
0.0
10
16.118848805914169
20
4.9999999999998401
10
8.8329669258374182
20
5
10
7.4912016031043045
20
12.486486395309893
42
-0.24127844687264796
10
12.780044607916366
20
14.314561861681412
0
LWPOLYLINE
5
108
100
AcDbEntity
8
0
100
AcDbPolyline
90
4
70
1
43
0.0
10
7.8170330741625724
20
4.9999999999999822
10
0.49999999999999267
20
5
10
0.49999999999999267
20
13.073247964252952
42
-0.1791904774685476
10
6.3338604833885199
20
13.275479500474976
0
LWPOLYLINE
5
109
100
AcDbEntity
8
0
100
AcDbPolyline
90
5
70
1
43
0.0
10
16.649999999999999
20
50.950000000000003
10
16.649999999999999
20
46.950427367455809
42
0.29473851423992625
10
12.490738443355024
20
43.347963137015704
10
9.1204698129073218
20
45.698548390533666
42
-0.12960209699795225
10
10.306434594025388
20
50.950000000000017
0
LWPOLYLINE
5
110
100
AcDbEntity
8
0
100
AcDbPolyline
90
3
70
1
43
0.0
10
16.649999999999999
20
45.937975196901135
10
16.649999999999999
20
40.44709678106733
10
13.368790525817415
20
42.735567953376389
42
-0.30817315708176196
0
LWPOLYLINE
5
111
100
AcDbEntity
8
0
100
AcDbPolyline
90
5
70
1
43
0.0
10
16.649999999999999
20
39.227903218932582
10
16.649999999999999
20
36.850385552058952
42
0.1741190064090278
10
13.128205164897226
20
33.995690348119162
10
10.011054815579143
20
38.34378745700279
42
-0.17497782233056175
10
13.141949962824182
20
41.674583762878761
0
LWPOLYLINE
5
112
100
AcDbEntity
8
0
100
AcDbPolyline
90
4
70
1
43
0.0
10
6.136183887127217
20
14.37843180033537
42
0.15346998612852614
10
0.50000000000000155
20
14.144607317969788
10
0.50000000000000433
20
23.623450122761835
42
-0.32756114052484336
10
4.489827730373869
20
23.56440699327143
0
LWPOLYLINE
5
113
100
AcDbEntity
8
0
100
AcDbPolyline
90
3
70
1
43
0.0
10
7.2544456421604497
20
45.780808623161498
42
0.1776473812461159
10
5.6868839381066998
20
44.375551338642303
10
2.1044646420405178
20
49.372649726097976
0
LWPOLYLINE
5
114
100
AcDbEntity
8
0
100
AcDbPolyline
90
4
70
1
43
0.0
10
8.9528019624678521
20
24.991764317001749
42
0.20617870504612679
10
5.437365723507912
20
23.946027128914146
10
4.3745459987346829
20
29.876114362033412
42
-0.446466838922569
10
7.021707128250485
20
30.379112968617171
0
LWPOLYLINE
5
115
100
AcDbEntity
8
0
100
AcDbPolyline
90
3
70
1
43
0.0
10
2.9048259610161136
20
32.408050499177413
42
0.21107365580103957
10
0.50000000000000056
20
32.318370532602842
10
0.500000000000002
20
45.825968323705702
0
LWPOLYLINE
5
116
100
AcDbEntity
8
0
100
AcDbPolyline
90
4
70
1
43
0.0
10
12.405802965922867
20
15.358617373429034
42
0.19644999631747762
10
7.2805990329792607
20
13.661560194986642
10
5.6505538232676695
20
22.75652716088517
42
-0.28785372696741141
10
9.3435544222381957
20
23.901647094399188
0
LWPOLYLINE
5
117
100
AcDbEntity
8
0
100
AcDbPolyline
90
4
70
1
43
0.0
10
4.257876432923057
20
24.858597715984949
42
0.22587798034807344
10
0.49999999999999833
20
24.786478904936345
10
0.49999999999999989
20
31.128233101494942
42
-0.38255236183139713
10
3.1392539276218532
20
31.100041003821683
0
LWPOLYLINE
5
118
100
AcDbEntity
8
0
100
AcDbPolyline
90
3
70
1
43
0.0
10
8.1182582260702514
20
46.397538303575452
10
1.5909396258146624
20
50.950000000000003
10
9.192018417982549
20
50.950000000000003
42
0.10221569845940574
0
LWPOLYLINE
5
119
100
AcDbEntity
8
0
100
AcDbPolyline
90
3
70
1
43
0.0
10
7.9521053641586201
20
39.499492112101642
42
0.18824086554303751
10
5.3586611479753232
20
37.982262020531067
10
1.6775148424637987
20
48.251886398369727
0
LWPOLYLINE
5
120
100
AcDbEntity
8
0
100
AcDbPolyline
90
4
70
1
43
0.0
10
12.228088198337518
20
42.311954317839806
42
0.13805848172600685
10
9.3466000663349487
20
39.270631994612209
10
6.3825803440750759
20
43.405127973560276
42
-0.34788906827606453
10
8.3769387653858498
20
44.997928659590627
0
LWPOLYLINE
5
121
100
AcDbEntity
8
0
100
AcDbPolyline
90
4
70
1
43
0.0
10
11.888658027633079
20
34.00841489833622
42
0.17701711559419664
10
7.6877753251735728
20
31.48452306972861
10
5.7849055720011062
20
36.793129678429054
42
-0.28949604595771106
10
8.632606227145839
20
38.550264932349194
0
LWPOLYLINE
5
122
100
AcDbEntity
8
0
100
AcDbPolyline
90
3
70
1
43
0.0
10
6.5560273496421306
20
31.678261660290321
42
0.23139688246483595
10
4.1514448983469627
20
31.120924705938513
10
1.5470850457611491
20
45.652157757303627
0
LWPOLYLINE
5
123
100
AcDbEntity
8
0
100
AcDbPolyline
90
4
70
1
43
0.0
10
15.437783676262008
20
29.0577576497232
42
0.11869547570591274
10
10.022185794317409
20
24.972008577732577
10
8.0956707727140458
20
30.346580514878422
42
-0.22358384882683521
10
12.541545858547391
20
33.09770499605483
0
LWPOLYLINE
5
124
100
AcDbEntity
8
0
100
AcDbPolyline
90
3
70
1
43
0.0
10
-5.5648702721675463
20
34.443381555106782
10
-1.5470850457609848
20
45.652157757304018
10
-3.6438200640970941
20
33.953257865206304
42
0.22926073398024546
0
LWPOLYLINE
5
125
100
AcDbEntity
8
0
100
AcDbPolyline
90
4
70
1
43
0.0
10
8.2040717383766388
20
75.819435748521599
10
6.0578930441234258
20
69.832048340229619
42
-0.5840875355129731
10
3.8895546671830998
20
70.31783790816857
10
5.0002056066500602
20
76.514803210059355
42
0.15299962437652859
0
LWPOLYLINE
5
126
100
AcDbEntity
8
0
100
AcDbPolyline
90
4
70
1
43
0.0
10
4.2523134820292219
20
78.010363356805826
10
3.025919853876522
20
71.167602512638638
42
-0.34156846391607731
10
0.50000000000000211
20
71.666052071738335
10
0.49999999999999906
20
78.157323147771407
42
0.16883811621237421
0
LWPOLYLINE
5
127
100
AcDbEntity
8
0
100
AcDbPolyline
90
3
70
1
43
0.0
10
2.8228462977210174
20
70.034537445560773
10
0.49999999999999933
20
57.074031676294751
10
0.49999999999999961
20
70.380896563705463
42
0.19643493232723255
0
LWPOLYLINE
5
128
100
AcDbEntity
8
0
100
AcDbPolyline
90
4
70
1
43
0.0
10
5.1900259857992008
20
77.573921121348008
42
0.20106420757728227
10
8.5853951661015344
20
76.883247953796143
10
11.382175853790235
20
84.685678160591337
42
-0.34204038654751423
10
6.714766505948746
20
86.081332191732045
0
LWPOLYLINE
5
129
100
AcDbEntity
8
0
100
AcDbPolyline
90
4
70
1
43
0.0
10
0.49999999999999933
20
79.249566924609582
42
0.2197985225829098
10
4.4562942293280114
20
79.148490169061489
10
5.9735428510862612
20
87.614099596168955
42
-0.27230567187046095
10
0.5
20
88.194395443401845
0
LWPOLYLINE
5
130
100
AcDbEntity
8
0
100
AcDbPolyline
90
5
70
1
43
0.0
10
-16.649999999999999
20
75.533156711767191
10
-16.650000000000002
20
85.213546754108492
42
0.27924175654637795
10
-13.291075966220244
20
87.047507847786306
10
-10.420566869875394
20
79.039390879304548
42
-0.13415727812301861
10
-16.034787545708344
20
74.675000000000011
0
LWPOLYLINE
5
131
100
AcDbEntity
8
0
100
AcDbPolyline
90
3
70
1
43
0.0
10
-16.650000000000009
20
86.214927760835508
10
-16.649999999999999
20
96.418199821904821
10
-13.818564402062464
20
88.519089700330866
42
-0.39051243685700299
0
LWPOLYLINE
5
132
100
AcDbEntity
8
0
100
AcDbPolyline
90
4
70
1
43
0.0
10
-16.118848805914176
20
97.900000000000176
10
-8.8329669258374235
20
97.900000000000006
10
-7.4912016031043098
20
90.41351360469011
42
-0.2412784468726463
10
-12.78004460791637
20
88.585438138318594
0
LWPOLYLINE
5
133
100
AcDbEntity
8
0
100
AcDbPolyline
90
4
70
1
43
0.0
10
-7.8170330741625786
20
97.900000000000034
10
-0.49999999999999822
20
97.900000000000006
10
-0.49999999999999711
20
89.826752035747063
42
-0.17919047746854908
10
-6.3338604833885253
20
89.624520499525033
0
LWPOLYLINE
5
134
100
AcDbEntity
8
0
100
AcDbPolyline
90
3
70
1
43
0.0
10
16.649999999999999
20
29.083156711767089
10
13.772350317002878
20
33.09717556387568
42
-0.17778878418680838
10
16.649999999999995
20
35.77940457901601
0
LWPOLYLINE
5
135
100
AcDbEntity
8
0
100
AcDbPolyline
90
5
70
1
43
0.0
10
-16.649999999999999
20
51.950000000000003
10
-16.649999999999999
20
55.949572632544204
42
0.29473851423992625
10
-12.490738443355024
20
59.552036862984309
10
-9.1204698129073218
20
57.201451609466346
42
-0.12960209699795225
10
-10.306434594025388
20
51.949999999999996
0
LWPOLYLINE
5
136
100
AcDbEntity
8
0
100
AcDbPolyline
90
3
70
1
43
0.0
10
-16.649999999999999
20
56.962024803098871
10
-16.649999999999999
20
62.452903218932683
10
-13.368790525817415
20
60.164432046623624
42
-0.30817315708176196
0
LWPOLYLINE
5
137
100
AcDbEntity
8
0
100
AcDbPolyline
90
5
70
1
43
0.0
10
-16.649999999999999
20
63.672096781067431
10
-16.649999999999999
20
66.049614447941053
42
0.17411900640902758
10
-13.128205164897228
20
68.904309651880851
10
-10.011054815579143
20
64.556212542997216
42
-0.17497782233056086
10
-13.141949962824185
20
61.225416237121244
0
LWPOLYLINE
5
138
100
AcDbEntity
8
0
100
AcDbPolyline
90
4
70
1
43
0.0
10
-6.1361838871272214
20
88.521568199664642
42
0.15346998612852727
10
-0.50000000000000511
20
88.755392682030219
10
-0.500000000000006
20
79.276549877238182
42
-0.32756114052484636
10
-4.4898277303738707
20
79.335593006728587
0
LWPOLYLINE
5
139
100
AcDbEntity
8
0
100
AcDbPolyline
90
3
70
1
43
0.0
10
-7.2544456421604542
20
57.119191376838508
42
0.17764738124611609
10
-5.6868839381067016
20
58.524448661357702
10
-2.1044646420405178
20
53.52735027390203
0
LWPOLYLINE
5
140
100
AcDbEntity
8
0
100
AcDbPolyline
90
4
70
1
43
0.0
10
-8.9528019624678539
20
77.908235682998267
42
0.20617870504612695
10
-5.4373657235079147
20
78.953972871085867
10
-4.3745459987346855
20
73.0238856379666
42
-0.44646683892256955
10
-7.0217071282504868
20
72.520887031382841
0
LWPOLYLINE
5
141
100
AcDbEntity
8
0
100
AcDbPolyline
90
3
70
1
43
0.0
10
-2.9048259610161158
20
70.491949500822585
42
0.21107365580103959
10
-0.50000000000000255
20
70.581629467397164
10
-0.50000000000000266
20
57.074031676294304
0
LWPOLYLINE
5
142
100
AcDbEntity
8
0
100
AcDbPolyline
90
4
70
1
43
0.0
10
-12.405802965922872
20
87.541382626570964
42
0.19644999631747645
10
-7.2805990329792634
20
89.238439805013371
10
-5.650553823267682
20
80.14347283911485
42
-0.28785372696741141
10
-9.3435544222381992
20
78.998352905600825
0
LWPOLYLINE
5
143
100
AcDbEntity
8
0
100
AcDbPolyline
90
4
70
1
43
0.0
10
-4.2578764329230605
20
78.041402284015064
42
0.22587798034807446
10
-0.500000000000001
20
78.113521095063646
10
-0.50000000000000322
20
71.771766898505064
42
-0.38255236183139707
10
-3.1392539276218558
20
71.799958996178333
0
LWPOLYLINE
5
144
100
AcDbEntity
8
0
100
AcDbPolyline
90
3
70
1
43
0.0
10
-8.1182582260702514
20
56.502461696424561
10
-1.5909396258146624
20
51.950000000000003
10
-9.192018417982549
20
51.950000000000003
42
0.10221569845940574
0
LWPOLYLINE
5
145
100
AcDbEntity
8
0
100
AcDbPolyline
90
3
70
1
43
0.0
10
-7.9521053641586201
20
63.400507887898371
42
0.18824086554303743
10
-5.3586611479753241
20
64.917737979468939
10
-1.6775148424637987
20
54.648113601630286
0
LWPOLYLINE
5
146
100
AcDbEntity
8
0
100
AcDbPolyline
90
4
70
1
43
0.0
10
-12.228088198337517
20
60.5880456821602
42
0.1380584817260061
10
-9.3466000663349487
20
63.629368005387796
10
-6.3825803440750768
20
59.494872026439729
42
-0.34788906827606453
10
-8.3769387653858516
20
57.902071340409378
0
LWPOLYLINE
5
147
100
AcDbEntity
8
0
100
AcDbPolyline
90
4
70
1
43
0.0
10
-11.888658027633081
20
68.891585101663793
42
0.17701711559419647
10
-7.6877753251735745
20
71.415476930271382
10
-5.7849055720011089
20
66.106870321570952
42
-0.28949604595771106
10
-8.632606227145839
20
64.349735067650812
0
LWPOLYLINE
5
148
100
AcDbEntity
8
0
100
AcDbPolyline
90
3
70
1
43
0.0
10
-6.5560273496421324
20
71.221738339709688
42
0.23139688246483597
10
-4.1514448983469654
20
71.779075294061499
10
-1.5470850457611496
20
57.247842242696379
0
LWPOLYLINE
5
149
100
AcDbEntity
8
0
100
AcDbPolyline
90
4
70
1
43
0.0
10
-15.437783676262011
20
73.842242350276805
42
0.11869547570591274
10
-10.022185794317412
20
77.927991422267425
10
-8.0956707727140422
20
72.55341948512158
42
-0.22358384882683521
10
-12.541545858547391
20
69.802295003945176
0
LWPOLYLINE
5
150
100
AcDbEntity
8
0
100
AcDbPolyline
90
3
70
1
43
0.0
10
5.5648702721675436
20
68.456618444893223
10
1.5470850457609842
20
57.247842242695988
10
3.6438200640970919
20
68.946742134793709
42
0.22926073398024643
0
LWPOLYLINE
5
151
100
AcDbEntity
8
0
100
AcDbPolyline
90
4
70
1
43
0.0
10
-7.0272355926352077
20
15.075221672942245
42
0.57791202083697224
10
-11.908551054983283
20
16.745845677521789
10
-16.118848805914137
20
5
10
-8.8329669258374199
20
5
0
LWPOLYLINE
5
152
100
AcDbEntity
8
0
100
AcDbPolyline
90
3
70
1
43
0.0
10
-16.650000000000006
20
6.4818001780954937
10
-16.650000000000006
20
20.155339078626664
42
-0.16413560745317241
10
-12.662937200184484
20
17.604867268271608
0
LWPOLYLINE
5
153
100
AcDbEntity
8
0
100
AcDbPolyline
90
5
70
1
43
0.0
10
-16.650000000000009
20
21.182027943584316
10
-16.650000000000002
20
27.366843288232818
10
-12.994697368664283
20
32.465606267978885
42
-0.2934827722646593
10
-8.6801880835876748
20
28.71590008904775
10
-12.275571085241729
20
18.685537300649457
42
0.15336782529861004
0
LWPOLYLINE
5
154
100
AcDbEntity
8
0
100
AcDbPolyline
90
4
70
1
43
0.0
10
-16.650000000000023
20
29.083156711766975
10
-16.650000000000023
20
39.227903218932681
10
-15.735105250648662
20
39.865994226550868
42
-0.30876391097511569
10
-13.749134564032531
20
33.129559099175069
0
LWPOLYLINE
5
155
100
AcDbEntity
8
0
100
AcDbPolyline
90
4
70
1
43
0.0
10
-16.649999999999999
20
40.447096781067387
10
-16.649999999999999
20
50.950000000000003
10
-14.457186937647755
20
50.950000000000017
42
-0.28094395339708805
10
-13.314301738083527
20
42.773571019295922
0
LWPOLYLINE
5
156
100
AcDbEntity
8
0
100
AcDbPolyline
90
3
70
1
43
0.0
10
-16.649999999999999
20
73.816843288232917
10
-13.772350317002882
20
69.802824436124325
42
-0.17778878418680827
10
-16.649999999999995
20
67.120595420984003
0
LWPOLYLINE
5
157
100
AcDbEntity
8
0
100
AcDbPolyline
90
3
70
1
43
0.0
10
-10.934400620560513
20
43.214233416754951
10
-2.1044646420404076
20
49.372649726098118
10
-8.4778530921530066
20
40.482442713853899
42
0.27834519036803401
0
LWPOLYLINE
5
158
100
AcDbEntity
8
0
100
AcDbPolyline
90
3
70
1
43
0.0
10
-1.5909396258146602
20
50.950000000000003
10
-6.2279441788655703
20
47.715933010672451
42
0.23296465324912294
10
-7.0250191417558874
20
50.950000000000003
0
LWPOLYLINE
5
159
100
AcDbEntity
8
0
100
AcDbPolyline
90
4
70
1
43
0.0
10
-14.887177640591725
20
40.457379173805279
10
-12.157203611991614
20
42.361392591652766
42
-0.53820468974569291
10
-9.5527060971077145
20
38.983135744480137
10
-12.448603364376396
20
34.943663430226941
42
0.21846091816944663
0
LWPOLYLINE
5
160
100
AcDbEntity
8
0
100
AcDbPolyline
90
4
70
1
43
0.0
10
-8.3250000000000064
20
46.253346781067407
10
-11.933244464963293
20
43.736785889212371
42
0.21460447077624958
10
-13.209553742918178
20
50.950000000000003
10
-8.5750000000000011
20
50.950000000000017
42
-0.55605800900154778
0
LWPOLYLINE
5
161
100
AcDbEntity
8
0
100
AcDbPolyline
90
3
70
1
43
0.0
10
-5.261886024789268
20
38.252244271101048
42
0.15422352832581671
10
-7.8123958627290344
20
39.694372182414092
10
-1.6775148424636566
20
48.251886398369848
0
LWPOLYLINE
5
162
100
AcDbEntity
8
0
100
AcDbPolyline
90
4
70
1
43
0.0
10
-8.174109013035789
20
30.127754312899722
42
0.22022729887040524
10
-12.352112799463541
20
33.361944203095234
10
-8.4653903808105699
20
38.783513462747813
42
-0.22045935758100951
10
-5.6557624155306074
20
37.153411937771573
0
LWPOLYLINE
5
163
100
AcDbEntity
8
0
100
AcDbPolyline
90
4
70
1
43
0.0
10
7.0272355926352015
20
87.824778327057771
42
0.57791202083697157
10
11.90855105498327
20
86.15415432247822
10
16.118848805914133
20
97.900000000000006
10
8.8329669258374146
20
97.900000000000006
0
LWPOLYLINE
5
164
100
AcDbEntity
8
0
100
AcDbPolyline
90
3
70
1
43
0.0
10
16.649999999999999
20
96.418199821904523
10
16.650000000000002
20
82.744660921373338
42
-0.16413560745317415
10
12.66293720018448
20
85.295132731728401
0
LWPOLYLINE
5
165
100
AcDbEntity
8
0
100
AcDbPolyline
90
5
70
1
43
0.0
10
16.650000000000006
20
81.71797205641569
10
16.649999999999999
20
75.533156711767191
10
12.994697368664278
20
70.434393732021121
42
-0.29348277226465735
10
8.680188083587673
20
74.184099910952256
10
12.275571085241722
20
84.214462699350548
42
0.15336782529861154
0
LWPOLYLINE
5
166
100
AcDbEntity
8
0
100
AcDbPolyline
90
4
70
1
43
0.0
10
16.650000000000023
20
73.816843288233031
10
16.650000000000023
20
63.672096781067324
10
15.735105250648658
20
63.034005773449138
42
-0.30876391097511502
10
13.749134564032527
20
69.770440900824937
0
LWPOLYLINE
5
167
100
AcDbEntity
8
0
100
AcDbPolyline
90
4
70
1
43
0.0
10
16.649999999999999
20
62.452903218932619
10
16.649999999999999
20
51.950000000000003
10
14.45718693764775
20
51.949999999999989
42
-0.28094395339708805
10
13.314301738083522
20
60.126428980704077
0
LWPOLYLINE
5
168
100
AcDbEntity
8
0
100
AcDbPolyline
90
4
70
1
43
0.0
10
-0.50000000000000433
20
13.37214334364722
42
0.36771340394147967
10
-6.2008158864699041
20
14.017812416615421
10
-7.817033074162576
20
5
10
-0.50000000000000611
20
5
0
LWPOLYLINE
5
169
100
AcDbEntity
8
0
100
AcDbPolyline
90
3
70
1
43
0.0
10
10.934400620560513
20
59.685766583245055
10
2.1044646420404076
20
53.527350273901888
10
8.4778530921530049
20
62.417557286146106
42
0.27834519036803401
0
LWPOLYLINE
5
170
100
AcDbEntity
8
0
100
AcDbPolyline
90
3
70
1
43
0.0
10
1.5909396258146602
20
51.950000000000003
10
6.2279441788655703
20
55.184066989327562
42
0.23296465324912285
10
7.0250191417558856
20
51.950000000000003
0
LWPOLYLINE
5
171
100
AcDbEntity
8
0
100
AcDbPolyline
90
4
70
1
43
0.0
10
14.887177640591725
20
62.442620826194727
10
12.157203611991614
20
60.538607408347247
42
-0.53820468974569236
10
9.5527060971077145
20
63.916864255519869
10
12.448603364376394
20
67.956336569773072
42
0.21846091816944638
0
LWPOLYLINE
5
172
100
AcDbEntity
8
0
100
AcDbPolyline
90
4
70
1
43
0.0
10
8.3250000000000064
20
56.646653218932599
10
11.933244464963288
20
59.163214110787635
42
0.21460447077624983
10
13.209553742918176
20
51.950000000000003
10
8.5750000000000011
20
51.949999999999996
42
-0.55605800900154778
0
LWPOLYLINE
5
173
100
AcDbEntity
8
0
100
AcDbPolyline
90
3
70
1
43
0.0
10
5.2618860247892671
20
64.647755728898957
42
0.15422352832581665
10
7.8123958627290353
20
63.205627817585921
10
1.6775148424636566
20
54.648113601630158
0
LWPOLYLINE
5
174
100
AcDbEntity
8
0
100
AcDbPolyline
90
4
70
1
43
0.0
10
8.1741090130357854
20
72.772245687100281
42
0.22022729887040418
10
12.352112799463541
20
69.538055796904786
10
8.4653903808105699
20
64.1164865372522
42
-0.2204593575810094
10
5.6557624155306074
20
65.74658806222844
0
LWPOLYLINE
5
175
100
AcDbEntity
8
0
100
AcDbPolyline
90
4
70
1
43
0.0
10
0.50000000000000044
20
89.527856656352782
42
0.36771340394147967
10
6.2008158864698988
20
88.882187583384592
10
7.8170330741625706
20
97.900000000000006
10
0.50000000000000044
20
97.900000000000006
0
LWPOLYLINE
5
176
100
AcDbEntity
8
0
100
AcDbPolyline
90
12
70
1
43
0.0
10
-5
20
-1.9999999999999996
10
5
20
-1.9999999999999996
10
5
20
0
10
21.649999999999999
20
0
10
21.649999999999999
20
102.90000000000001
10
5
20
102.90000000000001
10
5
20
104.90000000000001
10
-5
20
104.90000000000001
10
-5
20
102.90000000000001
10
-21.649999999999999
20
102.90000000000001
10
-21.649999999999999
20
0
10
-5
20
0
0
ENDSEC
0
SECTION
2
OBJECTS
0
DICTIONARY
5
C
100
AcDbDictionary
3
ACAD_GROUP
350
D
3
ACAD_MLINESTYLE
350
17
0
DICTIONARY
5
D
100
AcDbDictionary
0
DICTIONARY
5
1A
330
C
100
AcDbDictionary
0
DICTIONARY
5
17
100
AcDbDictionary
0
ENDSEC
0
EOF
