0
SECTION
2
HEADER
9
$INSUNITS
70
4
9
$ACADVER
1
AC1014
9
$HANDSEED
5
FFFF
0
ENDSEC
0
SECTION
2
TABLES
0
TABLE
2
VPORT
5
8
100
AcDbSymbolTable
0
ENDTAB
0
TABLE
2
LTYPE
5
5
100
AcDbSymbolTable
0
LTYPE
5
14
100
AcDbSymbolTableRecord
100
AcDbLinetypeTableRecord
2
BYBLOCK
70
0
0
LTYPE
5
15
100
AcDbSymbolTableRecord
100
AcDbLinetypeTableRecord
2
BYLAYER
70
0
0
ENDTAB
0
TABLE
2
LAYER
5
2
100
AcDbSymbolTable
70
2
0
LAYER
5
50
100
AcDbSymbolTableRecord
100
AcDbLayerTableRecord
2
0
70
0
6
CONTINUOUS
0
ENDTAB
0
TABLE
2
STYLE
5
3
100
AcDbSymbolTable
70
1
0
STYLE
5
11
100
AcDbSymbolTableRecord
100
AcDbTextStyleTableRecord
2
STANDARD
70
0
0
ENDTAB
0
TABLE
2
VIEW
5
6
100
AcDbSymbolTable
70
0
0
ENDTAB
0
TABLE
2
UCS
5
7
100
AcDbSymbolTable
70
0
0
ENDTAB
0
TABLE
2
APPID
5
9
100
AcDbSymbolTable
70
2
0
APPID
5
12
100
AcDbSymbolTableRecord
100
AcDbRegAppTableRecord
2
ACAD
70
0
0
ENDTAB
0
TABLE
2
DIMSTYLE
5
A
100
AcDbSymbolTable
70
1
0
ENDTAB
0
TABLE
2
BLOCK_RECORD
5
1
100
AcDbSymbolTable
70
1
0
BLOCK_RECORD
5
1F
100
AcDbSymbolTableRecord
100
AcDbBlockTableRecord
2
*MODEL_SPACE
0
BLOCK_RECORD
5
1B
100
AcDbSymbolTableRecord
100
AcDbBlockTableRecord
2
*PAPER_SPACE
0
ENDTAB
0
ENDSEC
0
SECTION
2
BLOCKS
0
BLOCK
5
20
100
AcDbEntity
100
AcDbBlockBegin
2
*MODEL_SPACE
0
ENDBLK
5
21
100
AcDbEntity
100
AcDbBlockEnd
0
BLOCK
5
1C
100
AcDbEntity
100
AcDbBlockBegin
2
*PAPER_SPACE
0
ENDBLK
5
1D
100
AcDbEntity
100
AcDbBlockEnd
0
ENDSEC
0
SECTION
2
ENTITIES
0
LWPOLYLINE
5
100
100
AcDbEntity
8
0
100
AcDbPolyline
90
92
70
1
43
0.0
10
-19.031658601573138
20
91.782961681500765
10
-20.273119832687854
20
91.409831142996595
42
0.37426550248654805
10
-20.623308343112939
20
90.854454544186765
42
0.014606891630773512
10
-20.509099559265934
20
90.236965211615754
42
0.37426550248652662
10
-19.983431954844836
20
89.843584061836708
10
-18.118322730508261
20
89.981501232219159
42
0.039234808135591541
10
-17.625222370491077
20
88.744206635001902
10
-19.073935588400548
20
87.561462547362495
42
0.37426550248652313
10
-19.184934162615093
20
86.914350133742104
42
0.014606891630774938
10
-18.843116067548749
20
86.387570187244464
42
0.3742655024865334
10
-18.206922078294685
20
86.225297677630849
10
-16.536564456176166
20
87.066462928233932
42
0.03923480813559279
10
-15.607506982772435
20
86.112053112449942
10
-16.4933269062102
20
84.464941510938871
42
0.37426550248652313
10
-16.348237017494654
20
83.824610281392921
42
0.014606891630773512
10
-15.83084831759404
20
83.46873719255089
42
0.37426550248654206
10
-15.180982711258064
20
83.562277841687433
10
-13.959673497495583
20
84.978631388288832
42
0.039234808135591714
10
-12.736099489104099
20
84.452406596644749
10
-12.924168064704338
20
82.591685291488247
42
0.37426550248650853
10
-12.5450783333725
20
82.055619871098102
42
0.014606891630774462
10
-11.930886768057276
20
81.924832091690249
42
0.3742655024865566
10
-11.366285692157636
20
82.259945183693972
10
-10.779958143350941
20
84.035860038100552
42
0.039234808135592082
10
-9.4481456510232835
20
84.017933224884501
10
-8.9098311429967438
20
82.226880167311975
42
0.37426550248651486
10
-8.3544545441869253
20
81.876691656886891
42
0.014606891630774462
10
-7.7369652116158996
20
81.990900440733895
42
0.37426550248651935
10
-7.3435840618368466
20
82.516568045154997
10
-7.4815012322192898
20
84.38167726949159
42
0.039234808135591541
10
-6.2442066350020466
20
84.874777629508756
10
-5.0614625473625985
20
83.426064411599299
42
0.37426550248654122
10
-4.4143501337421753
20
83.315065837384751
42
0.014606891630773512
10
-3.8875701872446
20
83.65688393245108
42
0.37426550248652529
10
-3.7252976776309623
20
84.293077921705162
10
-4.5664629282340723
20
85.963435543823692
42
0.039234808135592082
10
-3.6120531124500994
20
86.892493017227409
10
-1.9649415109390245
20
86.006673093789658
42
0.37426550248651269
10
-1.3246102813930793
20
86.151762982505204
42
0.014606891630773512
10
-0.96873719255104573
20
86.669151682405811
42
0.37426550248653756
10
-1.0622778416875645
20
87.31901728874179
10
-2.4786313882890134
20
88.540326502504286
42
0.039234808135591187
10
-1.9524065966449089
20
89.763900510895738
10
-0.091685291488392551
20
89.575831935295511
42
0.3742655024865158
10
0.44438012890175127
20
89.954921666627342
42
0.014606891630774462
10
0.57516790830959741
20
90.569113231942566
42
0.37426550248653728
10
0.24005481630588715
20
91.133714307842197
10
-1.5358600381007004
20
91.720041856648905
42
0.039234808135591541
10
-1.51793322488466
20
93.051854348976548
10
0.27311983268784923
20
93.590168857003107
42
0.37426550248656693
10
0.62330834311292937
20
94.145545455812936
42
0.014606891630772563
10
0.50909955926592654
20
94.763034788383919
42
0.37426550248652096
10
-0.016568045155168493
20
95.156415938162993
10
-1.8816772694917339
20
95.018498767780542
42
0.039234808135591187
10
-2.3747776295089325
20
96.255793364997771
10
-0.92606441159943875
20
97.438537452637235
42
0.37426550248653545
10
-0.81506583738490956
20
98.085649866257668
42
0.014606891630772563
10
-1.1568839324512525
20
98.612429812755238
42
0.37426550248653873
10
-1.7930779217053059
20
98.774702322368867
10
-3.4634355438238451
20
97.93353707176577
42
0.039234808135591361
10
-4.3924930172275616
20
98.887946887549717
10
-3.5066730937897872
20
100.53505848906083
42
0.37426550248652946
10
-3.6517629825053408
20
101.17538971860675
42
0.014606891630773987
10
-4.1691516824059525
20
101.53126280744878
42
0.3742655024865339
10
-4.8190172887419278
20
101.43772215831231
10
-6.0403265025044162
20
100.02136861171083
42
0.039234808135591902
10
-7.2639005108959083
20
100.54759340335494
10
-7.0758319352956622
20
102.40831470851147
42
0.3742655024865113
10
-7.4549216666274996
20
102.94438012890161
42
0.014606891630773987
10
-8.0691132319427261
20
103.07516790830944
42
0.37426550248655899
10
-8.6337143078423644
20
102.74005481630574
10
-9.2200418566490665
20
100.96413996189915
42
0.039234808135591902
10
-10.551854348976722
20
100.98206677511519
10
-11.090168857003249
20
102.77311983268768
42
0.37426550248652368
10
-11.645545455813062
20
103.1233083431128
42
0.014606891630774938
10
-12.2630347883841
20
103.00909955926576
42
0.37426550248649892
10
-12.656415938163159
20
102.48343195484468
10
-12.518498767780709
20
100.61832273050811
42
0.039234808135591361
10
-13.755793364997938
20
100.1252223704909
10
-14.93853745263737
20
101.5739355884004
42
0.37426550248651758
10
-15.585649866257786
20
101.68493416261497
42
0.014606891630774462
10
-16.112429812755387
20
101.34311606754861
42
0.37426550248653528
10
-16.274702322369034
20
100.70692207829454
10
-15.462829733837946
20
99.09473283786923
10
-41.728256698537066
20
112.14161159157599
42
-0.34840424148794835
10
-50.929114775395945
20
131.72296003647028
42
-0.17958667333241424
10
-52.221608295363509
20
147.09630785518894
42
-0.51721417367900024
10
-36.240463449126096
20
178.61696021280008
42
0.72448961498818887
10
-38.777110685427935
20
183.11950905723592
42
0.083617232984827705
10
-57.006174793447137
20
176.15981070915336
42
0.10844359936562466
10
-63.840353496880198
20
126.3556263294435
42
-0.14560105231951387
10
-50.720690430464195
20
103.06822438655507
42
-0.10361133015552304
0
CIRCLE
5
101
100
AcDbEntity
8
0
100
AcDbCircle
10
-10.000000000000004
20
92.499999999999829
30
0
40
2.5
210
-0
220
0
230
1
0
ENDSEC
0
SECTION
2
OBJECTS
0
DICTIONARY
5
C
100
AcDbDictionary
3
ACAD_GROUP
350
D
3
ACAD_MLINESTYLE
350
17
0
DICTIONARY
5
D
100
AcDbDictionary
0
DICTIONARY
5
1A
330
C
100
AcDbDictionary
0
DICTIONARY
5
17
100
AcDbDictionary
0
ENDSEC
0
EOF
