0
SECTION
2
HEADER
9
$INSUNITS
70
4
9
$ACADVER
1
AC1014
9
$HANDSEED
5
FFFF
0
ENDSEC
0
SECTION
2
TABLES
0
TABLE
2
VPORT
5
8
100
AcDbSymbolTable
0
ENDTAB
0
TABLE
2
LTYPE
5
5
100
AcDbSymbolTable
0
LTYPE
5
14
100
AcDbSymbolTableRecord
100
AcDbLinetypeTableRecord
2
BYBLOCK
70
0
0
LTYPE
5
15
100
AcDbSymbolTableRecord
100
AcDbLinetypeTableRecord
2
BYLAYER
70
0
0
ENDTAB
0
TABLE
2
LAYER
5
2
100
AcDbSymbolTable
70
2
0
LAYER
5
50
100
AcDbSymbolTableRecord
100
AcDbLayerTableRecord
2
0
70
0
6
CONTINUOUS
0
ENDTAB
0
TABLE
2
STYLE
5
3
100
AcDbSymbolTable
70
1
0
STYLE
5
11
100
AcDbSymbolTableRecord
100
AcDbTextStyleTableRecord
2
STANDARD
70
0
0
ENDTAB
0
TABLE
2
VIEW
5
6
100
AcDbSymbolTable
70
0
0
ENDTAB
0
TABLE
2
UCS
5
7
100
AcDbSymbolTable
70
0
0
ENDTAB
0
TABLE
2
APPID
5
9
100
AcDbSymbolTable
70
2
0
APPID
5
12
100
AcDbSymbolTableRecord
100
AcDbRegAppTableRecord
2
ACAD
70
0
0
ENDTAB
0
TABLE
2
DIMSTYLE
5
A
100
AcDbSymbolTable
70
1
0
ENDTAB
0
TABLE
2
BLOCK_RECORD
5
1
100
AcDbSymbolTable
70
1
0
BLOCK_RECORD
5
1F
100
AcDbSymbolTableRecord
100
AcDbBlockTableRecord
2
*MODEL_SPACE
0
BLOCK_RECORD
5
1B
100
AcDbSymbolTableRecord
100
AcDbBlockTableRecord
2
*PAPER_SPACE
0
ENDTAB
0
ENDSEC
0
SECTION
2
BLOCKS
0
BLOCK
5
20
100
AcDbEntity
100
AcDbBlockBegin
2
*MODEL_SPACE
0
ENDBLK
5
21
100
AcDbEntity
100
AcDbBlockEnd
0
BLOCK
5
1C
100
AcDbEntity
100
AcDbBlockBegin
2
*PAPER_SPACE
0
ENDBLK
5
1D
100
AcDbEntity
100
AcDbBlockEnd
0
ENDSEC
0
SECTION
2
ENTITIES
0
LINE
5
100
100
AcDbEntity
8
0
100
AcDbLine
10
62.472210896845567
20
23.583747964008403
30
0
11
62.466786877656929
21
23.583748077220839
31
0
0
SPLINE
5
101
100
AcDbEntity
8
0
100
AcDbSpline
70
0
71
3
72
8
73
4
74
0
42
0.000000001
43
0.0000000001
44
0.0000000001
40
0.88538181502817481
40
0.88538181502817481
40
0.88538181502817481
40
0.88538181502817481
40
1.2807741821467549
40
1.2807741821467549
40
1.2807741821467549
40
1.2807741821467549
10
51.154563378730835
20
52.616877596337517
30
0
10
56.349857364083874
20
43.945736125305572
30
0
10
60.172892825541417
20
34.034253341024574
30
0
10
62.466786877656951
20
23.583748077220832
30
0
0
LINE
5
102
100
AcDbEntity
8
0
100
AcDbLine
10
51.154563378730835
20
52.616877596337517
30
0
11
68.86823511865677
21
52.616877702632927
31
0
0
ARC
5
103
100
AcDbEntity
8
0
100
AcDbCircle
10
22.92125191043203
20
7.6750691944132221
30
0
40
64.272011155144469
210
0
220
-0
230
1
100
AcDbArc
50
23.53007493498043
51
44.366369394630446
0
ARC
5
104
100
AcDbEntity
8
0
100
AcDbCircle
10
72.788349435201098
20
19.510476528033426
30
0
40
16.528704289629104
210
-0
220
0
230
1
100
AcDbArc
50
-30.054651720549632
51
56.757624420942335
0
ARC
5
105
100
AcDbEntity
8
0
100
AcDbCircle
10
81.691332744568427
20
23.290915305755998
30
0
40
13.213734595475735
210
0
220
0
230
1
100
AcDbArc
50
294.13722114520624
51
348.66085436391774
0
ARC
5
106
100
AcDbEntity
8
0
100
AcDbCircle
10
33.357885954698332
20
10.328642355984346
30
0
40
62.159395549426229
210
0
220
-0
230
1
100
AcDbArc
50
9.5981264171060054
51
49.168620618994019
0
LINE
5
107
100
AcDbEntity
8
0
100
AcDbLine
10
73.999880069719865
20
57.360745960060825
30
0
11
77.355710456341896
21
58.513017197460655
31
0
0
LINE
5
108
100
AcDbEntity
8
0
100
AcDbLine
10
77.355710456341896
20
58.513017197460655
30
0
11
73.278555864635152
21
61.333506886028758
31
0
0
LINE
5
109
100
AcDbEntity
8
0
100
AcDbLine
10
73.278555864635152
20
61.333506886028758
30
0
11
70.308104931944001
21
60.313357745827489
31
0
0
ARC
5
110
100
AcDbEntity
8
0
100
AcDbCircle
10
33.357885954698332
20
10.328642355984346
30
0
40
62.159395549426215
210
0
220
-0
230
1
100
AcDbArc
50
53.527063373492567
51
70.666053194882025
0
ARC
5
111
100
AcDbEntity
8
0
100
AcDbCircle
10
51.775569430256056
20
64.795634619187609
30
0
40
4.7120090807257355
210
0
220
-0
230
1
100
AcDbArc
50
62.693354780469839
51
151.93034129304735
0
ARC
5
112
100
AcDbEntity
8
0
100
AcDbCircle
10
22.92125191043203
20
7.6750691944132221
30
0
40
64.272011155144483
210
0
220
-0
230
1
100
AcDbArc
50
56.411615791351707
51
67.402781176263773
0
LINE
5
113
100
AcDbEntity
8
0
100
AcDbLine
10
58.477985950874029
20
61.215802120889762
30
0
11
45.225793438182258
21
61.215802120888824
31
0
0
LINE
5
114
100
AcDbEntity
8
0
100
AcDbLine
10
45.225793438182258
20
61.215802120888824
30
0
11
45.247780185935298
21
61.183874763545973
31
0
0
SPLINE
5
115
100
AcDbEntity
8
0
100
AcDbSpline
70
0
71
3
72
11
73
7
74
0
42
0.000000001
43
0.0000000001
44
0.0000000001
40
0.29796886690453855
40
0.29796886690453855
40
0.29796886690453855
40
0.29796886690453855
40
0.39556428611555916
40
0.39556428611555916
40
0.39556428611555916
40
0.74792341158899589
40
0.74792341158899589
40
0.74792341158899589
40
0.74792341158899589
10
20.005985279018947
20
80.915205584109358
30
0
10
22.098859827905777
20
80.041015328648243
30
0
10
24.148363114409719
20
79.033213826554658
30
0
10
26.141315890886816
20
77.898387500973442
30
0
10
33.336685336567008
20
73.801203279842696
30
0
10
39.795009249537124
20
68.073962097443129
30
0
10
45.247780185935298
20
61.183874763545973
30
0
0
LINE
5
116
100
AcDbEntity
8
0
100
AcDbLine
10
20.005985279018947
20
80.915205584109358
30
0
11
20.028844171967076
21
80.910738579829413
31
0
0
SPLINE
5
117
100
AcDbEntity
8
0
100
AcDbSpline
70
4
71
5
72
21
73
15
74
0
42
0.000000001
43
0.0000000001
44
0.0000000001
40
0
40
0
40
0
40
0
40
0
40
0
40
0.10000000000000001
40
0.20000000000000001
40
0.30000000000000004
40
0.40000000000000002
40
0.5
40
0.59999999999999998
40
0.69999999999999996
40
0.79999999999999993
40
0.89999999999999991
40
1
40
1
40
1
40
1
40
1
40
1
41
1
41
1
41
1
41
1
41
1
41
1
41
1
41
1
41
1
41
1
41
1
41
1
41
1
41
1
41
1
10
20.028844171967076
20
80.910738579829413
30
0
10
20.87734858180109
20
81.076814804557586
30
0
10
22.576486521787817
20
81.393434495216113
30
0
10
25.131581178461978
20
81.821765252796837
30
0
10
28.552335615376563
20
82.29592449909147
30
0
10
32.858342178858216
20
82.704181337098404
30
0
10
37.202737314094527
20
82.898635454391695
30
0
10
41.59293551892047
20
82.85178070370533
30
0
10
46.032107324662526
20
82.550561987938579
30
0
10
50.516097251570365
20
82.008558621808319
30
0
10
55.03748839823642
20
81.25002307078438
30
0
10
58.678040475242746
20
80.490446930199241
30
0
10
61.418752952510147
20
79.843477670085903
30
0
10
63.250101832485548
20
79.378837096117763
30
0
10
64.166828123343848
20
79.138184486219075
30
0
0
ARC
5
118
100
AcDbEntity
8
0
100
AcDbCircle
10
137.63770918039702
20
64.094353671590852
30
0
40
74.995247908642952
210
0
220
0
230
1
100
AcDbArc
50
136.43599933755331
51
168.4281207963555
0
ARC
5
119
100
AcDbEntity
8
0
100
AcDbCircle
10
58.141763934129372
20
128.9106926244861
30
0
40
28.375715497682176
210
-0
220
0
230
1
100
AcDbArc
50
-27.567939933045725
51
55.119763099843126
0
ARC
5
120
100
AcDbEntity
8
0
100
AcDbCircle
10
73.282976530563985
20
150.63107414153055
30
0
40
1.8987199706893685
210
0
220
-0
230
1
100
AcDbArc
50
55.119763099844349
51
204.98871780663399
0
LINE
5
121
100
AcDbEntity
8
0
100
AcDbLine
10
71.561993860722083
20
149.82897927357615
30
0
11
75.952915414577376
21
140.40777462469012
31
0
0
ARC
5
122
100
AcDbEntity
8
0
100
AcDbCircle
10
65.069536213637505
20
135.33538037223769
30
0
40
12.007377993707149
210
0
220
0
230
1
100
AcDbArc
50
-53.123174745810182
51
24.988717806636085
0
ARC
5
123
100
AcDbEntity
8
0
100
AcDbCircle
10
32.702208403002317
20
125.12082027927561
30
0
40
39.577609909477992
210
0
220
0
230
1
100
AcDbArc
50
-29.946041788653712
51
0.88243861920811151
0
ARC
5
124
100
AcDbEntity
8
0
100
AcDbCircle
10
50.624800275494614
20
106.12538894879124
30
0
40
16.388926204650044
210
0
220
0
230
1
100
AcDbArc
50
280.70902758951274
51
357.33828093376269
0
ARC
5
125
100
AcDbEntity
8
0
100
AcDbCircle
10
43.001043697573806
20
156.8511334458216
30
0
40
67.675532078399996
210
0
220
0
230
1
100
AcDbArc
50
250.06044424308129
51
279.07062526722996
0
ARC
5
126
100
AcDbEntity
8
0
100
AcDbCircle
10
3.7747582837255322e-14
20
95.000000000000014
30
0
40
19.999999999999972
210
0
220
0
230
1
100
AcDbArc
50
-5.069978146060083
51
28.830838400824316
0
LINE
5
127
100
AcDbEntity
8
0
100
AcDbLine
10
17.520945161216506
20
104.64450520543403
30
0
11
22.005249853733236
21
113.85083304568377
31
0
0
ARC
5
128
100
AcDbEntity
8
0
100
AcDbCircle
10
41.740995960598582
20
130.64234595268712
30
0
40
25.912440643457558
210
0
220
0
230
1
100
AcDbArc
50
178.82858676156673
51
220.39170938061463
0
ARC
5
129
100
AcDbEntity
8
0
100
AcDbCircle
10
17.381328803548318
20
126.1130610012539
30
0
40
5.2903766097827498
210
0
220
0
230
1
100
AcDbArc
50
107.00681284892732
51
208.06029701580803
0
LINE
5
130
100
AcDbEntity
8
0
100
AcDbLine
10
12.71281987701097
20
123.6244651971553
30
0
11
17.922753143861414
21
113.85083304568377
31
0
0
LINE
5
131
100
AcDbEntity
8
0
100
AcDbLine
10
17.922753143861414
20
113.85083304568377
30
0
11
15.197520432352555
21
108.00136041759581
31
0
0
ARC
5
132
100
AcDbEntity
8
0
100
AcDbCircle
10
3.7747582837255322e-14
20
95.000000000000014
30
0
40
19.999999999999968
210
0
220
-0
230
1
100
AcDbArc
50
40.546730552405393
51
139.45326944759475
0
LINE
5
133
100
AcDbEntity
8
0
100
AcDbLine
10
-15.197520432352547
20
108.00136041759581
30
0
11
-17.922753143861414
21
113.85083304568377
31
0
0
LINE
5
134
100
AcDbEntity
8
0
100
AcDbLine
10
-17.922753143861414
20
113.85083304568377
30
0
11
-12.712819877010968
21
123.62446519715527
31
0
0
ARC
5
135
100
AcDbEntity
8
0
100
AcDbCircle
10
-17.381328803548342
20
126.1130610012539
30
0
40
5.2903766097827472
210
-0
220
0
230
1
100
AcDbArc
50
-28.060297015808185
51
72.993187151072391
0
ARC
5
136
100
AcDbEntity
8
0
100
AcDbCircle
10
-41.740995960598411
20
130.64234595268707
30
0
40
25.912440643457394
210
0
220
0
230
1
100
AcDbArc
50
-40.391709380614785
51
1.1714132384332603
0
LINE
5
137
100
AcDbEntity
8
0
100
AcDbLine
10
-22.005249853733222
20
113.85083304568377
30
0
11
-17.520945161216499
21
104.64450520543403
31
0
0
ARC
5
138
100
AcDbEntity
8
0
100
AcDbCircle
10
3.7747582837255322e-14
20
95.000000000000014
30
0
40
20.000000000000021
210
0
220
0
230
1
100
AcDbArc
50
151.16916159917579
51
185.06997814606007
0
ARC
5
139
100
AcDbEntity
8
0
100
AcDbCircle
10
-43.001043697573763
20
156.8511334458216
30
0
40
67.675532078399968
210
0
220
0
230
1
100
AcDbArc
50
260.92937473276999
51
289.93955575691871
0
ARC
5
140
100
AcDbEntity
8
0
100
AcDbCircle
10
-50.624800275494664
20
106.12538894879124
30
0
40
16.388926204650019
210
0
220
0
230
1
100
AcDbArc
50
182.66171906623745
51
259.29097241048737
0
ARC
5
141
100
AcDbEntity
8
0
100
AcDbCircle
10
-32.702208403002032
20
125.12082027927568
30
0
40
39.577609909478312
210
0
220
0
230
1
100
AcDbArc
50
179.1175613807919
51
209.94604178865359
0
ARC
5
142
100
AcDbEntity
8
0
100
AcDbCircle
10
-65.069536213637605
20
135.33538037223769
30
0
40
12.007377993707106
210
0
220
0
230
1
100
AcDbArc
50
155.01128219336383
51
233.12317474581036
0
LINE
5
143
100
AcDbEntity
8
0
100
AcDbLine
10
-75.952915414577419
20
140.40777462469012
30
0
11
-71.561993860722083
21
149.82897927357615
31
0
0
ARC
5
144
100
AcDbEntity
8
0
100
AcDbCircle
10
-73.282976530563943
20
150.63107414153055
30
0
40
1.8987199706894098
210
0
220
0
230
1
100
AcDbArc
50
-24.988717806634583
51
124.88023690015707
0
ARC
5
145
100
AcDbEntity
8
0
100
AcDbCircle
10
-58.141763934129344
20
128.9106926244861
30
0
40
28.375715497682204
210
0
220
0
230
1
100
AcDbArc
50
124.88023690015696
51
207.56793993304569
0
ARC
5
146
100
AcDbEntity
8
0
100
AcDbCircle
10
-137.63770918039683
20
64.094353671590923
30
0
40
74.995247908642725
210
0
220
-0
230
1
100
AcDbArc
50
11.57187920364446
51
43.56400066244678
0
SPLINE
5
147
100
AcDbEntity
8
0
100
AcDbSpline
70
4
71
5
72
21
73
15
74
0
42
0.000000001
43
0.0000000001
44
0.0000000001
40
0
40
0
40
0
40
0
40
0
40
0
40
0.10000000000000001
40
0.20000000000000001
40
0.30000000000000004
40
0.40000000000000002
40
0.5
40
0.59999999999999998
40
0.69999999999999996
40
0.79999999999999993
40
0.89999999999999991
40
1
40
1
40
1
40
1
40
1
40
1
41
1
41
1
41
1
41
1
41
1
41
1
41
1
41
1
41
1
41
1
41
1
41
1
41
1
41
1
41
1
10
-20.028844171967094
20
80.910738579829413
30
0
10
-20.877348581801108
20
81.076814804557586
30
0
10
-22.576486521787807
20
81.393434495216113
30
0
10
-25.131581178461808
20
81.821765252796652
30
0
10
-28.552335615376329
20
82.295924499091086
30
0
10
-32.858342178858067
20
82.704181337097936
30
0
10
-37.202737314094527
20
82.898635454391339
30
0
10
-41.59293551892052
20
82.85178070370533
30
0
10
-46.032107324662462
20
82.550561987939005
30
0
10
-50.516097251570145
20
82.008558621809044
30
0
10
-55.037488398236157
20
81.250023070785019
30
0
10
-58.678040475242611
20
80.490446930199582
30
0
10
-61.418752952510133
20
79.843477670085974
30
0
10
-63.250101832485569
20
79.378837096117749
30
0
10
-64.166828123343862
20
79.138184486219046
30
0
0
SPLINE
5
148
100
AcDbEntity
8
0
100
AcDbSpline
70
0
71
3
72
14
73
10
74
0
42
0.000000001
43
0.0000000001
44
0.0000000001
40
-0.74737780512618268
40
-0.74737780512618268
40
-0.74737780512618268
40
-0.74737780512618268
40
-0.71321254424674796
40
-0.71321254424674796
40
-0.71321254424674796
40
-0.3099588155428557
40
-0.3099588155428557
40
-0.3099588155428557
40
-0.29826805991978006
40
-0.29826805991978006
40
-0.29826805991978006
40
-0.29826805991978006
10
-45.225793438135881
20
61.215802120947451
30
0
10
-44.697661745696138
20
61.883620042094435
30
0
10
-44.15997768030924
20
62.540464175605727
30
0
10
-43.612873968993895
20
63.185894925047293
30
0
10
-37.155390376106951
20
70.803935871695742
30
0
10
-29.374531220423428
20
76.835747346804567
30
0
10
-20.778473496019437
20
80.590061045775613
30
0
10
-20.529264615791941
20
80.698902603491902
30
0
10
-20.279379796079905
20
80.805797683441213
30
0
10
-20.028844171967087
20
80.910738579829413
30
0
0
LINE
5
149
100
AcDbEntity
8
0
100
AcDbLine
10
-45.225793438135881
20
61.215802120947451
30
0
11
-58.477985950874043
21
61.215802120889762
31
0
0
ARC
5
150
100
AcDbEntity
8
0
100
AcDbCircle
10
-22.921251910431817
20
7.6750691944129379
30
0
40
64.272011155144838
210
0
220
0
230
1
100
AcDbArc
50
112.59721882373624
51
123.58838420864832
0
ARC
5
151
100
AcDbEntity
8
0
100
AcDbCircle
10
-51.775569430256056
20
64.795634619187609
30
0
40
4.7120090807258244
210
0
220
-0
230
1
100
AcDbArc
50
28.069658706952659
51
117.30664521953078
0
ARC
5
152
100
AcDbEntity
8
0
100
AcDbCircle
10
-33.35788595469797
20
10.328642355983542
30
0
40
62.159395549427089
210
0
220
0
230
1
100
AcDbArc
50
109.33394680511809
51
125.04952415557017
0
LINE
5
153
100
AcDbEntity
8
0
100
AcDbLine
10
-69.05504867291755
20
61.215802120889784
30
0
11
-69.05504867291755
21
59.88301760749988
31
0
0
LINE
5
154
100
AcDbEntity
8
0
100
AcDbLine
10
-69.05504867291755
20
59.88301760749988
30
0
11
-73.278555864635152
21
61.333506886028758
31
0
0
LINE
5
155
100
AcDbEntity
8
0
100
AcDbLine
10
-73.278555864635152
20
61.333506886028758
30
0
11
-77.355710456341896
21
58.513017197460655
31
0
0
LINE
5
156
100
AcDbEntity
8
0
100
AcDbLine
10
-77.355710456341896
20
58.513017197460655
30
0
11
-73.999880069719879
21
57.360745960060811
31
0
0
ARC
5
157
100
AcDbEntity
8
0
100
AcDbCircle
10
-33.35788595469797
20
10.328642355983542
30
0
40
62.159395549427067
210
0
220
0
230
1
100
AcDbArc
50
130.83137938100575
51
170.40187358289327
0
ARC
5
158
100
AcDbEntity
8
0
100
AcDbCircle
10
-81.691332744568399
20
23.290915305756023
30
0
40
13.213734595475771
210
0
220
0
230
1
100
AcDbArc
50
191.33914563608226
51
245.86277885479367
0
ARC
5
159
100
AcDbEntity
8
0
100
AcDbCircle
10
-72.788349435201084
20
19.510476528033422
30
0
40
16.528704289629111
210
0
220
0
230
1
100
AcDbArc
50
123.24237557905771
51
210.05465172054957
0
ARC
5
160
100
AcDbEntity
8
0
100
AcDbCircle
10
-22.921251910431817
20
7.6750691944129379
30
0
40
64.272011155144796
210
0
220
0
230
1
100
AcDbArc
50
135.63363060536503
51
156.46992506501945
0
LINE
5
161
100
AcDbEntity
8
0
100
AcDbLine
10
-68.868235118656798
20
52.616877702639982
30
0
11
-51.148248250235504
21
52.616877701904997
31
0
0
SPLINE
5
162
100
AcDbEntity
8
0
100
AcDbSpline
70
0
71
3
72
11
73
7
74
0
42
0.000000001
43
0.0000000001
44
0.0000000001
40
-1.2808016997052747
40
-1.2808016997052747
40
-1.2808016997052747
40
-1.2808016997052747
40
-1.2638990010805395
40
-1.2638990010805395
40
-1.2638990010805395
40
-0.88535421729147634
40
-0.88535421729147634
40
-0.88535421729147634
40
-0.88535421729147634
10
-62.472210896845567
20
23.583747964008403
30
0
10
-62.3744988295281
20
24.030627939433622
30
0
10
-62.27395159177253
20
24.476517260664295
30
0
10
-62.170570317546492
20
24.921358164009696
30
0
10
-59.855292564060143
20
34.883803056152196
30
0
10
-56.121007497978766
20
44.314953540749933
30
0
10
-51.148248250235504
20
52.616877701904997
30
0
0
ARC
5
163
100
AcDbEntity
8
0
100
AcDbCircle
10
-56.445023584432974
20
0.048364184601843441
30
0
40
24.294881694358189
210
0
220
0
230
1
100
AcDbArc
50
104.36420075829345
51
163.93064082537774
0
SPLINE
5
164
100
AcDbEntity
8
0
100
AcDbSpline
70
4
71
5
72
36
73
30
74
0
42
0.000000001
43
0.0000000001
44
0.0000000001
40
0
40
0
40
0
40
0
40
0
40
0
40
0.040000000000000001
40
0.080000000000000002
40
0.12
40
0.16
40
0.20000000000000001
40
0.24000000000000002
40
0.28000000000000003
40
0.32000000000000001
40
0.35999999999999999
40
0.39999999999999997
40
0.43999999999999995
40
0.47999999999999993
40
0.51999999999999991
40
0.55999999999999994
40
0.59999999999999998
40
0.64000000000000001
40
0.68000000000000005
40
0.72000000000000008
40
0.76000000000000012
40
0.80000000000000016
40
0.84000000000000019
40
0.88000000000000023
40
0.92000000000000026
40
0.9600000000000003
40
1
40
1
40
1
40
1
40
1
40
1
41
1
41
1
41
1
41
1
41
1
41
1
41
1
41
1
41
1
41
1
41
1
41
1
41
1
41
1
41
1
41
1
41
1
41
1
41
1
41
1
41
1
41
1
41
1
41
1
41
1
41
1
41
1
41
1
41
1
41
1
10
-79.790639240308167
20
6.7732070245211782
30
0
10
-81.224360601792611
20
4.9691462070329155
30
0
10
-83.919845536211938
20
1.5364433573488299
30
0
10
-87.447196838023444
20
-3.0863523300648299
30
0
10
-91.115911197114073
20
-8.1948356814659267
30
0
10
-93.987724492801732
20
-12.831921651939238
30
0
10
-95.20345265307229
20
-15.779762335806705
30
0
10
-94.900006964180875
20
-17.178406063595308
30
0
10
-93.328476235530275
20
-17.284298579655783
30
0
10
-90.883221759069272
20
-16.500951385727905
30
0
10
-88.151739041060807
20
-15.427461405267337
30
0
10
-85.754613232392074
20
-14.723364332551645
30
0
10
-84.188407300368212
20
-14.972422575448505
30
0
10
-83.621109874716865
20
-16.514318473698211
30
0
10
-83.88473181473033
20
-19.414223277033464
30
0
10
-84.649023835811562
20
-23.558988675974586
30
0
10
-85.540288338647699
20
-28.714717486038897
30
0
10
-86.286275697984749
20
-34.599610297704977
30
0
10
-86.701630374367681
20
-40.900466229506883
30
0
10
-86.671858430710401
20
-47.289361596464914
30
0
10
-86.138446350745681
20
-53.439829287357199
30
0
10
-85.084487231357713
20
-59.042763381648541
30
0
10
-83.520527111302215
20
-63.823509753226098
30
0
10
-81.471590057524693
20
-67.556962768577023
30
0
10
-78.962460198388044
20
-70.089289460957147
30
0
10
-76.009981308571867
20
-71.34031997670948
30
0
10
-73.302387047086583
20
-71.289927275853401
30
0
10
-71.079945972974457
20
-70.659233774829829
30
0
10
-69.513326800802716
20
-69.975928724647105
30
0
10
-68.708768882539943
20
-69.56856655121571
30
0
0
SPLINE
5
165
100
AcDbEntity
8
0
100
AcDbSpline
70
4
71
5
72
51
73
45
74
0
42
0.000000001
43
0.0000000001
44
0.0000000001
40
0
40
0
40
0
40
0
40
0
40
0
40
0.025000000000000001
40
0.050000000000000003
40
0.075000000000000011
40
0.10000000000000001
40
0.125
40
0.14999999999999999
40
0.17499999999999999
40
0.19999999999999998
40
0.22499999999999998
40
0.24999999999999997
40
0.27499999999999997
40
0.29999999999999999
40
0.32500000000000001
40
0.35000000000000003
40
0.37500000000000006
40
0.40000000000000008
40
0.4250000000000001
40
0.45000000000000012
40
0.47500000000000014
40
0.50000000000000011
40
0.52500000000000013
40
0.55000000000000016
40
0.57500000000000018
40
0.6000000000000002
40
0.62500000000000022
40
0.65000000000000024
40
0.67500000000000027
40
0.70000000000000029
40
0.72500000000000031
40
0.75000000000000033
40
0.77500000000000036
40
0.80000000000000038
40
0.8250000000000004
40
0.85000000000000042
40
0.87500000000000044
40
0.90000000000000047
40
0.92500000000000049
40
0.95000000000000051
40
0.97500000000000053
40
1
40
1
40
1
40
1
40
1
40
1
41
1
41
1
41
1
41
1
41
1
41
1
41
1
41
1
41
1
41
1
41
1
41
1
41
1
41
1
41
1
41
1
41
1
41
1
41
1
41
1
41
1
41
1
41
1
41
1
41
1
41
1
41
1
41
1
41
1
41
1
41
1
41
1
41
1
41
1
41
1
41
1
41
1
41
1
41
1
41
1
41
1
41
1
41
1
41
1
41
1
10
-64.982689725070642
20
1.4370768125453637
30
0
10
-65.340206364612513
20
2.1249411611795792
30
0
10
-66.024490182984124
20
3.3942330191186771
30
0
10
-66.958657553619091
20
4.9788467914848207
30
0
10
-68.019595852090447
20
6.4524837783894249
30
0
10
-69.052437355020615
20
7.2531940230678273
30
0
10
-69.838598832695709
20
7.0932899576629964
30
0
10
-70.47008276066552
20
6.1355413006646744
30
0
10
-71.109030761196834
20
4.6660055221524699
30
0
10
-71.929391869189331
20
3.0243431624422894
30
0
10
-73.035754493541759
20
1.5054367589428852
30
0
10
-74.396368535789776
20
0.27651479714846466
30
0
10
-75.752973573392453
20
-0.72733656392109658
30
0
10
-76.756062809483751
20
-1.7049487789094975
30
0
10
-77.112190600368407
20
-2.8774915597585822
30
0
10
-76.748036022478601
20
-4.3687609402347194
30
0
10
-75.90590083845197
20
-6.1275399080271908
30
0
10
-74.972355608183747
20
-8.0176513422842142
30
0
10
-74.346336804021377
20
-9.8827249710197655
30
0
10
-74.298595250968276
20
-11.617449343348966
30
0
10
-74.81701428913351
20
-13.244808982462805
30
0
10
-75.686320717867005
20
-14.877639702907411
30
0
10
-76.600841835403543
20
-16.663540324855351
30
0
10
-77.257078425116887
20
-18.73995709146882
30
0
10
-77.473197882964286
20
-21.175527158355028
30
0
10
-77.228817083289954
20
-23.952060143233606
30
0
10
-76.608715175152838
20
-26.995511016232072
30
0
10
-75.77094002413881
20
-30.194530332762159
30
0
10
-74.90606403084908
20
-33.423436992862804
30
0
10
-74.198912099401127
20
-36.564146304924819
30
0
10
-73.792826200654801
20
-39.526320868443428
30
0
10
-73.743848039536587
20
-42.273904506352487
30
0
10
-74.01482873551258
20
-44.826698308751304
30
0
10
-74.507070267237097
20
-47.238454617570397
30
0
10
-75.080914331709792
20
-49.581965756941855
30
0
10
-75.581414095104805
20
-51.930700396277942
30
0
10
-75.859929539670873
20
-54.343567569550721
30
0
10
-75.801898598831173
20
-56.844303619113028
30
0
10
-75.334630629483101
20
-59.418784739474255
30
0
10
-74.415486011321647
20
-62.030089372645364
30
0
10
-73.025488794244055
20
-64.628667992954178
30
0
10
-71.533783235195258
20
-66.657289192163631
30
0
10
-70.203196680833358
20
-68.132784501575074
30
0
10
-69.222515323058488
20
-69.093754838252863
30
0
10
-68.708768882539943
20
-69.56856655121571
30
0
0
SPLINE
5
166
100
AcDbEntity
8
0
100
AcDbSpline
70
0
71
3
72
8
73
4
74
0
42
0.000000001
43
0.0000000001
44
0.0000000001
40
-1.558138647059274
40
-1.558138647059274
40
-1.558138647059274
40
-1.558138647059274
40
-1.5533368750758689
40
-1.5533368750758689
40
-1.5533368750758689
40
-1.5533368750758689
10
-64.987103830898803
20
1.0417828384556564
30
0
10
-64.985862762625828
20
1.1735513981729424
30
0
10
-64.984391385350506
20
1.3053164976412703
30
0
10
-64.982689725070657
20
1.4370768125453615
30
0
0
SPLINE
5
167
100
AcDbEntity
8
0
100
AcDbSpline
70
0
71
3
72
17
73
13
74
0
42
0.000000001
43
0.0000000001
44
0.0000000001
40
-3.1415926535897931
40
-3.1415926535897931
40
-3.1415926535897931
40
-3.1415926535897931
40
-2.7880354057546004
40
-2.7880354057546004
40
-2.7880354057546004
40
-2.3486245813982016
40
-2.3486245813982016
40
-2.3486245813982016
40
-1.802189921710156
40
-1.802189921710156
40
-1.802189921710156
40
-1.5581386470592755
40
-1.5581386470592755
40
-1.5581386470592755
40
-1.5581386470592755
10
-1.5502915161933538e-14
20
-85
30
0
10
-8.0889612762294245
20
-85
30
0
10
-16.156143993564033
20
-83.008921708769549
30
0
10
-23.538538084398972
20
-79.293580985671838
30
0
10
-32.713583690279755
20
-74.676051745648266
30
0
10
-40.823246045934958
20
-67.439085880613533
30
0
10
-47.290595345617078
20
-58.485432410545982
30
0
10
-55.333146001558973
20
-47.351008050274068
30
0
10
-60.857564917978337
20
-33.548466449374565
30
0
10
-63.388116338001844
20
-18.902671671859132
30
0
10
-64.518323378636694
20
-12.361496399835945
30
0
10
-65.050181439537852
20
-5.6553875122095043
30
0
10
-64.987103830898803
20
1.0417828384555288
30
0
0
SPLINE
5
168
100
AcDbEntity
8
0
100
AcDbSpline
70
0
71
3
72
17
73
13
74
0
42
0.000000001
43
0.0000000001
44
0.0000000001
40
1.5532640716940807
40
1.5532640716940807
40
1.5532640716940807
40
1.5532640716940807
40
1.9671016238522077
40
1.9671016238522077
40
1.9671016238522077
40
2.4999026340889374
40
2.4999026340889374
40
2.4999026340889374
40
2.8753390469357902
40
2.8753390469357902
40
2.8753390469357902
40
3.1415926535897931
40
3.1415926535897931
40
3.1415926535897931
40
3.1415926535897931
10
64.98627450109106
20
1.443972994101911
30
0
10
65.12581120355587
20
-9.9110779705870229
30
0
10
63.544566608274664
20
-21.3018430032465
30
0
10
60.297166956514687
20
-31.884533416419821
30
0
10
56.116256340556355
20
-45.509367880467799
30
0
10
49.17915129662574
20
-57.791858913703763
30
0
10
40.057118549458544
20
-67.086057695359614
30
0
10
33.629309317365838
20
-73.635183135868985
30
0
10
26.107444341355446
20
-78.698997024846776
30
0
10
17.957313478761971
20
-81.730056025605151
30
0
10
12.177368692871436
20
-83.879635457215045
30
0
10
6.0915597885991568
20
-85
30
0
10
1.3081454445437633e-15
20
-85
30
0
0
SPLINE
5
169
100
AcDbEntity
8
0
100
AcDbSpline
70
4
71
5
72
51
73
45
74
0
42
0.000000001
43
0.0000000001
44
0.0000000001
40
5.0143044226144324e-05
40
5.0143044226144324e-05
40
5.0143044226144324e-05
40
5.0143044226144324e-05
40
5.0143044226144324e-05
40
5.0143044226144324e-05
40
0.025000000000000001
40
0.050000000000000003
40
0.075000000000000011
40
0.10000000000000001
40
0.125
40
0.14999999999999999
40
0.17499999999999999
40
0.19999999999999998
40
0.22499999999999998
40
0.24999999999999997
40
0.27499999999999997
40
0.29999999999999999
40
0.32500000000000001
40
0.35000000000000003
40
0.37500000000000006
40
0.40000000000000008
40
0.4250000000000001
40
0.45000000000000012
40
0.47500000000000014
40
0.50000000000000011
40
0.52500000000000013
40
0.55000000000000016
40
0.57500000000000018
40
0.6000000000000002
40
0.62500000000000022
40
0.65000000000000024
40
0.67500000000000027
40
0.70000000000000029
40
0.72500000000000031
40
0.75000000000000033
40
0.77500000000000036
40
0.80000000000000038
40
0.8250000000000004
40
0.85000000000000042
40
0.87500000000000044
40
0.90000000000000047
40
0.92500000000000049
40
0.95000000000000051
40
0.97500000000000053
40
1
40
1
40
1
40
1
40
1
40
1
41
1
41
1
41
1
41
1
41
1
41
1
41
1
41
1
41
1
41
1
41
1
41
1
41
1
41
1
41
1
41
1
41
1
41
1
41
1
41
1
41
1
41
1
41
1
41
1
41
1
41
1
41
1
41
1
41
1
41
1
41
1
41
1
41
1
41
1
41
1
41
1
41
1
41
1
41
1
41
1
41
1
41
1
41
1
41
1
41
1
10
64.986274501091032
20
1.4439729941018611
30
0
10
65.342950959365851
20
2.1300315691854426
30
0
10
66.026363677141234
20
3.397410670616809
30
0
10
66.959721468137076
20
4.9803244349164135
30
0
10
68.020010170627728
20
6.4528049787831154
30
0
10
69.052437355020615
20
7.2531940230678273
30
0
10
69.838598832695709
20
7.0932899576629964
30
0
10
70.47008276066552
20
6.1355413006646744
30
0
10
71.109030761196834
20
4.6660055221524699
30
0
10
71.929391869189331
20
3.0243431624422894
30
0
10
73.035754493541759
20
1.5054367589428852
30
0
10
74.396368535789776
20
0.27651479714846466
30
0
10
75.752973573392453
20
-0.72733656392109658
30
0
10
76.756062809483751
20
-1.7049487789094975
30
0
10
77.112190600368407
20
-2.8774915597585822
30
0
10
76.748036022478601
20
-4.3687609402347194
30
0
10
75.90590083845197
20
-6.1275399080271908
30
0
10
74.972355608183747
20
-8.0176513422842142
30
0
10
74.346336804021377
20
-9.8827249710197655
30
0
10
74.298595250968276
20
-11.617449343348966
30
0
10
74.81701428913351
20
-13.244808982462805
30
0
10
75.686320717867005
20
-14.877639702907411
30
0
10
76.600841835403543
20
-16.663540324855351
30
0
10
77.257078425116887
20
-18.73995709146882
30
0
10
77.473197882964286
20
-21.175527158355028
30
0
10
77.228817083289954
20
-23.952060143233606
30
0
10
76.608715175152838
20
-26.995511016232072
30
0
10
75.77094002413881
20
-30.194530332762159
30
0
10
74.90606403084908
20
-33.423436992862804
30
0
10
74.198912099401127
20
-36.564146304924819
30
0
10
73.792826200654801
20
-39.526320868443428
30
0
10
73.743848039536587
20
-42.273904506352487
30
0
10
74.01482873551258
20
-44.826698308751304
30
0
10
74.507070267237097
20
-47.238454617570397
30
0
10
75.080914331709792
20
-49.581965756941855
30
0
10
75.581414095104805
20
-51.930700396277942
30
0
10
75.859929539670873
20
-54.343567569550721
30
0
10
75.801898598831173
20
-56.844303619113028
30
0
10
75.334630629483101
20
-59.418784739474255
30
0
10
74.415486011321647
20
-62.030089372645364
30
0
10
73.025488794244055
20
-64.628667992954178
30
0
10
71.533783235195258
20
-66.657289192163631
30
0
10
70.203196680833358
20
-68.132784501575074
30
0
10
69.222515323058488
20
-69.093754838252863
30
0
10
68.708768882539943
20
-69.56856655121571
30
0
0
SPLINE
5
170
100
AcDbEntity
8
0
100
AcDbSpline
70
4
71
5
72
36
73
30
74
0
42
0.000000001
43
0.0000000001
44
0.0000000001
40
0
40
0
40
0
40
0
40
0
40
0
40
0.040000000000000001
40
0.080000000000000002
40
0.12
40
0.16
40
0.20000000000000001
40
0.24000000000000002
40
0.28000000000000003
40
0.32000000000000001
40
0.35999999999999999
40
0.39999999999999997
40
0.43999999999999995
40
0.47999999999999993
40
0.51999999999999991
40
0.55999999999999994
40
0.59999999999999998
40
0.64000000000000001
40
0.68000000000000005
40
0.72000000000000008
40
0.76000000000000012
40
0.80000000000000016
40
0.84000000000000019
40
0.88000000000000023
40
0.92000000000000026
40
0.9600000000000003
40
1
40
1
40
1
40
1
40
1
40
1
41
1
41
1
41
1
41
1
41
1
41
1
41
1
41
1
41
1
41
1
41
1
41
1
41
1
41
1
41
1
41
1
41
1
41
1
41
1
41
1
41
1
41
1
41
1
41
1
41
1
41
1
41
1
41
1
41
1
41
1
10
79.790639240308167
20
6.7732070245211782
30
0
10
81.224360601792611
20
4.9691462070329155
30
0
10
83.919845536211938
20
1.5364433573488299
30
0
10
87.447196838023444
20
-3.0863523300648299
30
0
10
91.115911197114073
20
-8.1948356814659267
30
0
10
93.987724492801732
20
-12.831921651939238
30
0
10
95.20345265307229
20
-15.779762335806705
30
0
10
94.900006964180875
20
-17.178406063595308
30
0
10
93.328476235530275
20
-17.284298579655783
30
0
10
90.883221759069272
20
-16.500951385727905
30
0
10
88.151739041060807
20
-15.427461405267337
30
0
10
85.754613232392074
20
-14.723364332551645
30
0
10
84.188407300368212
20
-14.972422575448505
30
0
10
83.621109874716865
20
-16.514318473698211
30
0
10
83.88473181473033
20
-19.414223277033464
30
0
10
84.649023835811562
20
-23.558988675974586
30
0
10
85.540288338647699
20
-28.714717486038897
30
0
10
86.286275697984749
20
-34.599610297704977
30
0
10
86.701630374367681
20
-40.900466229506883
30
0
10
86.671858430710401
20
-47.289361596464914
30
0
10
86.138446350745681
20
-53.439829287357199
30
0
10
85.084487231357713
20
-59.042763381648541
30
0
10
83.520527111302215
20
-63.823509753226098
30
0
10
81.471590057524693
20
-67.556962768577023
30
0
10
78.962460198388044
20
-70.089289460957147
30
0
10
76.009981308571867
20
-71.34031997670948
30
0
10
73.302387047086583
20
-71.289927275853401
30
0
10
71.079945972974457
20
-70.659233774829829
30
0
10
69.513326800802716
20
-69.975928724647105
30
0
10
68.708768882539943
20
-69.56856655121571
30
0
0
ARC
5
171
100
AcDbEntity
8
0
100
AcDbCircle
10
56.445023584432981
20
0.048364184601843441
30
0
40
24.294881797890248
210
0
220
-0
230
1
100
AcDbArc
50
16.06935917462226
51
75.635799241706565
0
LINE
5
172
100
AcDbEntity
8
0
100
AcDbLine
10
-40
20
54.476143876846038
30
0
11
-37.802958117375447
21
54.476143876846038
31
0
0
ELLIPSE
5
173
100
AcDbEntity
8
0
100
AcDbEllipse
10
0
20
0
30
0
11
6.2623984047307843e-15
21
75
31
0.0
40
0.73333333333333328
41
5.52538341932605
42
7.0409871950331224
0
LINE
5
174
100
AcDbEntity
8
0
100
AcDbLine
10
37.802958117375461
20
54.476143876846031
30
0
11
40
21
54.476143876846031
31
0
0
LINE
5
175
100
AcDbEntity
8
0
100
AcDbLine
10
40
20
54.476143876846031
30
0
11
39.999999999999993
21
51.476143876846038
31
0
0
ELLIPSE
5
176
100
AcDbEntity
8
0
100
AcDbEllipse
10
0
20
0
30
0
11
6.2623984047307843e-15
21
75
31
0.0
40
0.73333333333333328
41
3.9559325957163138
42
5.4688453650530615
0
LINE
5
177
100
AcDbEntity
8
0
100
AcDbLine
10
39.999999999999829
20
-51.476143876846258
30
0
11
39.999999999999844
21
-54.476143876846237
31
0
0
LINE
5
178
100
AcDbEntity
8
0
100
AcDbLine
10
39.999999999999844
20
-54.476143876846237
30
0
11
37.802958117375283
21
-54.476143876846251
31
0
0
ELLIPSE
5
179
100
AcDbEntity
8
0
100
AcDbEllipse
10
0
20
0
30
0
11
6.2623984047307843e-15
21
75
31
0.0
40
0.73333333333333328
41
2.3837907657362614
42
3.8993945414433249
0
LINE
5
180
100
AcDbEntity
8
0
100
AcDbLine
10
-37.802958117375283
20
-54.476143876846265
30
0
11
-40.000000000000149
21
-54.476143876846237
31
0
0
LINE
5
181
100
AcDbEntity
8
0
100
AcDbLine
10
-40.000000000000149
20
-54.476143876846237
30
0
11
-39.999999999999851
21
-51.476143876846251
31
0
0
ELLIPSE
5
182
100
AcDbEntity
8
0
100
AcDbEllipse
10
0
20
0
30
0
11
6.2623984047307843e-15
21
75
31
0.0
40
0.73333333333333328
41
0.81433994212652483
42
2.327252711463272
0
LINE
5
183
100
AcDbEntity
8
0
100
AcDbLine
10
-39.999999999999972
20
51.476143876846052
30
0
11
-40
21
54.476143876846038
31
0
0
ENDSEC
0
SECTION
2
OBJECTS
0
DICTIONARY
5
C
100
AcDbDictionary
3
ACAD_GROUP
350
D
3
ACAD_MLINESTYLE
350
17
0
DICTIONARY
5
D
100
AcDbDictionary
0
DICTIONARY
5
1A
330
C
100
AcDbDictionary
0
DICTIONARY
5
17
100
AcDbDictionary
0
ENDSEC
0
EOF
