0
SECTION
2
HEADER
9
$INSUNITS
70
4
9
$ACADVER
1
AC1014
9
$HANDSEED
5
FFFF
0
ENDSEC
0
SECTION
2
TABLES
0
TABLE
2
VPORT
5
8
100
AcDbSymbolTable
0
ENDTAB
0
TABLE
2
LTYPE
5
5
100
AcDbSymbolTable
0
LTYPE
5
14
100
AcDbSymbolTableRecord
100
AcDbLinetypeTableRecord
2
BYBLOCK
70
0
0
LTYPE
5
15
100
AcDbSymbolTableRecord
100
AcDbLinetypeTableRecord
2
BYLAYER
70
0
0
ENDTAB
0
TABLE
2
LAYER
5
2
100
AcDbSymbolTable
70
2
0
LAYER
5
50
100
AcDbSymbolTableRecord
100
AcDbLayerTableRecord
2
0
70
0
6
CONTINUOUS
0
ENDTAB
0
TABLE
2
STYLE
5
3
100
AcDbSymbolTable
70
1
0
STYLE
5
11
100
AcDbSymbolTableRecord
100
AcDbTextStyleTableRecord
2
STANDARD
70
0
0
ENDTAB
0
TABLE
2
VIEW
5
6
100
AcDbSymbolTable
70
0
0
ENDTAB
0
TABLE
2
UCS
5
7
100
AcDbSymbolTable
70
0
0
ENDTAB
0
TABLE
2
APPID
5
9
100
AcDbSymbolTable
70
2
0
APPID
5
12
100
AcDbSymbolTableRecord
100
AcDbRegAppTableRecord
2
ACAD
70
0
0
ENDTAB
0
TABLE
2
DIMSTYLE
5
A
100
AcDbSymbolTable
70
1
0
ENDTAB
0
TABLE
2
BLOCK_RECORD
5
1
100
AcDbSymbolTable
70
1
0
BLOCK_RECORD
5
1F
100
AcDbSymbolTableRecord
100
AcDbBlockTableRecord
2
*MODEL_SPACE
0
BLOCK_RECORD
5
1B
100
AcDbSymbolTableRecord
100
AcDbBlockTableRecord
2
*PAPER_SPACE
0
ENDTAB
0
ENDSEC
0
SECTION
2
BLOCKS
0
BLOCK
5
20
100
AcDbEntity
100
AcDbBlockBegin
2
*MODEL_SPACE
0
ENDBLK
5
21
100
AcDbEntity
100
AcDbBlockEnd
0
BLOCK
5
1C
100
AcDbEntity
100
AcDbBlockBegin
2
*PAPER_SPACE
0
ENDBLK
5
1D
100
AcDbEntity
100
AcDbBlockEnd
0
ENDSEC
0
SECTION
2
ENTITIES
0
CIRCLE
5
100
100
AcDbEntity
8
0
100
AcDbCircle
10
10
20
92.500000000000028
30
0
40
2.5
210
0
220
-0
230
1
0
LWPOLYLINE
5
101
100
AcDbEntity
8
0
100
AcDbPolyline
90
95
70
1
43
0.0
10
18.600224620855606
20
91.517440287781469
42
0.00061059740675220933
10
18.430040203988543
20
91.411688390608361
42
-0.036613807454586318
10
18.18112424317917
20
90.193659583308261
10
19.820784184490346
20
89.294121456572583
42
-0.37426550248652529
10
20.047623191050338
20
88.67798898344509
42
-0.014606891630772558
10
19.807312400774595
20
88.097827414376781
42
-0.37426550248650853
10
19.211241551140713
20
87.822555364295297
10
17.415757378448973
20
88.345900518285717
42
-0.039234808135591007
10
16.675774974343192
20
87.238438588029936
10
17.846384896516785
20
85.779903029772782
42
-0.37426550248653911
10
17.82017312224475
20
85.123863318910097
42
-0.014606891630773555
10
17.376136681089974
20
84.679826877755318
42
-0.37426550248652091
10
16.720096970227267
20
84.653615103483276
10
15.261561411970142
20
85.824225025656844
42
-0.03923480813559279
10
14.154099481714315
20
85.084242621551027
10
14.677444635704756
20
83.288758448859298
42
-0.37426550248654578
10
14.402172585623291
20
82.692687599225451
42
-0.014606891630774443
10
13.822011016554912
20
82.452376808949666
42
-0.37426550248649865
10
13.205878543427445
20
82.679215815509664
10
12.306340416691741
20
84.318875756820859
42
-0.039234808135591673
10
10.999999999999996
20
84.059028491932978
10
10.79640583024787
20
82.199941893994449
42
-0.37426550248652007
10
10.313981178634474
20
81.754586289050465
42
-0.014606891630773555
10
9.6860188213655061
20
81.754586289050465
42
-0.37426550248651769
10
9.203594169752142
20
82.199941893994449
10
9.0000000000000018
20
84.059028491932963
42
-0.039234808135591562
10
7.6936595833082588
20
84.318875756820844
10
6.7941214565725714
20
82.679215815509664
42
-0.37426550248656343
10
6.1779889834450943
20
82.45237680894968
42
-0.014606891630773999
10
5.5978274143767406
20
82.692687599225465
42
-0.37426550248653967
10
5.3225553642952637
20
83.288758448859298
10
5.8459005182856947
20
85.084242621551027
42
-0.039234808135591673
10
4.7384385880299007
20
85.82422502565683
10
3.2799030297727541
20
84.653615103483247
42
-0.37426550248654267
10
2.6238633189100358
20
84.679826877755303
42
-0.014606891630773555
10
2.1798268777552527
20
85.123863318910068
42
-0.37426550248652746
10
2.1536151034832205
20
85.779903029772754
10
3.3242250256568004
20
87.238438588029908
42
-0.039234808135592235
10
2.5842426215509917
20
88.345900518285703
10
0.7887584488592807
20
87.822555364295297
42
-0.37426550248650514
10
0.19268759922538603
20
88.097827414376809
42
-0.014606891630772558
10
-0.047623191050383124
20
88.67798898344509
42
-0.37426550248651996
10
0.17921581550964905
20
89.294121456572597
10
1.8188757568208336
20
90.193659583308289
42
-0.039234808135592235
10
1.5590284919329456
20
91.500000000000043
10
-0.30005810600559218
20
91.703594169752165
42
-0.37426550248655982
10
-0.74541371094957909
20
92.186018821365565
42
-0.014606891630773555
10
-0.74541371094959707
20
92.813981178634535
42
-0.37426550248654955
10
-0.30005810600559402
20
93.296405830247906
10
1.5590284919329509
20
93.500000000000057
42
-0.039234808135590785
10
1.8188757568208302
20
94.806340416691768
10
0.17921581550964855
20
95.705878543427488
42
-0.37426550248651946
10
-0.04762319105034437
20
96.322011016554967
42
-0.014606891630773555
10
0.19268759922543793
20
96.902172585623291
42
-0.37426550248651741
10
0.78875844885928603
20
97.177444635704774
10
2.5842426215510095
20
96.654099481714354
42
-0.039234808135591562
10
3.3242250256567996
20
97.761561411970135
10
2.1536151034832174
20
99.220096970227303
42
-0.3742655024865269
10
2.179826877755247
20
99.876136681089989
42
-0.014606891630773555
10
2.6238633189100122
20
100.32017312224477
42
-0.37426550248654844
10
3.2799030297727305
20
100.34638489651682
10
4.7384385880298829
20
99.175774974343241
42
-0.039234808135591902
10
5.8459005182856849
20
99.915757378449044
10
5.3225553642952592
20
101.71124155114074
42
-0.3742655024865551
10
5.5978274143767219
20
102.30731240077462
42
-0.014606891630774443
10
6.1779889834451005
20
102.54762319105041
42
-0.37426550248649748
10
6.7941214565725634
20
102.32078418449041
10
7.6936595833082597
20
100.6811242431792
42
-0.039234808135591562
10
9
20
100.94097150806709
10
9.2035941697521277
20
102.80005810600562
42
-0.37426550248652374
10
9.6860188213655203
20
103.24541371094961
42
-0.014606891630773555
10
10.31398117863449
20
103.24541371094961
42
-0.37426550248651952
10
10.796405830247854
20
102.80005810600562
10
11
20
100.94097150806709
42
-0.039234808135591562
10
12.306340416691741
20
100.6811242431792
10
13.20587854342744
20
102.32078418449041
42
-0.37426550248655777
10
13.822011016554921
20
102.54762319105038
42
-0.014606891630773555
10
14.402172585623266
20
102.30731240077461
42
-0.37426550248653928
10
14.677444635704742
20
101.71124155114077
10
14.154099481714317
20
99.91575737844903
42
-0.039234808135591673
10
15.261561411970108
20
99.175774974343227
10
16.720096970227271
20
100.34638489651678
42
-0.37426550248653323
10
17.376136681090031
20
100.32017312224474
42
-0.0060795897670564416
10
17.56410847489952
20
100.13850528440963
10
41.728256698537081
20
112.14161159157598
42
0.34840424148794857
10
50.929114775395959
20
131.72296003647028
42
0.17958667333241488
10
52.221608295363509
20
147.09630785518894
42
0.51721417367900013
10
36.240463449126089
20
178.61696021280008
42
-0.72448961498819198
10
38.777110685427957
20
183.11950905723594
42
-0.083617232984827539
10
57.006174793447059
20
176.15981070915348
42
-0.10844359936562438
10
63.840353496880198
20
126.3556263294435
42
0.14560105231951317
10
50.720690430464082
20
103.06822438655504
42
0.097472475019323199
10
20.745751747152582
20
92.802190980287818
42
-0.014332530852054015
10
20.745413710949599
20
92.186018821365565
42
-0.37426550248653956
10
20.300058106005597
20
91.703594169752179
0
ENDSEC
0
SECTION
2
OBJECTS
0
DICTIONARY
5
C
100
AcDbDictionary
3
ACAD_GROUP
350
D
3
ACAD_MLINESTYLE
350
17
0
DICTIONARY
5
D
100
AcDbDictionary
0
DICTIONARY
5
1A
330
C
100
AcDbDictionary
0
DICTIONARY
5
17
100
AcDbDictionary
0
ENDSEC
0
EOF
