0
SECTION
2
HEADER
9
$INSUNITS
70
4
9
$ACADVER
1
AC1014
9
$HANDSEED
5
FFFF
0
ENDSEC
0
SECTION
2
TABLES
0
TABLE
2
VPORT
5
8
100
AcDbSymbolTable
0
ENDTAB
0
TABLE
2
LTYPE
5
5
100
AcDbSymbolTable
0
LTYPE
5
14
100
AcDbSymbolTableRecord
100
AcDbLinetypeTableRecord
2
BYBLOCK
70
0
0
LTYPE
5
15
100
AcDbSymbolTableRecord
100
AcDbLinetypeTableRecord
2
BYLAYER
70
0
0
ENDTAB
0
TABLE
2
LAYER
5
2
100
AcDbSymbolTable
70
2
0
LAYER
5
50
100
AcDbSymbolTableRecord
100
AcDbLayerTableRecord
2
0
70
0
6
CONTINUOUS
0
ENDTAB
0
TABLE
2
STYLE
5
3
100
AcDbSymbolTable
70
1
0
STYLE
5
11
100
AcDbSymbolTableRecord
100
AcDbTextStyleTableRecord
2
STANDARD
70
0
0
ENDTAB
0
TABLE
2
VIEW
5
6
100
AcDbSymbolTable
70
0
0
ENDTAB
0
TABLE
2
UCS
5
7
100
AcDbSymbolTable
70
0
0
ENDTAB
0
TABLE
2
APPID
5
9
100
AcDbSymbolTable
70
2
0
APPID
5
12
100
AcDbSymbolTableRecord
100
AcDbRegAppTableRecord
2
ACAD
70
0
0
ENDTAB
0
TABLE
2
DIMSTYLE
5
A
100
AcDbSymbolTable
70
1
0
ENDTAB
0
TABLE
2
BLOCK_RECORD
5
1
100
AcDbSymbolTable
70
1
0
BLOCK_RECORD
5
1F
100
AcDbSymbolTableRecord
100
AcDbBlockTableRecord
2
*MODEL_SPACE
0
BLOCK_RECORD
5
1B
100
AcDbSymbolTableRecord
100
AcDbBlockTableRecord
2
*PAPER_SPACE
0
ENDTAB
0
ENDSEC
0
SECTION
2
BLOCKS
0
BLOCK
5
20
100
AcDbEntity
100
AcDbBlockBegin
2
*MODEL_SPACE
0
ENDBLK
5
21
100
AcDbEntity
100
AcDbBlockEnd
0
BLOCK
5
1C
100
AcDbEntity
100
AcDbBlockBegin
2
*PAPER_SPACE
0
ENDBLK
5
1D
100
AcDbEntity
100
AcDbBlockEnd
0
ENDSEC
0
SECTION
2
ENTITIES
0
LWPOLYLINE
5
100
100
AcDbEntity
8
0
100
AcDbPolyline
90
32
70
1
43
0.0
10
-17.430842328559343
20
-37.353412432788659
10
-18.303328246260431
20
-38.818099278586097
42
0.099270646483510042
10
-2.0000000000000129
20
-42.488233665333752
10
-2
20
-39.999999999999993
10
0
20
-39.999999999999993
10
0
20
-42.488233665333738
42
0.099270646483506378
10
16.303328246259841
20
-38.818099278586352
10
15.430842328559113
20
-37.353412432789604
10
24.022098847911423
20
-32.235765373965947
10
24.894584765612269
20
-33.700452219762894
42
0.20211626928849846
10
41.20485754033534
20
-4.999999999999984
10
39.5
20
-4.9999999999999956
10
39.5
20
5.0000000000000044
10
41.204857540335347
20
5.0000000000000053
42
0.2021162692884948
10
24.894584765612777
20
33.700452219762482
10
24.022098847911746
20
32.235765373965165
10
15.430842328559349
20
37.353412432788659
10
16.303328246260442
20
38.818099278586104
42
0.099270646483510749
10
6.6613381477509392e-15
20
42.488233665333752
10
0
20
39.999999999999972
10
-2
20
39.999999999999964
10
-2.0000000000000004
20
42.488233665333752
42
0.099270646483506891
10
-18.303328246259841
20
38.818099278586359
10
-17.430842328559116
20
37.353412432789597
10
-26.02209884791143
20
32.235765373965933
10
-26.894584765612279
20
33.70045221976288
42
0.20211626928849866
10
-43.20485754033534
20
4.9999999999999893
10
-41.5
20
4.9999999999999902
10
-41.5
20
-5.0000000000000089
10
-43.204857540335347
20
-5.0000000000000107
42
0.20211626928849449
10
-26.894584765612755
20
-33.700452219762496
10
-26.022098847911742
20
-32.235765373965172
0
CIRCLE
5
101
100
AcDbEntity
8
0
100
AcDbCircle
10
-0.99999999999998535
20
7.9936057773011271e-14
30
0
40
32.5
210
0
220
0
230
1
0
ENDSEC
0
SECTION
2
OBJECTS
0
DICTIONARY
5
C
100
AcDbDictionary
3
ACAD_GROUP
350
D
3
ACAD_MLINESTYLE
350
17
0
DICTIONARY
5
D
100
AcDbDictionary
0
DICTIONARY
5
1A
330
C
100
AcDbDictionary
0
DICTIONARY
5
17
100
AcDbDictionary
0
ENDSEC
0
EOF
