0
SECTION
2
HEADER
9
$INSUNITS
70
4
9
$ACADVER
1
AC1014
9
$HANDSEED
5
FFFF
0
ENDSEC
0
SECTION
2
TABLES
0
TABLE
2
VPORT
5
8
100
AcDbSymbolTable
0
ENDTAB
0
TABLE
2
LTYPE
5
5
100
AcDbSymbolTable
0
LTYPE
5
14
100
AcDbSymbolTableRecord
100
AcDbLinetypeTableRecord
2
BYBLOCK
70
0
0
LTYPE
5
15
100
AcDbSymbolTableRecord
100
AcDbLinetypeTableRecord
2
BYLAYER
70
0
0
ENDTAB
0
TABLE
2
LAYER
5
2
100
AcDbSymbolTable
70
2
0
LAYER
5
50
100
AcDbSymbolTableRecord
100
AcDbLayerTableRecord
2
0
70
0
6
CONTINUOUS
0
ENDTAB
0
TABLE
2
STYLE
5
3
100
AcDbSymbolTable
70
1
0
STYLE
5
11
100
AcDbSymbolTableRecord
100
AcDbTextStyleTableRecord
2
STANDARD
70
0
0
ENDTAB
0
TABLE
2
VIEW
5
6
100
AcDbSymbolTable
70
0
0
ENDTAB
0
TABLE
2
UCS
5
7
100
AcDbSymbolTable
70
0
0
ENDTAB
0
TABLE
2
APPID
5
9
100
AcDbSymbolTable
70
2
0
APPID
5
12
100
AcDbSymbolTableRecord
100
AcDbRegAppTableRecord
2
ACAD
70
0
0
ENDTAB
0
TABLE
2
DIMSTYLE
5
A
100
AcDbSymbolTable
70
1
0
ENDTAB
0
TABLE
2
BLOCK_RECORD
5
1
100
AcDbSymbolTable
70
1
0
BLOCK_RECORD
5
1F
100
AcDbSymbolTableRecord
100
AcDbBlockTableRecord
2
*MODEL_SPACE
0
BLOCK_RECORD
5
1B
100
AcDbSymbolTableRecord
100
AcDbBlockTableRecord
2
*PAPER_SPACE
0
ENDTAB
0
ENDSEC
0
SECTION
2
BLOCKS
0
BLOCK
5
20
100
AcDbEntity
100
AcDbBlockBegin
2
*MODEL_SPACE
0
ENDBLK
5
21
100
AcDbEntity
100
AcDbBlockEnd
0
BLOCK
5
1C
100
AcDbEntity
100
AcDbBlockBegin
2
*PAPER_SPACE
0
ENDBLK
5
1D
100
AcDbEntity
100
AcDbBlockEnd
0
ENDSEC
0
SECTION
2
ENTITIES
0
LWPOLYLINE
5
100
100
AcDbEntity
8
0
100
AcDbPolyline
90
5
70
1
43
0.0
10
-40.499999999977938
20
102.7881919678359
42
0.12966401940769098
10
-48.499999999977931
20
96.457889188012572
10
-48.499999999977931
20
72.457889188012516
42
0.07391164429450689
10
-44.318181818159836
20
68.323126143195381
42
0.015438261162752978
10
-40.499999999977938
20
65.703611323757173
0
LWPOLYLINE
5
101
100
AcDbEntity
8
0
100
AcDbPolyline
90
6
70
1
43
0.0
10
32.500000000022055
20
104.4578891880125
10
32.500000000022048
20
89.457889188012473
42
-0.99999999999999989
10
32.500000000022055
20
79.457889188012473
10
32.500000000022062
20
64.457889188012473
42
-0.10324371717559676
10
24.500000000022037
20
66.127586408189117
10
24.500000000022059
20
102.78819196783587
42
-0.1032437171755962
0
LWPOLYLINE
5
102
100
AcDbEntity
8
0
100
AcDbPolyline
90
4
70
1
43
0.0
10
-12.499999999977904
20
19.380478720681495
10
-12.499999999977911
20
28.002153303846956
10
12.500000000022116
20
28.00215330384696
10
12.500000000021913
20
19.380478720685524
42
-0.030266033346931981
0
LWPOLYLINE
5
103
100
AcDbEntity
8
0
100
AcDbPolyline
90
2
70
1
43
0.0
10
16.500000000022052
20
96.457889188012516
10
16.50000000002202
20
72.457889188012473
42
-0.33333333333333354
0
LWPOLYLINE
5
104
100
AcDbEntity
8
0
100
AcDbPolyline
90
4
70
1
43
0.0
10
48.500000000022034
20
96.457889188012501
42
0.12966401940769048
10
40.500000000022069
20
102.78819196783581
10
40.500000000022077
20
66.127586408189117
42
0.1296640194076914
10
48.500000000022048
20
72.457889188012516
0
LWPOLYLINE
5
105
100
AcDbEntity
8
0
100
AcDbPolyline
90
2
70
1
43
0.0
10
-16.499999999977955
20
72.457889188012544
42
0.33333333333333282
10
-16.499999999977927
20
96.457889188012516
0
LWPOLYLINE
5
106
100
AcDbEntity
8
0
100
AcDbPolyline
90
6
70
1
43
0.0
10
-24.499999999977931
20
102.78819196783589
42
0.10324371717559669
10
-32.499999999977945
20
104.45788918801256
10
-32.499999999977938
20
89.457889188012544
42
0.99999999999999989
10
-32.499999999977938
20
79.457889188012544
10
-32.499999999977945
20
64.457889188012544
42
0.10324371717559634
10
-24.499999999977938
20
66.12758640818916
0
CIRCLE
5
107
100
AcDbEntity
8
0
100
AcDbCircle
10
-6.0404930776342201e-12
20
209.43517430099121
30
0
40
4.6912163697437848
210
0
220
-0
230
1
0
LWPOLYLINE
5
108
100
AcDbEntity
8
0
100
AcDbPolyline
90
6
70
1
43
0.0
10
3.9565382270030303
20
51.88557854098255
42
0.4910628708267562
10
-3.9565382269588367
20
51.885578540982536
10
-12.499999999977918
20
40.828487561259614
10
-3.6348595100523844
20
48.303797288652923
42
0.022558359380222482
10
3.634859510096482
20
48.303797288652923
10
12.500000000022107
20
40.828487561259614
0
LWPOLYLINE
5
109
100
AcDbEntity
8
0
100
AcDbPolyline
90
58
70
1
43
0.0
10
128.87200000000001
20
-49.004488081187851
10
130.87200000000001
20
-49.004488081187851
10
130.87200000000001
20
-59.334050501964136
10
140.00000000001143
20
-59.334050501964164
10
140.00000000001151
20
-48.636872641328949
42
0.38887873185299149
10
130.87155742748814
20
-38.674925660411539
10
41.702694419589278
20
-30.873661007724262
10
41.70269441962931
20
-7.6699735873124952
42
0.24875288002871704
10
57.396426149152745
20
9.7217637547793938
10
62.264069598534093
20
8.8634668821798481
10
62.26406959853071
20
28.142100588669354
42
-0.31848012809401022
10
67.673815675066621
20
35.77371918966648
10
72.135353213293925
20
59.967846181124855
42
-0.37498055533159369
10
79.278654681783962
20
65.63799977517877
10
87.197178276452703
20
108.57874919009754
10
79.799335052038415
20
117.44850195469054
42
0.38620763953880599
10
19.020091529197995
20
207.15903119130846
10
5.9192505429627618
20
216.78035039416201
42
0.32775600538910854
10
-5.9192505429721374
20
216.78035039415843
10
-19.020091529201547
20
207.15903119129689
42
0.3862076395386419
10
-79.799335052040135
20
117.44850195468096
10
-87.197178276453386
20
108.57874919008709
10
-79.278654681779472
20
65.637999775169277
42
-0.37498055533159347
10
-72.135353213288766
20
59.967846181116222
10
-67.673815675058492
20
35.773719189658394
42
-0.31848012809400872
10
-62.264069598521729
20
28.142100588661897
10
-62.264069598522831
20
8.8634668821724265
10
-57.396426149207315
20
9.7217637547559868
42
0.23056640990953461
10
-43.297305580374214
20
-7.0266546940606851
10
-43.297305580410708
20
-30.873661007213606
10
-130.8715574274695
20
-38.535415260597105
42
0.38887873185310673
10
-139.99999999999292
20
-48.49736224151863
10
-139.99999999998857
20
-59.334050501335732
10
-130.87200000000001
20
-59.334050501964136
10
-130.87200000000001
20
-49.004488081187851
10
-128.87200000000001
20
-49.004488081187851
10
-128.87200000000001
20
-59.334050501964136
10
-92.703000000000003
20
-59.334050501964136
10
-92.703000000000003
20
-49.004488081187851
10
-90.703000000000017
20
-49.004488081187851
10
-90.703000000000017
20
-59.334050501964136
10
-43.703000000000003
20
-59.334050501964136
10
-43.703000000000003
20
-49.004488081187851
10
-41.703000000000003
20
-49.004488081187851
10
-41.703000000000003
20
-59.334050501964136
10
-0.99999999999999645
20
-59.334050501964164
10
-1
20
-48.636872641328949
10
1
20
-48.636872641328949
10
1
20
-59.334050501964164
10
41.703000000000003
20
-59.334050501964136
10
41.703000000000003
20
-49.004488081187851
10
43.703000000000003
20
-49.004488081187851
10
43.703000000000003
20
-59.334050501964136
10
90.703000000000017
20
-59.334050501964136
10
90.703000000000017
20
-49.004488081187851
10
92.703000000000003
20
-49.004488081187851
10
92.703000000000003
20
-59.334050501964136
10
128.87200000000001
20
-59.334050501964136
0
ENDSEC
0
SECTION
2
OBJECTS
0
DICTIONARY
5
C
100
AcDbDictionary
3
ACAD_GROUP
350
D
3
ACAD_MLINESTYLE
350
17
0
DICTIONARY
5
D
100
AcDbDictionary
0
DICTIONARY
5
1A
330
C
100
AcDbDictionary
0
DICTIONARY
5
17
100
AcDbDictionary
0
ENDSEC
0
EOF
