0
SECTION
2
HEADER
9
$INSUNITS
70
4
9
$ACADVER
1
AC1014
9
$HANDSEED
5
FFFF
0
ENDSEC
0
SECTION
2
TABLES
0
TABLE
2
VPORT
5
8
100
AcDbSymbolTable
0
ENDTAB
0
TABLE
2
LTYPE
5
5
100
AcDbSymbolTable
0
LTYPE
5
14
100
AcDbSymbolTableRecord
100
AcDbLinetypeTableRecord
2
BYBLOCK
70
0
0
LTYPE
5
15
100
AcDbSymbolTableRecord
100
AcDbLinetypeTableRecord
2
BYLAYER
70
0
0
ENDTAB
0
TABLE
2
LAYER
5
2
100
AcDbSymbolTable
70
2
0
LAYER
5
50
100
AcDbSymbolTableRecord
100
AcDbLayerTableRecord
2
0
70
0
6
CONTINUOUS
0
ENDTAB
0
TABLE
2
STYLE
5
3
100
AcDbSymbolTable
70
1
0
STYLE
5
11
100
AcDbSymbolTableRecord
100
AcDbTextStyleTableRecord
2
STANDARD
70
0
0
ENDTAB
0
TABLE
2
VIEW
5
6
100
AcDbSymbolTable
70
0
0
ENDTAB
0
TABLE
2
UCS
5
7
100
AcDbSymbolTable
70
0
0
ENDTAB
0
TABLE
2
APPID
5
9
100
AcDbSymbolTable
70
2
0
APPID
5
12
100
AcDbSymbolTableRecord
100
AcDbRegAppTableRecord
2
ACAD
70
0
0
ENDTAB
0
TABLE
2
DIMSTYLE
5
A
100
AcDbSymbolTable
70
1
0
ENDTAB
0
TABLE
2
BLOCK_RECORD
5
1
100
AcDbSymbolTable
70
1
0
BLOCK_RECORD
5
1F
100
AcDbSymbolTableRecord
100
AcDbBlockTableRecord
2
*MODEL_SPACE
0
BLOCK_RECORD
5
1B
100
AcDbSymbolTableRecord
100
AcDbBlockTableRecord
2
*PAPER_SPACE
0
ENDTAB
0
ENDSEC
0
SECTION
2
BLOCKS
0
BLOCK
5
20
100
AcDbEntity
100
AcDbBlockBegin
2
*MODEL_SPACE
0
ENDBLK
5
21
100
AcDbEntity
100
AcDbBlockEnd
0
BLOCK
5
1C
100
AcDbEntity
100
AcDbBlockBegin
2
*PAPER_SPACE
0
ENDBLK
5
1D
100
AcDbEntity
100
AcDbBlockEnd
0
ENDSEC
0
SECTION
2
ENTITIES
0
LWPOLYLINE
5
100
100
AcDbEntity
8
0
100
AcDbPolyline
90
20
70
1
43
0.0
10
-69.612159321677254
20
44.809401076758633
42
0.26794919243112303
10
-73.612159321677268
20
37.881197846483104
10
-73.612159321677254
20
12.500000000000124
10
-70.512159321677245
20
12.500000000000124
10
-70.512159321677217
20
2.5000000000001243
10
-73.612159321677268
20
2.5000000000001243
10
-73.612159321677254
20
-37.881197846482863
42
0.26794919243112281
10
-69.612159321677268
20
-44.809401076758384
10
-4.0000000000000124
20
-82.690598923241481
42
0.26794919243112492
10
3.9999999999999991
20
-82.690598923241481
10
69.612159321677296
20
-44.80940107675864
42
0.26794919243112392
10
73.612159321677325
20
-37.881197846483133
10
73.612159321677268
20
2.5000000000001243
10
70.512159321677231
20
2.5000000000001243
10
70.512159321677245
20
12.500000000000124
10
73.612159321677254
20
12.500000000000124
10
73.612159321677296
20
37.881197846482863
42
0.26794919243112114
10
69.612159321677311
20
44.809401076758363
10
4.0000000000000222
20
82.690598923241481
42
0.26794919243112242
10
-3.9999999999999774
20
82.690598923241495
0
CIRCLE
5
101
100
AcDbEntity
8
0
100
AcDbCircle
10
13.99999999999997
20
-47.999999999999964
30
0
40
1.5000000000000013
210
0
220
-0
230
1
0
LWPOLYLINE
5
102
100
AcDbEntity
8
0
100
AcDbPolyline
90
4
70
1
43
0.0
10
-51.912159321677301
20
12.500000000000417
10
-48.812159321676987
20
12.500000000000471
10
-48.81215932167683
20
2.5000000000003908
10
-51.912159321677144
20
2.5000000000003286
0
LWPOLYLINE
5
103
100
AcDbEntity
8
0
100
AcDbPolyline
90
4
70
1
43
0.0
10
51.912159321677301
20
12.500000000000417
10
51.912159321677144
20
2.5000000000003286
10
48.81215932167683
20
2.5000000000003908
10
48.812159321676987
20
12.500000000000471
0
CIRCLE
5
104
100
AcDbEntity
8
0
100
AcDbCircle
10
-33.019999999999897
20
-48.175894111358545
30
0
40
1.6000000000000014
210
0
220
-0
230
1
0
CIRCLE
5
105
100
AcDbEntity
8
0
100
AcDbCircle
10
17.74999999999984
20
-63.375894111358534
30
0
40
1.6000000000000014
210
0
220
-0
230
1
0
CIRCLE
5
106
100
AcDbEntity
8
0
100
AcDbCircle
10
-33.019999999999897
20
-20.21589411135853
30
0
40
1.6000000000000014
210
0
220
-0
230
1
0
CIRCLE
5
107
100
AcDbEntity
8
0
100
AcDbCircle
10
19.050000000000118
20
-15.135894111358532
30
0
40
1.6000000000000014
210
0
220
-0
230
1
0
LWPOLYLINE
5
108
100
AcDbEntity
8
0
100
AcDbPolyline
90
4
70
1
43
0.0
10
21.232999551160326
20
56.90000000000002
10
11.232999551160329
20
56.90000000000002
10
11.232999551160329
20
60.000000000000007
10
21.232999551160326
20
60.000000000000007
0
CIRCLE
5
109
100
AcDbEntity
8
0
100
AcDbCircle
10
-14.000000000000005
20
-47.999999999999964
30
0
40
1.5000000000000013
210
0
220
-0
230
1
0
CIRCLE
5
110
100
AcDbEntity
8
0
100
AcDbCircle
10
13.999999999999979
20
-69.999999999999972
30
0
40
1.5000000000000013
210
0
220
-0
230
1
0
CIRCLE
5
111
100
AcDbEntity
8
0
100
AcDbCircle
10
-14.000000000000023
20
-69.999999999999972
30
0
40
1.5000000000000013
210
0
220
-0
230
1
0
LWPOLYLINE
5
112
100
AcDbEntity
8
0
100
AcDbPolyline
90
4
70
1
43
0.0
10
-8.7670004488396724
20
56.90000000000002
10
-18.767000448839674
20
56.90000000000002
10
-18.767000448839674
20
60.000000000000028
10
-8.7670004488396724
20
60.000000000000028
0
LINE
5
113
100
AcDbEntity
8
0
100
AcDbLine
10
-87.749408228327297
20
16.967749534369986
30
0
11
-87.749408252130664
21
14.967749534369998
31
0
0
LWPOLYLINE
5
114
100
AcDbEntity
8
0
100
AcDbPolyline
90
4
70
1
43
0.0
10
-93.849408252130672
20
11.467749534369966
10
-90.849408252130644
20
11.467749534369972
42
-0.99999999999999989
10
-90.849408252130672
20
8.467749534369954
10
-93.849408252130615
20
8.4677495343699594
42
-0.99999999999999989
0
CIRCLE
5
115
100
AcDbEntity
8
0
100
AcDbCircle
10
-110.84940825213066
20
9.9677495343699611
30
0
40
1.5000000000000002
210
0
220
-0
230
1
0
LWPOLYLINE
5
116
100
AcDbEntity
8
0
100
AcDbPolyline
90
12
70
1
43
0.0
10
-115.74940825213064
20
6.9677495343699221
42
0.41421356237309509
10
-113.74940825213065
20
4.9677495343699292
10
-87.74940825213065
20
4.9677495343699265
10
-87.74940825213065
20
2.9677495343699247
10
-83.749408248186626
20
2.9677495343699247
42
0.41421356237309542
10
-81.749408248186626
20
4.9677495343699265
10
-81.749408248186626
20
14.967749534369993
42
0.4142135623730957
10
-83.749408248186626
20
16.967749534369993
10
-87.749408228327269
20
16.96774953436999
10
-87.749408252130664
20
14.967749534369998
10
-113.74940825213065
20
14.967749534369997
42
0.41421356237309537
10
-115.74940825213064
20
12.967749534369997
0
CIRCLE
5
117
100
AcDbEntity
8
0
100
AcDbCircle
10
-101.17778928758702
20
-18.105114766958906
30
0
40
8.25
210
0
220
-0
230
1
0
LWPOLYLINE
5
118
100
AcDbEntity
8
0
100
AcDbPolyline
90
18
70
1
43
0.0
10
-87.044637216350296
20
-26.227790088640475
42
0.16408296795077415
10
-84.178784231781492
20
-21.993451733856311
10
-78.927789287587018
20
-3.000000000000056
10
-92.694789736426699
20
-3.0000000000000537
10
-92.694789736426699
20
-5.3290705182007514e-14
10
-102.6947897364267
20
-5.3290705182007501e-14
10
-102.6947897364267
20
-3.0000000000000537
10
-122.6947897364267
20
-3.0000000000000537
10
-122.6947897364267
20
-5.3290705182007514e-14
10
-132.69478973642669
20
-5.3290705182007634e-14
10
-132.69478973642669
20
-3.0000000000000537
10
-148.92778928758705
20
-3.000000000000056
10
-143.6767943433926
20
-21.993451733856297
42
0.16408296795076852
10
-140.81094135882378
20
-26.227790088640461
10
-127.27667571477583
20
-36.528029261541157
42
0.16408296795077029
10
-122.43177766867349
20
-38.161950176038538
10
-105.42380090650056
20
-38.161950176038545
42
0.16408296795077046
10
-100.57890286039823
20
-36.528029261541157
0
CIRCLE
5
119
100
AcDbEntity
8
0
100
AcDbCircle
10
-126.67778928758705
20
-18.105114766958906
30
0
40
8.25
210
0
220
-0
230
1
0
CIRCLE
5
120
100
AcDbEntity
8
0
100
AcDbCircle
10
-101.17778928758702
20
-18.105114766958906
30
0
40
8.25
210
0
220
-0
230
1
0
LWPOLYLINE
5
121
100
AcDbEntity
8
0
100
AcDbPolyline
90
12
70
1
43
0.0
10
-84.758554180731977
20
64.295111283339182
42
0.41421356237309509
10
-82.758554180731991
20
66.295111283339182
10
-82.758554180731991
20
72.295111283339253
42
0.4142135623730937
10
-84.758554180731977
20
74.295111283339267
10
-110.75855418073196
20
74.295111283339267
10
-110.75855420453536
20
76.295111283339253
10
-114.758554184676
20
76.295111283339267
42
0.41421356237309759
10
-116.75855418467603
20
74.295111283339267
10
-116.75855418467599
20
64.295111283339196
42
0.41421356237309509
10
-114.758554184676
20
62.295111283339196
10
-110.75855418073196
20
62.295111283339189
10
-110.75855418073196
20
64.295111283339196
0
LWPOLYLINE
5
122
100
AcDbEntity
8
0
100
AcDbPolyline
90
4
70
1
43
0.0
10
-107.658554180732
20
70.795111283339224
10
-104.65855418073195
20
70.795111283339224
42
-0.99999999999999989
10
-104.65855418073198
20
67.795111283339224
10
-107.65855418073195
20
67.795111283339224
42
-0.99999999999999989
0
CIRCLE
5
123
100
AcDbEntity
8
0
100
AcDbCircle
10
-87.658554180731983
20
69.295111283339224
30
-2.2204460492503131e-15
40
1.5000000000000009
210
0
220
0
230
1
0
LWPOLYLINE
5
124
100
AcDbEntity
8
0
100
AcDbPolyline
90
12
70
1
43
0.0
10
-48.659910986990447
20
92.850131143177748
42
0.41421356237309509
10
-46.659910986990454
20
94.850131143177734
10
-46.659910986990447
20
100.8501311431778
42
0.41421356237309509
10
-48.659910986990447
20
102.8501311431778
10
-74.659910986990411
20
102.8501311431778
10
-74.659911010793778
20
104.8501311431778
10
-78.659910990934435
20
104.85013114317779
42
0.4142135623730937
10
-80.659910990934449
20
102.8501311431778
10
-80.659910990934435
20
92.850131143177748
42
0.41421356237309637
10
-78.659910990934435
20
90.850131143177748
10
-74.659910986990411
20
90.850131143177748
10
-74.659910986990411
20
92.850131143177748
0
LWPOLYLINE
5
125
100
AcDbEntity
8
0
100
AcDbPolyline
90
4
70
1
43
0.0
10
-71.559910986990417
20
99.350131143177776
10
-68.559910986990388
20
99.350131143177776
42
-0.99999999999999989
10
-68.559910986990445
20
96.350131143177776
10
-71.559910986990417
20
96.350131143177776
42
-0.99999999999999989
0
CIRCLE
5
126
100
AcDbEntity
8
0
100
AcDbCircle
10
-51.559910986990438
20
97.850131143177762
30
-2.2204460492503131e-15
40
1.4999999999999993
210
0
220
-0
230
1
0
LWPOLYLINE
5
127
100
AcDbEntity
8
0
100
AcDbPolyline
90
4
70
1
43
0.0
10
-20.865967975189474
20
108.77722648306852
10
-17.865967975189427
20
108.77722648306852
42
-0.99999999999999989
10
-17.865967975189463
20
105.77722648306852
10
-20.865967975189431
20
105.77722648306852
42
-0.99999999999999989
0
CIRCLE
5
128
100
AcDbEntity
8
0
100
AcDbCircle
10
-37.865967975189442
20
107.27722648306852
30
0
40
1.5
210
-0
220
0
230
1
0
LWPOLYLINE
5
129
100
AcDbEntity
8
0
100
AcDbPolyline
90
12
70
1
43
0.0
10
-42.76596797518944
20
104.27722648306847
42
0.41421356237309509
10
-40.76596797518944
20
102.27722648306849
10
-14.765967975189454
20
102.27722648306849
10
-14.765967975189454
20
100.27722648306849
10
-10.765967971245425
20
100.27722648306847
42
0.41421356237309509
10
-8.7659679712454324
20
102.27722648306849
10
-8.7659679712454253
20
112.27722648306855
42
0.41421356237309337
10
-10.765967971245434
20
114.27722648306853
10
-14.765967951386088
20
114.27722648306855
10
-14.765967975189454
20
112.27722648306855
10
-40.76596797518944
20
112.27722648306855
42
0.41421356237309509
10
-42.765967975189426
20
110.27722648306855
0
ENDSEC
0
SECTION
2
OBJECTS
0
DICTIONARY
5
C
100
AcDbDictionary
3
ACAD_GROUP
350
D
3
ACAD_MLINESTYLE
350
17
0
DICTIONARY
5
D
100
AcDbDictionary
0
DICTIONARY
5
1A
330
C
100
AcDbDictionary
0
DICTIONARY
5
17
100
AcDbDictionary
0
ENDSEC
0
EOF
