0
SECTION
2
HEADER
9
$INSUNITS
70
4
9
$ACADVER
1
AC1014
9
$HANDSEED
5
FFFF
0
ENDSEC
0
SECTION
2
TABLES
0
TABLE
2
VPORT
5
8
100
AcDbSymbolTable
0
ENDTAB
0
TABLE
2
LTYPE
5
5
100
AcDbSymbolTable
0
LTYPE
5
14
100
AcDbSymbolTableRecord
100
AcDbLinetypeTableRecord
2
BYBLOCK
70
0
0
LTYPE
5
15
100
AcDbSymbolTableRecord
100
AcDbLinetypeTableRecord
2
BYLAYER
70
0
0
ENDTAB
0
TABLE
2
LAYER
5
2
100
AcDbSymbolTable
70
2
0
LAYER
5
50
100
AcDbSymbolTableRecord
100
AcDbLayerTableRecord
2
0
70
0
6
CONTINUOUS
0
ENDTAB
0
TABLE
2
STYLE
5
3
100
AcDbSymbolTable
70
1
0
STYLE
5
11
100
AcDbSymbolTableRecord
100
AcDbTextStyleTableRecord
2
STANDARD
70
0
0
ENDTAB
0
TABLE
2
VIEW
5
6
100
AcDbSymbolTable
70
0
0
ENDTAB
0
TABLE
2
UCS
5
7
100
AcDbSymbolTable
70
0
0
ENDTAB
0
TABLE
2
APPID
5
9
100
AcDbSymbolTable
70
2
0
APPID
5
12
100
AcDbSymbolTableRecord
100
AcDbRegAppTableRecord
2
ACAD
70
0
0
ENDTAB
0
TABLE
2
DIMSTYLE
5
A
100
AcDbSymbolTable
70
1
0
ENDTAB
0
TABLE
2
BLOCK_RECORD
5
1
100
AcDbSymbolTable
70
1
0
BLOCK_RECORD
5
1F
100
AcDbSymbolTableRecord
100
AcDbBlockTableRecord
2
*MODEL_SPACE
0
BLOCK_RECORD
5
1B
100
AcDbSymbolTableRecord
100
AcDbBlockTableRecord
2
*PAPER_SPACE
0
ENDTAB
0
ENDSEC
0
SECTION
2
BLOCKS
0
BLOCK
5
20
100
AcDbEntity
100
AcDbBlockBegin
2
*MODEL_SPACE
0
ENDBLK
5
21
100
AcDbEntity
100
AcDbBlockEnd
0
BLOCK
5
1C
100
AcDbEntity
100
AcDbBlockBegin
2
*PAPER_SPACE
0
ENDBLK
5
1D
100
AcDbEntity
100
AcDbBlockEnd
0
ENDSEC
0
SECTION
2
ENTITIES
0
CIRCLE
5
100
100
AcDbEntity
8
0
100
AcDbCircle
10
-10.337499999999938
20
0
30
0
40
3.5000000000000009
210
0
220
-0
230
1
0
CIRCLE
5
101
100
AcDbEntity
8
0
100
AcDbCircle
10
25.837499999999999
20
-63.67500000000004
30
0
40
1.6000000000000014
210
0
220
-0
230
1
0
CIRCLE
5
102
100
AcDbEntity
8
0
100
AcDbCircle
10
-10.337499999999997
20
-34.5
30
0
40
3.5000000000000009
210
0
220
0
230
1
0
CIRCLE
5
103
100
AcDbEntity
8
0
100
AcDbCircle
10
-10.337499999999959
20
34.500000000000007
30
0
40
3.5000000000000009
210
0
220
-0
230
1
0
CIRCLE
5
104
100
AcDbEntity
8
0
100
AcDbCircle
10
25.837499999999991
20
63.674999999999898
30
0
40
1.6000000000000014
210
0
220
-0
230
1
0
CIRCLE
5
105
100
AcDbEntity
8
0
100
AcDbCircle
10
-25.83750000000002
20
63.674999999999912
30
0
40
1.6000000000000014
210
0
220
-0
230
1
0
CIRCLE
5
106
100
AcDbEntity
8
0
100
AcDbCircle
10
-25.837500000000013
20
-63.67500000000004
30
0
40
1.6000000000000014
210
0
220
-0
230
1
0
CIRCLE
5
107
100
AcDbEntity
8
0
100
AcDbCircle
10
18.337499999999967
20
43.60000000000003
30
0
40
4.5
210
0
220
-0
230
1
0
LWPOLYLINE
5
108
100
AcDbEntity
8
0
100
AcDbPolyline
90
4
70
1
43
0.0
10
-33.337500000000006
20
66.675000000000111
10
-33.337500000000013
20
-66.67500000000004
10
33.337499999999991
20
-66.675000000000068
10
33.337499999999942
20
66.674999999999926
0
CIRCLE
5
109
100
AcDbEntity
8
0
100
AcDbCircle
10
-10.337499999999997
20
-34.5
30
0
40
11.500000000000002
210
0
220
0
230
1
0
LINE
5
110
100
AcDbEntity
8
0
100
AcDbLine
10
-10.337499999999997
20
-34.5
30
0
11
-17.837499999999999
21
-25.782202112918647
31
0
0
LINE
5
111
100
AcDbEntity
8
0
100
AcDbLine
10
-10.337499999999997
20
-34.5
30
0
11
-2.8374999999999915
21
-25.782202112918647
31
0
0
CIRCLE
5
112
100
AcDbEntity
8
0
100
AcDbCircle
10
-10.337499999999997
20
-34.5
30
0
40
5.7500000000000009
210
0
220
0
230
1
0
LINE
5
113
100
AcDbEntity
8
0
100
AcDbLine
10
-2.8374999999999915
20
-25.782202112918647
30
0
11
-17.837499999999999
21
-25.782202112918647
31
0
0
CIRCLE
5
114
100
AcDbEntity
8
0
100
AcDbCircle
10
-10.337499999999938
20
0
30
0
40
11.500000000000002
210
0
220
0
230
1
0
LINE
5
115
100
AcDbEntity
8
0
100
AcDbLine
10
-10.337499999999999
20
-46
30
0
11
-10.337499999999999
21
-49.5
31
0
0
CIRCLE
5
116
100
AcDbEntity
8
0
100
AcDbCircle
10
-10.337499999999997
20
-34.5
30
0
40
15
210
0
220
0
230
1
0
CIRCLE
5
117
100
AcDbEntity
8
0
100
AcDbCircle
10
-10.337499999999938
20
0
30
0
40
15
210
0
220
0
230
1
0
LINE
5
118
100
AcDbEntity
8
0
100
AcDbLine
10
-10.337499999999997
20
-34.5
30
0
11
-10.337499999999999
21
-46
31
0
0
LINE
5
119
100
AcDbEntity
8
0
100
AcDbLine
10
-4.5875000000000021
20
-44.459292143521047
30
0
11
-2.8374999999999995
21
-47.49038105676658
31
0
0
LINE
5
120
100
AcDbEntity
8
0
100
AcDbLine
10
-0.37820785647895594
20
-40.25
30
0
11
2.6528810567665806
21
-42
31
0
0
LINE
5
121
100
AcDbEntity
8
0
100
AcDbLine
10
1.1625000000000085
20
-34.5
30
0
11
4.6625000000000139
21
-34.5
31
0
0
LINE
5
122
100
AcDbEntity
8
0
100
AcDbLine
10
-0.3782078564789515
20
-28.750000000000007
30
0
11
2.652881056766585
21
-27
31
0
0
LINE
5
123
100
AcDbEntity
8
0
100
AcDbLine
10
-4.5874999999999932
20
-24.54070785647896
30
0
11
-2.8374999999999861
21
-21.509618943233416
31
0
0
LINE
5
124
100
AcDbEntity
8
0
100
AcDbLine
10
-16.087499999999991
20
-24.540707856478949
30
0
11
-17.837499999999995
21
-21.509618943233413
31
0
0
LINE
5
125
100
AcDbEntity
8
0
100
AcDbLine
10
-20.296792143521039
20
-28.75
30
0
11
-23.327881056766575
21
-26.999999999999993
31
0
0
LINE
5
126
100
AcDbEntity
8
0
100
AcDbLine
10
-21.837499999999999
20
-34.499999999999993
30
0
11
-25.337500000000006
21
-34.499999999999993
31
0
0
LINE
5
127
100
AcDbEntity
8
0
100
AcDbLine
10
-20.296792143521039
20
-40.249999999999986
30
0
11
-23.327881056766593
21
-41.999999999999993
31
0
0
LINE
5
128
100
AcDbEntity
8
0
100
AcDbLine
10
-16.087500000000009
20
-44.45929214352104
30
0
11
-17.837500000000006
21
-47.490381056766573
31
0
0
ARC
5
129
100
AcDbEntity
8
0
100
AcDbCircle
10
-10.337500000000002
20
-34.499999999999993
30
0
40
11.5
210
0
220
0
230
1
100
AcDbArc
50
-240.00000000000003
51
59.999999999999929
0
CIRCLE
5
130
100
AcDbEntity
8
0
100
AcDbCircle
10
-10.337499999999959
20
34.500000000000007
30
0
40
15
210
0
220
0
230
1
0
CIRCLE
5
131
100
AcDbEntity
8
0
100
AcDbCircle
10
-10.337499999999959
20
34.500000000000007
30
0
40
11.500000000000002
210
0
220
0
230
1
0
LINE
5
132
100
AcDbEntity
8
0
100
AcDbLine
10
-10.337499999999959
20
34.500000000000007
30
0
11
-10.337499999999959
21
23.000000000000007
31
0
0
LINE
5
133
100
AcDbEntity
8
0
100
AcDbLine
10
-10.337499999999959
20
23.000000000000007
30
0
11
-10.337499999999959
21
19.500000000000007
31
0
0
LINE
5
134
100
AcDbEntity
8
0
100
AcDbLine
10
-10.337499999999938
20
0
30
0
11
-10.337499999999938
21
-11.500000000000002
31
0
0
LINE
5
135
100
AcDbEntity
8
0
100
AcDbLine
10
-10.337499999999938
20
-11.500000000000002
30
0
11
-10.337499999999938
21
-15
31
0
0
LINE
5
136
100
AcDbEntity
8
0
100
AcDbLine
10
-0.37820785647889266
20
-5.7500000000000027
30
0
11
2.6528810567666428
21
-7.5000000000000009
31
0
0
LINE
5
137
100
AcDbEntity
8
0
100
AcDbLine
10
1.162500000000064
20
-2.2204460492503131e-15
30
0
11
4.6625000000000627
21
-4.4408920985006262e-15
31
0
0
LINE
5
138
100
AcDbEntity
8
0
100
AcDbLine
10
-16.087499999999935
20
9.9592921435210471
30
0
11
-17.837499999999935
21
12.990381056766582
31
0
0
LINE
5
139
100
AcDbEntity
8
0
100
AcDbLine
10
-20.296792143520982
20
5.7500000000000027
30
0
11
-23.327881056766515
21
7.5000000000000036
31
0
0
LINE
5
140
100
AcDbEntity
8
0
100
AcDbLine
10
-21.837499999999935
20
2.2204460492503131e-15
30
0
11
-25.337499999999938
21
4.4408920985006262e-15
31
0
0
LINE
5
141
100
AcDbEntity
8
0
100
AcDbLine
10
-20.296792143520985
20
-5.7499999999999929
30
0
11
-23.327881056766522
21
-7.4999999999999902
31
0
0
LINE
5
142
100
AcDbEntity
8
0
100
AcDbLine
10
-4.5874999999999382
20
-9.9592921435210471
30
0
11
-2.8374999999999382
21
-12.99038105676658
31
0
0
LINE
5
143
100
AcDbEntity
8
0
100
AcDbLine
10
-16.087499999999942
20
-9.9592921435210418
30
0
11
-17.837499999999945
21
-12.990381056766577
31
0
0
LINE
5
144
100
AcDbEntity
8
0
100
AcDbLine
10
-4.5874999999999311
20
9.9592921435210418
30
0
11
-2.8374999999999329
21
12.990381056766577
31
0
0
LINE
5
145
100
AcDbEntity
8
0
100
AcDbLine
10
-0.37820785647888933
20
5.7499999999999982
30
0
11
2.652881056766645
21
7.4999999999999964
31
0
0
ARC
5
146
100
AcDbEntity
8
0
100
AcDbCircle
10
-10.337499999999938
20
-3.3306690738754696e-15
30
0
40
11.5
210
0
220
0
230
1
100
AcDbArc
50
-240.00000000000003
51
59.999999999999972
0
LINE
5
147
100
AcDbEntity
8
0
100
AcDbLine
10
-4.5874999999999622
20
24.540707856478964
30
0
11
-2.8374999999999639
21
21.509618943233427
31
0
0
LINE
5
148
100
AcDbEntity
8
0
100
AcDbLine
10
-0.37820785647892041
20
28.750000000000004
30
0
11
2.6528810567666161
21
27.000000000000007
31
0
0
LINE
5
149
100
AcDbEntity
8
0
100
AcDbLine
10
1.1625000000000396
20
34.500000000000007
30
0
11
4.6625000000000423
21
34.500000000000007
31
0
0
LINE
5
150
100
AcDbEntity
8
0
100
AcDbLine
10
-0.37820785647891153
20
40.25
30
0
11
2.652881056766625
21
42
31
0
0
LINE
5
151
100
AcDbEntity
8
0
100
AcDbLine
10
-4.5874999999999559
20
44.459292143521054
30
0
11
-2.8374999999999551
21
47.490381056766594
31
0
0
LINE
5
152
100
AcDbEntity
8
0
100
AcDbLine
10
-16.087499999999956
20
44.459292143521054
30
0
11
-17.837499999999959
21
47.490381056766594
31
0
0
LINE
5
153
100
AcDbEntity
8
0
100
AcDbLine
10
-20.296792143520999
20
40.250000000000014
30
0
11
-23.327881056766536
21
42.000000000000014
31
0
0
LINE
5
154
100
AcDbEntity
8
0
100
AcDbLine
10
-21.837499999999959
20
34.500000000000007
30
0
11
-25.337499999999959
21
34.500000000000007
31
0
0
LINE
5
155
100
AcDbEntity
8
0
100
AcDbLine
10
-20.296792143521003
20
28.750000000000014
30
0
11
-23.327881056766543
21
27.000000000000014
31
0
0
LINE
5
156
100
AcDbEntity
8
0
100
AcDbLine
10
-16.087499999999963
20
24.540707856478967
30
0
11
-17.837499999999963
21
21.509618943233431
31
0
0
ARC
5
157
100
AcDbEntity
8
0
100
AcDbCircle
10
-10.337500000000574
20
34.499999999999417
30
0
40
11.500000000000201
210
0
220
0
230
1
100
AcDbArc
50
-240.00000000000412
51
59.999999999998799
0
LWPOLYLINE
5
158
100
AcDbEntity
8
0
100
AcDbPolyline
90
4
70
1
43
0.0
10
33.337499999999991
20
-66.675000000000068
10
-33.337500000000006
20
-66.675000000000068
10
-33.337500000000006
20
66.675000000000111
10
33.337499999999991
20
66.675000000000111
0
ENDSEC
0
SECTION
2
OBJECTS
0
DICTIONARY
5
C
100
AcDbDictionary
3
ACAD_GROUP
350
D
3
ACAD_MLINESTYLE
350
17
0
DICTIONARY
5
D
100
AcDbDictionary
0
DICTIONARY
5
1A
330
C
100
AcDbDictionary
0
DICTIONARY
5
17
100
AcDbDictionary
0
ENDSEC
0
EOF
