0
SECTION
2
HEADER
9
$INSUNITS
70
4
9
$ACADVER
1
AC1014
9
$HANDSEED
5
FFFF
0
ENDSEC
0
SECTION
2
TABLES
0
TABLE
2
VPORT
5
8
100
AcDbSymbolTable
0
ENDTAB
0
TABLE
2
LTYPE
5
5
100
AcDbSymbolTable
0
LTYPE
5
14
100
AcDbSymbolTableRecord
100
AcDbLinetypeTableRecord
2
BYBLOCK
70
0
0
LTYPE
5
15
100
AcDbSymbolTableRecord
100
AcDbLinetypeTableRecord
2
BYLAYER
70
0
0
ENDTAB
0
TABLE
2
LAYER
5
2
100
AcDbSymbolTable
70
2
0
LAYER
5
50
100
AcDbSymbolTableRecord
100
AcDbLayerTableRecord
2
0
70
0
6
CONTINUOUS
0
ENDTAB
0
TABLE
2
STYLE
5
3
100
AcDbSymbolTable
70
1
0
STYLE
5
11
100
AcDbSymbolTableRecord
100
AcDbTextStyleTableRecord
2
STANDARD
70
0
0
ENDTAB
0
TABLE
2
VIEW
5
6
100
AcDbSymbolTable
70
0
0
ENDTAB
0
TABLE
2
UCS
5
7
100
AcDbSymbolTable
70
0
0
ENDTAB
0
TABLE
2
APPID
5
9
100
AcDbSymbolTable
70
2
0
APPID
5
12
100
AcDbSymbolTableRecord
100
AcDbRegAppTableRecord
2
ACAD
70
0
0
ENDTAB
0
TABLE
2
DIMSTYLE
5
A
100
AcDbSymbolTable
70
1
0
ENDTAB
0
TABLE
2
BLOCK_RECORD
5
1
100
AcDbSymbolTable
70
1
0
BLOCK_RECORD
5
1F
100
AcDbSymbolTableRecord
100
AcDbBlockTableRecord
2
*MODEL_SPACE
0
BLOCK_RECORD
5
1B
100
AcDbSymbolTableRecord
100
AcDbBlockTableRecord
2
*PAPER_SPACE
0
ENDTAB
0
ENDSEC
0
SECTION
2
BLOCKS
0
BLOCK
5
20
100
AcDbEntity
100
AcDbBlockBegin
2
*MODEL_SPACE
0
ENDBLK
5
21
100
AcDbEntity
100
AcDbBlockEnd
0
BLOCK
5
1C
100
AcDbEntity
100
AcDbBlockBegin
2
*PAPER_SPACE
0
ENDBLK
5
1D
100
AcDbEntity
100
AcDbBlockEnd
0
ENDSEC
0
SECTION
2
ENTITIES
0
CIRCLE
5
100
100
AcDbEntity
8
0
100
AcDbCircle
10
-10.337499999999997
20
-34.5
30
0
40
3.5000000000000009
210
0
220
0
230
1
0
CIRCLE
5
101
100
AcDbEntity
8
0
100
AcDbCircle
10
-25.83750000000002
20
63.674999999999912
30
0
40
1.6000000000000014
210
0
220
-0
230
1
0
CIRCLE
5
102
100
AcDbEntity
8
0
100
AcDbCircle
10
25.837499999999991
20
63.674999999999898
30
0
40
1.6000000000000014
210
0
220
-0
230
1
0
CIRCLE
5
103
100
AcDbEntity
8
0
100
AcDbCircle
10
25.837499999999999
20
-63.67500000000004
30
0
40
1.6000000000000014
210
0
220
-0
230
1
0
CIRCLE
5
104
100
AcDbEntity
8
0
100
AcDbCircle
10
18.337499999999967
20
43.60000000000003
30
0
40
4.5
210
0
220
-0
230
1
0
CIRCLE
5
105
100
AcDbEntity
8
0
100
AcDbCircle
10
-25.837500000000013
20
-63.67500000000004
30
0
40
1.6000000000000014
210
0
220
-0
230
1
0
CIRCLE
5
106
100
AcDbEntity
8
0
100
AcDbCircle
10
-10.337499999999938
20
0
30
0
40
3.5000000000000009
210
0
220
-0
230
1
0
CIRCLE
5
107
100
AcDbEntity
8
0
100
AcDbCircle
10
-10.337499999999959
20
34.500000000000007
30
0
40
3.5000000000000009
210
0
220
-0
230
1
0
LWPOLYLINE
5
108
100
AcDbEntity
8
0
100
AcDbPolyline
90
4
70
1
43
0.0
10
-33.337500000000006
20
66.675000000000111
10
-33.337500000000006
20
-66.67500000000004
10
33.337499999999999
20
-66.675000000000068
10
33.337499999999942
20
66.674999999999926
0
LWPOLYLINE
5
109
100
AcDbEntity
8
0
100
AcDbPolyline
90
4
70
1
43
0.0
10
-0.261837352735448
20
-49.5
10
-20.413162647264503
20
-49.5
10
-20.413162647264539
20
-53.500000000000043
10
-0.26183735273545633
20
-53.500000000000007
0
LINE
5
110
100
AcDbEntity
8
0
100
AcDbLine
10
-10.337499999999997
20
-34.5
30
0
11
-10.337499999999974
21
-49.5
31
0
0
LWPOLYLINE
5
111
100
AcDbEntity
8
0
100
AcDbPolyline
90
4
70
1
43
0.0
10
1.0502665599075907
20
-15.000000000000002
10
-21.725266559907467
20
-14.999999999999996
10
-21.725266559907421
20
-19.000000000000004
10
1.0502665599076015
20
-19.000000000000004
0
LINE
5
112
100
AcDbEntity
8
0
100
AcDbLine
10
-10.337499999999938
20
0
30
0
11
-10.337499999999938
21
-15
31
0
0
LWPOLYLINE
5
113
100
AcDbEntity
8
0
100
AcDbPolyline
90
4
70
1
43
0.0
10
-3.0059100687225504
20
19.500000000000007
10
-17.669089931277369
20
19.500000000000007
10
-17.669089931277366
20
15.500000000000011
10
-3.0059100687225526
20
15.500000000000007
0
LINE
5
114
100
AcDbEntity
8
0
100
AcDbLine
10
-10.337499999999959
20
34.500000000000007
30
0
11
-10.337499999999959
21
19.500000000000007
31
0
0
LWPOLYLINE
5
115
100
AcDbEntity
8
0
100
AcDbPolyline
90
4
70
1
43
0.0
10
23.455477042143965
20
37.200000000000031
10
13.219522957855979
20
37.200000000000031
10
13.219522957855981
20
33.200000000000031
10
23.455477042143961
20
33.200000000000031
0
LINE
5
116
100
AcDbEntity
8
0
100
AcDbLine
10
18.337499999999967
20
43.60000000000003
30
0
11
18.33749999999997
21
37.200000000000031
31
0
0
CIRCLE
5
117
100
AcDbEntity
8
0
100
AcDbCircle
10
18.337499999999967
20
43.60000000000003
30
0
40
6.4000000000000012
210
0
220
0
230
1
0
LWPOLYLINE
5
118
100
AcDbEntity
8
0
100
AcDbPolyline
90
4
70
1
43
0.0
10
33.337499999999999
20
-66.675000000000068
10
-33.337500000000006
20
-66.675000000000068
10
-33.337500000000006
20
66.675000000000111
10
33.337499999999999
20
66.675000000000111
0
SPLINE
5
119
100
AcDbEntity
8
0
100
AcDbSpline
70
0
71
2
72
6
73
3
74
0
42
0.000000001
43
0.0000000001
44
0.0000000001
40
0
40
0
40
0
40
1
40
1
40
1
10
-5.9459583616978584
20
-51.474078804254574
30
0
10
-5.9459583616978628
20
-51.972032397985501
30
0
10
-6.2133531428105364
20
-52.253069341182751
30
0
0
SPLINE
5
120
100
AcDbEntity
8
0
100
AcDbSpline
70
0
71
2
72
6
73
3
74
0
42
0.000000001
43
0.0000000001
44
0.0000000001
40
0
40
0
40
0
40
1
40
1
40
1
10
-6.2133531428105364
20
-52.253069341182751
30
0
10
-6.4807473278767613
20
-52.535470336675687
30
0
10
-6.9036667204625157
20
-52.535470336675687
30
0
0
SPLINE
5
121
100
AcDbEntity
8
0
100
AcDbSpline
70
0
71
2
72
6
73
3
74
0
42
0.000000001
43
0.0000000001
44
0.0000000001
40
0
40
0
40
0
40
1
40
1
40
1
10
-6.9036667204625157
20
-52.535470336675687
30
0
10
-7.180610761714652
20
-52.535470336675687
30
0
10
-7.4029843664891262
20
-52.403137445449872
30
0
0
SPLINE
5
122
100
AcDbEntity
8
0
100
AcDbSpline
70
0
71
2
72
6
73
3
74
0
42
0.000000001
43
0.0000000001
44
0.0000000001
40
0
40
0
40
0
40
1
40
1
40
1
10
-7.4029843664891262
20
-52.403137445449872
30
0
10
-7.6253585673100481
20
-52.270804554224057
30
0
10
-7.7413199997670157
20
-52.033423990011258
30
0
0
SPLINE
5
123
100
AcDbEntity
8
0
100
AcDbSpline
70
0
71
2
72
6
73
3
74
0
42
0.000000001
43
0.0000000001
44
0.0000000001
40
0
40
0
40
0
40
1
40
1
40
1
10
-7.7413199997670157
20
-52.033423990011258
30
0
10
-7.8586463785893397
20
-51.797407627105756
30
0
10
-7.8586463785893379
20
-51.497271269559903
30
0
0
SPLINE
5
124
100
AcDbEntity
8
0
100
AcDbSpline
70
0
71
2
72
6
73
3
74
0
42
0.000000001
43
0.0000000001
44
0.0000000001
40
0
40
0
40
0
40
1
40
1
40
1
10
-7.8586463785893379
20
-51.497271269559903
30
0
10
-7.8586463785893343
20
-51.193042010068936
30
0
10
-7.7358631945378189
20
-50.952933043241543
30
0
0
SPLINE
5
125
100
AcDbEntity
8
0
100
AcDbSpline
70
0
71
2
72
6
73
3
74
0
42
0.000000001
43
0.0000000001
44
0.0000000001
40
0
40
0
40
0
40
1
40
1
40
1
10
-7.7358631945378189
20
-50.952933043241543
30
0
10
-7.6130800104863026
20
-50.712823778390927
30
0
10
-7.3879777050740092
20
-50.588676542043729
30
0
0
SPLINE
5
126
100
AcDbEntity
8
0
100
AcDbSpline
70
0
71
2
72
6
73
3
74
0
42
0.000000001
43
0.0000000001
44
0.0000000001
40
0
40
0
40
0
40
1
40
1
40
1
10
-7.3879777050740092
20
-50.588676542043729
30
0
10
-7.1628753996617158
20
-50.465893357992215
30
0
10
-6.9023023701435884
20
-50.465893357992215
30
0
0
SPLINE
5
127
100
AcDbEntity
8
0
100
AcDbSpline
70
0
71
2
72
6
73
3
74
0
42
0.000000001
43
0.0000000001
44
0.0000000001
40
0
40
0
40
0
40
1
40
1
40
1
10
-6.9023023701435884
20
-50.465893357992215
30
0
10
-6.6199015236622651
20
-50.465893357992215
30
0
10
-6.3975273228413441
20
-50.60231885313992
30
0
0
SPLINE
5
128
100
AcDbEntity
8
0
100
AcDbSpline
70
0
71
2
72
6
73
3
74
0
42
0.000000001
43
0.0000000001
44
0.0000000001
40
0
40
0
40
0
40
1
40
1
40
1
10
-6.3975273228413441
20
-50.60231885313992
30
0
10
-6.1751537180668699
20
-50.738744646310849
30
0
10
-6.0605560398823632
20
-50.974760860204739
30
0
0
SPLINE
5
129
100
AcDbEntity
8
0
100
AcDbSpline
70
0
71
2
72
6
73
3
74
0
42
0.000000001
43
0.0000000001
44
0.0000000001
40
0
40
0
40
0
40
1
40
1
40
1
10
-6.0605560398823632
20
-50.974760860204739
30
0
10
-5.9459583616978549
20
-51.210777372121854
30
0
10
-5.9459583616978584
20
-51.474078804254574
30
0
0
SPLINE
5
130
100
AcDbEntity
8
0
100
AcDbSpline
70
0
71
2
72
6
73
3
74
0
42
0.000000001
43
0.0000000001
44
0.0000000001
40
0
40
0
40
0
40
1
40
1
40
1
10
-6.2188099480397163
20
-51.469986051321072
30
0
10
-6.2188099480397128
20
-51.108458250761075
30
0
10
-6.4125345803028946
20
-50.899726957082791
30
0
0
SPLINE
5
131
100
AcDbEntity
8
0
100
AcDbSpline
70
0
71
2
72
6
73
3
74
0
42
0.000000001
43
0.0000000001
44
0.0000000001
40
0
40
0
40
0
40
1
40
1
40
1
10
-6.4125345803028946
20
-50.899726957082791
30
0
10
-6.6076229668385364
20
-50.692360013723416
30
0
10
-6.9009380198246815
20
-50.692360013723416
30
0
0
SPLINE
5
132
100
AcDbEntity
8
0
100
AcDbSpline
70
0
71
2
72
6
73
3
74
0
42
0.000000001
43
0.0000000001
44
0.0000000001
40
0
40
0
40
0
40
1
40
1
40
1
10
-6.9009380198246815
20
-50.692360013723416
30
0
10
-7.1997104740864613
20
-50.692360013723416
30
0
10
-7.3920707560307388
20
-50.902455359697385
30
0
0
SPLINE
5
133
100
AcDbEntity
8
0
100
AcDbSpline
70
0
71
2
72
6
73
3
74
0
42
0.000000001
43
0.0000000001
44
0.0000000001
40
0
40
0
40
0
40
1
40
1
40
1
10
-7.3920707560307388
20
-50.902455359697385
30
0
10
-7.5857947922474764
20
-51.112551003694577
30
0
10
-7.58579479224748
20
-51.498635619878812
30
0
0
SPLINE
5
134
100
AcDbEntity
8
0
100
AcDbSpline
70
0
71
2
72
6
73
3
74
0
42
0.000000001
43
0.0000000001
44
0.0000000001
40
0
40
0
40
0
40
1
40
1
40
1
10
-7.58579479224748
20
-51.498635619878812
30
0
10
-7.5857947922474818
20
-51.742837339639706
30
0
10
-7.5025753832585309
20
-51.924283415079159
30
0
0
SPLINE
5
135
100
AcDbEntity
8
0
100
AcDbSpline
70
0
71
2
72
6
73
3
74
0
42
0.000000001
43
0.0000000001
44
0.0000000001
40
0
40
0
40
0
40
1
40
1
40
1
10
-7.5025753832585309
20
-51.924283415079159
30
0
10
-7.420719728542041
20
-52.107093840837521
30
0
10
-7.2611014700657837
20
-52.206684559583707
30
0
0
SPLINE
5
136
100
AcDbEntity
8
0
100
AcDbSpline
70
0
71
2
72
6
73
3
74
0
42
0.000000001
43
0.0000000001
44
0.0000000001
40
0
40
0
40
0
40
1
40
1
40
1
10
-7.2611014700657837
20
-52.206684559583707
30
0
10
-7.1028481579548846
20
-52.307639479637189
30
0
10
-6.9050310707814226
20
-52.307639479637189
30
0
0
SPLINE
5
137
100
AcDbEntity
8
0
100
AcDbSpline
70
0
71
2
72
6
73
3
74
0
42
0.000000001
43
0.0000000001
44
0.0000000001
40
0
40
0
40
0
40
1
40
1
40
1
10
-6.9050310707814226
20
-52.307639479637189
30
0
10
-6.6239939785725603
20
-52.307639479637189
30
0
10
-6.4207200861699096
20
-52.113915145397229
30
0
0
SPLINE
5
138
100
AcDbEntity
8
0
100
AcDbSpline
70
0
71
2
72
6
73
3
74
0
42
0.000000001
43
0.0000000001
44
0.0000000001
40
0
40
0
40
0
40
1
40
1
40
1
10
-6.4207200861699096
20
-52.113915145397229
30
0
10
-6.2188099480397199
20
-51.921555012464566
30
0
10
-6.2188099480397163
20
-51.469986051321072
30
0
0
LINE
5
139
100
AcDbEntity
8
0
100
AcDbLine
10
-8.1096695519215487
20
-51.142564624548001
30
0
11
-8.3593283749348544
21
-51.164392441511197
31
0
0
SPLINE
5
140
100
AcDbEntity
8
0
100
AcDbSpline
70
0
71
2
72
6
73
3
74
0
42
0.000000001
43
0.0000000001
44
0.0000000001
40
0
40
0
40
0
40
1
40
1
40
1
10
-8.3593283749348544
20
-51.164392441511197
30
0
10
-8.3770637369877718
20
-51.014324337244076
30
0
10
-8.4411840296513443
20
-50.917462319135709
30
0
0
SPLINE
5
141
100
AcDbEntity
8
0
100
AcDbSpline
70
0
71
2
72
6
73
3
74
0
42
0.000000001
43
0.0000000001
44
0.0000000001
40
0
40
0
40
0
40
1
40
1
40
1
10
-8.4411840296513443
20
-50.917462319135709
30
0
10
-8.5066680765873777
20
-50.821964353323025
30
0
10
-8.6430935717350827
20
-50.761937111616177
30
0
0
SPLINE
5
142
100
AcDbEntity
8
0
100
AcDbSpline
70
0
71
2
72
6
73
3
74
0
42
0.000000001
43
0.0000000001
44
0.0000000001
40
0
40
0
40
0
40
1
40
1
40
1
10
-8.6430935717350827
20
-50.761937111616177
30
0
10
-8.7795190668827878
20
-50.703273922205014
30
0
10
-8.9500515318638669
20
-50.703273922205014
30
0
0
SPLINE
5
143
100
AcDbEntity
8
0
100
AcDbSpline
70
0
71
2
72
6
73
3
74
0
42
0.000000001
43
0.0000000001
44
0.0000000001
40
0
40
0
40
0
40
1
40
1
40
1
10
-8.9500515318638669
20
-50.703273922205014
30
0
10
-9.1014842844731199
20
-50.703273922205014
30
0
10
-9.2174457169300901
20
-50.748294502496762
30
0
0
SPLINE
5
144
100
AcDbEntity
8
0
100
AcDbSpline
70
0
71
2
72
6
73
3
74
0
42
0.000000001
43
0.0000000001
44
0.0000000001
40
0
40
0
40
0
40
1
40
1
40
1
10
-9.2174457169300901
20
-50.748294502496762
30
0
10
-9.3334071493870603
20
-50.793314784765286
30
0
10
-9.3893419361836319
20
-50.871077388525052
30
0
0
SPLINE
5
145
100
AcDbEntity
8
0
100
AcDbSpline
70
0
71
2
72
6
73
3
74
0
42
0.000000001
43
0.0000000001
44
0.0000000001
40
0
40
0
40
0
40
1
40
1
40
1
10
-9.3893419361836319
20
-50.871077388525052
30
0
10
-9.4466404772526626
20
-50.950204342603726
30
0
10
-9.4466404772526644
20
-51.042973905801816
30
0
0
SPLINE
5
146
100
AcDbEntity
8
0
100
AcDbSpline
70
0
71
2
72
6
73
3
74
0
42
0.000000001
43
0.0000000001
44
0.0000000001
40
0
40
0
40
0
40
1
40
1
40
1
10
-9.4466404772526644
20
-51.042973905801816
30
0
10
-9.4466404772526644
20
-51.13710752129559
30
0
10
-9.392070636821451
20
-51.206684619188351
30
0
0
SPLINE
5
147
100
AcDbEntity
8
0
100
AcDbSpline
70
0
71
2
72
6
73
3
74
0
42
0.000000001
43
0.0000000001
44
0.0000000001
40
0
40
0
40
0
40
1
40
1
40
1
10
-9.392070636821451
20
-51.206684619188351
30
0
10
-9.3375002003437917
20
-51.277625769376797
30
0
10
-9.2119889117009084
20
-51.325375050306363
30
0
0
SPLINE
5
148
100
AcDbEntity
8
0
100
AcDbSpline
70
0
71
2
72
6
73
3
74
0
42
0.000000001
43
0.0000000001
44
0.0000000001
40
0
40
0
40
0
40
1
40
1
40
1
10
-9.2119889117009084
20
-51.325375050306363
30
0
10
-9.1314976073033254
20
-51.356752723455472
30
0
10
-8.8559179163700978
20
-51.422237068414731
30
0
0
SPLINE
5
149
100
AcDbEntity
8
0
100
AcDbSpline
70
0
71
2
72
6
73
3
74
0
42
0.000000001
43
0.0000000001
44
0.0000000001
40
0
40
0
40
0
40
1
40
1
40
1
10
-8.8559179163700978
20
-51.422237068414731
30
0
10
-8.5803382254368721
20
-51.489085763692898
30
0
10
-8.4698330021626411
20
-51.547748655080838
30
0
0
SPLINE
5
150
100
AcDbEntity
8
0
100
AcDbSpline
70
0
71
2
72
6
73
3
74
0
42
0.000000001
43
0.0000000001
44
0.0000000001
40
0
40
0
40
0
40
1
40
1
40
1
10
-8.4698330021626411
20
-51.547748655080838
30
0
10
-8.3265863514668421
20
-51.62278285622601
30
0
10
-8.2556449032551722
20
-51.733287483453793
30
0
0
SPLINE
5
151
100
AcDbEntity
8
0
100
AcDbSpline
70
0
71
2
72
6
73
3
74
0
42
0.000000001
43
0.0000000001
44
0.0000000001
40
0
40
0
40
0
40
1
40
1
40
1
10
-8.2556449032551722
20
-51.733287483453793
30
0
10
-8.1860678053624127
20
-51.845156610012097
30
0
10
-8.1860678053624127
20
-51.982946455478711
30
0
0
SPLINE
5
152
100
AcDbEntity
8
0
100
AcDbSpline
70
0
71
2
72
6
73
3
74
0
42
0.000000001
43
0.0000000001
44
0.0000000001
40
0
40
0
40
0
40
1
40
1
40
1
10
-8.1860678053624127
20
-51.982946455478711
30
0
10
-8.1860678053624145
20
-52.13437891006474
30
0
10
-8.2720159149891863
20
-52.265347599983258
30
0
0
SPLINE
5
153
100
AcDbEntity
8
0
100
AcDbSpline
70
0
71
2
72
6
73
3
74
0
42
0.000000001
43
0.0000000001
44
0.0000000001
40
0
40
0
40
0
40
1
40
1
40
1
10
-8.2720159149891863
20
-52.265347599983258
30
0
10
-8.3579640246159563
20
-52.397680491209073
30
0
10
-8.5230390883214007
20
-52.465893238782925
30
0
0
SPLINE
5
154
100
AcDbEntity
8
0
100
AcDbSpline
70
0
71
2
72
6
73
3
74
0
42
0.000000001
43
0.0000000001
44
0.0000000001
40
0
40
0
40
0
40
1
40
1
40
1
10
-8.5230390883214007
20
-52.465893238782925
30
0
10
-8.6881141520268468
20
-52.53410613536839
30
0
10
-8.890023694110587
20
-52.53410613536839
30
0
0
SPLINE
5
155
100
AcDbEntity
8
0
100
AcDbSpline
70
0
71
2
72
6
73
3
74
0
42
0.000000001
43
0.0000000001
44
0.0000000001
40
0
40
0
40
0
40
1
40
1
40
1
10
-8.890023694110587
20
-52.53410613536839
30
0
10
-9.1123978949315099
20
-52.53410613536839
30
0
10
-9.2815654135472307
20
-52.461800485849423
30
0
0
SPLINE
5
156
100
AcDbEntity
8
0
100
AcDbSpline
70
0
71
2
72
6
73
3
74
0
42
0.000000001
43
0.0000000001
44
0.0000000001
40
0
40
0
40
0
40
1
40
1
40
1
10
-9.2815654135472307
20
-52.461800485849423
30
0
10
-9.4520978785283098
20
-52.390859186649365
30
0
10
-9.5435027933842669
20
-52.251704990863843
30
0
0
SPLINE
5
157
100
AcDbEntity
8
0
100
AcDbSpline
70
0
71
2
72
6
73
3
74
0
42
0.000000001
43
0.0000000001
44
0.0000000001
40
0
40
0
40
0
40
1
40
1
40
1
10
-9.5435027933842669
20
-52.251704990863843
30
0
10
-9.6349077082402221
20
-52.11255079507832
30
0
10
-9.6417294598347638
20
-51.936561822891278
30
0
0
LINE
5
158
100
AcDbEntity
8
0
100
AcDbLine
10
-9.6417294598347638
20
-51.936561822891278
30
0
11
-9.3879775858647321
21
-51.917462259531064
31
0
0
SPLINE
5
159
100
AcDbEntity
8
0
100
AcDbSpline
70
0
71
2
72
6
73
3
74
0
42
0.000000001
43
0.0000000001
44
0.0000000001
40
0
40
0
40
0
40
1
40
1
40
1
10
-9.3879775858647321
20
-51.917462259531064
30
0
10
-9.3675141192204467
20
-52.107093840837521
30
0
10
-9.2488233900792114
20
-52.203956007957501
30
0
0
SPLINE
5
160
100
AcDbEntity
8
0
100
AcDbSpline
70
0
71
2
72
6
73
3
74
0
42
0.000000001
43
0.0000000001
44
0.0000000001
40
0
40
0
40
0
40
1
40
1
40
1
10
-9.2488233900792114
20
-52.203956007957501
30
0
10
-9.1314976073033343
20
-52.300818324089093
30
0
10
-8.9009384966618548
20
-52.300818324089093
30
0
0
SPLINE
5
161
100
AcDbEntity
8
0
100
AcDbSpline
70
0
71
2
72
6
73
3
74
0
42
0.000000001
43
0.0000000001
44
0.0000000001
40
0
40
0
40
0
40
1
40
1
40
1
10
-8.9009384966618548
20
-52.300818324089093
30
0
10
-8.6608289337880144
20
-52.300818324089093
30
0
10
-8.5503243065602295
20
-52.212141513824506
30
0
0
SPLINE
5
162
100
AcDbEntity
8
0
100
AcDbSpline
70
0
71
2
72
6
73
3
74
0
42
0.000000001
43
0.0000000001
44
0.0000000001
40
0
40
0
40
0
40
1
40
1
40
1
10
-8.5503243065602295
20
-52.212141513824506
30
0
10
-8.4411840296513549
20
-52.124829202890439
30
0
10
-8.4411840296513532
20
-52.000681817531628
30
0
0
SPLINE
5
163
100
AcDbEntity
8
0
100
AcDbSpline
70
0
71
2
72
6
73
3
74
0
42
0.000000001
43
0.0000000001
44
0.0000000001
40
0
40
0
40
0
40
1
40
1
40
1
10
-8.4411840296513532
20
-52.000681817531628
30
0
10
-8.4411840296513532
20
-51.892905592918439
30
0
10
-8.518946633411117
20
-51.823328495025677
30
0
0
SPLINE
5
164
100
AcDbEntity
8
0
100
AcDbSpline
70
0
71
2
72
6
73
3
74
0
42
0.000000001
43
0.0000000001
44
0.0000000001
40
0
40
0
40
0
40
1
40
1
40
1
10
-8.518946633411117
20
-51.823328495025677
30
0
10
-8.5953442908055262
20
-51.753751397132916
30
0
10
-8.9173095083958582
20
-51.680081546306653
30
0
0
SPLINE
5
165
100
AcDbEntity
8
0
100
AcDbSpline
70
0
71
2
72
6
73
3
74
0
42
0.000000001
43
0.0000000001
44
0.0000000001
40
0
40
0
40
0
40
1
40
1
40
1
10
-8.9173095083958582
20
-51.680081546306653
30
0
10
-9.2406384802586512
20
-51.607775896787686
30
0
10
-9.3606929636723457
20
-51.553205758333249
30
0
0
SPLINE
5
166
100
AcDbEntity
8
0
100
AcDbSpline
70
0
71
2
72
6
73
3
74
0
42
0.000000001
43
0.0000000001
44
0.0000000001
40
0
40
0
40
0
40
1
40
1
40
1
10
-9.3606929636723457
20
-51.553205758333249
30
0
10
-9.5353172875172554
20
-51.47271475195889
30
0
10
-9.6185366965062062
20
-51.348567217588467
30
0
0
SPLINE
5
167
100
AcDbEntity
8
0
100
AcDbSpline
70
0
71
2
72
6
73
3
74
0
42
0.000000001
43
0.0000000001
44
0.0000000001
40
0
40
0
40
0
40
1
40
1
40
1
10
-9.6185366965062062
20
-51.348567217588467
30
0
10
-9.7017567015416066
20
-51.225784033536954
30
0
10
-9.7017567015416049
20
-51.064802020788235
30
0
0
SPLINE
5
168
100
AcDbEntity
8
0
100
AcDbSpline
70
0
71
2
72
6
73
3
74
0
42
0.000000001
43
0.0000000001
44
0.0000000001
40
0
40
0
40
0
40
1
40
1
40
1
10
-9.7017567015416049
20
-51.064802020788235
30
0
10
-9.7017567015416031
20
-50.905183762311978
30
0
10
-9.6103517866856443
20
-50.763301163911862
30
0
0
SPLINE
5
169
100
AcDbEntity
8
0
100
AcDbSpline
70
0
71
2
72
6
73
3
74
0
42
0.000000001
43
0.0000000001
44
0.0000000001
40
0
40
0
40
0
40
1
40
1
40
1
10
-9.6103517866856443
20
-50.763301163911862
30
0
10
-9.5189462757832395
20
-50.622782915830655
30
0
10
-9.3470500565296977
20
-50.54365596175198
30
0
0
SPLINE
5
170
100
AcDbEntity
8
0
100
AcDbSpline
70
0
71
2
72
6
73
3
74
0
42
0.000000001
43
0.0000000001
44
0.0000000001
40
0
40
0
40
0
40
1
40
1
40
1
10
-9.3470500565296977
20
-50.54365596175198
30
0
10
-9.1765181875950645
20
-50.465893357992215
30
0
10
-8.9623300886875938
20
-50.465893357992215
30
0
0
SPLINE
5
171
100
AcDbEntity
8
0
100
AcDbSpline
70
0
71
2
72
6
73
3
74
0
42
0.000000001
43
0.0000000001
44
0.0000000001
40
0
40
0
40
0
40
1
40
1
40
1
10
-8.9623300886875938
20
-50.465893357992215
30
0
10
-8.6908428526646446
20
-50.465893357992215
30
0
10
-8.5066680765873759
20
-50.545020312070889
30
0
0
SPLINE
5
172
100
AcDbEntity
8
0
100
AcDbSpline
70
0
71
2
72
6
73
3
74
0
42
0.000000001
43
0.0000000001
44
0.0000000001
40
0
40
0
40
0
40
1
40
1
40
1
10
-8.5066680765873759
20
-50.545020312070889
30
0
10
-8.3238576508290159
20
-50.62414696812634
30
0
10
-8.2188098288304197
20
-50.782400876283688
30
0
0
SPLINE
5
173
100
AcDbEntity
8
0
100
AcDbSpline
70
0
71
2
72
6
73
3
74
0
42
0.000000001
43
0.0000000001
44
0.0000000001
40
0
40
0
40
0
40
1
40
1
40
1
10
-8.2188098288304197
20
-50.782400876283688
30
0
10
-8.1151263571507339
20
-50.942018836736722
30
0
10
-8.1096695519215487
20
-51.142564624548001
30
0
0
LINE
5
174
100
AcDbEntity
8
0
100
AcDbLine
10
-11.490296588016216
20
-51.20122751593594
30
0
11
-11.75496266849107
21
-51.134379118680997
31
0
0
SPLINE
5
175
100
AcDbEntity
8
0
100
AcDbSpline
70
0
71
2
72
6
73
3
74
0
42
0.000000001
43
0.0000000001
44
0.0000000001
40
0
40
0
40
0
40
1
40
1
40
1
10
-11.754962668491068
20
-51.134379118680997
30
0
10
-11.671742663455664
20
-50.80832174420361
30
0
10
-11.454827056003269
20
-50.636425226926846
30
0
0
SPLINE
5
176
100
AcDbEntity
8
0
100
AcDbSpline
70
0
71
2
72
6
73
3
74
0
42
0.000000001
43
0.0000000001
44
0.0000000001
40
0
40
0
40
0
40
1
40
1
40
1
10
-11.454827056003269
20
-50.636425226926846
30
0
10
-11.239274010730442
20
-50.465893357992215
30
0
10
-10.926858649326023
20
-50.465893357992215
30
0
0
SPLINE
5
177
100
AcDbEntity
8
0
100
AcDbSpline
70
0
71
2
72
6
73
3
74
0
42
0.000000001
43
0.0000000001
44
0.0000000001
40
0
40
0
40
0
40
1
40
1
40
1
10
-10.926858649326023
20
-50.465893357992215
30
0
10
-10.60352967746323
20
-50.465893357992215
30
0
10
-10.400256381107029
20
-50.596862047910733
30
0
0
SPLINE
5
178
100
AcDbEntity
8
0
100
AcDbSpline
70
0
71
2
72
6
73
3
74
0
42
0.000000001
43
0.0000000001
44
0.0000000001
40
0
40
0
40
0
40
1
40
1
40
1
10
-10.400256381107029
20
-50.596862047910733
30
0
10
-10.198345646930395
20
-50.729194790124936
30
0
10
-10.091934070659342
20
-50.978853911161465
30
0
0
SPLINE
5
179
100
AcDbEntity
8
0
100
AcDbSpline
70
0
71
2
72
6
73
3
74
0
42
0.000000001
43
0.0000000001
44
0.0000000001
40
0
40
0
40
0
40
1
40
1
40
1
10
-10.091934070659342
20
-50.978853911161465
30
0
10
-9.9868862486607473
20
-51.228512734174771
30
0
10
-9.986886248660749
20
-51.51500663161282
30
0
0
SPLINE
5
180
100
AcDbEntity
8
0
100
AcDbSpline
70
0
71
2
72
6
73
3
74
0
42
0.000000001
43
0.0000000001
44
0.0000000001
40
0
40
0
40
0
40
1
40
1
40
1
10
-9.986886248660749
20
-51.51500663161282
30
0
10
-9.9868862486607508
20
-51.82742124795918
30
0
10
-10.105576977801988
20
-52.05934485793118
30
0
0
SPLINE
5
181
100
AcDbEntity
8
0
100
AcDbSpline
70
0
71
2
72
6
73
3
74
0
42
0.000000001
43
0.0000000001
44
0.0000000001
40
0
40
0
40
0
40
1
40
1
40
1
10
-10.105576977801988
20
-52.05934485793118
30
0
10
-10.225631461215688
20
-52.292632669210477
30
0
10
-10.445276961398795
20
-52.412687301635785
30
0
0
SPLINE
5
182
100
AcDbEntity
8
0
100
AcDbSpline
70
0
71
2
72
6
73
3
74
0
42
0.000000001
43
0.0000000001
44
0.0000000001
40
0
40
0
40
0
40
1
40
1
40
1
10
-10.445276961398795
20
-52.412687301635785
30
0
10
-10.666286215854361
20
-52.53410613536839
30
0
10
-10.930952296329215
20
-52.53410613536839
30
0
0
SPLINE
5
183
100
AcDbEntity
8
0
100
AcDbSpline
70
0
71
2
72
6
73
3
74
0
42
0.000000001
43
0.0000000001
44
0.0000000001
40
0
40
0
40
0
40
1
40
1
40
1
10
-10.930952296329215
20
-52.53410613536839
30
0
10
-11.231087908817008
20
-52.53410613536839
30
0
10
-11.435727343631459
20
-52.381309330463452
30
0
0
SPLINE
5
184
100
AcDbEntity
8
0
100
AcDbSpline
70
0
71
2
72
6
73
3
74
0
42
0.000000001
43
0.0000000001
44
0.0000000001
40
0
40
0
40
0
40
1
40
1
40
1
10
-11.435727343631459
20
-52.381309330463452
30
0
10
-11.640364394260121
20
-52.228512674570126
30
0
10
-11.720856890750596
20
-51.95156863331799
30
0
0
LINE
5
185
100
AcDbEntity
8
0
100
AcDbLine
10
-11.720856890750596
20
-51.95156863331799
30
0
11
-11.460283265186021
21
-51.890177041292233
31
0
0
SPLINE
5
186
100
AcDbEntity
8
0
100
AcDbSpline
70
0
71
2
72
6
73
3
74
0
42
0.000000001
43
0.0000000001
44
0.0000000001
40
0
40
0
40
0
40
1
40
1
40
1
10
-11.460283265186019
20
-51.890177041292233
30
0
10
-11.390706763339708
20
-52.108458042144818
30
0
10
-11.258372531009389
20
-52.208048760891003
30
0
0
SPLINE
5
187
100
AcDbEntity
8
0
100
AcDbSpline
70
0
71
2
72
6
73
3
74
0
42
0.000000001
43
0.0000000001
44
0.0000000001
40
0
40
0
40
0
40
1
40
1
40
1
10
-11.258372531009389
20
-52.208048760891003
30
0
10
-11.126040682864858
20
-52.307639479637189
30
0
10
-10.925494895053578
20
-52.307639479637189
30
0
0
SPLINE
5
188
100
AcDbEntity
8
0
100
AcDbSpline
70
0
71
2
72
6
73
3
74
0
42
0.000000001
43
0.0000000001
44
0.0000000001
40
0
40
0
40
0
40
1
40
1
40
1
10
-10.925494895053578
20
-52.307639479637189
30
0
10
-10.694935784412099
20
-52.307639479637189
30
0
10
-10.539410576892568
20
-52.197134703397793
30
0
0
SPLINE
5
189
100
AcDbEntity
8
0
100
AcDbSpline
70
0
71
2
72
6
73
3
74
0
42
0.000000001
43
0.0000000001
44
0.0000000001
40
0
40
0
40
0
40
1
40
1
40
1
10
-10.539410576892568
20
-52.197134703397793
30
0
10
-10.385249123645494
20
-52.086629927158398
30
0
10
-10.322493777347274
20
-51.899726897478146
30
0
0
SPLINE
5
190
100
AcDbEntity
8
0
100
AcDbSpline
70
0
71
2
72
6
73
3
74
0
42
0.000000001
43
0.0000000001
44
0.0000000001
40
0
40
0
40
0
40
1
40
1
40
1
10
-10.322493777347274
20
-51.899726897478146
30
0
10
-10.259737238956161
20
-51.714188069105191
30
0
10
-10.259737238956159
20
-51.516370683908505
30
0
0
SPLINE
5
191
100
AcDbEntity
8
0
100
AcDbSpline
70
0
71
2
72
6
73
3
74
0
42
0.000000001
43
0.0000000001
44
0.0000000001
40
0
40
0
40
0
40
1
40
1
40
1
10
-10.259737238956159
20
-51.516370683908505
30
0
10
-10.259737238956157
20
-51.261254757642789
30
0
10
-10.333407387805643
20
-51.070258826017422
30
0
0
SPLINE
5
192
100
AcDbEntity
8
0
100
AcDbSpline
70
0
71
2
72
6
73
3
74
0
42
0.000000001
43
0.0000000001
44
0.0000000001
40
0
40
0
40
0
40
1
40
1
40
1
10
-10.333407387805643
20
-51.070258826017422
30
0
10
-10.408441290927588
20
-50.880627244710965
30
0
10
-10.565331444812475
20
-50.78649362921719
30
0
0
SPLINE
5
193
100
AcDbEntity
8
0
100
AcDbSpline
70
0
71
2
72
6
73
3
74
0
42
0.000000001
43
0.0000000001
44
0.0000000001
40
0
40
0
40
0
40
1
40
1
40
1
10
-10.565331444812475
20
-50.78649362921719
30
0
10
-10.722220406604468
20
-50.692360013723416
30
0
10
-10.905031428409277
20
-50.692360013723416
30
0
0
SPLINE
5
194
100
AcDbEntity
8
0
100
AcDbSpline
70
0
71
2
72
6
73
3
74
0
42
0.000000001
43
0.0000000001
44
0.0000000001
40
0
40
0
40
0
40
1
40
1
40
1
10
-10.905031428409277
20
-50.692360013723416
30
0
10
-11.127404437137304
20
-50.692360013723416
30
0
10
-11.281565890384375
20
-50.820600003004117
30
0
0
SPLINE
5
195
100
AcDbEntity
8
0
100
AcDbSpline
70
0
71
2
72
6
73
3
74
0
42
0.000000001
43
0.0000000001
44
0.0000000001
40
0
40
0
40
0
40
1
40
1
40
1
10
-11.281565890384375
20
-50.820600003004117
30
0
10
-11.435727343631449
20
-50.948839992284817
30
0
10
-11.490296588016216
20
-51.20122751593594
30
0
0
LINE
5
196
100
AcDbEntity
8
0
100
AcDbLine
10
-13.68265794284409
20
-50.499999731779141
30
0
11
-13.437091574741062
21
-50.499999731779141
31
0
0
LINE
5
197
100
AcDbEntity
8
0
100
AcDbLine
10
-13.437091574741062
20
-50.499999731779141
30
0
11
-13.437091574741075
21
-52.064801961183591
31
0
0
SPLINE
5
198
100
AcDbEntity
8
0
100
AcDbSpline
70
0
71
2
72
6
73
3
74
0
42
0.000000001
43
0.0000000001
44
0.0000000001
40
0
40
0
40
0
40
1
40
1
40
1
10
-13.437091574741075
20
-52.064801961183591
30
0
10
-13.34841416843004
20
-51.980218052864117
30
0
10
-13.203803763461776
20
-51.895634144544644
30
0
0
SPLINE
5
199
100
AcDbEntity
8
0
100
AcDbSpline
70
0
71
2
72
6
73
3
74
0
42
0.000000001
43
0.0000000001
44
0.0000000001
40
0
40
0
40
0
40
1
40
1
40
1
10
-13.203803763461776
20
-51.895634144544644
30
0
10
-13.06055592067308
20
-51.811050236225171
30
0
10
-12.945958838535018
20
-51.768758207559628
30
0
0
LINE
5
200
100
AcDbEntity
8
0
100
AcDbLine
10
-12.945958838535018
20
-51.768758207559628
30
0
11
-12.94595883853502
21
-52.006138920784039
31
0
0
SPLINE
5
201
100
AcDbEntity
8
0
100
AcDbSpline
70
0
71
2
72
6
73
3
74
0
42
0.000000001
43
0.0000000001
44
0.0000000001
40
0
40
0
40
0
40
1
40
1
40
1
10
-12.94595883853502
20
-52.006138920784039
30
0
10
-13.151962027621934
20
-52.103001087904019
30
0
10
-13.306122288776113
20
-52.240790933370633
30
0
0
SPLINE
5
202
100
AcDbEntity
8
0
100
AcDbSpline
70
0
71
2
72
6
73
3
74
0
42
0.000000001
43
0.0000000001
44
0.0000000001
40
0
40
0
40
0
40
1
40
1
40
1
10
-13.306122288776113
20
-52.240790933370633
30
0
10
-13.460282549930287
20
-52.378580927848859
30
0
10
-13.524402842593863
20
-52.508185267448468
30
0
0
LINE
5
203
100
AcDbEntity
8
0
100
AcDbLine
10
-13.524402842593863
20
-52.508185267448468
30
0
11
-13.682657942844108
21
-52.508185267448468
31
0
0
LINE
5
204
100
AcDbEntity
8
0
100
AcDbLine
10
-13.682657942844108
20
-52.508185267448468
30
0
11
-13.68265794284409
21
-50.499999731779141
31
0
0
LINE
5
205
100
AcDbEntity
8
0
100
AcDbLine
10
-14.449369177890476
20
-50.499999731779141
30
0
11
-14.449369177890478
21
-50.779672175645871
31
0
0
LINE
5
206
100
AcDbEntity
8
0
100
AcDbLine
10
-14.449369177890478
20
-50.779672175645871
30
0
11
-14.729041323733984
21
-50.779672175645871
31
0
0
LINE
5
207
100
AcDbEntity
8
0
100
AcDbLine
10
-14.729041323733984
20
-50.779672175645871
30
0
11
-14.729041323733982
21
-50.499999731779141
31
0
0
LINE
5
208
100
AcDbEntity
8
0
100
AcDbLine
10
-14.729041323733982
20
-50.499999731779141
30
0
11
-14.449369177890476
21
-50.499999731779141
31
0
0
SPLINE
5
209
100
AcDbEntity
8
0
100
AcDbSpline
70
0
71
2
72
6
73
3
74
0
42
0.000000001
43
0.0000000001
44
0.0000000001
40
0
40
0
40
0
40
1
40
1
40
1
10
-6.2863407733650831
20
-16.974078804254539
30
0
10
-6.2863407733650778
20
-17.472032397985465
30
0
10
-6.5537355544777451
20
-17.753069341182716
30
0
0
SPLINE
5
210
100
AcDbEntity
8
0
100
AcDbSpline
70
0
71
2
72
6
73
3
74
0
42
0.000000001
43
0.0000000001
44
0.0000000001
40
0
40
0
40
0
40
1
40
1
40
1
10
-6.5537355544777451
20
-17.753069341182716
30
0
10
-6.8211297395439647
20
-18.035470336675651
30
0
10
-7.2440491321297191
20
-18.035470336675651
30
0
0
SPLINE
5
211
100
AcDbEntity
8
0
100
AcDbSpline
70
0
71
2
72
6
73
3
74
0
42
0.000000001
43
0.0000000001
44
0.0000000001
40
0
40
0
40
0
40
1
40
1
40
1
10
-7.2440491321297191
20
-18.035470336675651
30
0
10
-7.5209931733818554
20
-18.035470336675651
30
0
10
-7.7433667781563322
20
-17.903137445449836
30
0
0
SPLINE
5
212
100
AcDbEntity
8
0
100
AcDbSpline
70
0
71
2
72
6
73
3
74
0
42
0.000000001
43
0.0000000001
44
0.0000000001
40
0
40
0
40
0
40
1
40
1
40
1
10
-7.7433667781563322
20
-17.903137445449836
30
0
10
-7.9657409789772569
20
-17.770804554224021
30
0
10
-8.0817024114342288
20
-17.533423990011222
30
0
0
SPLINE
5
213
100
AcDbEntity
8
0
100
AcDbSpline
70
0
71
2
72
6
73
3
74
0
42
0.000000001
43
0.0000000001
44
0.0000000001
40
0
40
0
40
0
40
1
40
1
40
1
10
-8.0817024114342288
20
-17.533423990011222
30
0
10
-8.1990287902565591
20
-17.29740762710572
30
0
10
-8.1990287902565626
20
-16.997271269559867
30
0
0
SPLINE
5
214
100
AcDbEntity
8
0
100
AcDbSpline
70
0
71
2
72
6
73
3
74
0
42
0.000000001
43
0.0000000001
44
0.0000000001
40
0
40
0
40
0
40
1
40
1
40
1
10
-8.1990287902565626
20
-16.997271269559867
30
0
10
-8.1990287902565644
20
-16.693042010068901
30
0
10
-8.0762456062050543
20
-16.452933043241508
30
0
0
SPLINE
5
215
100
AcDbEntity
8
0
100
AcDbSpline
70
0
71
2
72
6
73
3
74
0
42
0.000000001
43
0.0000000001
44
0.0000000001
40
0
40
0
40
0
40
1
40
1
40
1
10
-8.0762456062050543
20
-16.452933043241508
30
0
10
-7.9534624221535433
20
-16.212823778390892
30
0
10
-7.7283601167412517
20
-16.088676542043693
30
0
0
SPLINE
5
216
100
AcDbEntity
8
0
100
AcDbSpline
70
0
71
2
72
6
73
3
74
0
42
0.000000001
43
0.0000000001
44
0.0000000001
40
0
40
0
40
0
40
1
40
1
40
1
10
-7.7283601167412517
20
-16.088676542043693
30
0
10
-7.5032578113289619
20
-15.965893357992179
30
0
10
-7.2426847818108344
20
-15.965893357992179
30
0
0
SPLINE
5
217
100
AcDbEntity
8
0
100
AcDbSpline
70
0
71
2
72
6
73
3
74
0
42
0.000000001
43
0.0000000001
44
0.0000000001
40
0
40
0
40
0
40
1
40
1
40
1
10
-7.2426847818108344
20
-15.965893357992179
30
0
10
-6.9602839353295112
20
-15.965893357992179
30
0
10
-6.7379097345085857
20
-16.102318853139884
30
0
0
SPLINE
5
218
100
AcDbEntity
8
0
100
AcDbSpline
70
0
71
2
72
6
73
3
74
0
42
0.000000001
43
0.0000000001
44
0.0000000001
40
0
40
0
40
0
40
1
40
1
40
1
10
-6.7379097345085857
20
-16.102318853139884
30
0
10
-6.5155361297341097
20
-16.238744646310813
30
0
10
-6.4009384515495977
20
-16.474760860204704
30
0
0
SPLINE
5
219
100
AcDbEntity
8
0
100
AcDbSpline
70
0
71
2
72
6
73
3
74
0
42
0.000000001
43
0.0000000001
44
0.0000000001
40
0
40
0
40
0
40
1
40
1
40
1
10
-6.4009384515495977
20
-16.474760860204704
30
0
10
-6.2863407733650858
20
-16.710777372121818
30
0
10
-6.2863407733650831
20
-16.974078804254539
30
0
0
SPLINE
5
220
100
AcDbEntity
8
0
100
AcDbSpline
70
0
71
2
72
6
73
3
74
0
42
0.000000001
43
0.0000000001
44
0.0000000001
40
0
40
0
40
0
40
1
40
1
40
1
10
-6.559192359706941
20
-16.969986051321037
30
0
10
-6.5591923597069446
20
-16.608458250761039
30
0
10
-6.75291699197013
20
-16.399726957082756
30
0
0
SPLINE
5
221
100
AcDbEntity
8
0
100
AcDbSpline
70
0
71
2
72
6
73
3
74
0
42
0.000000001
43
0.0000000001
44
0.0000000001
40
0
40
0
40
0
40
1
40
1
40
1
10
-6.75291699197013
20
-16.399726957082756
30
0
10
-6.9480053785057772
20
-16.192360013723381
30
0
10
-7.2413204314919222
20
-16.192360013723381
30
0
0
SPLINE
5
222
100
AcDbEntity
8
0
100
AcDbSpline
70
0
71
2
72
6
73
3
74
0
42
0.000000001
43
0.0000000001
44
0.0000000001
40
0
40
0
40
0
40
1
40
1
40
1
10
-7.2413204314919222
20
-16.192360013723381
30
0
10
-7.540092885753702
20
-16.192360013723381
30
0
10
-7.7324531676979742
20
-16.402455359697349
30
0
0
SPLINE
5
223
100
AcDbEntity
8
0
100
AcDbSpline
70
0
71
2
72
6
73
3
74
0
42
0.000000001
43
0.0000000001
44
0.0000000001
40
0
40
0
40
0
40
1
40
1
40
1
10
-7.7324531676979742
20
-16.402455359697349
30
0
10
-7.9261772039147083
20
-16.612551003694541
30
0
10
-7.9261772039147038
20
-16.998635619878776
30
0
0
SPLINE
5
224
100
AcDbEntity
8
0
100
AcDbSpline
70
0
71
2
72
6
73
3
74
0
42
0.000000001
43
0.0000000001
44
0.0000000001
40
0
40
0
40
0
40
1
40
1
40
1
10
-7.9261772039147038
20
-16.998635619878776
30
0
10
-7.9261772039147012
20
-17.242837339639671
30
0
10
-7.8429577949257467
20
-17.424283415079124
30
0
0
SPLINE
5
225
100
AcDbEntity
8
0
100
AcDbSpline
70
0
71
2
72
6
73
3
74
0
42
0.000000001
43
0.0000000001
44
0.0000000001
40
0
40
0
40
0
40
1
40
1
40
1
10
-7.8429577949257467
20
-17.424283415079124
30
0
10
-7.7611021402092533
20
-17.607093840837486
30
0
10
-7.6014838817329942
20
-17.706684559583671
30
0
0
SPLINE
5
226
100
AcDbEntity
8
0
100
AcDbSpline
70
0
71
2
72
6
73
3
74
0
42
0.000000001
43
0.0000000001
44
0.0000000001
40
0
40
0
40
0
40
1
40
1
40
1
10
-7.6014838817329942
20
-17.706684559583671
30
0
10
-7.4432305696220924
20
-17.807639479637153
30
0
10
-7.2454134824486305
20
-17.807639479637153
30
0
0
SPLINE
5
227
100
AcDbEntity
8
0
100
AcDbSpline
70
0
71
2
72
6
73
3
74
0
42
0.000000001
43
0.0000000001
44
0.0000000001
40
0
40
0
40
0
40
1
40
1
40
1
10
-7.2454134824486305
20
-17.807639479637153
30
0
10
-6.9643763902397682
20
-17.807639479637153
30
0
10
-6.7611024978371219
20
-17.613915145397193
30
0
0
SPLINE
5
228
100
AcDbEntity
8
0
100
AcDbSpline
70
0
71
2
72
6
73
3
74
0
42
0.000000001
43
0.0000000001
44
0.0000000001
40
0
40
0
40
0
40
1
40
1
40
1
10
-6.7611024978371219
20
-17.613915145397193
30
0
10
-6.5591923597069357
20
-17.42155501246453
30
0
10
-6.559192359706941
20
-16.969986051321037
30
0
0
LINE
5
229
100
AcDbEntity
8
0
100
AcDbLine
10
-8.4500519635887805
20
-16.642564624547965
30
0
11
-8.6997107866020862
21
-16.664392441511161
31
0
0
SPLINE
5
230
100
AcDbEntity
8
0
100
AcDbSpline
70
0
71
2
72
6
73
3
74
0
42
0.000000001
43
0.0000000001
44
0.0000000001
40
0
40
0
40
0
40
1
40
1
40
1
10
-8.6997107866020862
20
-16.664392441511161
30
0
10
-8.7174461486550054
20
-16.514324337244041
30
0
10
-8.7815664413185797
20
-16.417462319135673
30
0
0
SPLINE
5
231
100
AcDbEntity
8
0
100
AcDbSpline
70
0
71
2
72
6
73
3
74
0
42
0.000000001
43
0.0000000001
44
0.0000000001
40
0
40
0
40
0
40
1
40
1
40
1
10
-8.7815664413185797
20
-16.417462319135673
30
0
10
-8.8470504882546166
20
-16.32196435332299
30
0
10
-8.9834759834023217
20
-16.261937111616142
30
0
0
SPLINE
5
232
100
AcDbEntity
8
0
100
AcDbSpline
70
0
71
2
72
6
73
3
74
0
42
0.000000001
43
0.0000000001
44
0.0000000001
40
0
40
0
40
0
40
1
40
1
40
1
10
-8.9834759834023217
20
-16.261937111616142
30
0
10
-9.1199014785500285
20
-16.203273922204978
30
0
10
-9.2904339435311076
20
-16.203273922204978
30
0
0
SPLINE
5
233
100
AcDbEntity
8
0
100
AcDbSpline
70
0
71
2
72
6
73
3
74
0
42
0.000000001
43
0.0000000001
44
0.0000000001
40
0
40
0
40
0
40
1
40
1
40
1
10
-9.2904339435311076
20
-16.203273922204978
30
0
10
-9.4418666961403606
20
-16.203273922204978
30
0
10
-9.5578275325508812
20
-16.248294502496726
30
0
0
SPLINE
5
234
100
AcDbEntity
8
0
100
AcDbSpline
70
0
71
2
72
6
73
3
74
0
42
0.000000001
43
0.0000000001
44
0.0000000001
40
0
40
0
40
0
40
1
40
1
40
1
10
-9.5578275325508812
20
-16.248294502496726
30
0
10
-9.6737895610542992
20
-16.293314784765251
30
0
10
-9.7297249438973168
20
-16.371077388525016
30
0
0
SPLINE
5
235
100
AcDbEntity
8
0
100
AcDbSpline
70
0
71
2
72
6
73
3
74
0
42
0.000000001
43
0.0000000001
44
0.0000000001
40
0
40
0
40
0
40
1
40
1
40
1
10
-9.7297249438973168
20
-16.371077388525016
30
0
10
-9.787022888919898
20
-16.450204342603691
30
0
10
-9.787022888919898
20
-16.54297390580178
30
0
0
SPLINE
5
236
100
AcDbEntity
8
0
100
AcDbSpline
70
0
71
2
72
6
73
3
74
0
42
0.000000001
43
0.0000000001
44
0.0000000001
40
0
40
0
40
0
40
1
40
1
40
1
10
-9.787022888919898
20
-16.54297390580178
30
0
10
-9.7870228889198945
20
-16.637107521295555
30
0
10
-9.7324524524422333
20
-16.706684619188316
30
0
0
SPLINE
5
237
100
AcDbEntity
8
0
100
AcDbSpline
70
0
71
2
72
6
73
3
74
0
42
0.000000001
43
0.0000000001
44
0.0000000001
40
0
40
0
40
0
40
1
40
1
40
1
10
-9.7324524524422333
20
-16.706684619188316
30
0
10
-9.6778832080574677
20
-16.777625769376762
30
0
10
-9.5523713233681367
20
-16.825375050306327
30
0
0
SPLINE
5
238
100
AcDbEntity
8
0
100
AcDbSpline
70
0
71
2
72
6
73
3
74
0
42
0.000000001
43
0.0000000001
44
0.0000000001
40
0
40
0
40
0
40
1
40
1
40
1
10
-9.5523713233681367
20
-16.825375050306327
30
0
10
-9.4718800189705519
20
-16.856752723455436
30
0
10
-9.1963003280373243
20
-16.922237068414695
30
0
0
SPLINE
5
239
100
AcDbEntity
8
0
100
AcDbSpline
70
0
71
2
72
6
73
3
74
0
42
0.000000001
43
0.0000000001
44
0.0000000001
40
0
40
0
40
0
40
1
40
1
40
1
10
-9.1963003280373243
20
-16.922237068414695
30
0
10
-8.9207206371040968
20
-16.989085763692863
30
0
10
-8.8102154138298658
20
-17.047748655080802
30
0
0
SPLINE
5
240
100
AcDbEntity
8
0
100
AcDbSpline
70
0
71
2
72
6
73
3
74
0
42
0.000000001
43
0.0000000001
44
0.0000000001
40
0
40
0
40
0
40
1
40
1
40
1
10
-8.8102154138298658
20
-17.047748655080802
30
0
10
-8.6669687631340633
20
-17.122782856225975
30
0
10
-8.5960273149223916
20
-17.233287483453758
30
0
0
SPLINE
5
241
100
AcDbEntity
8
0
100
AcDbSpline
70
0
71
2
72
6
73
3
74
0
42
0.000000001
43
0.0000000001
44
0.0000000001
40
0
40
0
40
0
40
1
40
1
40
1
10
-8.5960273149223916
20
-17.233287483453758
30
0
10
-8.5264502170296304
20
-17.345156610012062
30
0
10
-8.5264502170296268
20
-17.482946455478675
30
0
0
SPLINE
5
242
100
AcDbEntity
8
0
100
AcDbSpline
70
0
71
2
72
6
73
3
74
0
42
0.000000001
43
0.0000000001
44
0.0000000001
40
0
40
0
40
0
40
1
40
1
40
1
10
-8.5264502170296268
20
-17.482946455478675
30
0
10
-8.5264502170296268
20
-17.634378910064704
30
0
10
-8.612398326656395
20
-17.765347599983222
30
0
0
SPLINE
5
243
100
AcDbEntity
8
0
100
AcDbSpline
70
0
71
2
72
6
73
3
74
0
42
0.000000001
43
0.0000000001
44
0.0000000001
40
0
40
0
40
0
40
1
40
1
40
1
10
-8.612398326656395
20
-17.765347599983222
30
0
10
-8.6983464362831633
20
-17.897680491209037
30
0
10
-8.8634214999886076
20
-17.96589323878289
30
0
0
SPLINE
5
244
100
AcDbEntity
8
0
100
AcDbSpline
70
0
71
2
72
6
73
3
74
0
42
0.000000001
43
0.0000000001
44
0.0000000001
40
0
40
0
40
0
40
1
40
1
40
1
10
-8.8634214999886076
20
-17.96589323878289
30
0
10
-9.0284965636940502
20
-18.034106135368354
30
0
10
-9.2304061057777904
20
-18.034106135368354
30
0
0
SPLINE
5
245
100
AcDbEntity
8
0
100
AcDbSpline
70
0
71
2
72
6
73
3
74
0
42
0.000000001
43
0.0000000001
44
0.0000000001
40
0
40
0
40
0
40
1
40
1
40
1
10
-9.2304061057777904
20
-18.034106135368354
30
0
10
-9.4527803065987133
20
-18.034106135368354
30
0
10
-9.6219478252144377
20
-17.961800485849388
30
0
0
SPLINE
5
246
100
AcDbEntity
8
0
100
AcDbSpline
70
0
71
2
72
6
73
3
74
0
42
0.000000001
43
0.0000000001
44
0.0000000001
40
0
40
0
40
0
40
1
40
1
40
1
10
-9.6219478252144377
20
-17.961800485849388
30
0
10
-9.7924802901955168
20
-17.89085918664933
30
0
10
-9.8838852050514756
20
-17.751704990863807
30
0
0
SPLINE
5
247
100
AcDbEntity
8
0
100
AcDbSpline
70
0
71
2
72
6
73
3
74
0
42
0.000000001
43
0.0000000001
44
0.0000000001
40
0
40
0
40
0
40
1
40
1
40
1
10
-9.8838852050514756
20
-17.751704990863807
30
0
10
-9.9752901199074344
20
-17.612550795078285
30
0
10
-9.9821124675484256
20
-17.436561822891242
30
0
0
LINE
5
248
100
AcDbEntity
8
0
100
AcDbLine
10
-9.9821124675484256
20
-17.436561822891242
30
0
11
-9.7283599975319461
21
-17.417462259531028
31
0
0
SPLINE
5
249
100
AcDbEntity
8
0
100
AcDbSpline
70
0
71
2
72
6
73
3
74
0
42
0.000000001
43
0.0000000001
44
0.0000000001
40
0
40
0
40
0
40
1
40
1
40
1
10
-9.7283599975319497
20
-17.417462259531028
30
0
10
-9.707896530887659
20
-17.607093840837486
30
0
10
-9.5892058017464219
20
-17.703956007957466
30
0
0
SPLINE
5
250
100
AcDbEntity
8
0
100
AcDbSpline
70
0
71
2
72
6
73
3
74
0
42
0.000000001
43
0.0000000001
44
0.0000000001
40
0
40
0
40
0
40
1
40
1
40
1
10
-9.5892058017464219
20
-17.703956007957466
30
0
10
-9.471880018970543
20
-17.800818324089057
30
0
10
-9.2413209083290635
20
-17.800818324089057
30
0
0
SPLINE
5
251
100
AcDbEntity
8
0
100
AcDbSpline
70
0
71
2
72
6
73
3
74
0
42
0.000000001
43
0.0000000001
44
0.0000000001
40
0
40
0
40
0
40
1
40
1
40
1
10
-9.2413209083290635
20
-17.800818324089057
30
0
10
-9.0012107494087754
20
-17.800818324089057
30
0
10
-8.8907061221809922
20
-17.71214151382447
30
0
0
SPLINE
5
252
100
AcDbEntity
8
0
100
AcDbSpline
70
0
71
2
72
6
73
3
74
0
42
0.000000001
43
0.0000000001
44
0.0000000001
40
0
40
0
40
0
40
1
40
1
40
1
10
-8.8907061221809922
20
-17.71214151382447
30
0
10
-8.7815664413185672
20
-17.624829202890403
30
0
10
-8.7815664413185672
20
-17.500681817531593
30
0
0
SPLINE
5
253
100
AcDbEntity
8
0
100
AcDbSpline
70
0
71
2
72
6
73
3
74
0
42
0.000000001
43
0.0000000001
44
0.0000000001
40
0
40
0
40
0
40
1
40
1
40
1
10
-8.7815664413185672
20
-17.500681817531593
30
0
10
-8.781566441318569
20
-17.392905592918403
30
0
10
-8.8593290450783364
20
-17.323328495025642
30
0
0
SPLINE
5
254
100
AcDbEntity
8
0
100
AcDbSpline
70
0
71
2
72
6
73
3
74
0
42
0.000000001
43
0.0000000001
44
0.0000000001
40
0
40
0
40
0
40
1
40
1
40
1
10
-8.8593290450783364
20
-17.323328495025642
30
0
10
-8.9357267024727456
20
-17.253751397132881
30
0
10
-9.2576919200630794
20
-17.180081546306617
30
0
0
SPLINE
5
255
100
AcDbEntity
8
0
100
AcDbSpline
70
0
71
2
72
6
73
3
74
0
42
0.000000001
43
0.0000000001
44
0.0000000001
40
0
40
0
40
0
40
1
40
1
40
1
10
-9.2576919200630794
20
-17.180081546306617
30
0
10
-9.5810208919258724
20
-17.107775896787651
30
0
10
-9.7010753753395687
20
-17.053205758333213
30
0
0
SPLINE
5
256
100
AcDbEntity
8
0
100
AcDbSpline
70
0
71
2
72
6
73
3
74
0
42
0.000000001
43
0.0000000001
44
0.0000000001
40
0
40
0
40
0
40
1
40
1
40
1
10
-9.7010753753395687
20
-17.053205758333213
30
0
10
-9.8756991031380323
20
-16.972714751958854
30
0
10
-9.9589191081734327
20
-16.848567217588432
30
0
0
SPLINE
5
257
100
AcDbEntity
8
0
100
AcDbSpline
70
0
71
2
72
6
73
3
74
0
42
0.000000001
43
0.0000000001
44
0.0000000001
40
0
40
0
40
0
40
1
40
1
40
1
10
-9.9589191081734327
20
-16.848567217588432
30
0
10
-10.042139113208837
20
-16.725784033536918
30
0
10
-10.042139113208838
20
-16.5648020207882
30
0
0
SPLINE
5
258
100
AcDbEntity
8
0
100
AcDbSpline
70
0
71
2
72
6
73
3
74
0
42
0.000000001
43
0.0000000001
44
0.0000000001
40
0
40
0
40
0
40
1
40
1
40
1
10
-10.042139113208838
20
-16.5648020207882
30
0
10
-10.04213911320884
20
-16.405183762311943
30
0
10
-9.9507341983528832
20
-16.263301163911827
30
0
0
SPLINE
5
259
100
AcDbEntity
8
0
100
AcDbSpline
70
0
71
2
72
6
73
3
74
0
42
0.000000001
43
0.0000000001
44
0.0000000001
40
0
40
0
40
0
40
1
40
1
40
1
10
-9.9507341983528832
20
-16.263301163911827
30
0
10
-9.8593292834969279
20
-16.122782915830619
30
0
10
-9.6874318721504924
20
-16.043655961751945
30
0
0
SPLINE
5
260
100
AcDbEntity
8
0
100
AcDbSpline
70
0
71
2
72
6
73
3
74
0
42
0.000000001
43
0.0000000001
44
0.0000000001
40
0
40
0
40
0
40
1
40
1
40
1
10
-9.6874318721504924
20
-16.043655961751945
30
0
10
-9.5169005992623106
20
-15.965893357992179
30
0
10
-9.3027125003548399
20
-15.965893357992179
30
0
0
SPLINE
5
261
100
AcDbEntity
8
0
100
AcDbSpline
70
0
71
2
72
6
73
3
74
0
42
0.000000001
43
0.0000000001
44
0.0000000001
40
0
40
0
40
0
40
1
40
1
40
1
10
-9.3027125003548399
20
-15.965893357992179
30
0
10
-9.0312252643318907
20
-15.965893357992179
30
0
10
-8.8470504882546184
20
-16.045020312070854
30
0
0
SPLINE
5
262
100
AcDbEntity
8
0
100
AcDbSpline
70
0
71
2
72
6
73
3
74
0
42
0.000000001
43
0.0000000001
44
0.0000000001
40
0
40
0
40
0
40
1
40
1
40
1
10
-8.8470504882546184
20
-16.045020312070854
30
0
10
-8.6642400624962566
20
-16.124146968126304
30
0
10
-8.5591922404976586
20
-16.282400876283653
30
0
0
SPLINE
5
263
100
AcDbEntity
8
0
100
AcDbSpline
70
0
71
2
72
6
73
3
74
0
42
0.000000001
43
0.0000000001
44
0.0000000001
40
0
40
0
40
0
40
1
40
1
40
1
10
-8.5591922404976586
20
-16.282400876283653
30
0
10
-8.4555087688179693
20
-16.442018836736686
30
0
10
-8.4500519635887805
20
-16.642564624547965
30
0
0
LINE
5
264
100
AcDbEntity
8
0
100
AcDbLine
10
-11.830678999683446
20
-16.701227515935905
30
0
11
-12.0953450801583
21
-16.634379118680961
31
0
0
SPLINE
5
265
100
AcDbEntity
8
0
100
AcDbSpline
70
0
71
2
72
6
73
3
74
0
42
0.000000001
43
0.0000000001
44
0.0000000001
40
0
40
0
40
0
40
1
40
1
40
1
10
-12.0953450801583
20
-16.634379118680961
30
0
10
-12.012125075122903
20
-16.308321744203575
30
0
10
-11.795209467670514
20
-16.136425226926811
30
0
0
SPLINE
5
266
100
AcDbEntity
8
0
100
AcDbSpline
70
0
71
2
72
6
73
3
74
0
42
0.000000001
43
0.0000000001
44
0.0000000001
40
0
40
0
40
0
40
1
40
1
40
1
10
-11.795209467670514
20
-16.136425226926811
30
0
10
-11.579656422397688
20
-15.965893357992178
30
0
10
-11.267241060993269
20
-15.965893357992178
30
0
0
SPLINE
5
267
100
AcDbEntity
8
0
100
AcDbSpline
70
0
71
2
72
6
73
3
74
0
42
0.000000001
43
0.0000000001
44
0.0000000001
40
0
40
0
40
0
40
1
40
1
40
1
10
-11.267241060993269
20
-15.965893357992178
30
0
10
-10.943912089130476
20
-15.965893357992179
30
0
10
-10.740638792774273
20
-16.096862047910697
30
0
0
SPLINE
5
268
100
AcDbEntity
8
0
100
AcDbSpline
70
0
71
2
72
6
73
3
74
0
42
0.000000001
43
0.0000000001
44
0.0000000001
40
0
40
0
40
0
40
1
40
1
40
1
10
-10.740638792774273
20
-16.096862047910697
30
0
10
-10.538728058597638
20
-16.2291947901249
30
0
10
-10.432315886280128
20
-16.47885391116143
30
0
0
SPLINE
5
269
100
AcDbEntity
8
0
100
AcDbSpline
70
0
71
2
72
6
73
3
74
0
42
0.000000001
43
0.0000000001
44
0.0000000001
40
0
40
0
40
0
40
1
40
1
40
1
10
-10.432315886280128
20
-16.47885391116143
30
0
10
-10.327268660327977
20
-16.728512734174735
30
0
10
-10.327268660327976
20
-17.015006631612785
30
0
0
SPLINE
5
270
100
AcDbEntity
8
0
100
AcDbSpline
70
0
71
2
72
6
73
3
74
0
42
0.000000001
43
0.0000000001
44
0.0000000001
40
0
40
0
40
0
40
1
40
1
40
1
10
-10.327268660327976
20
-17.015006631612785
30
0
10
-10.32726866032797
20
-17.327421247959144
30
0
10
-10.445959389469204
20
-17.559344857931144
30
0
0
SPLINE
5
271
100
AcDbEntity
8
0
100
AcDbSpline
70
0
71
2
72
6
73
3
74
0
42
0.000000001
43
0.0000000001
44
0.0000000001
40
0
40
0
40
0
40
1
40
1
40
1
10
-10.445959389469204
20
-17.559344857931144
30
0
10
-10.566013872882898
20
-17.792632669210441
30
0
10
-10.785659373066
20
-17.912687301635749
30
0
0
SPLINE
5
272
100
AcDbEntity
8
0
100
AcDbSpline
70
0
71
2
72
6
73
3
74
0
42
0.000000001
43
0.0000000001
44
0.0000000001
40
0
40
0
40
0
40
1
40
1
40
1
10
-10.785659373066
20
-17.912687301635749
30
0
10
-11.006668627521565
20
-18.034106135368354
30
0
10
-11.271334707996418
20
-18.034106135368354
30
0
0
SPLINE
5
273
100
AcDbEntity
8
0
100
AcDbSpline
70
0
71
2
72
6
73
3
74
0
42
0.000000001
43
0.0000000001
44
0.0000000001
40
0
40
0
40
0
40
1
40
1
40
1
10
-11.271334707996418
20
-18.034106135368354
30
0
10
-11.571470320484211
20
-18.034106135368354
30
0
10
-11.776109755298666
20
-17.881309330463417
30
0
0
SPLINE
5
274
100
AcDbEntity
8
0
100
AcDbSpline
70
0
71
2
72
6
73
3
74
0
42
0.000000001
43
0.0000000001
44
0.0000000001
40
0
40
0
40
0
40
1
40
1
40
1
10
-11.776109755298666
20
-17.881309330463417
30
0
10
-11.980746805927332
20
-17.728512674570091
30
0
10
-12.061239302417812
20
-17.451568633317954
30
0
0
LINE
5
275
100
AcDbEntity
8
0
100
AcDbLine
10
-12.061239302417812
20
-17.451568633317954
30
0
11
-11.800665676853237
21
-17.390177041292198
31
0
0
SPLINE
5
276
100
AcDbEntity
8
0
100
AcDbSpline
70
0
71
2
72
6
73
3
74
0
42
0.000000001
43
0.0000000001
44
0.0000000001
40
0
40
0
40
0
40
1
40
1
40
1
10
-11.800665676853239
20
-17.390177041292198
30
0
10
-11.731089175006923
20
-17.608458042144782
30
0
10
-11.598754942676599
20
-17.708048760890968
30
0
0
SPLINE
5
277
100
AcDbEntity
8
0
100
AcDbSpline
70
0
71
2
72
6
73
3
74
0
42
0.000000001
43
0.0000000001
44
0.0000000001
40
0
40
0
40
0
40
1
40
1
40
1
10
-11.598754942676599
20
-17.708048760890968
30
0
10
-11.466423094532068
20
-17.807639479637153
30
0
10
-11.265877306720789
20
-17.807639479637153
30
0
0
SPLINE
5
278
100
AcDbEntity
8
0
100
AcDbSpline
70
0
71
2
72
6
73
3
74
0
42
0.000000001
43
0.0000000001
44
0.0000000001
40
0
40
0
40
0
40
1
40
1
40
1
10
-11.265877306720789
20
-17.807639479637153
30
0
10
-11.035318196079309
20
-17.807639479637153
30
0
10
-10.879792988559778
20
-17.697134703397758
30
0
0
SPLINE
5
279
100
AcDbEntity
8
0
100
AcDbSpline
70
0
71
2
72
6
73
3
74
0
42
0.000000001
43
0.0000000001
44
0.0000000001
40
0
40
0
40
0
40
1
40
1
40
1
10
-10.879792988559778
20
-17.697134703397758
30
0
10
-10.72563153531271
20
-17.586629927158363
30
0
10
-10.662876189014494
20
-17.399726897478111
30
0
0
SPLINE
5
280
100
AcDbEntity
8
0
100
AcDbSpline
70
0
71
2
72
6
73
3
74
0
42
0.000000001
43
0.0000000001
44
0.0000000001
40
0
40
0
40
0
40
1
40
1
40
1
10
-10.662876189014494
20
-17.399726897478111
30
0
10
-10.600119650623384
20
-17.214188069105155
30
0
10
-10.600119650623386
20
-17.01637068390847
30
0
0
SPLINE
5
281
100
AcDbEntity
8
0
100
AcDbSpline
70
0
71
2
72
6
73
3
74
0
42
0.000000001
43
0.0000000001
44
0.0000000001
40
0
40
0
40
0
40
1
40
1
40
1
10
-10.600119650623386
20
-17.01637068390847
30
0
10
-10.600119650623387
20
-16.761254757642753
30
0
10
-10.673789799472877
20
-16.570258826017387
30
0
0
SPLINE
5
282
100
AcDbEntity
8
0
100
AcDbSpline
70
0
71
2
72
6
73
3
74
0
42
0.000000001
43
0.0000000001
44
0.0000000001
40
0
40
0
40
0
40
1
40
1
40
1
10
-10.673789799472877
20
-16.570258826017387
30
0
10
-10.748823702594827
20
-16.380627244710929
30
0
10
-10.905713856479714
20
-16.286493629217155
30
0
0
SPLINE
5
283
100
AcDbEntity
8
0
100
AcDbSpline
70
0
71
2
72
6
73
3
74
0
42
0.000000001
43
0.0000000001
44
0.0000000001
40
0
40
0
40
0
40
1
40
1
40
1
10
-10.905713856479714
20
-16.286493629217155
30
0
10
-11.06260281827171
20
-16.192360013723381
30
0
10
-11.24541384007652
20
-16.192360013723381
30
0
0
SPLINE
5
284
100
AcDbEntity
8
0
100
AcDbSpline
70
0
71
2
72
6
73
3
74
0
42
0.000000001
43
0.0000000001
44
0.0000000001
40
0
40
0
40
0
40
1
40
1
40
1
10
-11.24541384007652
20
-16.192360013723381
30
0
10
-11.467786848804547
20
-16.192360013723381
30
0
10
-11.621948302051614
20
-16.320600003004081
30
0
0
SPLINE
5
285
100
AcDbEntity
8
0
100
AcDbSpline
70
0
71
2
72
6
73
3
74
0
42
0.000000001
43
0.0000000001
44
0.0000000001
40
0
40
0
40
0
40
1
40
1
40
1
10
-11.621948302051614
20
-16.320600003004081
30
0
10
-11.776109755298682
20
-16.448839992284782
30
0
10
-11.830678999683446
20
-16.701227515935905
30
0
0
LINE
5
286
100
AcDbEntity
8
0
100
AcDbLine
10
-14.388660013935159
20
-16.23601624369622
30
0
11
-14.388660013935162
21
-15.999999731779104
31
0
0
LINE
5
287
100
AcDbEntity
8
0
100
AcDbLine
10
-14.388660013935164
20
-15.999999731779104
30
0
11
-13.066695750019148
21
-15.999999731779104
31
0
0
SPLINE
5
288
100
AcDbEntity
8
0
100
AcDbSpline
70
0
71
2
72
6
73
3
74
0
42
0.000000001
43
0.0000000001
44
0.0000000001
40
0
40
0
40
0
40
1
40
1
40
1
10
-13.066695750019148
20
-15.999999731779104
30
0
10
-13.063968241474225
20
-16.088676542043693
30
0
10
-13.095345318576886
20
-16.170531898736961
30
0
0
SPLINE
5
289
100
AcDbEntity
8
0
100
AcDbSpline
70
0
71
2
72
6
73
3
74
0
42
0.000000001
43
0.0000000001
44
0.0000000001
40
0
40
0
40
0
40
1
40
1
40
1
10
-13.095345318576886
20
-16.170531898736961
30
0
10
-13.14582210805137
20
-16.305593043565757
30
0
10
-13.256327927372046
20
-16.436561733484275
30
0
0
SPLINE
5
290
100
AcDbEntity
8
0
100
AcDbSpline
70
0
71
2
72
6
73
3
74
0
42
0.000000001
43
0.0000000001
44
0.0000000001
40
0
40
0
40
0
40
1
40
1
40
1
10
-13.256327927372046
20
-16.436561733484275
30
0
10
-13.368197500965186
20
-16.567530423402793
30
0
10
-13.578291952869481
20
-16.739426642656333
30
0
0
SPLINE
5
291
100
AcDbEntity
8
0
100
AcDbSpline
70
0
71
2
72
6
73
3
74
0
42
0.000000001
43
0.0000000001
44
0.0000000001
40
0
40
0
40
0
40
1
40
1
40
1
10
-13.578291952869481
20
-16.739426642656333
30
0
10
-13.90434962537009
20
-17.00682112574578
30
0
10
-14.01894670750815
20
-17.162346333265312
30
0
0
SPLINE
5
292
100
AcDbEntity
8
0
100
AcDbSpline
70
0
71
2
72
6
73
3
74
0
42
0.000000001
43
0.0000000001
44
0.0000000001
40
0
40
0
40
0
40
1
40
1
40
1
10
-14.01894670750815
20
-17.162346333265312
30
0
10
-14.133544981739103
20
-17.31923574209214
30
0
10
-14.133544981739101
20
-17.458389937877662
30
0
0
SPLINE
5
293
100
AcDbEntity
8
0
100
AcDbSpline
70
0
71
2
72
6
73
3
74
0
42
0.000000001
43
0.0000000001
44
0.0000000001
40
0
40
0
40
0
40
1
40
1
40
1
10
-14.133544981739101
20
-17.458389937877662
30
0
10
-14.133544981739101
20
-17.60436528921128
30
0
10
-14.028496563694056
20
-17.703956007957466
30
0
0
SPLINE
5
294
100
AcDbEntity
8
0
100
AcDbSpline
70
0
71
2
72
6
73
3
74
0
42
0.000000001
43
0.0000000001
44
0.0000000001
40
0
40
0
40
0
40
1
40
1
40
1
10
-14.028496563694056
20
-17.703956007957466
30
0
10
-13.924813092014368
20
-17.80491107702256
30
0
10
-13.757010519764002
20
-17.80491107702256
30
0
0
SPLINE
5
295
100
AcDbEntity
8
0
100
AcDbSpline
70
0
71
2
72
6
73
3
74
0
42
0.000000001
43
0.0000000001
44
0.0000000001
40
0
40
0
40
0
40
1
40
1
40
1
10
-13.757010519764002
20
-17.80491107702256
30
0
10
-13.579655707141931
20
-17.80491107702256
30
0
10
-13.473244726917322
20
-17.698499053716667
30
0
0
SPLINE
5
296
100
AcDbEntity
8
0
100
AcDbSpline
70
0
71
2
72
6
73
3
74
0
42
0.000000001
43
0.0000000001
44
0.0000000001
40
0
40
0
40
0
40
1
40
1
40
1
10
-13.473244726917322
20
-17.698499053716667
30
0
10
-13.366832554599819
20
-17.592087030410774
30
0
10
-13.365467608234464
20
-17.403819650411613
30
0
0
LINE
5
297
100
AcDbEntity
8
0
100
AcDbLine
10
-13.365467608234464
20
-17.403819650411613
30
0
11
-13.113080084583341
21
-17.429740518331535
31
0
0
SPLINE
5
298
100
AcDbEntity
8
0
100
AcDbSpline
70
0
71
2
72
6
73
3
74
0
42
0.000000001
43
0.0000000001
44
0.0000000001
40
0
40
0
40
0
40
1
40
1
40
1
10
-13.11308008458334
20
-17.429740518331535
30
0
10
-13.13900095250326
20
-17.71214151382447
30
0
10
-13.308169663211874
20
-17.859481215476997
30
0
0
SPLINE
5
299
100
AcDbEntity
8
0
100
AcDbSpline
70
0
71
2
72
6
73
3
74
0
42
0.000000001
43
0.0000000001
44
0.0000000001
40
0
40
0
40
0
40
1
40
1
40
1
10
-13.308169663211874
20
-17.859481215476997
30
0
10
-13.477337181827597
20
-18.008185267448432
30
0
10
-13.762466728946738
20
-18.008185267448432
30
0
0
SPLINE
5
300
100
AcDbEntity
8
0
100
AcDbSpline
70
0
71
2
72
6
73
3
74
0
42
0.000000001
43
0.0000000001
44
0.0000000001
40
0
40
0
40
0
40
1
40
1
40
1
10
-13.762466728946738
20
-18.008185267448432
30
0
10
-14.050324976703696
20
-18.008185267448432
30
0
10
-14.218128741046957
20
-17.848567306995399
30
0
0
SPLINE
5
301
100
AcDbEntity
8
0
100
AcDbSpline
70
0
71
2
72
6
73
3
74
0
42
0.000000001
43
0.0000000001
44
0.0000000001
40
0
40
0
40
0
40
1
40
1
40
1
10
-14.218128741046957
20
-17.848567306995399
30
0
10
-14.385932505390223
20
-17.688949197530754
30
0
10
-14.385932505390224
20
-17.452932834625251
30
0
0
SPLINE
5
302
100
AcDbEntity
8
0
100
AcDbSpline
70
0
71
2
72
6
73
3
74
0
42
0.000000001
43
0.0000000001
44
0.0000000001
40
0
40
0
40
0
40
1
40
1
40
1
10
-14.385932505390224
20
-17.452932834625251
30
0
10
-14.385932505390226
20
-17.332878351211555
30
0
10
-14.336818278095308
20
-17.216916471719749
30
0
0
SPLINE
5
303
100
AcDbEntity
8
0
100
AcDbSpline
70
0
71
2
72
6
73
3
74
0
42
0.000000001
43
0.0000000001
44
0.0000000001
40
0
40
0
40
0
40
1
40
1
40
1
10
-14.336818278095308
20
-17.216916471719749
30
0
10
-14.287706434986177
20
-17.100954741239555
30
0
10
-14.173108160755222
20
-16.972714751958854
30
0
0
SPLINE
5
304
100
AcDbEntity
8
0
100
AcDbSpline
70
0
71
2
72
6
73
3
74
0
42
0.000000001
43
0.0000000001
44
0.0000000001
40
0
40
0
40
0
40
1
40
1
40
1
10
-14.173108160755222
20
-16.972714751958854
30
0
10
-14.059874832889621
20
-16.84447446465493
30
0
10
-13.795208752414771
20
-16.620736509561546
30
0
0
SPLINE
5
305
100
AcDbEntity
8
0
100
AcDbSpline
70
0
71
2
72
6
73
3
74
0
42
0.000000001
43
0.0000000001
44
0.0000000001
40
0
40
0
40
0
40
1
40
1
40
1
10
-13.795208752414771
20
-16.620736509561546
30
0
10
-13.574199497959205
20
-16.43519768118859
30
0
10
-13.511444151660989
20
-16.368348985910423
30
0
0
SPLINE
5
306
100
AcDbEntity
8
0
100
AcDbSpline
70
0
71
2
72
6
73
3
74
0
42
0.000000001
43
0.0000000001
44
0.0000000001
40
0
40
0
40
0
40
1
40
1
40
1
10
-13.511444151660989
20
-16.368348985910423
30
0
10
-13.448687613269875
20
-16.302864640951164
30
0
10
-13.407760679981301
20
-16.23601624369622
30
0
0
LINE
5
307
100
AcDbEntity
8
0
100
AcDbLine
10
-13.407760679981301
20
-16.23601624369622
30
0
11
-14.388660013935159
21
-16.23601624369622
31
0
0
SPLINE
5
308
100
AcDbEntity
8
0
100
AcDbSpline
70
0
71
2
72
6
73
3
74
0
42
0.000000001
43
0.0000000001
44
0.0000000001
40
0
40
0
40
0
40
1
40
1
40
1
10
-6.7317701875885163
20
17.525921195745479
30
0
10
-6.7317701875885145
20
17.027967602014552
30
0
10
-6.9991643726547377
20
16.746930658817302
30
0
0
SPLINE
5
309
100
AcDbEntity
8
0
100
AcDbSpline
70
0
71
2
72
6
73
3
74
0
42
0.000000001
43
0.0000000001
44
0.0000000001
40
0
40
0
40
0
40
1
40
1
40
1
10
-6.9991643726547377
20
16.746930658817302
30
0
10
-7.2665585577209608
20
16.464529663324367
30
0
10
-7.6894779503067152
20
16.464529663324367
30
0
0
SPLINE
5
310
100
AcDbEntity
8
0
100
AcDbSpline
70
0
71
2
72
6
73
3
74
0
42
0.000000001
43
0.0000000001
44
0.0000000001
40
0
40
0
40
0
40
1
40
1
40
1
10
-7.6894779503067152
20
16.464529663324367
30
0
10
-7.9664219915588514
20
16.464529663324367
30
0
10
-8.1887961923797743
20
16.596862554550182
30
0
0
SPLINE
5
311
100
AcDbEntity
8
0
100
AcDbSpline
70
0
71
2
72
6
73
3
74
0
42
0.000000001
43
0.0000000001
44
0.0000000001
40
0
40
0
40
0
40
1
40
1
40
1
10
-8.1887961923797743
20
16.596862554550182
30
0
10
-8.4111697971542494
20
16.729195445775996
30
0
10
-8.5271312296112196
20
16.966576009988795
30
0
0
SPLINE
5
312
100
AcDbEntity
8
0
100
AcDbSpline
70
0
71
2
72
6
73
3
74
0
42
0.000000001
43
0.0000000001
44
0.0000000001
40
0
40
0
40
0
40
1
40
1
40
1
10
-8.5271312296112196
20
16.966576009988795
30
0
10
-8.6444576084335463
20
17.202592372894298
30
0
10
-8.6444576084335463
20
17.50272873044015
30
0
0
SPLINE
5
313
100
AcDbEntity
8
0
100
AcDbSpline
70
0
71
2
72
6
73
3
74
0
42
0.000000001
43
0.0000000001
44
0.0000000001
40
0
40
0
40
0
40
1
40
1
40
1
10
-8.6444576084335463
20
17.50272873044015
30
0
10
-8.6444576084335463
20
17.806957989931117
30
0
10
-8.5216744243820344
20
18.04706695675851
30
0
0
SPLINE
5
314
100
AcDbEntity
8
0
100
AcDbSpline
70
0
71
2
72
6
73
3
74
0
42
0.000000001
43
0.0000000001
44
0.0000000001
40
0
40
0
40
0
40
1
40
1
40
1
10
-8.5216744243820344
20
18.04706695675851
30
0
10
-8.3988918363769685
20
18.287176221609126
30
0
10
-8.1737889349182282
20
18.411323457956325
30
0
0
SPLINE
5
315
100
AcDbEntity
8
0
100
AcDbSpline
70
0
71
2
72
6
73
3
74
0
42
0.000000001
43
0.0000000001
44
0.0000000001
40
0
40
0
40
0
40
1
40
1
40
1
10
-8.1737889349182282
20
18.411323457956325
30
0
10
-7.9486866295059366
20
18.534106642007838
30
0
10
-7.6881135999878092
20
18.534106642007838
30
0
0
SPLINE
5
316
100
AcDbEntity
8
0
100
AcDbSpline
70
0
71
2
72
6
73
3
74
0
42
0.000000001
43
0.0000000001
44
0.0000000001
40
0
40
0
40
0
40
1
40
1
40
1
10
-7.6881135999878092
20
18.534106642007838
30
0
10
-7.4057127535064859
20
18.534106642007838
30
0
10
-7.1833388507087861
20
18.397681146860133
30
0
0
SPLINE
5
317
100
AcDbEntity
8
0
100
AcDbSpline
70
0
71
2
72
6
73
3
74
0
42
0.000000001
43
0.0000000001
44
0.0000000001
40
0
40
0
40
0
40
1
40
1
40
1
10
-7.1833388507087861
20
18.397681146860133
30
0
10
-6.9609649479110871
20
18.261255353689204
30
0
10
-6.8463675677498017
20
18.025239139795314
30
0
0
SPLINE
5
318
100
AcDbEntity
8
0
100
AcDbSpline
70
0
71
2
72
6
73
3
74
0
42
0.000000001
43
0.0000000001
44
0.0000000001
40
0
40
0
40
0
40
1
40
1
40
1
10
-6.8463675677498017
20
18.025239139795314
30
0
10
-6.7317701875885163
20
17.7892226278782
30
0
10
-6.7317701875885163
20
17.525921195745479
30
0
0
SPLINE
5
319
100
AcDbEntity
8
0
100
AcDbSpline
70
0
71
2
72
6
73
3
74
0
42
0.000000001
43
0.0000000001
44
0.0000000001
40
0
40
0
40
0
40
1
40
1
40
1
10
-7.0046211778839265
20
17.530013948678981
30
0
10
-7.0046211778839265
20
17.891541749238979
30
0
10
-7.1983458101471101
20
18.100273042917262
30
0
0
SPLINE
5
320
100
AcDbEntity
8
0
100
AcDbSpline
70
0
71
2
72
6
73
3
74
0
42
0.000000001
43
0.0000000001
44
0.0000000001
40
0
40
0
40
0
40
1
40
1
40
1
10
-7.1983458101471101
20
18.100273042917262
30
0
10
-7.3934341966827546
20
18.307639986276637
30
0
10
-7.6867495476921235
20
18.307639986276637
30
0
0
SPLINE
5
321
100
AcDbEntity
8
0
100
AcDbSpline
70
0
71
2
72
6
73
3
74
0
42
0.000000001
43
0.0000000001
44
0.0000000001
40
0
40
0
40
0
40
1
40
1
40
1
10
-7.6867495476921235
20
18.307639986276637
30
0
10
-7.9855217039306794
20
18.307639986276637
30
0
10
-8.1778819858749543
20
18.097544640302669
30
0
0
SPLINE
5
322
100
AcDbEntity
8
0
100
AcDbSpline
70
0
71
2
72
6
73
3
74
0
42
0.000000001
43
0.0000000001
44
0.0000000001
40
0
40
0
40
0
40
1
40
1
40
1
10
-8.1778819858749543
20
18.097544640302669
30
0
10
-8.3716060220916884
20
17.887448996305476
30
0
10
-8.3716060220916884
20
17.501364380121242
30
0
0
SPLINE
5
323
100
AcDbEntity
8
0
100
AcDbSpline
70
0
71
2
72
6
73
3
74
0
42
0.000000001
43
0.0000000001
44
0.0000000001
40
0
40
0
40
0
40
1
40
1
40
1
10
-8.3716060220916884
20
17.501364380121242
30
0
10
-8.3716060220916884
20
17.257162660360347
30
0
10
-8.2883866131027357
20
17.075716584920894
30
0
0
SPLINE
5
324
100
AcDbEntity
8
0
100
AcDbSpline
70
0
71
2
72
6
73
3
74
0
42
0.000000001
43
0.0000000001
44
0.0000000001
40
0
40
0
40
0
40
1
40
1
40
1
10
-8.2883866131027357
20
17.075716584920894
30
0
10
-8.206530958386244
20
16.892906159162532
30
0
10
-8.0469132959564345
20
16.793315440416347
30
0
0
SPLINE
5
325
100
AcDbEntity
8
0
100
AcDbSpline
70
0
71
2
72
6
73
3
74
0
42
0.000000001
43
0.0000000001
44
0.0000000001
40
0
40
0
40
0
40
1
40
1
40
1
10
-8.0469132959564345
20
16.793315440416347
30
0
10
-7.8886593877990858
20
16.692360520362865
30
0
10
-7.6908423006256239
20
16.692360520362865
30
0
0
SPLINE
5
326
100
AcDbEntity
8
0
100
AcDbSpline
70
0
71
2
72
6
73
3
74
0
42
0.000000001
43
0.0000000001
44
0.0000000001
40
0
40
0
40
0
40
1
40
1
40
1
10
-7.6908423006256239
20
16.692360520362865
30
0
10
-7.4098055064399855
20
16.692360520362865
30
0
10
-7.2065313160141127
20
16.886084854602824
30
0
0
SPLINE
5
327
100
AcDbEntity
8
0
100
AcDbSpline
70
0
71
2
72
6
73
3
74
0
42
0.000000001
43
0.0000000001
44
0.0000000001
40
0
40
0
40
0
40
1
40
1
40
1
10
-7.2065313160141127
20
16.886084854602824
30
0
10
-7.0046211778839247
20
17.078444987535487
30
0
10
-7.0046211778839265
20
17.530013948678981
30
0
0
LINE
5
328
100
AcDbEntity
8
0
100
AcDbLine
10
-8.8954807817657606
20
17.857435375452052
30
0
11
-9.1451396047790663
21
17.835607558488856
31
0
0
SPLINE
5
329
100
AcDbEntity
8
0
100
AcDbSpline
70
0
71
2
72
6
73
3
74
0
42
0.000000001
43
0.0000000001
44
0.0000000001
40
0
40
0
40
0
40
1
40
1
40
1
10
-9.1451396047790663
20
17.835607558488856
30
0
10
-9.1628749668319855
20
17.985675662755977
30
0
10
-9.226994663449112
20
18.082537680864345
30
0
0
SPLINE
5
330
100
AcDbEntity
8
0
100
AcDbSpline
70
0
71
2
72
6
73
3
74
0
42
0.000000001
43
0.0000000001
44
0.0000000001
40
0
40
0
40
0
40
1
40
1
40
1
10
-9.226994663449112
20
18.082537680864345
30
0
10
-9.2924793064315949
20
18.178035646677028
30
0
10
-9.4289048015793
20
18.238062888383876
30
0
0
SPLINE
5
331
100
AcDbEntity
8
0
100
AcDbSpline
70
0
71
2
72
6
73
3
74
0
42
0.000000001
43
0.0000000001
44
0.0000000001
40
0
40
0
40
0
40
1
40
1
40
1
10
-9.4289048015793
20
18.238062888383876
30
0
10
-9.5653308927734528
20
18.296726077795039
30
0
10
-9.7358627617080842
20
18.296726077795039
30
0
0
SPLINE
5
332
100
AcDbEntity
8
0
100
AcDbSpline
70
0
71
2
72
6
73
3
74
0
42
0.000000001
43
0.0000000001
44
0.0000000001
40
0
40
0
40
0
40
1
40
1
40
1
10
-9.7358627617080842
20
18.296726077795039
30
0
10
-9.8872949182708894
20
18.296726077795039
30
0
10
-10.003256946774307
20
18.251705497503291
30
0
0
SPLINE
5
333
100
AcDbEntity
8
0
100
AcDbSpline
70
0
71
2
72
6
73
3
74
0
42
0.000000001
43
0.0000000001
44
0.0000000001
40
0
40
0
40
0
40
1
40
1
40
1
10
-10.003256946774307
20
18.251705497503291
30
0
10
-10.119218975277725
20
18.206685215234767
30
0
10
-10.175153166027847
20
18.128922611475002
30
0
0
SPLINE
5
334
100
AcDbEntity
8
0
100
AcDbSpline
70
0
71
2
72
6
73
3
74
0
42
0.000000001
43
0.0000000001
44
0.0000000001
40
0
40
0
40
0
40
1
40
1
40
1
10
-10.175153166027847
20
18.128922611475002
30
0
10
-10.232452303143326
20
18.049795657396327
30
0
10
-10.232452303143324
20
17.957026094198238
30
0
0
SPLINE
5
335
100
AcDbEntity
8
0
100
AcDbSpline
70
0
71
2
72
6
73
3
74
0
42
0.000000001
43
0.0000000001
44
0.0000000001
40
0
40
0
40
0
40
1
40
1
40
1
10
-10.232452303143324
20
17.957026094198238
30
0
10
-10.232452303143324
20
17.862892478704463
30
0
10
-10.177881866665663
20
17.793315380811702
30
0
0
SPLINE
5
336
100
AcDbEntity
8
0
100
AcDbSpline
70
0
71
2
72
6
73
3
74
0
42
0.000000001
43
0.0000000001
44
0.0000000001
40
0
40
0
40
0
40
1
40
1
40
1
10
-10.177881866665663
20
17.793315380811702
30
0
10
-10.123311430188002
20
17.722374230623256
30
0
10
-9.9977995454986708
20
17.67462494969369
30
0
0
SPLINE
5
337
100
AcDbEntity
8
0
100
AcDbSpline
70
0
71
2
72
6
73
3
74
0
42
0.000000001
43
0.0000000001
44
0.0000000001
40
0
40
0
40
0
40
1
40
1
40
1
10
-9.9977995454986708
20
17.67462494969369
30
0
10
-9.9173088371475355
20
17.643247276544582
30
0
10
-9.6417285501678602
20
17.577762931585323
30
0
0
SPLINE
5
338
100
AcDbEntity
8
0
100
AcDbSpline
70
0
71
2
72
6
73
3
74
0
42
0.000000001
43
0.0000000001
44
0.0000000001
40
0
40
0
40
0
40
1
40
1
40
1
10
-9.6417285501678602
20
17.577762931585323
30
0
10
-9.3661488592346327
20
17.510914236307155
30
0
10
-9.2556442320068495
20
17.452251344919215
30
0
0
SPLINE
5
339
100
AcDbEntity
8
0
100
AcDbSpline
70
0
71
2
72
6
73
3
74
0
42
0.000000001
43
0.0000000001
44
0.0000000001
40
0
40
0
40
0
40
1
40
1
40
1
10
-9.2556442320068495
20
17.452251344919215
30
0
10
-9.1123975813110487
20
17.377217143774043
30
0
10
-9.0414561330993788
20
17.26671251654626
30
0
0
SPLINE
5
340
100
AcDbEntity
8
0
100
AcDbSpline
70
0
71
2
72
6
73
3
74
0
42
0.000000001
43
0.0000000001
44
0.0000000001
40
0
40
0
40
0
40
1
40
1
40
1
10
-9.0414561330993788
20
17.26671251654626
30
0
10
-8.9718790352066176
20
17.154843389987956
30
0
10
-8.9718790352066176
20
17.017053544521342
30
0
0
SPLINE
5
341
100
AcDbEntity
8
0
100
AcDbSpline
70
0
71
2
72
6
73
3
74
0
42
0.000000001
43
0.0000000001
44
0.0000000001
40
0
40
0
40
0
40
1
40
1
40
1
10
-8.9718790352066176
20
17.017053544521342
30
0
10
-8.9718790352066176
20
16.865621089935313
30
0
10
-9.0578271448333876
20
16.734652400016795
30
0
0
SPLINE
5
342
100
AcDbEntity
8
0
100
AcDbSpline
70
0
71
2
72
6
73
3
74
0
42
0.000000001
43
0.0000000001
44
0.0000000001
40
0
40
0
40
0
40
1
40
1
40
1
10
-9.0578271448333876
20
16.734652400016795
30
0
10
-9.1437752544601576
20
16.602319508790981
30
0
10
-9.3088503181656019
20
16.534106761217128
30
0
0
SPLINE
5
343
100
AcDbEntity
8
0
100
AcDbSpline
70
0
71
2
72
6
73
3
74
0
42
0.000000001
43
0.0000000001
44
0.0000000001
40
0
40
0
40
0
40
1
40
1
40
1
10
-9.3088503181656019
20
16.534106761217128
30
0
10
-9.4739253818710463
20
16.465893864631663
30
0
10
-9.6758355200012343
20
16.465893864631663
30
0
0
SPLINE
5
344
100
AcDbEntity
8
0
100
AcDbSpline
70
0
71
2
72
6
73
3
74
0
42
0.000000001
43
0.0000000001
44
0.0000000001
40
0
40
0
40
0
40
1
40
1
40
1
10
-9.6758355200012343
20
16.465893864631663
30
0
10
-9.8982091247757094
20
16.465893864631663
30
0
10
-10.06737723943788
20
16.53819951415063
30
0
0
SPLINE
5
345
100
AcDbEntity
8
0
100
AcDbSpline
70
0
71
2
72
6
73
3
74
0
42
0.000000001
43
0.0000000001
44
0.0000000001
40
0
40
0
40
0
40
1
40
1
40
1
10
-10.06737723943788
20
16.53819951415063
30
0
10
-10.237909108372511
20
16.609140813350688
30
0
10
-10.329314619274916
20
16.748295009136211
30
0
0
SPLINE
5
346
100
AcDbEntity
8
0
100
AcDbSpline
70
0
71
2
72
6
73
3
74
0
42
0.000000001
43
0.0000000001
44
0.0000000001
40
0
40
0
40
0
40
1
40
1
40
1
10
-10.329314619274916
20
16.748295009136211
30
0
10
-10.420719534130873
20
16.887449204921733
30
0
10
-10.427540689678969
20
17.063438177108775
30
0
0
LINE
5
347
100
AcDbEntity
8
0
100
AcDbLine
10
-10.427540689678969
20
17.063438177108775
30
0
11
-10.173789411755385
21
17.08253774046899
31
0
0
SPLINE
5
348
100
AcDbEntity
8
0
100
AcDbSpline
70
0
71
2
72
6
73
3
74
0
42
0.000000001
43
0.0000000001
44
0.0000000001
40
0
40
0
40
0
40
1
40
1
40
1
10
-10.173789411755385
20
17.08253774046899
30
0
10
-10.153324753018202
20
16.892906159162532
30
0
10
-10.034635215969862
20
16.796043992042552
30
0
0
SPLINE
5
349
100
AcDbEntity
8
0
100
AcDbSpline
70
0
71
2
72
6
73
3
74
0
42
0.000000001
43
0.0000000001
44
0.0000000001
40
0
40
0
40
0
40
1
40
1
40
1
10
-10.034635215969862
20
16.796043992042552
30
0
10
-9.9173088371475355
20
16.69918167591096
30
0
10
-9.6867491304596083
20
16.69918167591096
30
0
0
SPLINE
5
350
100
AcDbEntity
8
0
100
AcDbSpline
70
0
71
2
72
6
73
3
74
0
42
0.000000001
43
0.0000000001
44
0.0000000001
40
0
40
0
40
0
40
1
40
1
40
1
10
-9.6867491304596083
20
16.69918167591096
30
0
10
-9.4466401636322157
20
16.69918167591096
30
0
10
-9.3361355364044325
20
16.787858486175548
30
0
0
SPLINE
5
351
100
AcDbEntity
8
0
100
AcDbSpline
70
0
71
2
72
6
73
3
74
0
42
0.000000001
43
0.0000000001
44
0.0000000001
40
0
40
0
40
0
40
1
40
1
40
1
10
-9.3361355364044325
20
16.787858486175548
30
0
10
-9.2269946634491102
20
16.875170797109615
30
0
10
-9.2269946634491102
20
16.999318182468425
30
0
0
SPLINE
5
352
100
AcDbEntity
8
0
100
AcDbSpline
70
0
71
2
72
6
73
3
74
0
42
0.000000001
43
0.0000000001
44
0.0000000001
40
0
40
0
40
0
40
1
40
1
40
1
10
-9.2269946634491102
20
16.999318182468425
30
0
10
-9.2269946634491102
20
17.107094407081615
30
0
10
-9.3047572672088759
20
17.176671504974376
30
0
0
SPLINE
5
353
100
AcDbEntity
8
0
100
AcDbSpline
70
0
71
2
72
6
73
3
74
0
42
0.000000001
43
0.0000000001
44
0.0000000001
40
0
40
0
40
0
40
1
40
1
40
1
10
-9.3047572672088759
20
17.176671504974376
30
0
10
-9.3811561166961805
20
17.246248602867137
30
0
10
-9.7031201421936171
20
17.319918453693401
30
0
0
SPLINE
5
354
100
AcDbEntity
8
0
100
AcDbSpline
70
0
71
2
72
6
73
3
74
0
42
0.000000001
43
0.0000000001
44
0.0000000001
40
0
40
0
40
0
40
1
40
1
40
1
10
-9.7031201421936171
20
17.319918453693401
30
0
10
-10.02644911405641
20
17.392224103212367
30
0
10
-10.146503597470106
20
17.446794241666804
30
0
0
SPLINE
5
355
100
AcDbEntity
8
0
100
AcDbSpline
70
0
71
2
72
6
73
3
74
0
42
0.000000001
43
0.0000000001
44
0.0000000001
40
0
40
0
40
0
40
1
40
1
40
1
10
-10.146503597470106
20
17.446794241666804
30
0
10
-10.321128517361464
20
17.527285248041164
30
0
10
-10.404348522396864
20
17.651432782411586
30
0
0
SPLINE
5
356
100
AcDbEntity
8
0
100
AcDbSpline
70
0
71
2
72
6
73
3
74
0
42
0.000000001
43
0.0000000001
44
0.0000000001
40
0
40
0
40
0
40
1
40
1
40
1
10
-10.404348522396864
20
17.651432782411586
30
0
10
-10.487567931385817
20
17.7742159664631
30
0
10
-10.487567931385817
20
17.935197979211818
30
0
0
SPLINE
5
357
100
AcDbEntity
8
0
100
AcDbSpline
70
0
71
2
72
6
73
3
74
0
42
0.000000001
43
0.0000000001
44
0.0000000001
40
0
40
0
40
0
40
1
40
1
40
1
10
-10.487567931385817
20
17.935197979211818
30
0
10
-10.487567931385819
20
18.094816237688075
30
0
10
-10.396162420483414
20
18.236698836088191
30
0
0
SPLINE
5
358
100
AcDbEntity
8
0
100
AcDbSpline
70
0
71
2
72
6
73
3
74
0
42
0.000000001
43
0.0000000001
44
0.0000000001
40
0
40
0
40
0
40
1
40
1
40
1
10
-10.396162420483414
20
18.236698836088191
30
0
10
-10.304757505627457
20
18.377217084169398
30
0
10
-10.132861286373917
20
18.456344038248073
30
0
0
SPLINE
5
359
100
AcDbEntity
8
0
100
AcDbSpline
70
0
71
2
72
6
73
3
74
0
42
0.000000001
43
0.0000000001
44
0.0000000001
40
0
40
0
40
0
40
1
40
1
40
1
10
-10.132861286373917
20
18.456344038248073
30
0
10
-9.9623288213928376
20
18.534106642007838
30
0
10
-9.7481407224853669
20
18.534106642007838
30
0
0
SPLINE
5
360
100
AcDbEntity
8
0
100
AcDbSpline
70
0
71
2
72
6
73
3
74
0
42
0.000000001
43
0.0000000001
44
0.0000000001
40
0
40
0
40
0
40
1
40
1
40
1
10
-9.7481407224853669
20
18.534106642007838
30
0
10
-9.4766534864624177
20
18.534106642007838
30
0
10
-9.2924793064315949
20
18.454979687929164
30
0
0
SPLINE
5
361
100
AcDbEntity
8
0
100
AcDbSpline
70
0
71
2
72
6
73
3
74
0
42
0.000000001
43
0.0000000001
44
0.0000000001
40
0
40
0
40
0
40
1
40
1
40
1
10
-9.2924793064315949
20
18.454979687929164
30
0
10
-9.1096688806732331
20
18.375853031873714
30
0
10
-9.0046210586746369
20
18.217599123716365
30
0
0
SPLINE
5
362
100
AcDbEntity
8
0
100
AcDbSpline
70
0
71
2
72
6
73
3
74
0
42
0.000000001
43
0.0000000001
44
0.0000000001
40
0
40
0
40
0
40
1
40
1
40
1
10
-9.0046210586746369
20
18.217599123716365
30
0
10
-8.9009375869949494
20
18.057981163263332
30
0
10
-8.8954807817657606
20
17.857435375452052
30
0
0
LINE
5
363
100
AcDbEntity
8
0
100
AcDbLine
10
-12.276108413906874
20
17.798772484064113
30
0
11
-12.540774494381727
21
17.865620881319057
31
0
0
SPLINE
5
364
100
AcDbEntity
8
0
100
AcDbSpline
70
0
71
2
72
6
73
3
74
0
42
0.000000001
43
0.0000000001
44
0.0000000001
40
0
40
0
40
0
40
1
40
1
40
1
10
-12.540774494381727
20
17.865620881319057
30
0
10
-12.457554489346329
20
18.191678255796443
30
0
10
-12.240637689801041
20
18.363574773073207
30
0
0
SPLINE
5
365
100
AcDbEntity
8
0
100
AcDbSpline
70
0
71
2
72
6
73
3
74
0
42
0.000000001
43
0.0000000001
44
0.0000000001
40
0
40
0
40
0
40
1
40
1
40
1
10
-12.240637689801041
20
18.363574773073207
30
0
10
-12.025085240574661
20
18.534106642007838
30
0
10
-11.71267047521669
20
18.534106642007838
30
0
0
SPLINE
5
366
100
AcDbEntity
8
0
100
AcDbSpline
70
0
71
2
72
6
73
3
74
0
42
0.000000001
43
0.0000000001
44
0.0000000001
40
0
40
0
40
0
40
1
40
1
40
1
10
-11.71267047521669
20
18.534106642007838
30
0
10
-11.389341503353897
20
18.534106642007838
30
0
10
-11.186067610951248
20
18.40313795208932
30
0
0
SPLINE
5
367
100
AcDbEntity
8
0
100
AcDbSpline
70
0
71
2
72
6
73
3
74
0
42
0.000000001
43
0.0000000001
44
0.0000000001
40
0
40
0
40
0
40
1
40
1
40
1
10
-11.186067610951248
20
18.40313795208932
30
0
10
-10.98415747282106
20
18.270805209875117
30
0
10
-10.877745300503555
20
18.021146088838588
30
0
0
SPLINE
5
368
100
AcDbEntity
8
0
100
AcDbSpline
70
0
71
2
72
6
73
3
74
0
42
0.000000001
43
0.0000000001
44
0.0000000001
40
0
40
0
40
0
40
1
40
1
40
1
10
-10.877745300503555
20
18.021146088838588
30
0
10
-10.772698074551405
20
17.771487265825282
30
0
10
-10.772698074551405
20
17.484993368387233
30
0
0
SPLINE
5
369
100
AcDbEntity
8
0
100
AcDbSpline
70
0
71
2
72
6
73
3
74
0
42
0.000000001
43
0.0000000001
44
0.0000000001
40
0
40
0
40
0
40
1
40
1
40
1
10
-10.772698074551405
20
17.484993368387233
30
0
10
-10.772698074551405
20
17.172578752040874
30
0
10
-10.891388207646193
20
16.940655142068874
30
0
0
SPLINE
5
370
100
AcDbEntity
8
0
100
AcDbSpline
70
0
71
2
72
6
73
3
74
0
42
0.000000001
43
0.0000000001
44
0.0000000001
40
0
40
0
40
0
40
1
40
1
40
1
10
-10.891388207646193
20
16.940655142068874
30
0
10
-11.011442691059889
20
16.707367330789577
30
0
10
-11.231088191242995
20
16.587312698364268
30
0
0
SPLINE
5
371
100
AcDbEntity
8
0
100
AcDbSpline
70
0
71
2
72
6
73
3
74
0
42
0.000000001
43
0.0000000001
44
0.0000000001
40
0
40
0
40
0
40
1
40
1
40
1
10
-11.231088191242995
20
16.587312698364268
30
0
10
-11.452097445698561
20
16.465893864631663
30
0
10
-11.716763526173414
20
16.465893864631663
30
0
0
SPLINE
5
372
100
AcDbEntity
8
0
100
AcDbSpline
70
0
71
2
72
6
73
3
74
0
42
0.000000001
43
0.0000000001
44
0.0000000001
40
0
40
0
40
0
40
1
40
1
40
1
10
-11.716763526173414
20
16.465893864631663
30
0
10
-12.016899734707655
20
16.465893864631663
30
0
10
-12.221537977429213
20
16.618690669536601
30
0
0
SPLINE
5
373
100
AcDbEntity
8
0
100
AcDbSpline
70
0
71
2
72
6
73
3
74
0
42
0.000000001
43
0.0000000001
44
0.0000000001
40
0
40
0
40
0
40
1
40
1
40
1
10
-12.221537977429213
20
16.618690669536601
30
0
10
-12.426176816197218
20
16.771487325429927
30
0
10
-12.506667524548353
20
17.048431366682063
30
0
0
LINE
5
374
100
AcDbEntity
8
0
100
AcDbLine
10
-12.506667524548353
20
17.048431366682063
30
0
11
-12.246095091076674
21
17.10982295870782
31
0
0
SPLINE
5
375
100
AcDbEntity
8
0
100
AcDbSpline
70
0
71
2
72
6
73
3
74
0
42
0.000000001
43
0.0000000001
44
0.0000000001
40
0
40
0
40
0
40
1
40
1
40
1
10
-12.246095091076674
20
17.10982295870782
30
0
10
-12.176517993183912
20
16.891541957855235
30
0
10
-12.044184952946486
20
16.79195123910905
30
0
0
SPLINE
5
376
100
AcDbEntity
8
0
100
AcDbSpline
70
0
71
2
72
6
73
3
74
0
42
0.000000001
43
0.0000000001
44
0.0000000001
40
0
40
0
40
0
40
1
40
1
40
1
10
-12.044184952946486
20
16.79195123910905
30
0
10
-11.911851912709059
20
16.692360520362865
30
0
10
-11.71130612489778
20
16.692360520362865
30
0
0
SPLINE
5
377
100
AcDbEntity
8
0
100
AcDbSpline
70
0
71
2
72
6
73
3
74
0
42
0.000000001
43
0.0000000001
44
0.0000000001
40
0
40
0
40
0
40
1
40
1
40
1
10
-11.71130612489778
20
16.692360520362865
30
0
10
-11.4807470142563
20
16.692360520362865
30
0
10
-11.325221806736769
20
16.80286529660226
30
0
0
SPLINE
5
378
100
AcDbEntity
8
0
100
AcDbSpline
70
0
71
2
72
6
73
3
74
0
42
0.000000001
43
0.0000000001
44
0.0000000001
40
0
40
0
40
0
40
1
40
1
40
1
10
-11.325221806736769
20
16.80286529660226
30
0
10
-11.171060949536146
20
16.913370072841655
30
0
10
-11.108305007191481
20
17.100273102521907
30
0
0
SPLINE
5
379
100
AcDbEntity
8
0
100
AcDbSpline
70
0
71
2
72
6
73
3
74
0
42
0.000000001
43
0.0000000001
44
0.0000000001
40
0
40
0
40
0
40
1
40
1
40
1
10
-11.108305007191481
20
17.100273102521907
30
0
10
-11.045549064846815
20
17.285811930894862
30
0
10
-11.045549064846815
20
17.483629316091548
30
0
0
SPLINE
5
380
100
AcDbEntity
8
0
100
AcDbSpline
70
0
71
2
72
6
73
3
74
0
42
0.000000001
43
0.0000000001
44
0.0000000001
40
0
40
0
40
0
40
1
40
1
40
1
10
-11.045549064846815
20
17.483629316091548
30
0
10
-11.045549064846815
20
17.738745242357265
30
0
10
-11.119219213696303
20
17.929741173982631
30
0
0
SPLINE
5
381
100
AcDbEntity
8
0
100
AcDbSpline
70
0
71
2
72
6
73
3
74
0
42
0.000000001
43
0.0000000001
44
0.0000000001
40
0
40
0
40
0
40
1
40
1
40
1
10
-11.119219213696303
20
17.929741173982631
30
0
10
-11.194253116818253
20
18.119372755289088
30
0
10
-11.351142674656693
20
18.213506370782863
30
0
0
SPLINE
5
382
100
AcDbEntity
8
0
100
AcDbSpline
70
0
71
2
72
6
73
3
74
0
42
0.000000001
43
0.0000000001
44
0.0000000001
40
0
40
0
40
0
40
1
40
1
40
1
10
-11.351142674656693
20
18.213506370782863
30
0
10
-11.508032232495133
20
18.307639986276637
30
0
10
-11.690842658253494
20
18.307639986276637
30
0
0
SPLINE
5
383
100
AcDbEntity
8
0
100
AcDbSpline
70
0
71
2
72
6
73
3
74
0
42
0.000000001
43
0.0000000001
44
0.0000000001
40
0
40
0
40
0
40
1
40
1
40
1
10
-11.690842658253494
20
18.307639986276637
30
0
10
-11.913216263027969
20
18.307639986276637
30
0
10
-12.067377120228592
20
18.179399996995937
30
0
0
SPLINE
5
384
100
AcDbEntity
8
0
100
AcDbSpline
70
0
71
2
72
6
73
3
74
0
42
0.000000001
43
0.0000000001
44
0.0000000001
40
0
40
0
40
0
40
1
40
1
40
1
10
-12.067377120228592
20
18.179399996995937
30
0
10
-12.221537977429215
20
18.051160007715236
30
0
10
-12.276108413906874
20
17.798772484064113
30
0
0
LINE
5
385
100
AcDbEntity
8
0
100
AcDbLine
10
-13.544867187710587
20
17.972033053636562
30
0
11
-13.790433555813614
21
17.939291030168544
31
0
0
SPLINE
5
386
100
AcDbEntity
8
0
100
AcDbSpline
70
0
71
2
72
6
73
3
74
0
42
0.000000001
43
0.0000000001
44
0.0000000001
40
0
40
0
40
0
40
1
40
1
40
1
10
-13.790433555813614
20
17.939291030168544
30
0
10
-13.832725435467545
20
18.148022025823604
30
0
10
-13.933680206509415
20
18.240791589021693
30
0
0
SPLINE
5
387
100
AcDbEntity
8
0
100
AcDbSpline
70
0
71
2
72
6
73
3
74
0
42
0.000000001
43
0.0000000001
44
0.0000000001
40
0
40
0
40
0
40
1
40
1
40
1
10
-13.933680206509415
20
18.240791589021693
30
0
10
-14.035999923916641
20
18.332196801900874
30
0
10
-14.181974083157364
20
18.332196801900874
30
0
0
SPLINE
5
388
100
AcDbEntity
8
0
100
AcDbSpline
70
0
71
2
72
6
73
3
74
0
42
0.000000001
43
0.0000000001
44
0.0000000001
40
0
40
0
40
0
40
1
40
1
40
1
10
-14.181974083157364
20
18.332196801900874
30
0
10
-14.35523524877626
20
18.332196801900874
30
0
10
-14.473925977917496
20
18.212142020463954
30
0
0
SPLINE
5
389
100
AcDbEntity
8
0
100
AcDbSpline
70
0
71
2
72
6
73
3
74
0
42
0.000000001
43
0.0000000001
44
0.0000000001
40
0
40
0
40
0
40
1
40
1
40
1
10
-14.473925977917496
20
18.212142020463954
30
0
10
-14.593980461331192
20
18.092087537050258
30
0
10
-14.593980461331192
20
17.914734214544307
30
0
0
SPLINE
5
390
100
AcDbEntity
8
0
100
AcDbSpline
70
0
71
2
72
6
73
3
74
0
42
0.000000001
43
0.0000000001
44
0.0000000001
40
0
40
0
40
0
40
1
40
1
40
1
10
-14.593980461331192
20
17.914734214544307
30
0
10
-14.593980461331192
20
17.74556639790536
30
0
10
-14.483475834103409
20
17.636425822973262
30
0
0
SPLINE
5
391
100
AcDbEntity
8
0
100
AcDbSpline
70
0
71
2
72
6
73
3
74
0
42
0.000000001
43
0.0000000001
44
0.0000000001
40
0
40
0
40
0
40
1
40
1
40
1
10
-14.483475834103409
20
17.636425822973262
30
0
10
-14.372971206875626
20
17.525921195745479
30
0
10
-14.202438741894547
20
17.525921195745479
30
0
0
SPLINE
5
392
100
AcDbEntity
8
0
100
AcDbSpline
70
0
71
2
72
6
73
3
74
0
42
0.000000001
43
0.0000000001
44
0.0000000001
40
0
40
0
40
0
40
1
40
1
40
1
10
-14.202438741894547
20
17.525921195745479
30
0
10
-14.132862240048233
20
17.525921195745479
30
0
10
-14.029178768368546
20
17.553206115961085
30
0
0
LINE
5
393
100
AcDbEntity
8
0
100
AcDbLine
10
-14.029178768368546
20
17.553206115961085
30
0
11
-14.056463390560928
21
17.337653666734706
31
0
0
SPLINE
5
394
100
AcDbEntity
8
0
100
AcDbSpline
70
0
71
2
72
6
73
3
74
0
42
0.000000001
43
0.0000000001
44
0.0000000001
40
0
40
0
40
0
40
1
40
1
40
1
10
-14.056463390560928
20
17.337653666734706
30
0
10
-14.081020504208389
20
17.340382367372523
30
0
10
-14.096026569577042
20
17.340382367372523
30
0
0
SPLINE
5
395
100
AcDbEntity
8
0
100
AcDbSpline
70
0
71
2
72
6
73
3
74
0
42
0.000000001
43
0.0000000001
44
0.0000000001
40
0
40
0
40
0
40
1
40
1
40
1
10
-14.096026569577042
20
17.340382367372523
30
0
10
-14.252915531369034
20
17.340382367372523
30
0
10
-14.37842860815126
20
17.258526861667644
30
0
0
SPLINE
5
396
100
AcDbEntity
8
0
100
AcDbSpline
70
0
71
2
72
6
73
3
74
0
42
0.000000001
43
0.0000000001
44
0.0000000001
40
0
40
0
40
0
40
1
40
1
40
1
10
-14.37842860815126
20
17.258526861667644
30
0
10
-14.503939300747696
20
17.176671504974376
30
0
10
-14.503939300747696
20
17.006139487028133
30
0
0
SPLINE
5
397
100
AcDbEntity
8
0
100
AcDbSpline
70
0
71
2
72
6
73
3
74
0
42
0.000000001
43
0.0000000001
44
0.0000000001
40
0
40
0
40
0
40
1
40
1
40
1
10
-14.503939300747696
20
17.006139487028133
30
0
10
-14.503939300747694
20
16.871078044176112
30
0
10
-14.412534385891737
20
16.782401382923137
30
0
0
SPLINE
5
398
100
AcDbEntity
8
0
100
AcDbSpline
70
0
71
2
72
6
73
3
74
0
42
0.000000001
43
0.0000000001
44
0.0000000001
40
0
40
0
40
0
40
1
40
1
40
1
10
-14.412534385891737
20
16.782401382923137
30
0
10
-14.32112947103578
20
16.693724721670161
30
0
10
-14.176517873974623
20
16.693724721670161
30
0
0
SPLINE
5
399
100
AcDbEntity
8
0
100
AcDbSpline
70
0
71
2
72
6
73
3
74
0
42
0.000000001
43
0.0000000001
44
0.0000000001
40
0
40
0
40
0
40
1
40
1
40
1
10
-14.176517873974623
20
16.693724721670161
30
0
10
-14.033270031185927
20
16.693724721670161
30
0
10
-13.937772661419691
20
16.783765584230434
30
0
0
SPLINE
5
400
100
AcDbEntity
8
0
100
AcDbSpline
70
0
71
2
72
6
73
3
74
0
42
0.000000001
43
0.0000000001
44
0.0000000001
40
0
40
0
40
0
40
1
40
1
40
1
10
-13.937772661419691
20
16.783765584230434
30
0
10
-13.842275291653456
20
16.873806595802318
30
0
10
-13.814990669461075
20
17.053888469934474
30
0
0
LINE
5
401
100
AcDbEntity
8
0
100
AcDbLine
10
-13.814990669461075
20
17.053888469934474
30
0
11
-13.569424301358048
21
17.010232239961635
31
0
0
SPLINE
5
402
100
AcDbEntity
8
0
100
AcDbSpline
70
0
71
2
72
6
73
3
74
0
42
0.000000001
43
0.0000000001
44
0.0000000001
40
0
40
0
40
0
40
1
40
1
40
1
10
-13.569424301358048
20
17.010232239961635
30
0
10
-13.614444881649794
20
16.763301819562923
30
0
10
-13.774061351986708
20
16.628240376710902
30
0
0
SPLINE
5
403
100
AcDbEntity
8
0
100
AcDbSpline
70
0
71
2
72
6
73
3
74
0
42
0.000000001
43
0.0000000001
44
0.0000000001
40
0
40
0
40
0
40
1
40
1
40
1
10
-13.774061351986708
20
16.628240376710902
30
0
10
-13.933680206509413
20
16.491814732551585
30
0
10
-14.171061664791884
20
16.491814732551585
30
0
0
SPLINE
5
404
100
AcDbEntity
8
0
100
AcDbSpline
70
0
71
2
72
6
73
3
74
0
42
0.000000001
43
0.0000000001
44
0.0000000001
40
0
40
0
40
0
40
1
40
1
40
1
10
-14.171061664791884
20
16.491814732551585
30
0
10
-14.334771782131972
20
16.491814732551585
30
0
10
-14.472561031552138
20
16.562756031751643
30
0
0
SPLINE
5
405
100
AcDbEntity
8
0
100
AcDbSpline
70
0
71
2
72
6
73
3
74
0
42
0.000000001
43
0.0000000001
44
0.0000000001
40
0
40
0
40
0
40
1
40
1
40
1
10
-14.472561031552138
20
16.562756031751643
30
0
10
-14.610351473065199
20
16.632333129644405
30
0
10
-14.68265667554933
20
16.75375196337701
30
0
0
SPLINE
5
406
100
AcDbEntity
8
0
100
AcDbSpline
70
0
71
2
72
6
73
3
74
0
42
0.000000001
43
0.0000000001
44
0.0000000001
40
0
40
0
40
0
40
1
40
1
40
1
10
-14.68265667554933
20
16.75375196337701
30
0
10
-14.756326824398817
20
16.875170797109615
30
0
10
-14.756326824398819
20
17.011596441268932
30
0
0
SPLINE
5
407
100
AcDbEntity
8
0
100
AcDbSpline
70
0
71
2
72
6
73
3
74
0
42
0.000000001
43
0.0000000001
44
0.0000000001
40
0
40
0
40
0
40
1
40
1
40
1
10
-14.756326824398819
20
17.011596441268932
30
0
10
-14.756326824398819
20
17.141200780868541
30
0
10
-14.68674913045961
20
17.247612804174434
30
0
0
SPLINE
5
408
100
AcDbEntity
8
0
100
AcDbSpline
70
0
71
2
72
6
73
3
74
0
42
0.000000001
43
0.0000000001
44
0.0000000001
40
0
40
0
40
0
40
1
40
1
40
1
10
-14.68674913045961
20
17.247612804174434
30
0
10
-14.617172628613297
20
17.354024827480327
30
0
10
-14.480747133465592
20
17.41678062081338
30
0
0
SPLINE
5
409
100
AcDbEntity
8
0
100
AcDbSpline
70
0
71
2
72
6
73
3
74
0
42
0.000000001
43
0.0000000001
44
0.0000000001
40
0
40
0
40
0
40
1
40
1
40
1
10
-14.480747133465592
20
17.41678062081338
30
0
10
-14.658100753994766
20
17.457708299160014
30
0
10
-14.756326824398819
20
17.587312787771236
30
0
0
SPLINE
5
410
100
AcDbEntity
8
0
100
AcDbSpline
70
0
71
2
72
6
73
3
74
0
42
0.000000001
43
0.0000000001
44
0.0000000001
40
0
40
0
40
0
40
1
40
1
40
1
10
-14.756326824398819
20
17.587312787771236
30
0
10
-14.854552894802872
20
17.715552777051936
30
0
10
-14.854552894802872
20
17.909277111291896
30
0
0
SPLINE
5
411
100
AcDbEntity
8
0
100
AcDbSpline
70
0
71
2
72
6
73
3
74
0
42
0.000000001
43
0.0000000001
44
0.0000000001
40
0
40
0
40
0
40
1
40
1
40
1
10
-14.854552894802872
20
17.909277111291896
30
0
10
-14.854552894802872
20
18.171214491128932
30
0
10
-14.663558155270401
20
18.354024916887294
30
0
0
SPLINE
5
412
100
AcDbEntity
8
0
100
AcDbSpline
70
0
71
2
72
6
73
3
74
0
42
0.000000001
43
0.0000000001
44
0.0000000001
40
0
40
0
40
0
40
1
40
1
40
1
10
-14.663558155270401
20
18.354024916887294
30
0
10
-14.472561031552139
20
18.535470992326747
30
0
10
-14.180610328884903
20
18.535470992326747
30
0
0
SPLINE
5
413
100
AcDbEntity
8
0
100
AcDbSpline
70
0
71
2
72
6
73
3
74
0
42
0.000000001
43
0.0000000001
44
0.0000000001
40
0
40
0
40
0
40
1
40
1
40
1
10
-14.180610328884903
20
18.535470992326747
30
0
10
-13.917309194775406
20
18.535470992326747
30
0
10
-13.742684274884049
20
18.378581434488307
30
0
0
SPLINE
5
414
100
AcDbEntity
8
0
100
AcDbSpline
70
0
71
2
72
6
73
3
74
0
42
0.000000001
43
0.0000000001
44
0.0000000001
40
0
40
0
40
0
40
1
40
1
40
1
10
-13.742684274884049
20
18.378581434488307
30
0
10
-13.569424301358048
20
18.221691876649867
30
0
10
-13.544867187710587
20
17.972033053636562
30
0
0
SPLINE
5
415
100
AcDbEntity
8
0
100
AcDbSpline
70
0
71
2
72
6
73
3
74
0
42
0.000000001
43
0.0000000001
44
0.0000000001
40
0
40
0
40
0
40
1
40
1
40
1
10
21.190842019414333
20
35.225921195745492
30
0
10
21.190842019414333
20
34.727967602014566
30
0
10
20.92344783434811
20
34.446930658817315
30
0
0
SPLINE
5
416
100
AcDbEntity
8
0
100
AcDbSpline
70
0
71
2
72
6
73
3
74
0
42
0.000000001
43
0.0000000001
44
0.0000000001
40
0
40
0
40
0
40
1
40
1
40
1
10
20.92344783434811
20
34.446930658817315
30
0
10
20.656053649281887
20
34.16452966332438
30
0
10
20.233133958672909
20
34.16452966332438
30
0
0
SPLINE
5
417
100
AcDbEntity
8
0
100
AcDbSpline
70
0
71
2
72
6
73
3
74
0
42
0.000000001
43
0.0000000001
44
0.0000000001
40
0
40
0
40
0
40
1
40
1
40
1
10
20.233133958672909
20
34.16452966332438
30
0
10
19.956189917420772
20
34.16452966332438
30
0
10
19.733816312646297
20
34.296862554550195
30
0
0
SPLINE
5
418
100
AcDbEntity
8
0
100
AcDbSpline
70
0
71
2
72
6
73
3
74
0
42
0.000000001
43
0.0000000001
44
0.0000000001
40
0
40
0
40
0
40
1
40
1
40
1
10
19.733816312646297
20
34.296862554550195
30
0
10
19.511442409848598
20
34.42919544577601
30
0
10
19.395480679368404
20
34.666576009988809
30
0
0
SPLINE
5
419
100
AcDbEntity
8
0
100
AcDbSpline
70
0
71
2
72
6
73
3
74
0
42
0.000000001
43
0.0000000001
44
0.0000000001
40
0
40
0
40
0
40
1
40
1
40
1
10
19.395480679368404
20
34.666576009988809
30
0
10
19.278154300546078
20
34.902592372894311
30
0
10
19.278154300546074
20
35.202728730440164
30
0
0
SPLINE
5
420
100
AcDbEntity
8
0
100
AcDbSpline
70
0
71
2
72
6
73
3
74
0
42
0.000000001
43
0.0000000001
44
0.0000000001
40
0
40
0
40
0
40
1
40
1
40
1
10
19.278154300546074
20
35.202728730440164
30
0
10
19.278154300546074
20
35.506957989931131
30
0
10
19.400937484597588
20
35.747066956758523
30
0
0
SPLINE
5
421
100
AcDbEntity
8
0
100
AcDbSpline
70
0
71
2
72
6
73
3
74
0
42
0.000000001
43
0.0000000001
44
0.0000000001
40
0
40
0
40
0
40
1
40
1
40
1
10
19.400937484597588
20
35.747066956758523
30
0
10
19.523720668649101
20
35.98717622160914
30
0
10
19.748822974061394
20
36.111323457956338
30
0
0
SPLINE
5
422
100
AcDbEntity
8
0
100
AcDbSpline
70
0
71
2
72
6
73
3
74
0
42
0.000000001
43
0.0000000001
44
0.0000000001
40
0
40
0
40
0
40
1
40
1
40
1
10
19.748822974061394
20
36.111323457956338
30
0
10
19.973925279473686
20
36.234106642007852
30
0
10
20.234498308991817
20
36.234106642007852
30
0
0
SPLINE
5
423
100
AcDbEntity
8
0
100
AcDbSpline
70
0
71
2
72
6
73
3
74
0
42
0.000000001
43
0.0000000001
44
0.0000000001
40
0
40
0
40
0
40
1
40
1
40
1
10
20.234498308991817
20
36.234106642007852
30
0
10
20.516899453496364
20
36.234106642007852
30
0
10
20.73927305827084
20
36.097681146860147
30
0
0
SPLINE
5
424
100
AcDbEntity
8
0
100
AcDbSpline
70
0
71
2
72
6
73
3
74
0
42
0.000000001
43
0.0000000001
44
0.0000000001
40
0
40
0
40
0
40
1
40
1
40
1
10
20.73927305827084
20
36.097681146860147
30
0
10
20.961646961068539
20
35.961255353689218
30
0
10
21.076244639253048
20
35.725239139795328
30
0
0
SPLINE
5
425
100
AcDbEntity
8
0
100
AcDbSpline
70
0
71
2
72
6
73
3
74
0
42
0.000000001
43
0.0000000001
44
0.0000000001
40
0
40
0
40
0
40
1
40
1
40
1
10
21.076244639253048
20
35.725239139795328
30
0
10
21.190842019414333
20
35.489222627878213
30
0
10
21.190842019414333
20
35.225921195745492
30
0
0
SPLINE
5
426
100
AcDbEntity
8
0
100
AcDbSpline
70
0
71
2
72
6
73
3
74
0
42
0.000000001
43
0.0000000001
44
0.0000000001
40
0
40
0
40
0
40
1
40
1
40
1
10
20.917990731095699
20
35.230013948678994
30
0
10
20.917990731095699
20
35.591541749238992
30
0
10
20.724266396855739
20
35.800273042917276
30
0
0
SPLINE
5
427
100
AcDbEntity
8
0
100
AcDbSpline
70
0
71
2
72
6
73
3
74
0
42
0.000000001
43
0.0000000001
44
0.0000000001
40
0
40
0
40
0
40
1
40
1
40
1
10
20.724266396855739
20
35.800273042917276
30
0
10
20.529177712296871
20
36.007639986276651
30
0
10
20.235862659310726
20
36.007639986276651
30
0
0
SPLINE
5
428
100
AcDbEntity
8
0
100
AcDbSpline
70
0
71
2
72
6
73
3
74
0
42
0.000000001
43
0.0000000001
44
0.0000000001
40
0
40
0
40
0
40
1
40
1
40
1
10
20.235862659310726
20
36.007639986276651
30
0
10
19.937090205048943
20
36.007639986276651
30
0
10
19.744730221127892
20
35.797544640302682
30
0
0
SPLINE
5
429
100
AcDbEntity
8
0
100
AcDbSpline
70
0
71
2
72
6
73
3
74
0
42
0.000000001
43
0.0000000001
44
0.0000000001
40
0
40
0
40
0
40
1
40
1
40
1
10
19.744730221127892
20
35.797544640302682
30
0
10
19.551005886887932
20
35.58744899630549
30
0
10
19.551005886887932
20
35.201364380121255
30
0
0
SPLINE
5
430
100
AcDbEntity
8
0
100
AcDbSpline
70
0
71
2
72
6
73
3
74
0
42
0.000000001
43
0.0000000001
44
0.0000000001
40
0
40
0
40
0
40
1
40
1
40
1
10
19.551005886887932
20
35.201364380121255
30
0
10
19.551005886887936
20
34.95716266036036
30
0
10
19.634225295876888
20
34.775716584920907
30
0
0
SPLINE
5
431
100
AcDbEntity
8
0
100
AcDbSpline
70
0
71
2
72
6
73
3
74
0
42
0.000000001
43
0.0000000001
44
0.0000000001
40
0
40
0
40
0
40
1
40
1
40
1
10
19.634225295876888
20
34.775716584920907
30
0
10
19.71608095059338
20
34.592906159162546
30
0
10
19.875698911046413
20
34.49331544041636
30
0
0
SPLINE
5
432
100
AcDbEntity
8
0
100
AcDbSpline
70
0
71
2
72
6
73
3
74
0
42
0.000000001
43
0.0000000001
44
0.0000000001
40
0
40
0
40
0
40
1
40
1
40
1
10
19.875698911046413
20
34.49331544041636
30
0
10
20.033952521180538
20
34.392360520362878
30
0
10
20.231769608354
20
34.392360520362878
30
0
0
SPLINE
5
433
100
AcDbEntity
8
0
100
AcDbSpline
70
0
71
2
72
6
73
3
74
0
42
0.000000001
43
0.0000000001
44
0.0000000001
40
0
40
0
40
0
40
1
40
1
40
1
10
20.231769608354
20
34.392360520362878
30
0
10
20.512806700562862
20
34.392360520362878
30
0
10
20.716080890988735
20
34.586084854602838
30
0
0
SPLINE
5
434
100
AcDbEntity
8
0
100
AcDbSpline
70
0
71
2
72
6
73
3
74
0
42
0.000000001
43
0.0000000001
44
0.0000000001
40
0
40
0
40
0
40
1
40
1
40
1
10
20.716080890988735
20
34.586084854602838
30
0
10
20.917990731095699
20
34.778444987535501
30
0
10
20.917990731095699
20
35.230013948678994
30
0
0
LINE
5
435
100
AcDbEntity
8
0
100
AcDbLine
10
17.624675558900265
20
34.20000023841861
30
0
11
17.360010074471859
21
34.20000023841861
31
0
0
LINE
5
436
100
AcDbEntity
8
0
100
AcDbLine
10
17.360010074471859
20
34.20000023841861
30
0
11
17.360010074471859
21
35.355525535345109
31
0
0
SPLINE
5
437
100
AcDbEntity
8
0
100
AcDbSpline
70
0
71
2
72
6
73
3
74
0
42
0.000000001
43
0.0000000001
44
0.0000000001
40
0
40
0
40
0
40
1
40
1
40
1
10
17.360010074471859
20
35.355525535345109
30
0
10
17.360010074471859
20
35.657026094198258
30
0
10
17.428222822045708
20
35.834379416704209
30
0
0
SPLINE
5
438
100
AcDbEntity
8
0
100
AcDbSpline
70
0
71
2
72
6
73
3
74
0
42
0.000000001
43
0.0000000001
44
0.0000000001
40
0
40
0
40
0
40
1
40
1
40
1
10
17.428222822045708
20
35.834379416704209
30
0
10
17.49643556961956
20
36.01173273921016
30
0
10
17.675152944421196
20
36.123602014780076
30
0
0
SPLINE
5
439
100
AcDbEntity
8
0
100
AcDbSpline
70
0
71
2
72
6
73
3
74
0
42
0.000000001
43
0.0000000001
44
0.0000000001
40
0
40
0
40
0
40
1
40
1
40
1
10
17.675152944421196
20
36.123602014780076
30
0
10
17.852506564950371
20
36.234106642007859
30
0
10
18.14172856697979
20
36.234106642007859
30
0
0
SPLINE
5
440
100
AcDbEntity
8
0
100
AcDbSpline
70
0
71
2
72
6
73
3
74
0
42
0.000000001
43
0.0000000001
44
0.0000000001
40
0
40
0
40
0
40
1
40
1
40
1
10
18.14172856697979
20
36.234106642007859
30
0
10
18.422765659188652
20
36.234106642007859
30
0
10
18.601483332013512
20
36.137244325876267
30
0
0
SPLINE
5
441
100
AcDbEntity
8
0
100
AcDbSpline
70
0
71
2
72
6
73
3
74
0
42
0.000000001
43
0.0000000001
44
0.0000000001
40
0
40
0
40
0
40
1
40
1
40
1
10
18.601483332013512
20
36.137244325876267
30
0
10
18.780201004838371
20
36.040382307767899
30
0
10
18.856599258279228
20
35.857571882009537
30
0
0
SPLINE
5
442
100
AcDbEntity
8
0
100
AcDbSpline
70
0
71
2
72
6
73
3
74
0
42
0.000000001
43
0.0000000001
44
0.0000000001
40
0
40
0
40
0
40
1
40
1
40
1
10
18.856599258279228
20
35.857571882009537
30
0
10
18.932997511720085
20
35.673397403955491
30
0
10
18.932997511720085
20
35.355525535345109
30
0
0
LINE
5
443
100
AcDbEntity
8
0
100
AcDbLine
10
18.932997511720085
20
35.355525535345109
30
0
11
18.932997511720085
21
34.20000023841861
31
0
0
LINE
5
444
100
AcDbEntity
8
0
100
AcDbLine
10
18.932997511720089
20
34.200000238418603
30
0
11
18.668332027291683
21
34.200000238418603
31
0
0
LINE
5
445
100
AcDbEntity
8
0
100
AcDbLine
10
18.668332027291683
20
34.20000023841861
30
0
11
18.668332027291683
21
35.3541611850262
31
0
0
SPLINE
5
446
100
AcDbEntity
8
0
100
AcDbSpline
70
0
71
2
72
6
73
3
74
0
42
0.000000001
43
0.0000000001
44
0.0000000001
40
0
40
0
40
0
40
1
40
1
40
1
10
18.66833202729168
20
35.3541611850262
30
0
10
18.66833202729168
20
35.614734214544328
30
0
10
18.620583044385338
20
35.738881450891526
30
0
0
SPLINE
5
447
100
AcDbEntity
8
0
100
AcDbSpline
70
0
71
2
72
6
73
3
74
0
42
0.000000001
43
0.0000000001
44
0.0000000001
40
0
40
0
40
0
40
1
40
1
40
1
10
18.620583044385338
20
35.738881450891526
30
0
10
18.571469711160088
20
35.86166463494304
30
0
10
18.454143928384209
20
35.928513330221207
30
0
0
SPLINE
5
448
100
AcDbEntity
8
0
100
AcDbSpline
70
0
71
2
72
6
73
3
74
0
42
0.000000001
43
0.0000000001
44
0.0000000001
40
0
40
0
40
0
40
1
40
1
40
1
10
18.454143928384209
20
35.928513330221207
30
0
10
18.335453199242973
20
35.995361727476151
30
0
10
18.164921330308342
20
35.995361727476151
30
0
0
SPLINE
5
449
100
AcDbEntity
8
0
100
AcDbSpline
70
0
71
2
72
6
73
3
74
0
42
0.000000001
43
0.0000000001
44
0.0000000001
40
0
40
0
40
0
40
1
40
1
40
1
10
18.164921330308342
20
35.995361727476151
30
0
10
17.872970031594658
20
35.995361727476151
30
0
10
17.748823093270683
20
35.863028985261948
30
0
0
SPLINE
5
450
100
AcDbEntity
8
0
100
AcDbSpline
70
0
71
2
72
6
73
3
74
0
42
0.000000001
43
0.0000000001
44
0.0000000001
40
0
40
0
40
0
40
1
40
1
40
1
10
17.748823093270683
20
35.863028985261948
30
0
10
17.624675558900261
20
35.730695945024522
30
0
10
17.624675558900265
20
35.3541611850262
30
0
0
LINE
5
451
100
AcDbEntity
8
0
100
AcDbLine
10
17.624675558900265
20
35.3541611850262
30
0
11
17.624675558900265
21
34.20000023841861
31
0
0
LINE
5
452
100
AcDbEntity
8
0
100
AcDbLine
10
16.410487817620659
20
36.200000268220933
30
0
11
16.410487817620659
21
34.436016601324113
31
0
0
LINE
5
453
100
AcDbEntity
8
0
100
AcDbLine
10
16.410487817620663
20
34.436016601324113
30
0
11
17.069423126077083
21
34.436016601324113
31
0
0
LINE
5
454
100
AcDbEntity
8
0
100
AcDbLine
10
17.069423126077083
20
34.436016601324113
30
0
11
17.069423126077083
21
34.20000023841861
31
0
0
LINE
5
455
100
AcDbEntity
8
0
100
AcDbLine
10
17.069423126077083
20
34.20000023841861
30
0
11
15.484157728051571
21
34.20000023841861
31
0
0
LINE
5
456
100
AcDbEntity
8
0
100
AcDbLine
10
15.484157728051571
20
34.20000023841861
30
0
11
15.484157728051571
21
34.436016601324113
31
0
0
LINE
5
457
100
AcDbEntity
8
0
100
AcDbLine
10
15.484157728051571
20
34.436016601324113
30
0
11
16.145821737145809
21
34.436016601324113
31
0
0
LINE
5
458
100
AcDbEntity
8
0
100
AcDbLine
10
16.145821737145809
20
34.436016601324113
30
0
11
16.145821737145809
21
36.200000268220933
31
0
0
LINE
5
459
100
AcDbEntity
8
0
100
AcDbLine
10
16.145821737145805
20
36.200000268220933
30
0
11
16.410487817620659
21
36.200000268220933
31
0
0
ENDSEC
0
SECTION
2
OBJECTS
0
DICTIONARY
5
C
100
AcDbDictionary
3
ACAD_GROUP
350
D
3
ACAD_MLINESTYLE
350
17
0
DICTIONARY
5
D
100
AcDbDictionary
0
DICTIONARY
5
1A
330
C
100
AcDbDictionary
0
DICTIONARY
5
17
100
AcDbDictionary
0
ENDSEC
0
EOF
