0
SECTION
2
HEADER
9
$INSUNITS
70
4
9
$ACADVER
1
AC1014
9
$HANDSEED
5
FFFF
0
ENDSEC
0
SECTION
2
TABLES
0
TABLE
2
VPORT
5
8
100
AcDbSymbolTable
0
ENDTAB
0
TABLE
2
LTYPE
5
5
100
AcDbSymbolTable
0
LTYPE
5
14
100
AcDbSymbolTableRecord
100
AcDbLinetypeTableRecord
2
BYBLOCK
70
0
0
LTYPE
5
15
100
AcDbSymbolTableRecord
100
AcDbLinetypeTableRecord
2
BYLAYER
70
0
0
LTYPE
5
16
100
AcDbSymbolTableRecord
100
AcDbLinetypeTableRecord
2
DASHED
70
0
3
Dashed __ __ __ __ __ __ __ __ __ __ __ __ __ _
72
65
73
2
40
0.75
49
0.5
74
0
49
-0.25
74
0
0
ENDTAB
0
TABLE
2
LAYER
5
2
100
AcDbSymbolTable
70
3
0
LAYER
5
50
100
AcDbSymbolTableRecord
100
AcDbLayerTableRecord
2
1
70
0
62
7
6
DASHED
0
LAYER
5
51
100
AcDbSymbolTableRecord
100
AcDbLayerTableRecord
2
0
70
0
62
7
6
CONTINUOUS
0
ENDTAB
0
TABLE
2
STYLE
5
3
100
AcDbSymbolTable
70
1
0
STYLE
5
11
100
AcDbSymbolTableRecord
100
AcDbTextStyleTableRecord
2
STANDARD
70
0
0
ENDTAB
0
TABLE
2
VIEW
5
6
100
AcDbSymbolTable
70
0
0
ENDTAB
0
TABLE
2
UCS
5
7
100
AcDbSymbolTable
70
0
0
ENDTAB
0
TABLE
2
APPID
5
9
100
AcDbSymbolTable
70
2
0
APPID
5
12
100
AcDbSymbolTableRecord
100
AcDbRegAppTableRecord
2
ACAD
70
0
0
ENDTAB
0
TABLE
2
DIMSTYLE
5
A
100
AcDbSymbolTable
70
1
0
ENDTAB
0
TABLE
2
BLOCK_RECORD
5
1
100
AcDbSymbolTable
70
1
0
BLOCK_RECORD
5
1F
100
AcDbSymbolTableRecord
100
AcDbBlockTableRecord
2
*MODEL_SPACE
0
BLOCK_RECORD
5
1B
100
AcDbSymbolTableRecord
100
AcDbBlockTableRecord
2
*PAPER_SPACE
0
ENDTAB
0
ENDSEC
0
SECTION
2
BLOCKS
0
BLOCK
5
20
100
AcDbEntity
100
AcDbBlockBegin
2
*MODEL_SPACE
0
ENDBLK
5
21
100
AcDbEntity
100
AcDbBlockEnd
0
BLOCK
5
1C
100
AcDbEntity
100
AcDbBlockBegin
2
*PAPER_SPACE
0
ENDBLK
5
1D
100
AcDbEntity
100
AcDbBlockEnd
0
ENDSEC
0
SECTION
2
ENTITIES
0
SPLINE
5
100
100
AcDbEntity
8
0
100
AcDbSpline
70
4
71
5
72
21
73
15
74
0
42
0.000000001
43
0.0000000001
44
0.0000000001
40
-1
40
-1
40
-1
40
-1
40
-1
40
-1
40
-0.89999999999999991
40
-0.79999999999999993
40
-0.69999999999999996
40
-0.59999999999999998
40
-0.5
40
-0.40000000000000002
40
-0.30000000000000004
40
-0.20000000000000001
40
-0.10000000000000001
40
-0.092589830632407041
40
-0.092589830632407041
40
-0.092589830632407041
40
-0.092589830632407041
40
-0.092589830632407041
40
-0.092589830632407041
41
1
41
1
41
1
41
1
41
1
41
1
41
1
41
1
41
1
41
1
41
1
41
1
41
1
41
1
41
1
10
-263.88623823537506
20
149.48063119648313
30
0
10
-264.13432622915883
20
146.71244879936492
30
0
10
-264.59723175916736
20
141.14911545285321
30
0
10
-265.19177747163945
20
132.72320879556179
30
0
10
-265.78160623772749
20
121.32419970864781
30
0
10
-266.15849092571437
20
106.78330228715986
30
0
10
-266.14557598498038
20
91.926438917615471
30
0
10
-265.71541319709439
20
76.731360470656753
30
0
10
-264.86114298874264
20
61.192506675240288
30
0
10
-263.60772818518222
20
45.330112036905909
30
0
10
-262.28868821367018
20
32.163772927933763
30
0
10
-261.13595050598229
20
22.101514972674082
30
0
10
-260.28975710335573
20
15.257016343849772
30
0
10
-259.83348364008293
20
11.697860126193875
30
0
10
-259.80191971308295
20
11.452246264406922
30
0
0
ARC
5
101
100
AcDbEntity
8
0
100
AcDbCircle
10
-257.25
20
9.874999999999952
30
0
40
2.9999999999999649
210
0
220
0
230
1
100
AcDbArc
50
-133.42089685482961
51
148.28133725516076
0
SPLINE
5
102
100
AcDbEntity
8
0
100
AcDbSpline
70
4
71
5
72
12
73
6
74
0
42
0.000000001
43
0.0000000001
44
0.0000000001
40
-0.069963845749123468
40
-0.069963845749123468
40
-0.069963845749123468
40
-0.069963845749123468
40
-0.069963845749123468
40
-0.069963845749123468
40
0
40
0
40
0
40
0
40
0
40
0
41
1
41
1
41
1
41
1
41
1
41
1
10
-259.3120573818893
20
7.6960279134885266
30
0
10
-259.00418674731247
20
5.3690506863707057
30
0
10
-258.68872832171007
20
3.0359229054589196
30
0
10
-258.36574166480818
20
0.69669284900679584
30
0
10
-258.03525735024726
20
-1.6486147004342568
30
0
10
-257.69727506080534
20
-3.9999999999999858
30
0
0
LINE
5
103
100
AcDbEntity
8
0
100
AcDbLine
10
-257.69727506080534
20
-3.9999999999999867
30
0
11
-252.25
21
-3.9999999999999858
31
0
0
LINE
5
104
100
AcDbEntity
8
0
100
AcDbLine
10
-252.25
20
-3.9999999999999858
30
0
11
-252.25000000000006
21
255.49999999999994
31
0
0
LINE
5
105
100
AcDbEntity
8
0
100
AcDbLine
10
-252.25000000000006
20
255.49999999999994
30
0
11
-282.25000000000023
21
255.49999999999994
31
0
0
LINE
5
106
100
AcDbEntity
8
0
100
AcDbLine
10
-282.25000000000023
20
255.49999999999994
30
0
11
-282.25
21
-3.9999999999999858
31
0
0
LINE
5
107
100
AcDbEntity
8
0
100
AcDbLine
10
-282.25
20
-3.9999999999999858
30
0
11
-275.38330637604372
21
-3.9999999999999858
31
0
0
SPLINE
5
108
100
AcDbEntity
8
0
100
AcDbSpline
70
4
71
5
72
26
73
20
74
0
42
0.000000001
43
0.0000000001
44
0.0000000001
40
0
40
0
40
0
40
0
40
0
40
0
40
0.066666666666666666
40
0.13333333333333333
40
0.20000000000000001
40
0.26666666666666666
40
0.33333333333333331
40
0.39999999999999997
40
0.46666666666666662
40
0.53333333333333333
40
0.59999999999999998
40
0.66666666666666663
40
0.73333333333333328
40
0.79999999999999993
40
0.86666666666666659
40
0.93333333333333324
40
1
40
1
40
1
40
1
40
1
40
1
41
1
41
1
41
1
41
1
41
1
41
1
41
1
41
1
41
1
41
1
41
1
41
1
41
1
41
1
41
1
41
1
41
1
41
1
41
1
41
1
10
-275.38330637604372
20
-3.9999999999999858
30
0
10
-275.60785435480227
20
-1.6487466917998692
30
0
10
-276.03566418985048
20
3.2077787958356438
30
0
10
-276.61352099659928
20
10.954634486529617
30
0
10
-277.25534900231042
20
22.214535537906436
30
0
10
-277.83527361997722
20
37.854878214846117
30
0
10
-278.17870800250381
20
55.029834591625104
30
0
10
-278.26521258467466
20
73.622342780930282
30
0
10
-278.06832591318835
20
93.367714147614066
30
0
10
-277.55647218397007
20
113.83073575350166
30
0
10
-276.69484793772773
20
134.48395816159888
30
0
10
-275.44781234241219
20
154.75981588848026
30
0
10
-273.7824807686851
20
174.11270603683249
30
0
10
-271.67255020636571
20
192.07223005034396
30
0
10
-269.10515108220847
20
208.31779826382274
30
0
10
-266.08334444800641
20
222.70971785718299
30
0
10
-263.3098221069547
20
232.71069716709019
30
0
10
-261.03382155910185
20
239.36846769933686
30
0
10
-259.43006306954891
20
243.43498549231046
30
0
10
-258.60657789714787
20
245.37524829593571
30
0
0
SPLINE
5
109
100
AcDbEntity
8
0
100
AcDbSpline
70
4
71
5
72
26
73
20
74
0
42
0.000000001
43
0.0000000001
44
0.0000000001
40
-1
40
-1
40
-1
40
-1
40
-1
40
-1
40
-0.93333333333333324
40
-0.86666666666666659
40
-0.79999999999999993
40
-0.73333333333333328
40
-0.66666666666666663
40
-0.59999999999999998
40
-0.53333333333333333
40
-0.46666666666666662
40
-0.39999999999999997
40
-0.33333333333333331
40
-0.26666666666666666
40
-0.20000000000000001
40
-0.13333333333333333
40
-0.066666666666666666
40
0
40
0
40
0
40
0
40
0
40
0
41
1
41
1
41
1
41
1
41
1
41
1
41
1
41
1
41
1
41
1
41
1
41
1
41
1
41
1
41
1
41
1
41
1
41
1
41
1
41
1
10
-258.60657789714787
20
245.37524829593571
30
0
10
-259.36915811096009
20
241.3431123485696
30
0
10
-260.84429905543595
20
233.31955477516544
30
0
10
-262.90695383276915
20
221.40636032444354
30
0
10
-265.35484962856833
20
205.76816956369004
30
0
10
-267.89901485225329
20
186.64319932774643
30
0
10
-269.91475095439102
20
167.96036779161537
30
0
10
-271.39563965744571
20
149.74323005795804
30
0
10
-272.34925462917533
20
132.01631314485812
30
0
10
-272.80866363075421
20
114.80001440733687
30
0
10
-272.83935561484674
20
98.106428251595503
30
0
10
-272.52298692251566
20
81.942773915365379
30
0
10
-271.9460385609745
20
66.311891561070283
30
0
10
-271.18862138097325
20
51.212296198454233
30
0
10
-270.31281951757603
20
36.635556861582259
30
0
10
-269.35565380835919
20
22.56544260142531
30
0
10
-268.5405691187562
20
11.701256089119671
30
0
10
-267.90474274148761
20
3.7677573817489538
30
0
10
-267.47004937121238
20
-1.426532370617134
30
0
10
-267.25
20
-3.9999999999999858
30
0
0
LINE
5
110
100
AcDbEntity
8
0
100
AcDbLine
10
-267.25000000000006
20
-3.999999999999984
30
0
11
-263.74510985432806
21
-3.9999999999999858
31
0
0
SPLINE
5
111
100
AcDbEntity
8
0
100
AcDbSpline
70
4
71
5
72
21
73
15
74
0
42
0.000000001
43
0.0000000001
44
0.0000000001
40
0
40
0
40
0
40
0
40
0
40
0
40
0.10000000000000001
40
0.20000000000000001
40
0.30000000000000004
40
0.40000000000000002
40
0.5
40
0.59999999999999998
40
0.69999999999999996
40
0.79999999999999993
40
0.89999999999999991
40
1
40
1
40
1
40
1
40
1
40
1
41
1
41
1
41
1
41
1
41
1
41
1
41
1
41
1
41
1
41
1
41
1
41
1
41
1
41
1
41
1
10
-263.74510985432806
20
-3.9999999999999858
30
0
10
-264.21471426935148
20
-0.63146794660862615
30
0
10
-265.11409907219877
20
6.0800935071535021
30
0
10
-266.34371136414478
20
16.070932319819487
30
0
10
-267.74027175516221
20
29.236487051422948
30
0
10
-269.05280135648928
20
45.416034943234777
30
0
10
-269.89044239224518
20
61.291471996391607
30
0
10
-270.20946450439345
20
76.834794007769474
30
0
10
-269.97769083065469
20
92.02539544319518
30
0
10
-269.20438329630866
20
106.86920748753172
30
0
10
-267.92530853678221
20
121.38913450675481
30
0
10
-266.52802136486849
20
132.76555514046888
30
0
10
-265.28265701939353
20
141.17145955935544
30
0
10
-264.36609716377325
20
146.72011987583826
30
0
10
-263.88623823537506
20
149.48063119648313
30
0
0
CIRCLE
5
112
100
AcDbEntity
8
0
100
AcDbCircle
10
-259.75000000000006
20
161.62499999999997
30
0
40
3.0000000000000071
210
0
220
-0
230
1
0
CIRCLE
5
113
100
AcDbEntity
8
0
100
AcDbCircle
10
-259.75
20
129.875
30
0
40
3.0000000000000071
210
0
220
-0
230
1
0
CIRCLE
5
114
100
AcDbEntity
8
0
100
AcDbCircle
10
-259.75000000000006
20
206.12499999999997
30
0
40
3.0000000000000071
210
0
220
-0
230
1
0
CIRCLE
5
115
100
AcDbEntity
8
0
100
AcDbCircle
10
-259.75
20
145.75
30
0
40
3.0000000000000071
210
0
220
-0
230
1
0
CIRCLE
5
116
100
AcDbEntity
8
0
100
AcDbCircle
10
-272.25000000000006
20
241.49999999999994
30
0
40
3.0000000000000071
210
0
220
-0
230
1
0
CIRCLE
5
117
100
AcDbEntity
8
0
100
AcDbCircle
10
-259.75000000000006
20
190.24999999999994
30
0
40
3.0000000000000071
210
0
220
-0
230
1
0
CIRCLE
5
118
100
AcDbEntity
8
0
100
AcDbCircle
10
-259.75000000000006
20
174.37499999999997
30
0
40
3.0000000000000071
210
0
220
-0
230
1
0
CIRCLE
5
119
100
AcDbEntity
8
0
100
AcDbCircle
10
-259.75
20
72.625000000000014
30
0
40
3.0000000000000071
210
0
220
-0
230
1
0
CIRCLE
5
120
100
AcDbEntity
8
0
100
AcDbCircle
10
-259.75
20
56.750000000000007
30
0
40
3.0000000000000071
210
0
220
-0
230
1
0
CIRCLE
5
121
100
AcDbEntity
8
0
100
AcDbCircle
10
-259.75000000000006
20
218.87499999999994
30
0
40
3.0000000000000071
210
0
220
-0
230
1
0
CIRCLE
5
122
100
AcDbEntity
8
0
100
AcDbCircle
10
-257.25
20
25.75
30
0
40
3.0000000000000071
210
0
220
-0
230
1
0
CIRCLE
5
123
100
AcDbEntity
8
0
100
AcDbCircle
10
-259.75
20
117.12500000000003
30
0
40
3.0000000000000071
210
0
220
-0
230
1
0
CIRCLE
5
124
100
AcDbEntity
8
0
100
AcDbCircle
10
-259.75
20
85.375000000000014
30
0
40
3.0000000000000071
210
0
220
-0
230
1
0
CIRCLE
5
125
100
AcDbEntity
8
0
100
AcDbCircle
10
-259.75
20
101.25
30
0
40
3.0000000000000071
210
0
220
-0
230
1
0
LINE
5
126
100
AcDbEntity
8
0
100
AcDbLine
10
-282.25
20
-3.9999999999999858
30
0
11
-252.25
21
-3.9999999999999858
31
0
0
CIRCLE
5
127
100
AcDbEntity
8
0
100
AcDbCircle
10
-257.25
20
9.874999999999952
30
0
40
3.0000000001011924
210
0
220
0
230
1
0
ENDSEC
0
SECTION
2
OBJECTS
0
DICTIONARY
5
C
100
AcDbDictionary
3
ACAD_GROUP
350
D
3
ACAD_MLINESTYLE
350
17
0
DICTIONARY
5
D
100
AcDbDictionary
0
DICTIONARY
5
1A
330
C
100
AcDbDictionary
0
DICTIONARY
5
17
100
AcDbDictionary
0
ENDSEC
0
EOF
