0
SECTION
2
HEADER
9
$INSUNITS
70
4
9
$ACADVER
1
AC1014
9
$HANDSEED
5
FFFF
0
ENDSEC
0
SECTION
2
TABLES
0
TABLE
2
VPORT
5
8
100
AcDbSymbolTable
0
ENDTAB
0
TABLE
2
LTYPE
5
5
100
AcDbSymbolTable
0
LTYPE
5
14
100
AcDbSymbolTableRecord
100
AcDbLinetypeTableRecord
2
BYBLOCK
70
0
0
LTYPE
5
15
100
AcDbSymbolTableRecord
100
AcDbLinetypeTableRecord
2
BYLAYER
70
0
0
LTYPE
5
16
100
AcDbSymbolTableRecord
100
AcDbLinetypeTableRecord
2
DASHED
70
0
3
Dashed __ __ __ __ __ __ __ __ __ __ __ __ __ _
72
65
73
2
40
0.75
49
0.5
74
0
49
-0.25
74
0
0
ENDTAB
0
TABLE
2
LAYER
5
2
100
AcDbSymbolTable
70
3
0
LAYER
5
50
100
AcDbSymbolTableRecord
100
AcDbLayerTableRecord
2
1
70
0
62
7
6
DASHED
0
LAYER
5
51
100
AcDbSymbolTableRecord
100
AcDbLayerTableRecord
2
0
70
0
62
7
6
CONTINUOUS
0
ENDTAB
0
TABLE
2
STYLE
5
3
100
AcDbSymbolTable
70
1
0
STYLE
5
11
100
AcDbSymbolTableRecord
100
AcDbTextStyleTableRecord
2
STANDARD
70
0
0
ENDTAB
0
TABLE
2
VIEW
5
6
100
AcDbSymbolTable
70
0
0
ENDTAB
0
TABLE
2
UCS
5
7
100
AcDbSymbolTable
70
0
0
ENDTAB
0
TABLE
2
APPID
5
9
100
AcDbSymbolTable
70
2
0
APPID
5
12
100
AcDbSymbolTableRecord
100
AcDbRegAppTableRecord
2
ACAD
70
0
0
ENDTAB
0
TABLE
2
DIMSTYLE
5
A
100
AcDbSymbolTable
70
1
0
ENDTAB
0
TABLE
2
BLOCK_RECORD
5
1
100
AcDbSymbolTable
70
1
0
BLOCK_RECORD
5
1F
100
AcDbSymbolTableRecord
100
AcDbBlockTableRecord
2
*MODEL_SPACE
0
BLOCK_RECORD
5
1B
100
AcDbSymbolTableRecord
100
AcDbBlockTableRecord
2
*PAPER_SPACE
0
ENDTAB
0
ENDSEC
0
SECTION
2
BLOCKS
0
BLOCK
5
20
100
AcDbEntity
100
AcDbBlockBegin
2
*MODEL_SPACE
0
ENDBLK
5
21
100
AcDbEntity
100
AcDbBlockEnd
0
BLOCK
5
1C
100
AcDbEntity
100
AcDbBlockBegin
2
*PAPER_SPACE
0
ENDBLK
5
1D
100
AcDbEntity
100
AcDbBlockEnd
0
ENDSEC
0
SECTION
2
ENTITIES
0
SPLINE
5
100
100
AcDbEntity
8
0
100
AcDbSpline
70
4
71
5
72
21
73
15
74
0
42
0.000000001
43
0.0000000001
44
0.0000000001
40
-1
40
-1
40
-1
40
-1
40
-1
40
-1
40
-0.89999999999999991
40
-0.79999999999999993
40
-0.69999999999999996
40
-0.59999999999999998
40
-0.5
40
-0.40000000000000002
40
-0.30000000000000004
40
-0.20000000000000001
40
-0.10000000000000001
40
-0.092589830632407041
40
-0.092589830632407041
40
-0.092589830632407041
40
-0.092589830632407041
40
-0.092589830632407041
40
-0.092589830632407041
41
1
41
1
41
1
41
1
41
1
41
1
41
1
41
1
41
1
41
1
41
1
41
1
41
1
41
1
41
1
10
-18.363761764624975
20
149.48063119648313
30
0
10
-18.115673770841205
20
146.71244879936492
30
0
10
-17.652768240832657
20
141.14911545285321
30
0
10
-17.058222528360574
20
132.72320879556179
30
0
10
-16.468393762272555
20
121.32419970864781
30
0
10
-16.091509074285639
20
106.78330228715986
30
0
10
-16.104424015019632
20
91.926438917615471
30
0
10
-16.534586802905622
20
76.731360470656753
30
0
10
-17.38885701125735
20
61.192506675240288
30
0
10
-18.642271814817803
20
45.330112036905909
30
0
10
-19.961311786329876
20
32.163772927933763
30
0
10
-21.114049494017717
20
22.101514972674082
30
0
10
-21.96024289664426
20
15.257016343849772
30
0
10
-22.4165163599171
20
11.697860126193875
30
0
10
-22.448080286917037
20
11.452246264406922
30
0
0
SPLINE
5
101
100
AcDbEntity
8
0
100
AcDbSpline
70
4
71
5
72
21
73
15
74
0
42
0.000000001
43
0.0000000001
44
0.0000000001
40
0
40
0
40
0
40
0
40
0
40
0
40
0.10000000000000001
40
0.20000000000000001
40
0.30000000000000004
40
0.40000000000000002
40
0.5
40
0.59999999999999998
40
0.69999999999999996
40
0.79999999999999993
40
0.89999999999999991
40
1
40
1
40
1
40
1
40
1
40
1
41
1
41
1
41
1
41
1
41
1
41
1
41
1
41
1
41
1
41
1
41
1
41
1
41
1
41
1
41
1
10
-18.504890145671951
20
-3.9999999999999858
30
0
10
-18.03528573064856
20
-0.63146794660862615
30
0
10
-17.135900927801231
20
6.0800935071535021
30
0
10
-15.906288635855255
20
16.070932319819487
30
0
10
-14.50972824483781
20
29.236487051422948
30
0
10
-13.197198643510717
20
45.416034943234777
30
0
10
-12.359557607754859
20
61.291471996391607
30
0
10
-12.040535495606548
20
76.834794007769474
30
0
10
-12.272309169345306
20
92.02539544319518
30
0
10
-13.045616703691358
20
106.86920748753172
30
0
10
-14.324691463217825
20
121.38913450675481
30
0
10
-15.721978635131535
20
132.76555514046888
30
0
10
-16.96734298060651
20
141.17145955935544
30
0
10
-17.883902836226753
20
146.72011987583826
30
0
10
-18.363761764624975
20
149.48063119648313
30
0
0
LINE
5
102
100
AcDbEntity
8
0
100
AcDbLine
10
-18.504890145671951
20
-3.9999999999999858
30
0
11
-15
21
-3.9999999999999858
31
0
0
SPLINE
5
103
100
AcDbEntity
8
0
100
AcDbSpline
70
4
71
5
72
26
73
20
74
0
42
0.000000001
43
0.0000000001
44
0.0000000001
40
-1
40
-1
40
-1
40
-1
40
-1
40
-1
40
-0.93333333333333324
40
-0.86666666666666659
40
-0.79999999999999993
40
-0.73333333333333328
40
-0.66666666666666663
40
-0.59999999999999998
40
-0.53333333333333333
40
-0.46666666666666662
40
-0.39999999999999997
40
-0.33333333333333331
40
-0.26666666666666666
40
-0.20000000000000001
40
-0.13333333333333333
40
-0.066666666666666666
40
0
40
0
40
0
40
0
40
0
40
0
41
1
41
1
41
1
41
1
41
1
41
1
41
1
41
1
41
1
41
1
41
1
41
1
41
1
41
1
41
1
41
1
41
1
41
1
41
1
41
1
10
-23.643422102852121
20
245.37524829593571
30
0
10
-22.880841889039907
20
241.3431123485696
30
0
10
-21.405700944564074
20
233.31955477516544
30
0
10
-19.34304616723086
20
221.40636032444354
30
0
10
-16.895150371431704
20
205.76816956369004
30
0
10
-14.350985147746727
20
186.64319932774643
30
0
10
-12.335249045609018
20
167.96036779161537
30
0
10
-10.854360342554301
20
149.74323005795804
30
0
10
-9.9007453708247084
20
132.01631314485812
30
0
10
-9.4413363692457963
20
114.80001440733687
30
0
10
-9.4106443851532617
20
98.106428251595503
30
0
10
-9.7270130774843366
20
81.942773915365379
30
0
10
-10.303961439025535
20
66.311891561070283
30
0
10
-11.06137861902674
20
51.212296198454233
30
0
10
-11.937180482423955
20
36.635556861582259
30
0
10
-12.8943461916408
20
22.56544260142531
30
0
10
-13.709430881243811
20
11.701256089119671
30
0
10
-14.345257258512412
20
3.7677573817489538
30
0
10
-14.779950628787617
20
-1.426532370617134
30
0
10
-15
20
-3.9999999999999858
30
0
0
SPLINE
5
104
100
AcDbEntity
8
0
100
AcDbSpline
70
4
71
5
72
26
73
20
74
0
42
0.000000001
43
0.0000000001
44
0.0000000001
40
0
40
0
40
0
40
0
40
0
40
0
40
0.066666666666666666
40
0.13333333333333333
40
0.20000000000000001
40
0.26666666666666666
40
0.33333333333333331
40
0.39999999999999997
40
0.46666666666666662
40
0.53333333333333333
40
0.59999999999999998
40
0.66666666666666663
40
0.73333333333333328
40
0.79999999999999993
40
0.86666666666666659
40
0.93333333333333324
40
1
40
1
40
1
40
1
40
1
40
1
41
1
41
1
41
1
41
1
41
1
41
1
41
1
41
1
41
1
41
1
41
1
41
1
41
1
41
1
41
1
41
1
41
1
41
1
41
1
41
1
10
-6.8666936239562659
20
-3.9999999999999858
30
0
10
-6.6421456451977434
20
-1.6487466917998692
30
0
10
-6.2143358101495139
20
3.2077787958356438
30
0
10
-5.6364790034007584
20
10.954634486529617
30
0
10
-4.9946509976895825
20
22.214535537906436
30
0
10
-4.4147263800227776
20
37.854878214846117
30
0
10
-4.0712919974961892
20
55.029834591625104
30
0
10
-3.9847874153253571
20
73.622342780930282
30
0
10
-4.1816740868116398
20
93.367714147614066
30
0
10
-4.6935278160299276
20
113.83073575350166
30
0
10
-5.5551520622723061
20
134.48395816159888
30
0
10
-6.8021876575878437
20
154.75981588848026
30
0
10
-8.4675192313148884
20
174.11270603683249
30
0
10
-10.577449793634308
20
192.07223005034396
30
0
10
-13.144848917791556
20
208.31779826382274
30
0
10
-16.166655551993578
20
222.70971785718299
30
0
10
-18.940177893045345
20
232.71069716709019
30
0
10
-21.216178440898155
20
239.36846769933686
30
0
10
-22.819936930451092
20
243.43498549231046
30
0
10
-23.643422102852121
20
245.37524829593571
30
0
0
LINE
5
105
100
AcDbEntity
8
0
100
AcDbLine
10
-6.8666936239562659
20
-3.9999999999999858
30
0
11
0
21
-3.9999999999999858
31
0
0
LINE
5
106
100
AcDbEntity
8
0
100
AcDbLine
10
0
20
-3.9999999999999858
30
0
11
2.1316282072803006e-13
21
255.49999999999994
31
0
0
LINE
5
107
100
AcDbEntity
8
0
100
AcDbLine
10
2.1316282072803006e-13
20
255.49999999999994
30
0
11
-29.999999999999964
21
255.49999999999994
31
0
0
LINE
5
108
100
AcDbEntity
8
0
100
AcDbLine
10
-29.999999999999964
20
255.49999999999994
30
0
11
-30
21
-3.9999999999999858
31
0
0
LINE
5
109
100
AcDbEntity
8
0
100
AcDbLine
10
-30
20
-3.9999999999999858
30
0
11
-24.552724939194661
21
-3.9999999999999858
31
0
0
SPLINE
5
110
100
AcDbEntity
8
0
100
AcDbSpline
70
4
71
5
72
12
73
6
74
0
42
0.000000001
43
0.0000000001
44
0.0000000001
40
-0.069963845749123468
40
-0.069963845749123468
40
-0.069963845749123468
40
-0.069963845749123468
40
-0.069963845749123468
40
-0.069963845749123468
40
0
40
0
40
0
40
0
40
0
40
0
41
1
41
1
41
1
41
1
41
1
41
1
10
-22.937942618110725
20
7.6960279134885266
30
0
10
-23.24581325268754
20
5.3690506863707057
30
0
10
-23.56127167828998
20
3.0359229054589196
30
0
10
-23.884258335191909
20
0.69669284900679584
30
0
10
-24.214742649752733
20
-1.6486147004342568
30
0
10
-24.552724939194661
20
-3.9999999999999858
30
0
0
ARC
5
111
100
AcDbEntity
8
0
100
AcDbCircle
10
-25
20
9.875
30
0
40
3.0000000001011702
210
0
220
-0
230
1
100
AcDbArc
50
31.71866274483834
51
313.42089685482915
0
CIRCLE
5
112
100
AcDbEntity
8
0
100
AcDbCircle
10
-22.499999999999964
20
161.62499999999997
30
0
40
3.0000000000000071
210
0
220
0
230
1
0
CIRCLE
5
113
100
AcDbEntity
8
0
100
AcDbCircle
10
-22.5
20
129.875
30
0
40
3.0000000000000071
210
0
220
0
230
1
0
CIRCLE
5
114
100
AcDbEntity
8
0
100
AcDbCircle
10
-22.499999999999964
20
206.12499999999997
30
0
40
3.0000000000000071
210
0
220
0
230
1
0
CIRCLE
5
115
100
AcDbEntity
8
0
100
AcDbCircle
10
-22.5
20
145.75
30
0
40
3.0000000000000071
210
0
220
0
230
1
0
CIRCLE
5
116
100
AcDbEntity
8
0
100
AcDbCircle
10
-9.9999999999999645
20
241.49999999999994
30
0
40
3.0000000000000071
210
0
220
0
230
1
0
CIRCLE
5
117
100
AcDbEntity
8
0
100
AcDbCircle
10
-22.499999999999964
20
190.24999999999994
30
0
40
3.0000000000000071
210
0
220
0
230
1
0
CIRCLE
5
118
100
AcDbEntity
8
0
100
AcDbCircle
10
-22.499999999999964
20
174.37499999999997
30
0
40
3.0000000000000071
210
0
220
0
230
1
0
CIRCLE
5
119
100
AcDbEntity
8
0
100
AcDbCircle
10
-22.5
20
72.625000000000014
30
0
40
3.0000000000000071
210
0
220
0
230
1
0
CIRCLE
5
120
100
AcDbEntity
8
0
100
AcDbCircle
10
-22.5
20
56.750000000000007
30
0
40
3.0000000000000071
210
0
220
0
230
1
0
CIRCLE
5
121
100
AcDbEntity
8
0
100
AcDbCircle
10
-22.499999999999964
20
218.87499999999994
30
0
40
3.0000000000000071
210
0
220
0
230
1
0
CIRCLE
5
122
100
AcDbEntity
8
0
100
AcDbCircle
10
-25
20
25.75
30
0
40
3.0000000000000071
210
0
220
0
230
1
0
CIRCLE
5
123
100
AcDbEntity
8
0
100
AcDbCircle
10
-22.5
20
117.12500000000003
30
0
40
3.0000000000000071
210
0
220
0
230
1
0
CIRCLE
5
124
100
AcDbEntity
8
0
100
AcDbCircle
10
-22.5
20
85.375000000000014
30
0
40
3.0000000000000071
210
0
220
0
230
1
0
CIRCLE
5
125
100
AcDbEntity
8
0
100
AcDbCircle
10
-22.5
20
101.25
30
0
40
3.0000000000000071
210
0
220
0
230
1
0
LINE
5
126
100
AcDbEntity
8
0
100
AcDbLine
10
-30
20
-3.9999999999999858
30
0
11
0
21
-3.9999999999999858
31
0
0
ENDSEC
0
SECTION
2
OBJECTS
0
DICTIONARY
5
C
100
AcDbDictionary
3
ACAD_GROUP
350
D
3
ACAD_MLINESTYLE
350
17
0
DICTIONARY
5
D
100
AcDbDictionary
0
DICTIONARY
5
1A
330
C
100
AcDbDictionary
0
DICTIONARY
5
17
100
AcDbDictionary
0
ENDSEC
0
EOF
