0
SECTION
2
HEADER
9
$INSUNITS
70
4
9
$ACADVER
1
AC1014
9
$HANDSEED
5
FFFF
0
ENDSEC
0
SECTION
2
TABLES
0
TABLE
2
VPORT
5
8
100
AcDbSymbolTable
0
ENDTAB
0
TABLE
2
LTYPE
5
5
100
AcDbSymbolTable
0
LTYPE
5
14
100
AcDbSymbolTableRecord
100
AcDbLinetypeTableRecord
2
BYBLOCK
70
0
0
LTYPE
5
15
100
AcDbSymbolTableRecord
100
AcDbLinetypeTableRecord
2
BYLAYER
70
0
0
LTYPE
5
16
100
AcDbSymbolTableRecord
100
AcDbLinetypeTableRecord
2
DASHED
70
0
3
Dashed __ __ __ __ __ __ __ __ __ __ __ __ __ _
72
65
73
2
40
0.75
49
0.5
74
0
49
-0.25
74
0
0
ENDTAB
0
TABLE
2
LAYER
5
2
100
AcDbSymbolTable
70
3
0
LAYER
5
50
100
AcDbSymbolTableRecord
100
AcDbLayerTableRecord
2
1
70
0
62
7
6
DASHED
0
LAYER
5
51
100
AcDbSymbolTableRecord
100
AcDbLayerTableRecord
2
0
70
0
62
7
6
CONTINUOUS
0
ENDTAB
0
TABLE
2
STYLE
5
3
100
AcDbSymbolTable
70
1
0
STYLE
5
11
100
AcDbSymbolTableRecord
100
AcDbTextStyleTableRecord
2
STANDARD
70
0
0
ENDTAB
0
TABLE
2
VIEW
5
6
100
AcDbSymbolTable
70
0
0
ENDTAB
0
TABLE
2
UCS
5
7
100
AcDbSymbolTable
70
0
0
ENDTAB
0
TABLE
2
APPID
5
9
100
AcDbSymbolTable
70
2
0
APPID
5
12
100
AcDbSymbolTableRecord
100
AcDbRegAppTableRecord
2
ACAD
70
0
0
ENDTAB
0
TABLE
2
DIMSTYLE
5
A
100
AcDbSymbolTable
70
1
0
ENDTAB
0
TABLE
2
BLOCK_RECORD
5
1
100
AcDbSymbolTable
70
1
0
BLOCK_RECORD
5
1F
100
AcDbSymbolTableRecord
100
AcDbBlockTableRecord
2
*MODEL_SPACE
0
BLOCK_RECORD
5
1B
100
AcDbSymbolTableRecord
100
AcDbBlockTableRecord
2
*PAPER_SPACE
0
ENDTAB
0
ENDSEC
0
SECTION
2
BLOCKS
0
BLOCK
5
20
100
AcDbEntity
100
AcDbBlockBegin
2
*MODEL_SPACE
0
ENDBLK
5
21
100
AcDbEntity
100
AcDbBlockEnd
0
BLOCK
5
1C
100
AcDbEntity
100
AcDbBlockBegin
2
*PAPER_SPACE
0
ENDBLK
5
1D
100
AcDbEntity
100
AcDbBlockEnd
0
ENDSEC
0
SECTION
2
ENTITIES
0
SPLINE
5
100
100
AcDbEntity
8
0
100
AcDbSpline
70
4
71
5
72
21
73
15
74
0
42
0.000000001
43
0.0000000001
44
0.0000000001
40
0
40
0
40
0
40
0
40
0
40
0
40
0.10000000000000001
40
0.20000000000000001
40
0.30000000000000004
40
0.40000000000000002
40
0.5
40
0.59999999999999998
40
0.69999999999999996
40
0.79999999999999993
40
0.89999999999999991
40
1
40
1
40
1
40
1
40
1
40
1
41
1
41
1
41
1
41
1
41
1
41
1
41
1
41
1
41
1
41
1
41
1
41
1
41
1
41
1
41
1
10
156.78621460436185
20
9.4725323611643262
30
0
10
157.33870786353791
20
10.046527397676709
30
0
10
158.43035844583079
20
11.209288683632296
30
0
10
160.02782639596762
20
12.997744378874367
30
0
10
162.07645242104005
20
15.472436469394991
30
0
10
164.49270427301104
20
18.725887341042615
30
0
10
166.75238204347477
20
22.152763541496011
30
0
10
168.84405938734824
20
25.765721173391857
30
0
10
170.76402183801218
20
29.568874471867716
30
0
10
172.52170941102247
20
33.551767441960294
30
0
10
174.13051928849029
20
37.699561033069841
30
0
10
175.30879664972326
20
41.138272849438266
30
0
10
176.13529640392306
20
43.780672004082852
30
0
10
176.66128782731107
20
45.569971377530287
30
0
10
176.91803108615284
20
46.47154643580717
30
0
0
SPLINE
5
101
100
AcDbEntity
8
0
100
AcDbSpline
70
4
71
5
72
21
73
15
74
0
42
0.000000001
43
0.0000000001
44
0.0000000001
40
-1
40
-1
40
-1
40
-1
40
-1
40
-1
40
-0.89999999999999991
40
-0.79999999999999993
40
-0.69999999999999996
40
-0.59999999999999998
40
-0.5
40
-0.40000000000000002
40
-0.30000000000000004
40
-0.20000000000000001
40
-0.10000000000000001
40
0
40
0
40
0
40
0
40
0
40
0
41
1
41
1
41
1
41
1
41
1
41
1
41
1
41
1
41
1
41
1
41
1
41
1
41
1
41
1
41
1
10
176.91803108615284
20
46.47154643580717
30
0
10
176.75738782152538
20
45.53407415110599
30
0
10
176.42614381898579
20
43.675701900327759
30
0
10
175.89940738118764
20
40.93785717493671
30
0
10
175.13635125776207
20
37.38848916067009
30
0
10
174.0740661461123
20
33.132298415354128
30
0
10
172.89238394776618
20
29.074821390664773
30
0
10
171.57940151514867
20
25.235868609730296
30
0
10
170.12530387712292
20
21.631775223535055
30
0
10
168.52990672766077
20
18.262847974420236
30
0
10
166.80145876481356
20
15.115358474860788
30
0
10
165.3197913608723
20
12.761982132144974
30
0
10
164.1562595217024
20
11.083962123087609
30
0
10
163.3577082409607
20
10.003333873753057
30
0
10
162.95271695013565
20
9.4725323611643297
30
0
0
LINE
5
102
100
AcDbEntity
8
0
100
AcDbLine
10
162.95271695013565
20
9.4725323611643315
30
0
11
156.78621460436185
21
9.4725323611643262
31
0
0
SPLINE
5
103
100
AcDbEntity
8
0
100
AcDbSpline
70
4
71
5
72
21
73
15
74
0
42
0.000000001
43
0.0000000001
44
0.0000000001
40
0
40
0
40
0
40
0
40
0
40
0
40
0.10000000000000001
40
0.20000000000000001
40
0.30000000000000004
40
0.40000000000000002
40
0.5
40
0.59999999999999998
40
0.69999999999999996
40
0.79999999999999993
40
0.89999999999999991
40
1
40
1
40
1
40
1
40
1
40
1
41
1
41
1
41
1
41
1
41
1
41
1
41
1
41
1
41
1
41
1
41
1
41
1
41
1
41
1
41
1
10
168.57511614775308
20
9.4725323611643333
30
0
10
169.07725511961189
20
10.148130278729866
30
0
10
170.06138492743912
20
11.528582220094099
30
0
10
171.47713277413192
20
13.687032019073699
30
0
10
173.24193517788231
20
16.74336600202497
30
0
10
175.23026008204846
20
20.879863026155228
30
0
10
176.98508135639673
20
25.355419059870151
30
0
10
178.49331784426573
20
30.189028600274838
30
0
10
179.75809216208825
20
35.376157451310938
30
0
10
180.7977935004395
20
40.890103583752342
30
0
10
181.63370089874536
20
46.699968762556388
30
0
10
182.15466240017636
20
51.562422267996276
30
0
10
182.46787622393856
20
55.321806896569115
30
0
10
182.64280458172976
20
57.877260024803931
30
0
10
182.72179799982226
20
59.167286559459136
30
0
0
SPLINE
5
104
100
AcDbEntity
8
0
100
AcDbSpline
70
4
71
5
72
21
73
15
74
0
42
0.000000001
43
0.0000000001
44
0.0000000001
40
-1
40
-1
40
-1
40
-1
40
-1
40
-1
40
-0.89999999999999991
40
-0.79999999999999993
40
-0.69999999999999996
40
-0.59999999999999998
40
-0.5
40
-0.40000000000000002
40
-0.30000000000000004
40
-0.20000000000000001
40
-0.10000000000000001
40
0
40
0
40
0
40
0
40
0
40
0
41
1
41
1
41
1
41
1
41
1
41
1
41
1
41
1
41
1
41
1
41
1
41
1
41
1
41
1
41
1
10
182.72179799982226
20
59.167286559459136
30
0
10
182.79474304445904
20
58.056457323584176
30
0
10
182.92162568903794
20
55.8448257106715
30
0
10
183.05493048758063
20
52.557457197804247
30
0
10
183.11672835800053
20
48.235461145971911
30
0
10
182.98731905496626
20
42.941982153639131
30
0
10
182.63164815163819
20
37.76786129511747
30
0
10
182.02939661237934
20
32.723817323284607
30
0
10
181.16630598035522
20
27.817371898029151
30
0
10
180.04812781532846
20
23.045490940941601
30
0
10
178.69225511264483
20
18.39899925189718
30
0
10
177.4320498155376
20
14.77438990115637
30
0
10
176.39430919124194
20
12.104774449943429
30
0
10
175.66199813872598
20
10.346387029426227
30
0
10
175.28572164168324
20
9.4725323611643333
30
0
0
LINE
5
105
100
AcDbEntity
8
0
100
AcDbLine
10
175.28572164168324
20
9.4725323611643333
30
0
11
168.57511614775308
21
9.4725323611643333
31
0
0
SPLINE
5
106
100
AcDbEntity
8
0
100
AcDbSpline
70
4
71
5
72
21
73
15
74
0
42
0.000000001
43
0.0000000001
44
0.0000000001
40
-1
40
-1
40
-1
40
-1
40
-1
40
-1
40
-0.89999999999999991
40
-0.79999999999999993
40
-0.69999999999999996
40
-0.59999999999999998
40
-0.5
40
-0.40000000000000002
40
-0.30000000000000004
40
-0.20000000000000001
40
-0.10000000000000001
40
0
40
0
40
0
40
0
40
0
40
0
41
1
41
1
41
1
41
1
41
1
41
1
41
1
41
1
41
1
41
1
41
1
41
1
41
1
41
1
41
1
10
20.809103054378593
20
70.921930058357106
30
0
10
20.830864154745399
20
69.324331147224967
30
0
10
20.893747971122018
20
66.159514614166596
30
0
10
21.0461550374987
20
61.503428182140098
30
0
10
21.367468445570399
20
55.48063587056005
30
0
10
21.98034842524865
20
48.283610042672763
30
0
10
22.826700503908075
20
41.452937079732344
30
0
10
23.931767503890633
20
35.028226769484242
30
0
10
25.317995676843658
20
29.044700659320686
30
0
10
26.991541686455754
20
23.51201948125675
30
0
10
28.938480651981283
20
18.408333001464314
30
0
10
30.700431274271747
20
14.646117320185116
30
0
10
32.130149046898168
20
11.994323643946771
30
0
10
33.130636725502036
20
10.300748696561083
30
0
10
33.642715718976966
20
9.4725323611643333
30
0
0
LINE
5
107
100
AcDbEntity
8
0
100
AcDbLine
10
33.642715718976966
20
9.4725323611643333
30
0
11
25.766725242334374
21
9.4725323611643333
31
0
0
SPLINE
5
108
100
AcDbEntity
8
0
100
AcDbSpline
70
4
71
5
72
21
73
15
74
0
42
0.000000001
43
0.0000000001
44
0.0000000001
40
0
40
0
40
0
40
0
40
0
40
0
40
0.10000000000000001
40
0.20000000000000001
40
0.30000000000000004
40
0.40000000000000002
40
0.5
40
0.59999999999999998
40
0.69999999999999996
40
0.79999999999999993
40
0.89999999999999991
40
1
40
1
40
1
40
1
40
1
40
1
41
1
41
1
41
1
41
1
41
1
41
1
41
1
41
1
41
1
41
1
41
1
41
1
41
1
41
1
41
1
10
25.766725242334374
20
9.4725323611643333
30
0
10
25.365646047355316
20
10.414301334843488
30
0
10
24.591111214725526
20
12.324117211982626
30
0
10
23.512182857692856
20
15.267677880108558
30
0
10
22.2420584766991
20
19.352666644908052
30
0
10
20.952989372982476
20
24.742943922496675
30
0
10
19.984664085424988
20
30.438340608788486
30
0
10
19.355912958241113
20
36.456769764616595
30
0
10
19.064122374995311
20
42.795745090751787
30
0
10
19.084699937363244
20
49.431872159434072
30
0
10
19.38864522750071
20
56.337563251430382
30
0
10
19.837467914725902
20
62.057763941159777
30
0
10
20.282006460983759
20
66.450578803063237
30
0
10
20.625541074832881
20
69.423999561112495
30
0
10
20.809103054378593
20
70.921930058357106
30
0
0
SPLINE
5
109
100
AcDbEntity
8
0
100
AcDbSpline
70
4
71
5
72
21
73
15
74
0
42
0.000000001
43
0.0000000001
44
0.0000000001
40
-1
40
-1
40
-1
40
-1
40
-1
40
-1
40
-0.89999999999999991
40
-0.79999999999999993
40
-0.69999999999999996
40
-0.59999999999999998
40
-0.5
40
-0.40000000000000002
40
-0.30000000000000004
40
-0.20000000000000001
40
-0.10000000000000001
40
0
40
0
40
0
40
0
40
0
40
0
41
1
41
1
41
1
41
1
41
1
41
1
41
1
41
1
41
1
41
1
41
1
41
1
41
1
41
1
41
1
10
185.07957830850046
20
36.314954336885606
30
0
10
185.20823804299431
20
35.664294238992618
30
0
10
185.45634640804425
20
34.372459230601081
30
0
10
185.80087745585675
20
32.463160414227424
30
0
10
186.20406436360378
20
29.975288393458086
30
0
10
186.60765249574141
20
26.96883121517596
30
0
10
186.90055090464614
20
24.076357417701367
30
0
10
187.07137065055196
20
21.309594827445544
30
0
10
187.11040312102924
20
18.678540944051306
30
0
10
187.0164494071835
20
16.184430350867402
30
0
10
186.7968007222677
20
13.819754878995605
30
0
10
186.5274374983704
20
12.02444523469331
30
0
10
186.27588153551051
20
10.728970455008728
30
0
10
186.08651533300926
20
9.8876274053259507
30
0
10
185.98641688876137
20
9.4725323611643244
30
0
0
LINE
5
110
100
AcDbEntity
8
0
100
AcDbLine
10
185.98641688876137
20
9.4725323611643226
30
0
11
180.18264997509186
21
9.4725323611643333
31
0
0
SPLINE
5
111
100
AcDbEntity
8
0
100
AcDbSpline
70
4
71
5
72
21
73
15
74
0
42
0.000000001
43
0.0000000001
44
0.0000000001
40
0
40
0
40
0
40
0
40
0
40
0
40
0.10000000000000001
40
0.20000000000000001
40
0.30000000000000004
40
0.40000000000000002
40
0.5
40
0.59999999999999998
40
0.69999999999999996
40
0.79999999999999993
40
0.89999999999999991
40
1
40
1
40
1
40
1
40
1
40
1
41
1
41
1
41
1
41
1
41
1
41
1
41
1
41
1
41
1
41
1
41
1
41
1
41
1
41
1
41
1
10
180.18264997509186
20
9.4725323611643333
30
0
10
180.42294830661692
20
9.9201947504318877
30
0
10
180.89082359265859
20
10.823489262344781
30
0
10
181.55447200559732
20
12.202340471605787
30
0
10
182.36175512070005
20
14.089412243420403
30
0
10
183.23303998871779
20
16.534593310195341
30
0
10
183.95520907073893
20
19.073192963306276
30
0
10
184.51767517970342
20
21.711843901224537
30
0
10
184.91760754795791
20
24.452319553288099
30
0
10
185.16443348580935
20
27.288713864690351
30
0
10
185.27102974146362
20
30.212959764538741
30
0
10
185.25396296614278
20
32.616473178424613
30
0
10
185.18735297335272
20
34.452819262817968
30
0
10
185.11942384188811
20
35.691786425887315
30
0
10
185.07957830850046
20
36.314954336885606
30
0
0
ELLIPSE
5
112
100
AcDbEntity
8
0
100
AcDbEllipse
10
104
20
125.74999999999997
30
0
11
-2.9076089487357732e-15
21
109.74999999999996
31
0.0
40
0.7744874715261959
41
4.6704897043004046
42
7.2043433046442118
0
SPLINE
5
113
100
AcDbEntity
8
0
100
AcDbSpline
70
4
71
5
72
20
73
14
74
0
42
0.000000001
43
0.0000000001
44
0.0000000001
40
0.19266868450229774
40
0.19266868450229774
40
0.19266868450229774
40
0.19266868450229774
40
0.19266868450229774
40
0.19266868450229774
40
0.20000000000000001
40
0.30000000000000004
40
0.40000000000000002
40
0.5
40
0.59999999999999998
40
0.69999999999999996
40
0.79999999999999993
40
0.89999999999999991
40
1
40
1
40
1
40
1
40
1
40
1
41
1
41
1
41
1
41
1
41
1
41
1
41
1
41
1
41
1
41
1
41
1
41
1
41
1
41
1
10
188.92540006778381
20
121.15289979829259
30
0
10
188.91016293008056
20
121.29220202767527
30
0
10
188.68610283426534
20
123.32982734456306
30
0
10
188.22532771162469
20
127.21557899671564
30
0
10
187.45979686067102
20
132.82700560665256
30
0
10
186.27155198313048
20
139.9518201786143
30
0
10
184.50512072828988
20
148.14349831257138
30
0
10
182.40342276176625
20
155.73180420363218
30
0
10
179.95769713716362
20
162.70097096623698
30
0
10
177.18383072041033
20
169.07958984905773
30
0
10
174.71912237450837
20
173.74045657464023
30
0
10
172.74044858982779
20
177.00189193354376
30
0
10
171.36441879058748
20
179.07375538209158
30
0
10
170.66217593604364
20
180.08408136390582
30
0
0
SPLINE
5
114
100
AcDbEntity
8
0
100
AcDbSpline
70
4
71
5
72
20
73
14
74
0
42
0.000000001
43
0.0000000001
44
0.0000000001
40
0.19220685254447475
40
0.19220685254447475
40
0.19220685254447475
40
0.19220685254447475
40
0.19220685254447475
40
0.19220685254447475
40
0.20000000000000001
40
0.30000000000000004
40
0.40000000000000002
40
0.5
40
0.59999999999999998
40
0.69999999999999996
40
0.79999999999999993
40
0.89999999999999991
40
1
40
1
40
1
40
1
40
1
40
1
41
1
41
1
41
1
41
1
41
1
41
1
41
1
41
1
41
1
41
1
41
1
41
1
41
1
41
1
10
184.46969505973004
20
90.398442342047147
30
0
10
184.4747765347918
20
90.580840653713011
30
0
10
184.54318554172403
20
93.103181830048499
30
0
10
184.62491487946122
20
97.950725697207417
30
0
10
184.59883483244877
20
105.08776793606791
30
0
10
184.25760077659538
20
114.45319143269047
30
0
10
183.30870058440641
20
125.77987452165772
30
0
10
181.80298325933509
20
136.94242962175048
30
0
10
179.75787262148427
20
147.94599259603379
30
0
10
177.21218792599089
20
158.80200584793289
30
0
10
174.80707184581939
20
167.37817687249449
30
0
10
172.80895116797765
20
173.75303790258201
30
0
10
171.3919254382769
20
177.97790669880231
30
0
10
170.66217593604364
20
180.08408136390582
30
0
0
ELLIPSE
5
115
100
AcDbEntity
8
0
100
AcDbEllipse
10
104
20
125.74999999999997
30
0
11
-2.9076089487357732e-15
21
109.74999999999996
31
0.0
40
0.7744874715261959
41
4.1740970542073121
42
4.3844316890713975
0
SPLINE
5
116
100
AcDbEntity
8
0
100
AcDbSpline
70
4
71
5
72
20
73
14
74
0
42
0.000000001
43
0.0000000001
44
0.0000000001
40
0.19066903985746156
40
0.19066903985746156
40
0.19066903985746156
40
0.19066903985746156
40
0.19066903985746156
40
0.19066903985746156
40
0.20000000000000001
40
0.30000000000000004
40
0.40000000000000002
40
0.5
40
0.59999999999999998
40
0.69999999999999996
40
0.79999999999999993
40
0.89999999999999991
40
1
40
1
40
1
40
1
40
1
40
1
41
1
41
1
41
1
41
1
41
1
41
1
41
1
41
1
41
1
41
1
41
1
41
1
41
1
41
1
10
176.97977701823703
20
69.484444166419081
30
0
10
177.02082792187213
20
69.710902532411154
30
0
10
177.498342283944
20
72.364679975055822
30
0
10
178.33438057999942
20
77.453892686771127
30
0
10
179.3424878612436
20
84.997957058049536
30
0
10
180.20571014776917
20
95.029878929071231
30
0
10
180.45838121783942
20
107.36741703226053
30
0
10
179.88227769284603
20
119.79125915292838
30
0
10
178.51561186377472
20
132.29742607373257
30
0
10
176.42031745078711
20
144.87946835846901
30
0
10
174.21014090690034
20
155.00070385987311
30
0
10
172.27142574209881
20
162.62090089465931
30
0
10
170.85606746109033
20
167.71382845363081
30
0
10
170.11766664174564
20
170.26349141938675
30
0
0
SPLINE
5
117
100
AcDbEntity
8
0
100
AcDbSpline
70
4
71
5
72
20
73
14
74
0
42
0.000000001
43
0.0000000001
44
0.0000000001
40
0.16096863442302789
40
0.16096863442302789
40
0.16096863442302789
40
0.16096863442302789
40
0.16096863442302789
40
0.16096863442302789
40
0.20000000000000001
40
0.30000000000000004
40
0.40000000000000002
40
0.5
40
0.59999999999999998
40
0.69999999999999996
40
0.79999999999999993
40
0.89999999999999991
40
1
40
1
40
1
40
1
40
1
40
1
41
1
41
1
41
1
41
1
41
1
41
1
41
1
41
1
41
1
41
1
41
1
41
1
41
1
41
1
10
159.48258331199349
20
42.605022778341294
30
0
10
159.93956840936406
20
43.806290587744911
30
0
10
161.54156525317094
20
48.084280886447345
30
0
10
164.13639017495652
20
55.433236466009546
30
0
10
167.41458386921195
20
65.841450277024123
30
0
10
170.86702043253226
20
79.289661751130552
30
0
10
173.64044977945167
20
94.561612113333084
30
0
10
175.19330082201361
20
109.78738719408631
30
0
10
175.55841927462606
20
124.96822956839267
30
0
10
174.81914520019134
20
140.10729204572766
30
0
10
173.41347261833795
20
152.18773828789813
30
0
10
171.92984206458161
20
161.23182938808324
30
0
10
170.75301528358915
20
167.25412113660883
30
0
10
170.11766664174564
20
170.26349141938675
30
0
0
ELLIPSE
5
118
100
AcDbEntity
8
0
100
AcDbEllipse
10
104
20
125.74999999999997
30
0
11
-2.9076089487357732e-15
21
109.74999999999996
31
0.0
40
0.7744874715261959
41
3.8439481401325657
42
3.8527833325214207
0
SPLINE
5
119
100
AcDbEntity
8
0
100
AcDbSpline
70
4
71
5
72
19
73
13
74
0
42
0.000000001
43
0.0000000001
44
0.0000000001
40
0.28095307051438451
40
0.28095307051438451
40
0.28095307051438451
40
0.28095307051438451
40
0.28095307051438451
40
0.28095307051438451
40
0.30000000000000004
40
0.40000000000000002
40
0.5
40
0.59999999999999998
40
0.69999999999999996
40
0.79999999999999993
40
0.89999999999999991
40
1
40
1
40
1
40
1
40
1
40
1
41
1
41
1
41
1
41
1
41
1
41
1
41
1
41
1
41
1
41
1
41
1
41
1
41
1
10
158.91148528065278
20
41.975342366963048
30
0
10
158.86702757028377
20
42.098800037512056
30
0
10
158.58510772149461
20
42.868824777045035
30
0
10
158.01956627918983
20
44.267079485410996
30
0
10
157.066664810026
20
46.252353493250368
30
0
10
155.55531007560833
20
48.756679060448754
30
0
10
153.35603716712799
20
51.58750678909314
30
0
10
150.78347527161401
20
54.270043392397476
30
0
10
147.86886983491021
20
56.816701297421901
30
0
10
145.28748401366533
20
58.754832323552378
30
0
10
143.22014605885045
20
60.156271498777258
30
0
10
141.78452466679667
20
61.067763366879944
30
0
10
141.05236410638403
20
61.51780873752756
30
0
0
SPLINE
5
120
100
AcDbEntity
8
0
100
AcDbSpline
70
4
71
5
72
19
73
13
74
0
42
0.000000001
43
0.0000000001
44
0.0000000001
40
0.28522885212938026
40
0.28522885212938026
40
0.28522885212938026
40
0.28522885212938026
40
0.28522885212938026
40
0.28522885212938026
40
0.30000000000000004
40
0.40000000000000002
40
0.5
40
0.59999999999999998
40
0.69999999999999996
40
0.79999999999999993
40
0.89999999999999991
40
1
40
1
40
1
40
1
40
1
40
1
41
1
41
1
41
1
41
1
41
1
41
1
41
1
41
1
41
1
41
1
41
1
41
1
41
1
10
154.39214278248858
20
37.366806589860133
30
0
10
154.36569323147145
20
37.46502681154125
30
0
10
154.15789176275749
20
38.228321071011173
30
0
10
153.73562532031573
20
39.65853471062367
30
0
10
153.02265338272369
20
41.759916503523975
30
0
10
151.89304865197604
20
44.539484194498996
30
0
10
150.23813340431775
20
47.906548007944224
30
0
10
148.30907895384806
20
51.288889199608192
30
0
10
146.1299905412049
20
54.685164419553544
30
0
10
144.20469706407462
20
57.41232845789078
30
0
10
142.66510515300749
20
59.463030350358466
30
0
10
141.59691142928563
20
60.832494349163795
30
0
10
141.05236410638403
20
61.51780873752756
30
0
0
ELLIPSE
5
121
100
AcDbEntity
8
0
100
AcDbEllipse
10
104
20
125.74999999999997
30
0
11
-2.9076089487357732e-15
21
109.74999999999996
31
0.0
40
0.7744874715261959
41
3.6989711695435612
42
3.7761843343056571
0
SPLINE
5
122
100
AcDbEntity
8
0
100
AcDbSpline
70
4
71
5
72
20
73
14
74
0
42
0.000000001
43
0.0000000001
44
0.0000000001
40
0.18173827356942499
40
0.18173827356942499
40
0.18173827356942499
40
0.18173827356942499
40
0.18173827356942499
40
0.18173827356942499
40
0.20000000000000001
40
0.30000000000000004
40
0.40000000000000002
40
0.5
40
0.59999999999999998
40
0.69999999999999996
40
0.79999999999999993
40
0.89999999999999991
40
1
40
1
40
1
40
1
40
1
40
1
41
1
41
1
41
1
41
1
41
1
41
1
41
1
41
1
41
1
41
1
41
1
41
1
41
1
41
1
10
148.96188130798055
20
32.611244798507457
30
0
10
148.92734448430087
20
32.674295761127119
30
0
10
148.70371730414863
20
33.083411545468095
30
0
10
148.29136693389702
20
33.848092190921967
30
0
10
147.69111999745698
20
34.989725712037398
30
0
10
146.90435280016681
20
36.543922545878232
30
0
10
145.96716880311374
20
38.488166807065618
30
0
10
145.03334994849331
20
40.5194805507615
30
0
10
144.10268160287086
20
42.632310365404706
30
0
10
143.17488892005537
20
44.819544898373806
30
0
10
142.43474916488896
20
46.623522668065277
30
0
10
141.88074476352301
20
48.00497806424309
30
0
10
141.51188952124619
20
48.938394346823983
30
0
10
141.32758216419899
20
49.408214193669707
30
0
0
SPLINE
5
123
100
AcDbEntity
8
0
100
AcDbSpline
70
4
71
5
72
20
73
14
74
0
42
0.000000001
43
0.0000000001
44
0.0000000001
40
0.15215422825598834
40
0.15215422825598834
40
0.15215422825598834
40
0.15215422825598834
40
0.15215422825598834
40
0.15215422825598834
40
0.20000000000000001
40
0.30000000000000004
40
0.40000000000000002
40
0.5
40
0.59999999999999998
40
0.69999999999999996
40
0.79999999999999993
40
0.89999999999999991
40
1
40
1
40
1
40
1
40
1
40
1
41
1
41
1
41
1
41
1
41
1
41
1
41
1
41
1
41
1
41
1
41
1
41
1
41
1
41
1
10
145.87427891192792
20
30.241817286900101
30
0
10
145.77040917009293
20
30.426163701005699
30
0
10
145.45357391207077
20
30.998314195704427
30
0
10
144.94403059821616
20
31.970593461101657
30
0
10
144.28143702894039
20
33.367129403251433
30
0
10
143.5297950442434
20
35.22686090345357
30
0
10
142.8304994935238
20
37.388271917935697
30
0
10
142.27452660713311
20
39.6368808038211
30
0
10
141.85425594747949
20
41.968051267608708
30
0
10
141.55860533014544
20
44.375040880275336
30
0
10
141.41318942200604
20
46.356060830745456
30
0
10
141.35205357067773
20
47.870984141726822
30
0
10
141.33224728771035
20
48.893679627435418
30
0
10
141.32758216419899
20
49.408214193669707
30
0
0
ELLIPSE
5
124
100
AcDbEntity
8
0
100
AcDbEllipse
10
104
20
125.74999999999997
30
0
11
-2.9076089487357732e-15
21
109.74999999999996
31
0.0
40
0.7744874715261959
41
3.5955521799061905
42
3.6567118432537349
0
SPLINE
5
125
100
AcDbEntity
8
0
100
AcDbSpline
70
4
71
5
72
18
73
12
74
0
42
0.000000001
43
0.0000000001
44
0.0000000001
40
0.34432313298839051
40
0.34432313298839051
40
0.34432313298839051
40
0.34432313298839051
40
0.34432313298839051
40
0.34432313298839051
40
0.40000000000000002
40
0.5
40
0.59999999999999998
40
0.69999999999999996
40
0.79999999999999993
40
0.89999999999999991
40
1
40
1
40
1
40
1
40
1
40
1
41
1
41
1
41
1
41
1
41
1
41
1
41
1
41
1
41
1
41
1
41
1
41
1
10
141.27483402655338
20
27.115722454610136
30
0
10
141.11284525139166
20
27.363295053787414
30
0
10
140.66201606471247
20
28.064831706196877
30
0
10
139.93134286248096
20
29.260114963062716
30
0
10
138.93759709738129
20
31.023309098445473
30
0
10
137.70438968826082
20
33.458822877087407
30
0
10
136.39671652753839
20
36.33238133566956
30
0
10
135.13018531785517
20
39.387871735031062
30
0
10
134.14677422228613
20
41.964102615709713
30
0
10
133.42485068275641
20
43.965413631613032
30
0
10
132.95040280671913
20
45.329843433259065
30
0
10
132.71488759790762
20
46.019614427395659
30
0
0
SPLINE
5
126
100
AcDbEntity
8
0
100
AcDbSpline
70
4
71
5
72
19
73
13
74
0
42
0.000000001
43
0.0000000001
44
0.0000000001
40
0.29175306947420399
40
0.29175306947420399
40
0.29175306947420399
40
0.29175306947420399
40
0.29175306947420399
40
0.29175306947420399
40
0.30000000000000004
40
0.40000000000000002
40
0.5
40
0.59999999999999998
40
0.69999999999999996
40
0.79999999999999993
40
0.89999999999999991
40
1
40
1
40
1
40
1
40
1
40
1
41
1
41
1
41
1
41
1
41
1
41
1
41
1
41
1
41
1
41
1
41
1
41
1
41
1
10
137.23224051508674
20
24.735609547992894
30
0
10
137.21385643187295
20
24.777353224473941
30
0
10
136.97314940068009
20
25.325863447298673
30
0
10
136.52518790189504
20
26.396130507895368
30
0
10
135.90626198869887
20
28.024256153699575
30
0
10
135.17706966780796
20
30.270623435066856
30
0
10
134.42934176341731
20
33.166454827037484
30
0
10
133.81783706928866
20
36.197802579620976
30
0
10
133.33074755939833
20
39.352919937567926
30
0
10
133.03172229036764
20
41.967189807358466
30
0
10
132.85508580927208
20
43.975277519910485
30
0
10
132.75814983349471
20
45.334716298143086
30
0
10
132.71488759790762
20
46.019614427395659
30
0
0
ELLIPSE
5
127
100
AcDbEntity
8
0
100
AcDbEllipse
10
104
20
125.74999999999997
30
0
11
-2.9076089487357732e-15
21
109.74999999999996
31
0.0
40
0.7744874715261959
41
3.5067165285100899
42
3.5432752187301753
0
SPLINE
5
128
100
AcDbEntity
8
0
100
AcDbSpline
70
4
71
5
72
17
73
11
74
0
42
0.000000001
43
0.0000000001
44
0.0000000001
40
0.48032803127478696
40
0.48032803127478696
40
0.48032803127478696
40
0.48032803127478696
40
0.48032803127478696
40
0.48032803127478696
40
0.5
40
0.59999999999999998
40
0.69999999999999996
40
0.79999999999999993
40
0.89999999999999991
40
1
40
1
40
1
40
1
40
1
40
1
41
1
41
1
41
1
41
1
41
1
41
1
41
1
41
1
41
1
41
1
41
1
10
134.35052553077261
20
23.234770821677859
30
0
10
134.30026710657154
20
23.347084865014828
30
0
10
133.9963434536001
20
24.032556819394635
30
0
10
133.45872885177732
20
25.315626625417124
30
0
10
132.73007305932623
20
27.248479271068071
30
0
10
131.87114832998705
20
29.90547389608437
30
0
10
130.98068371796992
20
33.233603692397161
30
0
10
130.36506268747306
20
36.014488786330112
30
0
10
129.95417773541263
20
38.162347701999039
30
0
10
129.70247412594381
20
39.621441006353692
30
0
10
129.58217760445331
20
40.357784939487814
30
0
0
SPLINE
5
129
100
AcDbEntity
8
0
100
AcDbSpline
70
4
71
5
72
17
73
11
74
0
42
0.000000001
43
0.0000000001
44
0.0000000001
40
0.443541077146269
40
0.443541077146269
40
0.443541077146269
40
0.443541077146269
40
0.443541077146269
40
0.443541077146269
40
0.5
40
0.59999999999999998
40
0.69999999999999996
40
0.79999999999999993
40
0.89999999999999991
40
1
40
1
40
1
40
1
40
1
40
1
41
1
41
1
41
1
41
1
41
1
41
1
41
1
41
1
41
1
41
1
41
1
10
131.59497432609237
20
21.944571845711799
30
0
10
131.48286187669765
20
22.294683525892346
30
0
10
131.18283046025277
20
23.268430922103892
30
0
10
130.73975233657995
20
24.880631110892544
30
0
10
130.23601716766524
20
27.158489629332458
30
0
10
129.78316008989768
20
30.138836016649027
30
0
10
129.50519126243088
20
33.475487284390276
30
0
10
129.44280409774859
20
36.197637216261498
30
0
10
129.48026255828529
20
38.267069111470754
30
0
10
129.54206700746002
20
39.658852558698989
30
0
10
129.58217760445331
20
40.357784939487814
30
0
0
ELLIPSE
5
130
100
AcDbEntity
8
0
100
AcDbEllipse
10
104
20
125.74999999999997
30
0
11
-2.9076089487357732e-15
21
109.74999999999996
31
0.0
40
0.7744874715261959
41
3.4433848237699358
42
3.472230885510013
0
SPLINE
5
131
100
AcDbEntity
8
0
100
AcDbSpline
70
4
71
5
72
18
73
12
74
0
42
0.000000001
43
0.0000000001
44
0.0000000001
40
0.33066469755645284
40
0.33066469755645284
40
0.33066469755645284
40
0.33066469755645284
40
0.33066469755645284
40
0.33066469755645284
40
0.40000000000000002
40
0.5
40
0.59999999999999998
40
0.69999999999999996
40
0.79999999999999993
40
0.89999999999999991
40
1
40
1
40
1
40
1
40
1
40
1
41
1
41
1
41
1
41
1
41
1
41
1
41
1
41
1
41
1
41
1
41
1
41
1
10
129.26470782170412
20
20.960114736468263
30
0
10
128.96270280766501
20
21.484147944046089
30
0
10
128.2303201250534
20
22.786313859388745
30
0
10
127.08583310291515
20
24.945196060206701
30
0
10
125.56180952227221
20
28.100850731340927
30
0
10
123.70241360100303
20
32.44320397975364
30
0
10
121.80338084552866
20
37.421260880151323
30
0
10
119.97808770699217
20
42.716431476814371
30
0
10
118.57118195424573
20
47.181905727996664
30
0
10
117.54394534627714
20
50.651177689809252
30
0
10
116.87133593380281
20
53.016555656909262
30
0
10
116.53808515160617
20
54.212377894751725
30
0
0
SPLINE
5
132
100
AcDbEntity
8
0
100
AcDbSpline
70
4
71
5
72
19
73
13
74
0
42
0.000000001
43
0.0000000001
44
0.0000000001
40
0.25041603680280072
40
0.25041603680280072
40
0.25041603680280072
40
0.25041603680280072
40
0.25041603680280072
40
0.25041603680280072
40
0.30000000000000004
40
0.40000000000000002
40
0.5
40
0.59999999999999998
40
0.69999999999999996
40
0.79999999999999993
40
0.89999999999999991
40
1
40
1
40
1
40
1
40
1
40
1
41
1
41
1
41
1
41
1
41
1
41
1
41
1
41
1
41
1
41
1
41
1
41
1
41
1
10
123.62561072140355
20
18.965448333803888
30
0
10
123.44382710026885
20
19.387781901579729
30
0
10
122.90369854527805
20
20.666002954321094
30
0
10
122.04466934516307
20
22.819817936308041
30
0
10
120.94400394088376
20
25.887828314307413
30
0
10
119.7248183364473
20
29.931543086225936
30
0
10
118.6262329413417
20
34.557274256595598
30
0
10
117.77232621819459
20
39.305247373029971
30
0
10
117.14358986466846
20
44.165716049287937
30
0
10
116.80544020096954
20
48.136445088511081
30
0
10
116.6385787620062
20
51.157832742746365
30
0
10
116.56526201936413
20
53.191038192189367
30
0
10
116.53808515160617
20
54.212377894751725
30
0
0
ELLIPSE
5
133
100
AcDbEntity
8
0
100
AcDbEllipse
10
104
20
125.74999999999997
30
0
11
-2.9076089487357732e-15
21
109.74999999999996
31
0.0
40
0.7744874715261959
41
3.337234249341527
42
3.3745844781394032
0
SPLINE
5
134
100
AcDbEntity
8
0
100
AcDbSpline
70
4
71
5
72
19
73
13
74
0
42
0.000000001
43
0.0000000001
44
0.0000000001
40
0.29864014497537666
40
0.29864014497537666
40
0.29864014497537666
40
0.29864014497537666
40
0.29864014497537666
40
0.29864014497537666
40
0.30000000000000004
40
0.40000000000000002
40
0.5
40
0.59999999999999998
40
0.69999999999999996
40
0.79999999999999993
40
0.89999999999999991
40
1
40
1
40
1
40
1
40
1
40
1
41
1
41
1
41
1
41
1
41
1
41
1
41
1
41
1
41
1
41
1
41
1
41
1
41
1
10
120.52365413964226
20
18.093684523411003
30
0
10
120.518022187483
20
18.1072084002063
30
0
10
120.09829389087989
20
19.115680481184818
30
0
10
119.27364097717216
20
21.184183469619082
30
0
10
118.06709545598952
20
24.476152822432372
30
0
10
116.51621915849779
20
29.258127809880847
30
0
10
114.67176497832278
20
35.836763376038029
30
0
10
112.90652864841573
20
42.977529896634465
30
0
10
111.21181878438854
20
50.618753188633221
30
0
10
109.90676026937514
20
57.091566252949868
30
0
10
108.95446773122453
20
62.134229981730442
30
0
10
108.3311922550311
20
65.578221748291469
30
0
10
108.02245116185483
20
67.320772263752943
30
0
0
SPLINE
5
135
100
AcDbEntity
8
0
100
AcDbSpline
70
4
71
5
72
20
73
14
74
0
42
0.000000001
43
0.0000000001
44
0.0000000001
40
0.16538584445263696
40
0.16538584445263696
40
0.16538584445263696
40
0.16538584445263696
40
0.16538584445263696
40
0.16538584445263696
40
0.20000000000000001
40
0.30000000000000004
40
0.40000000000000002
40
0.5
40
0.59999999999999998
40
0.69999999999999996
40
0.79999999999999993
40
0.89999999999999991
40
1
40
1
40
1
40
1
40
1
40
1
41
1
41
1
41
1
41
1
41
1
41
1
41
1
41
1
41
1
41
1
41
1
41
1
41
1
41
1
10
116.41580013793416
20
17.177121749353443
30
0
10
116.2909527513559
20
17.491241623400523
30
0
10
115.80967331569612
20
18.720687222403242
30
0
10
114.9998824943499
20
20.916926334135443
30
0
10
113.91910904682112
20
24.186005077316999
30
0
10
112.66025667361313
20
28.699178263260919
30
0
10
111.42179848683537
20
34.278044613275952
30
0
10
110.38922943261481
20
40.236438413318325
30
0
10
109.54639729008508
20
46.544585332322853
30
0
10
108.87497802308749
20
53.168707605384554
30
0
10
108.46198350177731
20
58.6968415732347
30
0
10
108.21732252210438
20
62.962916863334762
30
0
10
108.08266616171113
20
65.85941237006702
30
0
10
108.02245116185483
20
67.320772263752943
30
0
0
ELLIPSE
5
136
100
AcDbEntity
8
0
100
AcDbEllipse
10
104
20
125.74999999999997
30
0
11
-2.9076089487357732e-15
21
109.74999999999996
31
0.0
40
0.7744874715261959
41
3.240988136567017
42
3.288185358727711
0
SPLINE
5
137
100
AcDbEntity
8
0
100
AcDbSpline
70
4
71
5
72
18
73
12
74
0
42
0.000000001
43
0.0000000001
44
0.0000000001
40
0.32882235564333018
40
0.32882235564333018
40
0.32882235564333018
40
0.32882235564333018
40
0.32882235564333018
40
0.32882235564333018
40
0.40000000000000002
40
0.5
40
0.59999999999999998
40
0.69999999999999996
40
0.79999999999999993
40
0.89999999999999991
40
1
40
1
40
1
40
1
40
1
40
1
41
1
41
1
41
1
41
1
41
1
41
1
41
1
41
1
41
1
41
1
41
1
41
1
10
112.43471162632846
20
16.541689292292205
30
0
10
112.20606649663659
20
17.202345773062785
30
0
10
111.66501616971856
20
18.811508492515021
30
0
10
110.84194653735284
20
21.439153205871197
30
0
10
109.79100953682106
20
25.209986561073102
30
0
10
108.58648664925877
20
30.295071588972469
30
0
10
107.44500207878548
20
36.006068785684533
30
0
10
106.42715914032945
20
42.00180064292131
30
0
10
105.70247562626166
20
47.004705117379125
30
0
10
105.20594405748619
20
50.865076303445079
30
0
10
104.89546001528402
20
53.485951817360629
30
0
10
104.74535256960452
20
54.808214002433608
30
0
0
SPLINE
5
138
100
AcDbEntity
8
0
100
AcDbSpline
70
4
71
5
72
20
73
14
74
0
42
0.000000001
43
0.0000000001
44
0.0000000001
40
0.18178056049711744
40
0.18178056049711744
40
0.18178056049711744
40
0.18178056049711744
40
0.18178056049711744
40
0.18178056049711744
40
0.20000000000000001
40
0.30000000000000004
40
0.40000000000000002
40
0.5
40
0.59999999999999998
40
0.69999999999999996
40
0.79999999999999993
40
0.89999999999999991
40
1
40
1
40
1
40
1
40
1
40
1
41
1
41
1
41
1
41
1
41
1
41
1
41
1
41
1
41
1
41
1
41
1
41
1
41
1
41
1
10
108.59780615173074
20
16.160677854367236
30
0
10
108.54449920420922
20
16.335073141081637
30
0
10
108.20090833249778
20
17.466516854604098
30
0
10
107.59433706871498
20
19.553286236597934
30
0
10
106.78648893156097
20
22.591488008683886
30
0
10
105.88141117265424
20
26.574557149548227
30
0
10
105.05509350912905
20
31.320357514495051
30
0
10
104.49764087268335
20
36.049193427163232
30
0
10
104.20113180426313
20
40.761564704182966
30
0
10
104.14698343509431
20
45.458643860223589
30
0
10
104.28221391464491
20
49.205041350318048
30
0
10
104.47777006215064
20
52.008899983343973
30
0
10
104.64929867949357
20
53.875542154045903
30
0
10
104.74535256960452
20
54.808214002433608
30
0
0
ELLIPSE
5
139
100
AcDbEntity
8
0
100
AcDbEllipse
10
104
20
125.74999999999997
30
0
11
-2.9076089487357732e-15
21
109.74999999999996
31
0.0
40
0.7744874715261959
41
3.1481335492043843
42
3.1957109035871514
0
SPLINE
5
140
100
AcDbEntity
8
0
100
AcDbSpline
70
4
71
5
72
18
73
12
74
0
42
0.000000001
43
0.0000000001
44
0.0000000001
40
0.30549620970652097
40
0.30549620970652097
40
0.30549620970652097
40
0.30549620970652097
40
0.30549620970652097
40
0.30549620970652097
40
0.40000000000000002
40
0.5
40
0.59999999999999998
40
0.69999999999999996
40
0.79999999999999993
40
0.89999999999999991
40
1
40
1
40
1
40
1
40
1
40
1
41
1
41
1
41
1
41
1
41
1
41
1
41
1
41
1
41
1
41
1
41
1
41
1
10
104.55597216283179
20
16.002347726064517
30
0
10
104.22542155567783
20
16.860202472524595
30
0
10
103.55559145884298
20
18.680059035188489
30
0
10
102.57448289796811
20
21.606666108223045
30
0
10
101.32831557341397
20
25.87895212799895
30
0
10
99.874295632000837
20
31.792638942720796
30
0
10
98.504242688306078
20
38.289655547106705
30
0
10
97.223290394307583
20
45.247269661997734
30
0
10
96.262578216460483
20
51.144459692607747
30
0
10
95.575513758459124
20
55.740370585444367
30
0
10
95.132103575828552
20
58.879954022576079
30
0
10
94.914056792853629
20
60.468657025411403
30
0
0
SPLINE
5
141
100
AcDbEntity
8
0
100
AcDbSpline
70
4
71
5
72
19
73
13
74
0
42
0.000000001
43
0.0000000001
44
0.0000000001
40
0.22496044677144347
40
0.22496044677144347
40
0.22496044677144347
40
0.22496044677144347
40
0.22496044677144347
40
0.22496044677144347
40
0.30000000000000004
40
0.40000000000000002
40
0.5
40
0.59999999999999998
40
0.69999999999999996
40
0.79999999999999993
40
0.89999999999999991
40
1
40
1
40
1
40
1
40
1
40
1
41
1
41
1
41
1
41
1
41
1
41
1
41
1
41
1
41
1
41
1
41
1
41
1
41
1
10
99.645994891749723
20
16.144078677210754
30
0
10
99.484033589956653
20
16.831237553090943
30
0
10
99.114054028017762
20
18.453145494138262
30
0
10
98.561829862052548
20
21.072519919435955
30
0
10
97.873685254948498
20
24.802085695204301
30
0
10
97.119598887662889
20
29.812128412372331
30
0
10
96.455700197803878
20
35.401297981110041
30
0
10
95.911575065623282
20
41.281923615784784
30
0
10
95.475751957398842
20
47.426090573374047
30
0
10
95.205563885624741
20
52.532373451152949
30
0
10
95.044071249796616
20
56.462215857504148
30
0
10
94.954396861352478
20
59.125881121710158
30
0
10
94.914056792853629
20
60.468657025411403
30
0
0
ELLIPSE
5
142
100
AcDbEntity
8
0
100
AcDbEllipse
10
104
20
125.74999999999997
30
0
11
-2.9076089487357732e-15
21
109.74999999999996
31
0.0
40
0.7744874715261959
41
3.0447249292954428
42
3.0903466370356369
0
SPLINE
5
143
100
AcDbEntity
8
0
100
AcDbSpline
70
4
71
5
72
18
73
12
74
0
42
0.000000001
43
0.0000000001
44
0.0000000001
40
0.33726901989382635
40
0.33726901989382635
40
0.33726901989382635
40
0.33726901989382635
40
0.33726901989382635
40
0.33726901989382635
40
0.40000000000000002
40
0.5
40
0.59999999999999998
40
0.69999999999999996
40
0.79999999999999993
40
0.89999999999999991
40
1
40
1
40
1
40
1
40
1
40
1
41
1
41
1
41
1
41
1
41
1
41
1
41
1
41
1
41
1
41
1
41
1
41
1
10
95.779114106516161
20
16.514509153675082
30
0
10
95.569999230992906
20
16.983136352550328
30
0
10
95.036639144053311
20
18.223705117869031
30
0
10
94.213914106129437
20
20.331583297048912
30
0
10
93.164400064701084
20
23.477862887052389
30
0
10
91.971303540230622
20
27.890042956154968
30
0
10
90.839839650399711
20
33.08883378448445
30
0
10
89.849249830858312
20
38.672795385006872
30
0
10
89.158227728152198
20
43.417343459094717
30
0
10
88.693017752638042
20
47.12081919644335
30
0
10
88.406073020866984
20
49.65322230830013
30
0
10
88.268399693451428
20
50.935279302501435
30
0
0
SPLINE
5
144
100
AcDbEntity
8
0
100
AcDbSpline
70
4
71
5
72
19
73
13
74
0
42
0.000000001
43
0.0000000001
44
0.0000000001
40
0.21767672187493531
40
0.21767672187493531
40
0.21767672187493531
40
0.21767672187493531
40
0.21767672187493531
40
0.21767672187493531
40
0.30000000000000004
40
0.40000000000000002
40
0.5
40
0.59999999999999998
40
0.69999999999999996
40
0.79999999999999993
40
0.89999999999999991
40
1
40
1
40
1
40
1
40
1
40
1
41
1
41
1
41
1
41
1
41
1
41
1
41
1
41
1
41
1
41
1
41
1
41
1
41
1
10
90.803999196712923
20
17.330644750093391
30
0
10
90.615123248507388
20
18.071019616797027
30
0
10
90.210828747639184
20
19.707318327162049
30
0
10
89.633942816336258
20
22.229068330266408
30
0
10
88.961510429800015
20
25.617429755852832
30
0
10
88.314664101118751
20
29.842781972266742
30
0
10
87.875221162898583
20
34.166476161784161
30
0
10
87.661751754747456
20
38.434912860730073
30
0
10
87.658831987664286
20
42.651863685177489
30
0
10
87.811952137211634
20
45.987410571956737
30
0
10
88.008799969848326
20
48.469017322630123
30
0
10
88.175890091047378
20
50.114653380330623
30
0
10
88.268399693451428
20
50.935279302501435
30
0
0
ELLIPSE
5
145
100
AcDbEntity
8
0
100
AcDbEllipse
10
104
20
125.74999999999997
30
0
11
-2.9076089487357732e-15
21
109.74999999999996
31
0.0
40
0.7744874715261959
41
2.9802486496519727
42
2.9857151045829706
0
SPLINE
5
146
100
AcDbEntity
8
0
100
AcDbSpline
70
4
71
5
72
18
73
12
74
0
42
0.000000001
43
0.0000000001
44
0.0000000001
40
0.36334556993136613
40
0.36334556993136613
40
0.36334556993136613
40
0.36334556993136613
40
0.36334556993136613
40
0.36334556993136613
40
0.40000000000000002
40
0.5
40
0.59999999999999998
40
0.69999999999999996
40
0.79999999999999993
40
0.89999999999999991
40
1
40
1
40
1
40
1
40
1
40
1
41
1
41
1
41
1
41
1
41
1
41
1
41
1
41
1
41
1
41
1
41
1
41
1
10
90.345183527255287
20
17.425403641251766
30
0
10
90.225485592476744
20
17.683586886734894
30
0
10
89.783352057196666
20
18.655095144881226
30
0
10
89.044400404961294
20
20.395570840543375
30
0
10
88.059741270324167
20
23.016028767095456
30
0
10
86.902860493790101
20
26.676083757581086
30
0
10
85.728366751302133
20
31.193380400649819
30
0
10
84.689201787303602
20
36.004617757177144
30
0
10
83.955738830187997
20
40.066183918842896
30
0
10
83.456921826389078
20
43.223741668429355
30
0
10
83.146794011015885
20
45.377470669032071
30
0
10
82.997334639216149
20
46.466508494887393
30
0
0
SPLINE
5
147
100
AcDbEntity
8
0
100
AcDbSpline
70
4
71
5
72
19
73
13
74
0
42
0.000000001
43
0.0000000001
44
0.0000000001
40
0.29857680213829491
40
0.29857680213829491
40
0.29857680213829491
40
0.29857680213829491
40
0.29857680213829491
40
0.29857680213829491
40
0.30000000000000004
40
0.40000000000000002
40
0.5
40
0.59999999999999998
40
0.69999999999999996
40
0.79999999999999993
40
0.89999999999999991
40
1
40
1
40
1
40
1
40
1
40
1
41
1
41
1
41
1
41
1
41
1
41
1
41
1
41
1
41
1
41
1
41
1
41
1
41
1
10
85.721988336332672
20
18.567464302399053
30
0
10
85.719668261613833
20
18.577663437998396
30
0
10
85.554416818566793
20
19.304578144655665
30
0
10
85.238557858462357
20
20.759598399591987
30
0
10
84.803416945944846
20
22.971675985809625
30
0
10
84.302156103883235
20
25.989944426282161
30
0
10
83.809182875058923
20
29.870829425421675
30
0
10
83.439809295115481
20
33.865947966860197
30
0
10
83.18356055429453
20
37.965618998636252
30
0
10
83.061087511230994
20
41.32162814068198
30
0
10
83.012616741851261
20
43.878731466098237
30
0
10
82.999267683159474
20
45.600994694503441
30
0
10
82.997334639216149
20
46.466508494887393
30
0
0
ELLIPSE
5
148
100
AcDbEntity
8
0
100
AcDbEllipse
10
104
20
125.74999999999997
30
0
11
-2.9076089487357732e-15
21
109.74999999999996
31
0.0
40
0.7744874715261959
41
2.883675724572333
42
2.9248645438286913
0
SPLINE
5
149
100
AcDbEntity
8
0
100
AcDbSpline
70
4
71
5
72
18
73
12
74
0
42
0.000000001
43
0.0000000001
44
0.0000000001
40
0.35592314221131394
40
0.35592314221131394
40
0.35592314221131394
40
0.35592314221131394
40
0.35592314221131394
40
0.35592314221131394
40
0.40000000000000002
40
0.5
40
0.59999999999999998
40
0.69999999999999996
40
0.79999999999999993
40
0.89999999999999991
40
1
40
1
40
1
40
1
40
1
40
1
41
1
41
1
41
1
41
1
41
1
41
1
41
1
41
1
41
1
41
1
41
1
41
1
10
82.319310383311404
20
19.630157057043778
30
0
10
82.189061603192144
20
20.036510294134828
30
0
10
81.769024237921798
20
21.380791400282135
30
0
10
81.089208709906586
20
23.747059088347019
30
0
10
80.207137699873797
20
27.296433466437652
30
0
10
79.202391071453178
20
32.251816458979505
30
0
10
78.230242457421738
20
38.276949040704842
30
0
10
77.40037500199432
20
44.700608870639712
30
0
10
76.838998800568348
20
50.126687347859324
30
0
10
76.471594746399717
20
54.346457646957454
30
0
10
76.250103547761853
20
57.225306460924486
30
0
10
76.145219400874637
20
58.681148702365782
30
0
0
SPLINE
5
150
100
AcDbEntity
8
0
100
AcDbSpline
70
4
71
5
72
18
73
12
74
0
42
0.000000001
43
0.0000000001
44
0.0000000001
40
0.34438619333442516
40
0.34438619333442516
40
0.34438619333442516
40
0.34438619333442516
40
0.34438619333442516
40
0.34438619333442516
40
0.40000000000000002
40
0.5
40
0.59999999999999998
40
0.69999999999999996
40
0.79999999999999993
40
0.89999999999999991
40
1
40
1
40
1
40
1
40
1
40
1
41
1
41
1
41
1
41
1
41
1
41
1
41
1
41
1
41
1
41
1
41
1
41
1
10
76.272164959624575
20
22.003611727176065
30
0
10
76.147013544127475
20
22.531896803018803
30
0
10
75.812162705294028
20
24.021815901118696
30
0
10
75.333336224415575
20
26.523578971694942
30
0
10
74.833689752409228
20
30.131271275518362
30
0
10
74.48939847379522
20
34.979482561845202
30
0
10
74.450902431485332
20
40.559247104664379
30
0
10
74.72070754623725
20
46.374539571212232
30
0
10
75.160500276084022
20
51.19786001795476
30
0
10
75.60789720550423
20
54.905154973702473
30
0
10
75.957547203833727
20
57.415941013407881
30
0
10
76.145219400874637
20
58.681148702365782
30
0
0
ELLIPSE
5
151
100
AcDbEntity
8
0
100
AcDbEllipse
10
104
20
125.74999999999997
30
0
11
-2.9076089487357732e-15
21
109.74999999999996
31
0.0
40
0.7744874715261959
41
2.7568582215645403
42
2.8093013733654213
0
SPLINE
5
152
100
AcDbEntity
8
0
100
AcDbSpline
70
4
71
5
72
17
73
11
74
0
42
0.000000001
43
0.0000000001
44
0.0000000001
40
0.45913722841089771
40
0.45913722841089771
40
0.45913722841089771
40
0.45913722841089771
40
0.45913722841089771
40
0.45913722841089771
40
0.5
40
0.59999999999999998
40
0.69999999999999996
40
0.79999999999999993
40
0.89999999999999991
40
1
40
1
40
1
40
1
40
1
40
1
41
1
41
1
41
1
41
1
41
1
41
1
41
1
41
1
41
1
41
1
41
1
10
72.0983953804392
20
24.022929522480887
30
0
10
72.035474419548407
20
24.320910646593109
30
0
10
71.824278224686665
20
25.356207155929912
30
0
10
71.49666647280236
20
27.173998559542998
30
0
10
71.112660710340577
20
29.859400095901432
30
0
10
70.752250663504284
20
33.525843441202781
30
0
10
70.507149486348411
20
37.916177048930578
30
0
10
70.429526849669955
20
41.596427059190887
30
0
10
70.433401556385846
20
44.444665422346283
30
0
10
70.463127382642256
20
46.381981448911986
30
0
10
70.484776377896836
20
47.360262656410214
30
0
0
SPLINE
5
153
100
AcDbEntity
8
0
100
AcDbSpline
70
4
71
5
72
17
73
11
74
0
42
0.000000001
43
0.0000000001
44
0.0000000001
40
0.4106643918552963
40
0.4106643918552963
40
0.4106643918552963
40
0.4106643918552963
40
0.4106643918552963
40
0.4106643918552963
40
0.5
40
0.59999999999999998
40
0.69999999999999996
40
0.79999999999999993
40
0.89999999999999991
40
1
40
1
40
1
40
1
40
1
40
1
41
1
41
1
41
1
41
1
41
1
41
1
41
1
41
1
41
1
41
1
41
1
10
68.493532302217247
20
26.033963819807838
30
0
10
68.445364458891518
20
26.601311031704881
30
0
10
68.362407289492012
20
27.817692273923058
30
0
10
68.297946026731239
20
29.721995218864862
30
0
10
68.338647723111606
20
32.377469659656825
30
0
10
68.590428392166132
20
35.861413320765777
30
0
10
69.038951275734789
20
39.560863003603394
30
0
10
69.536658537015953
20
42.62178419440491
30
0
10
69.982835312096796
20
44.970674978391294
30
0
10
70.312151502676159
20
46.559857315487001
30
0
10
70.484776377896836
20
47.360262656410214
30
0
0
ELLIPSE
5
154
100
AcDbEntity
8
0
100
AcDbEllipse
10
104
20
125.74999999999997
30
0
11
-2.9076089487357732e-15
21
109.74999999999996
31
0.0
40
0.7744874715261959
41
2.6398310084658672
42
2.7106547409806336
0
SPLINE
5
155
100
AcDbEntity
8
0
100
AcDbSpline
70
4
71
5
72
18
73
12
74
0
42
0.000000001
43
0.0000000001
44
0.0000000001
40
0.39795121599784072
40
0.39795121599784072
40
0.39795121599784072
40
0.39795121599784072
40
0.39795121599784072
40
0.39795121599784072
40
0.40000000000000002
40
0.5
40
0.59999999999999998
40
0.69999999999999996
40
0.79999999999999993
40
0.89999999999999991
40
1
40
1
40
1
40
1
40
1
40
1
41
1
41
1
41
1
41
1
41
1
41
1
41
1
41
1
41
1
41
1
41
1
41
1
10
63.117483451570777
20
29.528155634181918
30
0
10
63.114869433186954
20
29.545810241608486
30
0
10
62.98475753526921
20
30.425604864854229
30
0
10
62.736109453350444
20
32.209788622090961
30
0
10
62.390868451188112
20
35.001811082671765
30
0
10
61.982323144501379
20
38.958608470785229
30
0
10
61.550545679636784
20
44.239119198592363
30
0
10
61.186938439068335
20
49.841012398225303
30
0
10
60.945152409848397
20
54.554003433738501
30
0
10
60.789493012280111
20
58.209813377310525
30
0
10
60.696946866434125
20
60.699947691867393
30
0
10
60.653480601145944
20
61.9582472946161
30
0
0
SPLINE
5
156
100
AcDbEntity
8
0
100
AcDbSpline
70
4
71
5
72
17
73
11
74
0
42
0.000000001
43
0.0000000001
44
0.0000000001
40
0.42741075004760792
40
0.42741075004760792
40
0.42741075004760792
40
0.42741075004760792
40
0.42741075004760792
40
0.42741075004760792
40
0.5
40
0.59999999999999998
40
0.69999999999999996
40
0.79999999999999993
40
0.89999999999999991
40
1
40
1
40
1
40
1
40
1
40
1
41
1
41
1
41
1
41
1
41
1
41
1
41
1
41
1
41
1
41
1
41
1
10
57.662545075045045
20
33.742099459023152
30
0
10
57.660051483842054
20
34.408846534035227
30
0
10
57.666927349636182
20
36.002069680867464
30
0
10
57.726146975185763
20
38.548469255509644
30
0
10
57.911650758264898
20
42.093985152638936
30
0
10
58.318089902670977
20
46.697425093936715
30
0
10
58.925824653481726
20
51.678290339255398
30
0
10
59.541573950429338
20
55.743480364475737
30
0
10
60.071481129782363
20
58.834681103457044
30
0
10
60.454519340359738
20
60.913975974738946
30
0
10
60.653480601145944
20
61.9582472946161
30
0
0
ELLIPSE
5
157
100
AcDbEntity
8
0
100
AcDbEllipse
10
104
20
125.74999999999997
30
0
11
-2.9076089487357732e-15
21
109.74999999999996
31
0.0
40
0.7744874715261959
41
2.3488806695418134
42
2.5650287648151475
0
SPLINE
5
158
100
AcDbEntity
8
0
100
AcDbSpline
70
4
71
5
72
19
73
13
74
0
42
0.000000001
43
0.0000000001
44
0.0000000001
40
0.24286158716331022
40
0.24286158716331022
40
0.24286158716331022
40
0.24286158716331022
40
0.24286158716331022
40
0.24286158716331022
40
0.30000000000000004
40
0.40000000000000002
40
0.5
40
0.59999999999999998
40
0.69999999999999996
40
0.79999999999999993
40
0.89999999999999991
40
0.91597682238597034
40
0.91597682238597034
40
0.91597682238597034
40
0.91597682238597034
40
0.91597682238597034
40
0.91597682238597034
41
1
41
1
41
1
41
1
41
1
41
1
41
1
41
1
41
1
41
1
41
1
41
1
41
1
10
43.457944618699855
20
48.714690143313497
30
0
10
43.370163561211186
20
50.751520541792772
30
0
10
43.124900655556139
20
56.398871025140458
30
0
10
42.706001660854234
20
65.848718611731854
30
0
10
42.082946221463608
20
79.463767245253251
30
0
10
41.208859320339528
20
97.801079685270622
30
0
10
40.160860998283539
20
118.95052106833887
30
0
10
39.028171242804738
20
141.10643554901449
30
0
10
38.022199109921409
20
160.29526987618186
30
0
10
37.223506134285394
20
175.28179283662266
30
0
10
36.662229382106879
20
185.70785549897775
30
0
10
36.356479089178606
20
191.35823579915558
30
0
10
36.314276904680419
20
192.13760444859088
30
0
0
SPLINE
5
159
100
AcDbEntity
8
0
100
AcDbSpline
70
4
71
5
72
18
73
12
74
0
42
0.000000001
43
0.0000000001
44
0.0000000001
40
0.25141457741957107
40
0.25141457741957107
40
0.25141457741957107
40
0.25141457741957107
40
0.25141457741957107
40
0.25141457741957107
40
0.30000000000000004
40
0.40000000000000002
40
0.5
40
0.59999999999999998
40
0.69999999999999996
40
0.79999999999999993
40
0.87656305199653917
40
0.87656305199653917
40
0.87656305199653917
40
0.87656305199653917
40
0.87656305199653917
40
0.87656305199653917
41
1
41
1
41
1
41
1
41
1
41
1
41
1
41
1
41
1
41
1
41
1
41
1
10
35.903605812631348
20
75.095557631572575
30
0
10
35.792605959425252
20
76.721195022644949
30
0
10
35.462871629310897
20
81.708386019011741
30
0
10
34.961596985452445
20
90.132888696460682
30
0
10
34.38122688864734
20
102.14309947312081
30
0
10
33.867948780095631
20
117.9736846404527
30
0
10
33.598334360510037
20
136.10426552282911
30
0
10
33.611966199253672
20
153.81938751096203
30
0
10
33.806738585456493
20
168.11260852101697
30
0
10
34.040910977786531
20
178.75640061414913
30
0
10
34.22604579219967
20
185.60880002315596
30
0
10
34.31293080121543
20
188.59080918969326
30
0
0
SPLINE
5
160
100
AcDbEntity
8
0
100
AcDbSpline
70
4
71
5
72
17
73
11
74
0
42
0.000000001
43
0.0000000001
44
0.0000000001
40
0.40990130469472591
40
0.40990130469472591
40
0.40990130469472591
40
0.40990130469472591
40
0.40990130469472591
40
0.40990130469472591
40
0.5
40
0.59999999999999998
40
0.69999999999999996
40
0.79999999999999993
40
0.89999999999999991
40
0.90934204506777383
40
0.90934204506777383
40
0.90934204506777383
40
0.90934204506777383
40
0.90934204506777383
40
0.90934204506777383
41
1
41
1
41
1
41
1
41
1
41
1
41
1
41
1
41
1
41
1
41
1
10
35.903605812632058
20
75.095557631564787
30
0
10
35.376417238132632
20
78.040318912053522
30
0
10
34.312103581400137
20
84.383917854219632
30
0
10
32.841709451246388
20
94.482548242462499
30
0
10
31.169939683527783
20
108.89262052990601
30
0
10
29.539663615039981
20
128.274280517063
30
0
10
28.537513331548556
20
145.43944934624369
30
0
10
27.969297211923262
20
158.92529614996582
30
0
10
27.667127395447828
20
168.2754830978952
30
0
10
27.531387494709296
20
173.2192417979428
30
0
10
27.519951056540695
20
173.64206787703677
30
0
0
ELLIPSE
5
161
100
AcDbEntity
8
0
100
AcDbEllipse
10
104
20
125.74999999999997
30
0
11
-2.9076089487357732e-15
21
109.74999999999996
31
0.0
40
0.7744874715261959
41
0.96114528183858938
42
1.1192313332495478
0
SPLINE
5
162
100
AcDbEntity
8
0
100
AcDbSpline
70
4
71
5
72
18
73
12
74
0
42
0.000000001
43
0.0000000001
44
0.0000000001
40
0.26789186948424631
40
0.26789186948424631
40
0.26789186948424631
40
0.26789186948424631
40
0.26789186948424631
40
0.26789186948424631
40
0.30000000000000004
40
0.40000000000000002
40
0.5
40
0.59999999999999998
40
0.69999999999999996
40
0.79999999999999993
40
0.85450768947655187
40
0.85450768947655187
40
0.85450768947655187
40
0.85450768947655187
40
0.85450768947655187
40
0.85450768947655187
41
1
41
1
41
1
41
1
41
1
41
1
41
1
41
1
41
1
41
1
41
1
41
1
10
32.812765587111677
20
65.777978022058562
30
0
10
32.580120028423678
20
66.784285226444354
30
0
10
31.638987472993428
20
70.935571402881862
30
0
10
30.102633014641739
20
78.308318983927222
30
0
10
28.208456265298281
20
89.062832430520587
30
0
10
26.339531681790088
20
103.45778337149329
30
0
10
25.016957411089042
20
120.68164266589315
30
0
10
24.531128405338197
20
136.8221535364662
30
0
10
24.604782676063877
20
149.71707043876933
30
0
10
24.873329877811429
20
159.12020316921991
30
0
10
25.112902841527696
20
164.88038507019556
30
0
10
25.206835233311537
20
166.91883701643513
30
0
0
ELLIPSE
5
163
100
AcDbEntity
8
0
100
AcDbEllipse
10
104
20
125.74999999999997
30
0
11
-2.9076089487357732e-15
21
109.74999999999996
31
0.0
40
0.7744874715261959
41
1.1862758329060217
42
2.1489064093830912
0
CIRCLE
5
164
100
AcDbEntity
8
0
100
AcDbCircle
10
196.06250000000011
20
129.875
30
0
40
3.0000000000000071
210
0
220
0
230
1
0
CIRCLE
5
165
100
AcDbEntity
8
0
100
AcDbCircle
10
196.06250000000003
20
190.25000000000003
30
0
40
3.0000000000000071
210
0
220
0
230
1
0
CIRCLE
5
166
100
AcDbEntity
8
0
100
AcDbCircle
10
196.06250000000003
20
72.625000000000014
30
0
40
3.0000000000000071
210
0
220
0
230
1
0
CIRCLE
5
167
100
AcDbEntity
8
0
100
AcDbCircle
10
196.06250000000003
20
206.12500000000006
30
0
40
3.0000000000000071
210
0
220
0
230
1
0
CIRCLE
5
168
100
AcDbEntity
8
0
100
AcDbCircle
10
196.06250000000003
20
117.12500000000003
30
0
40
3.0000000000000071
210
0
220
0
230
1
0
CIRCLE
5
169
100
AcDbEntity
8
0
100
AcDbCircle
10
11.9375
20
40.875000000000021
30
0
40
3.0000000000000004
210
0
220
0
230
1
0
CIRCLE
5
170
100
AcDbEntity
8
0
100
AcDbCircle
10
196.06250000000003
20
56.750000000000007
30
0
40
3.0000000000000071
210
0
220
0
230
1
0
CIRCLE
5
171
100
AcDbEntity
8
0
100
AcDbCircle
10
196.06250000000011
20
218.87500000000003
30
0
40
3.0000000000000071
210
0
220
0
230
1
0
CIRCLE
5
172
100
AcDbEntity
8
0
100
AcDbCircle
10
196.06250000000003
20
161.625
30
0
40
3.0000000000000071
210
0
220
0
230
1
0
CIRCLE
5
173
100
AcDbEntity
8
0
100
AcDbCircle
10
196.06250000000003
20
40.875000000000021
30
0
40
3.0000000000000071
210
0
220
0
230
1
0
CIRCLE
5
174
100
AcDbEntity
8
0
100
AcDbCircle
10
196.06250000000003
20
85.375000000000014
30
0
40
3.0000000000000071
210
0
220
0
230
1
0
CIRCLE
5
175
100
AcDbEntity
8
0
100
AcDbCircle
10
196.06250000000003
20
10
30
0
40
3.0000000000000071
210
0
220
0
230
1
0
CIRCLE
5
176
100
AcDbEntity
8
0
100
AcDbCircle
10
196.06250000000003
20
101.25
30
0
40
3.0000000000000071
210
0
220
0
230
1
0
CIRCLE
5
177
100
AcDbEntity
8
0
100
AcDbCircle
10
196.06250000000003
20
174.375
30
0
40
3.0000000000000071
210
0
220
0
230
1
0
CIRCLE
5
178
100
AcDbEntity
8
0
100
AcDbCircle
10
196.06250000000003
20
145.75
30
0
40
3.0000000000000071
210
0
220
0
230
1
0
CIRCLE
5
179
100
AcDbEntity
8
0
100
AcDbCircle
10
196.06250000000003
20
241.49999999999994
30
0
40
3.0000000000000071
210
0
220
0
230
1
0
CIRCLE
5
180
100
AcDbEntity
8
0
100
AcDbCircle
10
11.937499999999998
20
72.625000000000014
30
0
40
3.0000000000000004
210
0
220
0
230
1
0
CIRCLE
5
181
100
AcDbEntity
8
0
100
AcDbCircle
10
11.937499999999904
20
218.87500000000003
30
0
40
3.0000000000000004
210
0
220
0
230
1
0
CIRCLE
5
182
100
AcDbEntity
8
0
100
AcDbCircle
10
11.937499999999986
20
206.12500000000006
30
0
40
3.0000000000000004
210
0
220
0
230
1
0
CIRCLE
5
183
100
AcDbEntity
8
0
100
AcDbCircle
10
11.937499999999998
20
161.625
30
0
40
3.0000000000000004
210
0
220
0
230
1
0
CIRCLE
5
184
100
AcDbEntity
8
0
100
AcDbCircle
10
11.937499999999986
20
85.375000000000014
30
0
40
3.0000000000000004
210
0
220
0
230
1
0
CIRCLE
5
185
100
AcDbEntity
8
0
100
AcDbCircle
10
11.937500000000005
20
241.49999999999994
30
0
40
3.0000000000000004
210
0
220
0
230
1
0
CIRCLE
5
186
100
AcDbEntity
8
0
100
AcDbCircle
10
11.937499999999986
20
174.375
30
0
40
3.0000000000000004
210
0
220
0
230
1
0
CIRCLE
5
187
100
AcDbEntity
8
0
100
AcDbCircle
10
11.9375
20
10
30
0
40
3.0000000000000004
210
0
220
0
230
1
0
CIRCLE
5
188
100
AcDbEntity
8
0
100
AcDbCircle
10
11.937499999999998
20
56.750000000000007
30
0
40
3.0000000000000004
210
0
220
0
230
1
0
CIRCLE
5
189
100
AcDbEntity
8
0
100
AcDbCircle
10
11.937499999999998
20
145.75
30
0
40
3.0000000000000004
210
0
220
0
230
1
0
CIRCLE
5
190
100
AcDbEntity
8
0
100
AcDbCircle
10
11.937499999999986
20
117.12500000000003
30
0
40
3.0000000000000004
210
0
220
0
230
1
0
CIRCLE
5
191
100
AcDbEntity
8
0
100
AcDbCircle
10
11.937499999999986
20
101.25
30
0
40
3.0000000000000004
210
0
220
0
230
1
0
CIRCLE
5
192
100
AcDbEntity
8
0
100
AcDbCircle
10
11.937499999999904
20
129.875
30
0
40
3.0000000000000004
210
0
220
0
230
1
0
CIRCLE
5
193
100
AcDbEntity
8
0
100
AcDbCircle
10
11.937499999999986
20
190.25000000000003
30
0
40
3.0000000000000004
210
0
220
0
230
1
0
LWPOLYLINE
5
194
100
AcDbEntity
8
0
100
AcDbPolyline
90
4
70
1
43
0.0
10
4.0000000000000213
20
-3.9999999999999858
10
204
20
-3.9999999999999858
10
204
20
255.49999999999994
10
4.0000000000000213
20
255.49999999999994
0
ENDSEC
0
SECTION
2
OBJECTS
0
DICTIONARY
5
C
100
AcDbDictionary
3
ACAD_GROUP
350
D
3
ACAD_MLINESTYLE
350
17
0
DICTIONARY
5
D
100
AcDbDictionary
0
DICTIONARY
5
1A
330
C
100
AcDbDictionary
0
DICTIONARY
5
17
100
AcDbDictionary
0
ENDSEC
0
EOF
